<svg width="286" height="338" viewBox="0 0 286 338" fill="none" xmlns="http://www.w3.org/2000/svg">
<g filter="url(#filter0_d_2403_12)">
<path d="M12.0885 271.46C11.8965 271.58 11.6805 271.688 11.4405 271.784C11.2005 271.88 10.9405 271.956 10.6605 272.012C10.3885 272.068 10.1005 272.096 9.79655 272.096C9.14855 272.096 8.56055 271.984 8.03255 271.76C7.51255 271.536 7.06455 271.228 6.68855 270.836C6.31255 270.436 6.02055 269.98 5.81255 269.468C5.61255 268.948 5.51255 268.4 5.51255 267.824C5.51255 267.208 5.62055 266.636 5.83655 266.108C6.06055 265.572 6.36855 265.104 6.76055 264.704C7.15255 264.304 7.60855 263.992 8.12855 263.768C8.64855 263.544 9.20855 263.432 9.80855 263.432C10.2325 263.432 10.6325 263.492 11.0085 263.612C11.3925 263.724 11.7485 263.876 12.0765 264.068L11.8965 264.428C11.6005 264.252 11.2765 264.108 10.9245 263.996C10.5725 263.884 10.2005 263.828 9.80855 263.828C9.28055 263.828 8.78055 263.932 8.30855 264.14C7.83655 264.34 7.42455 264.624 7.07255 264.992C6.72055 265.352 6.44055 265.776 6.23255 266.264C6.03255 266.744 5.93255 267.26 5.93255 267.812C5.93255 268.34 6.02055 268.84 6.19655 269.312C6.38055 269.784 6.64055 270.2 6.97655 270.56C7.32055 270.912 7.72855 271.192 8.20055 271.4C8.67255 271.6 9.20455 271.7 9.79655 271.7C10.1965 271.7 10.5725 271.644 10.9245 271.532C11.2765 271.42 11.5965 271.276 11.8845 271.1L12.0885 271.46ZM15.2497 262.928H15.6457V272H15.2497V262.928ZM20.9955 272.084C20.5315 272.084 20.1155 271.98 19.7475 271.772C19.3875 271.556 19.0995 271.268 18.8835 270.908C18.6755 270.54 18.5715 270.132 18.5715 269.684C18.5715 269.236 18.6795 268.828 18.8955 268.46C19.1115 268.092 19.4035 267.8 19.7715 267.584C20.1395 267.368 20.5475 267.26 20.9955 267.26C21.5315 267.26 21.9795 267.416 22.3395 267.728C22.7075 268.032 22.9755 268.424 23.1435 268.904L19.0395 270.536L18.9195 270.236L22.7955 268.7L22.6995 268.844C22.5475 268.508 22.3235 268.216 22.0275 267.968C21.7395 267.72 21.3875 267.596 20.9715 267.596C20.5955 267.596 20.2555 267.688 19.9515 267.872C19.6475 268.056 19.4035 268.308 19.2195 268.628C19.0435 268.94 18.9555 269.288 18.9555 269.672C18.9555 270.032 19.0395 270.372 19.2075 270.692C19.3835 271.004 19.6235 271.256 19.9275 271.448C20.2315 271.64 20.5875 271.736 20.9955 271.736C21.2675 271.736 21.5235 271.688 21.7635 271.592C22.0115 271.488 22.2275 271.356 22.4115 271.196L22.6395 271.472C22.4155 271.656 22.1595 271.804 21.8715 271.916C21.5915 272.028 21.2995 272.084 20.9955 272.084ZM27.8543 272.084C27.4143 272.084 27.0143 271.98 26.6543 271.772C26.3023 271.564 26.0183 271.284 25.8023 270.932C25.5943 270.572 25.4903 270.16 25.4903 269.696C25.4903 269.184 25.5983 268.748 25.8143 268.388C26.0383 268.02 26.3343 267.744 26.7023 267.56C27.0703 267.368 27.4863 267.272 27.9503 267.272C28.3903 267.272 28.7983 267.4 29.1743 267.656C29.5583 267.912 29.8383 268.24 30.0143 268.64L29.9543 268.808L30.0263 267.392H30.3623V272H29.9663V270.5L30.0383 270.692C29.9743 270.876 29.8703 271.052 29.7263 271.22C29.5903 271.38 29.4223 271.528 29.2223 271.664C29.0303 271.792 28.8183 271.896 28.5863 271.976C28.3543 272.048 28.1103 272.084 27.8543 272.084ZM27.9263 271.748C28.2943 271.748 28.6303 271.668 28.9343 271.508C29.2383 271.34 29.4823 271.116 29.6663 270.836C29.8503 270.548 29.9503 270.216 29.9663 269.84V269.264C29.9023 268.952 29.7703 268.672 29.5703 268.424C29.3783 268.176 29.1383 267.98 28.8503 267.836C28.5623 267.684 28.2503 267.608 27.9143 267.608C27.5463 267.608 27.2063 267.692 26.8943 267.86C26.5823 268.028 26.3343 268.268 26.1503 268.58C25.9743 268.892 25.8863 269.256 25.8863 269.672C25.8863 270.056 25.9783 270.404 26.1623 270.716C26.3463 271.028 26.5903 271.28 26.8943 271.472C27.2063 271.656 27.5503 271.748 27.9263 271.748ZM34.08 267.392L34.14 268.856L34.08 268.628C34.216 268.212 34.472 267.884 34.848 267.644C35.224 267.404 35.64 267.284 36.096 267.284C36.528 267.284 36.876 267.412 37.14 267.668C37.404 267.924 37.54 268.252 37.548 268.652V272H37.14V268.748C37.132 268.428 37.028 268.164 36.828 267.956C36.636 267.748 36.36 267.636 36 267.62C35.672 267.62 35.368 267.696 35.088 267.848C34.808 268 34.58 268.212 34.404 268.484C34.236 268.748 34.152 269.06 34.152 269.42V272H33.756V267.392H34.08ZM41.4842 270.968C41.3082 271.384 41.1362 271.796 40.9682 272.204C40.8002 272.612 40.6282 273.024 40.4522 273.44H40.1162C40.2682 273.024 40.4202 272.612 40.5722 272.204C40.7242 271.796 40.8802 271.384 41.0402 270.968H41.4842ZM49.5854 263.528H54.2414V263.924H49.9934V267.668H53.7734V268.052H49.9934V272H49.5854V263.528ZM57.1378 267.392L57.1858 268.82L57.1378 268.664C57.2338 268.376 57.3898 268.132 57.6058 267.932C57.8218 267.724 58.0658 267.564 58.3378 267.452C58.6098 267.34 58.8858 267.284 59.1658 267.284L59.1418 267.656C58.7898 267.664 58.4658 267.748 58.1698 267.908C57.8738 268.06 57.6378 268.272 57.4618 268.544C57.2938 268.808 57.2098 269.108 57.2098 269.444V272H56.8138V267.392H57.1378ZM63.7549 272.084C63.2909 272.084 62.8749 271.98 62.5069 271.772C62.1469 271.556 61.8589 271.268 61.6429 270.908C61.4349 270.54 61.3309 270.132 61.3309 269.684C61.3309 269.236 61.4389 268.828 61.6549 268.46C61.8709 268.092 62.1629 267.8 62.5309 267.584C62.8989 267.368 63.3069 267.26 63.7549 267.26C64.2909 267.26 64.7389 267.416 65.0989 267.728C65.4669 268.032 65.7349 268.424 65.9029 268.904L61.7989 270.536L61.6789 270.236L65.5549 268.7L65.4589 268.844C65.3069 268.508 65.0829 268.216 64.7869 267.968C64.4989 267.72 64.1469 267.596 63.7309 267.596C63.3549 267.596 63.0149 267.688 62.7109 267.872C62.4069 268.056 62.1629 268.308 61.9789 268.628C61.8029 268.94 61.7149 269.288 61.7149 269.672C61.7149 270.032 61.7989 270.372 61.9669 270.692C62.1429 271.004 62.3829 271.256 62.6869 271.448C62.9909 271.64 63.3469 271.736 63.7549 271.736C64.0269 271.736 64.2829 271.688 64.5229 271.592C64.7709 271.488 64.9869 271.356 65.1709 271.196L65.3989 271.472C65.1749 271.656 64.9189 271.804 64.6309 271.916C64.3509 272.028 64.0589 272.084 63.7549 272.084ZM69.7257 272.096C69.4777 272.096 69.2137 272.052 68.9337 271.964C68.6537 271.868 68.4217 271.712 68.2377 271.496L68.4417 271.232C68.5777 271.392 68.7577 271.524 68.9817 271.628C69.2057 271.724 69.4457 271.772 69.7017 271.772C69.8937 271.772 70.0737 271.744 70.2417 271.688C70.4177 271.624 70.5617 271.524 70.6737 271.388C70.7857 271.244 70.8417 271.052 70.8417 270.812C70.8417 270.58 70.7777 270.4 70.6497 270.272C70.5297 270.136 70.3697 270.032 70.1697 269.96C69.9777 269.88 69.7777 269.804 69.5697 269.732C69.2497 269.628 68.9777 269.488 68.7537 269.312C68.5377 269.136 68.4297 268.872 68.4297 268.52C68.4297 268.264 68.4897 268.048 68.6097 267.872C68.7297 267.688 68.8897 267.548 69.0897 267.452C69.2897 267.356 69.5097 267.308 69.7497 267.308C69.9657 267.308 70.1937 267.348 70.4337 267.428C70.6737 267.508 70.8857 267.644 71.0697 267.836L70.8777 268.1C70.7497 267.932 70.5777 267.816 70.3617 267.752C70.1457 267.68 69.9577 267.64 69.7977 267.632C69.6617 267.632 69.5177 267.664 69.3657 267.728C69.2137 267.784 69.0817 267.876 68.9697 268.004C68.8657 268.124 68.8137 268.28 68.8137 268.472C68.8137 268.664 68.8617 268.82 68.9577 268.94C69.0617 269.06 69.1937 269.156 69.3537 269.228C69.5137 269.3 69.6817 269.368 69.8577 269.432C70.0817 269.512 70.2977 269.6 70.5057 269.696C70.7217 269.784 70.8977 269.908 71.0337 270.068C71.1697 270.228 71.2377 270.444 71.2377 270.716C71.2377 270.988 71.1777 271.228 71.0577 271.436C70.9457 271.644 70.7777 271.808 70.5537 271.928C70.3377 272.04 70.0617 272.096 69.7257 272.096ZM74.195 272V262.928H74.579V268.652L74.555 268.472C74.707 268.136 74.959 267.856 75.311 267.632C75.671 267.4 76.079 267.284 76.535 267.284C76.967 267.284 77.315 267.412 77.579 267.668C77.843 267.924 77.979 268.252 77.987 268.652V272H77.579V268.748C77.571 268.428 77.467 268.164 77.267 267.956C77.075 267.748 76.799 267.636 76.439 267.62C76.111 267.62 75.807 267.7 75.527 267.86C75.247 268.02 75.019 268.236 74.843 268.508C74.675 268.78 74.591 269.084 74.591 269.42V272H74.195ZM93.5238 272.18L86.8038 264.32L86.9118 264.2L86.9238 272H86.5158V263.372H86.5398L93.2958 271.304L93.1518 271.328V263.528H93.5358V272.18H93.5238ZM96.7684 269.672C96.7684 269.232 96.8764 268.828 97.0924 268.46C97.3084 268.092 97.6004 267.8 97.9684 267.584C98.3364 267.368 98.7444 267.26 99.1924 267.26C99.6564 267.26 100.072 267.368 100.44 267.584C100.808 267.8 101.096 268.092 101.304 268.46C101.52 268.828 101.628 269.232 101.628 269.672C101.628 270.12 101.52 270.528 101.304 270.896C101.096 271.264 100.804 271.556 100.428 271.772C100.06 271.98 99.6484 272.084 99.1924 272.084C98.7364 272.084 98.3244 271.98 97.9564 271.772C97.5964 271.564 97.3084 271.28 97.0924 270.92C96.8764 270.56 96.7684 270.144 96.7684 269.672ZM97.1644 269.684C97.1644 270.068 97.2524 270.416 97.4284 270.728C97.6124 271.032 97.8564 271.28 98.1604 271.472C98.4724 271.656 98.8164 271.748 99.1924 271.748C99.5684 271.748 99.9084 271.656 100.212 271.472C100.524 271.288 100.768 271.04 100.944 270.728C101.128 270.416 101.22 270.068 101.22 269.684C101.22 269.3 101.128 268.952 100.944 268.64C100.768 268.328 100.524 268.08 100.212 267.896C99.9084 267.704 99.5684 267.608 99.1924 267.608C98.8004 267.608 98.4524 267.708 98.1484 267.908C97.8444 268.1 97.6044 268.356 97.4284 268.676C97.2524 268.996 97.1644 269.332 97.1644 269.684ZM105.033 265.364H105.429V267.464H106.917V267.788H105.429V272H105.033V267.788H104.001V267.464H105.033V265.364ZM111.495 272.084C111.031 272.084 110.615 271.98 110.247 271.772C109.887 271.556 109.599 271.268 109.383 270.908C109.175 270.54 109.071 270.132 109.071 269.684C109.071 269.236 109.179 268.828 109.395 268.46C109.611 268.092 109.903 267.8 110.271 267.584C110.639 267.368 111.047 267.26 111.495 267.26C112.031 267.26 112.479 267.416 112.839 267.728C113.207 268.032 113.475 268.424 113.643 268.904L109.539 270.536L109.419 270.236L113.295 268.7L113.199 268.844C113.047 268.508 112.823 268.216 112.527 267.968C112.239 267.72 111.887 267.596 111.471 267.596C111.095 267.596 110.755 267.688 110.451 267.872C110.147 268.056 109.903 268.308 109.719 268.628C109.543 268.94 109.455 269.288 109.455 269.672C109.455 270.032 109.539 270.372 109.707 270.692C109.883 271.004 110.123 271.256 110.427 271.448C110.731 271.64 111.087 271.736 111.495 271.736C111.767 271.736 112.023 271.688 112.263 271.592C112.511 271.488 112.727 271.356 112.911 271.196L113.139 271.472C112.915 271.656 112.659 271.804 112.371 271.916C112.091 272.028 111.799 272.084 111.495 272.084ZM117.466 272.096C117.218 272.096 116.954 272.052 116.674 271.964C116.394 271.868 116.162 271.712 115.978 271.496L116.182 271.232C116.318 271.392 116.498 271.524 116.722 271.628C116.946 271.724 117.186 271.772 117.442 271.772C117.634 271.772 117.814 271.744 117.982 271.688C118.158 271.624 118.302 271.524 118.414 271.388C118.526 271.244 118.582 271.052 118.582 270.812C118.582 270.58 118.518 270.4 118.39 270.272C118.27 270.136 118.11 270.032 117.91 269.96C117.718 269.88 117.518 269.804 117.31 269.732C116.99 269.628 116.718 269.488 116.494 269.312C116.278 269.136 116.17 268.872 116.17 268.52C116.17 268.264 116.23 268.048 116.35 267.872C116.47 267.688 116.63 267.548 116.83 267.452C117.03 267.356 117.25 267.308 117.49 267.308C117.706 267.308 117.934 267.348 118.174 267.428C118.414 267.508 118.626 267.644 118.81 267.836L118.618 268.1C118.49 267.932 118.318 267.816 118.102 267.752C117.886 267.68 117.698 267.64 117.538 267.632C117.402 267.632 117.258 267.664 117.106 267.728C116.954 267.784 116.822 267.876 116.71 268.004C116.606 268.124 116.554 268.28 116.554 268.472C116.554 268.664 116.602 268.82 116.698 268.94C116.802 269.06 116.934 269.156 117.094 269.228C117.254 269.3 117.422 269.368 117.598 269.432C117.822 269.512 118.038 269.6 118.246 269.696C118.462 269.784 118.638 269.908 118.774 270.068C118.91 270.228 118.978 270.444 118.978 270.716C118.978 270.988 118.918 271.228 118.798 271.436C118.686 271.644 118.518 271.808 118.294 271.928C118.078 272.04 117.802 272.096 117.466 272.096ZM122.475 270.968C122.299 271.384 122.127 271.796 121.959 272.204C121.791 272.612 121.619 273.024 121.443 273.44H121.107C121.259 273.024 121.411 272.612 121.563 272.204C121.715 271.796 121.871 271.384 122.031 270.968H122.475ZM24.7306 276.552H25.1866L28.1506 284.58L28.0426 284.544L29.8426 279.648L30.0346 280.164L28.0666 285.384L24.7306 276.552ZM28.5706 276.552H28.9906L32.0266 284.604L31.8706 284.556L34.9186 276.552H35.3506L31.9306 285.384L28.5706 276.552ZM37.8833 280.392H38.2793V285H37.8833V280.392ZM37.7513 278.808C37.7513 278.72 37.7833 278.644 37.8473 278.58C37.9193 278.516 37.9993 278.484 38.0873 278.484C38.1833 278.484 38.2633 278.516 38.3273 278.58C38.3913 278.644 38.4233 278.724 38.4233 278.82C38.4233 278.916 38.3913 278.996 38.3273 279.06C38.2633 279.124 38.1833 279.156 38.0873 279.156C37.9993 279.156 37.9193 279.124 37.8473 279.06C37.7833 278.988 37.7513 278.904 37.7513 278.808ZM42.1411 278.364H42.5371V280.464H44.0251V280.788H42.5371V285H42.1411V280.788H41.1091V280.464H42.1411V278.364ZM46.6466 285V275.928H47.0306V281.652L47.0066 281.472C47.1586 281.136 47.4106 280.856 47.7626 280.632C48.1226 280.4 48.5306 280.284 48.9866 280.284C49.4186 280.284 49.7666 280.412 50.0306 280.668C50.2946 280.924 50.4306 281.252 50.4386 281.652V285H50.0306V281.748C50.0226 281.428 49.9186 281.164 49.7186 280.956C49.5266 280.748 49.2506 280.636 48.8906 280.62C48.5626 280.62 48.2586 280.7 47.9786 280.86C47.6986 281.02 47.4706 281.236 47.2946 281.508C47.1266 281.78 47.0426 282.084 47.0426 282.42V285H46.6466ZM58.9674 276.528H64.1034V276.924H59.3754V280.536H63.6354V280.92H59.3754V284.604H64.2714V285H58.9674V276.528ZM67.4966 275.928H67.8926V285H67.4966V275.928ZM73.2424 285.084C72.7784 285.084 72.3624 284.98 71.9944 284.772C71.6344 284.556 71.3464 284.268 71.1304 283.908C70.9224 283.54 70.8184 283.132 70.8184 282.684C70.8184 282.236 70.9264 281.828 71.1424 281.46C71.3584 281.092 71.6504 280.8 72.0184 280.584C72.3864 280.368 72.7944 280.26 73.2424 280.26C73.7784 280.26 74.2264 280.416 74.5864 280.728C74.9544 281.032 75.2224 281.424 75.3904 281.904L71.2864 283.536L71.1664 283.236L75.0424 281.7L74.9464 281.844C74.7944 281.508 74.5704 281.216 74.2744 280.968C73.9864 280.72 73.6344 280.596 73.2184 280.596C72.8424 280.596 72.5024 280.688 72.1984 280.872C71.8944 281.056 71.6504 281.308 71.4664 281.628C71.2904 281.94 71.2024 282.288 71.2024 282.672C71.2024 283.032 71.2864 283.372 71.4544 283.692C71.6304 284.004 71.8704 284.256 72.1744 284.448C72.4784 284.64 72.8344 284.736 73.2424 284.736C73.5144 284.736 73.7704 284.688 74.0104 284.592C74.2584 284.488 74.4744 284.356 74.6584 284.196L74.8864 284.472C74.6624 284.656 74.4064 284.804 74.1184 284.916C73.8384 285.028 73.5464 285.084 73.2424 285.084ZM80.1852 287.232C79.9532 287.232 79.7252 287.204 79.5012 287.148C79.2772 287.1 79.0492 287.004 78.8172 286.86C78.5852 286.724 78.3412 286.532 78.0852 286.284L78.3132 286.02C78.6812 286.38 79.0172 286.612 79.3212 286.716C79.6252 286.828 79.9092 286.884 80.1732 286.884C80.6932 286.884 81.1012 286.8 81.3972 286.632C81.6932 286.472 81.9052 286.256 82.0332 285.984C82.1612 285.712 82.2292 285.408 82.2372 285.072L82.2492 283.488L82.3452 283.596C82.1852 284.036 81.8972 284.396 81.4812 284.676C81.0732 284.948 80.6132 285.084 80.1012 285.084C79.6612 285.084 79.2612 284.98 78.9012 284.772C78.5492 284.556 78.2652 284.268 78.0492 283.908C77.8412 283.54 77.7372 283.132 77.7372 282.684C77.7372 282.204 77.8452 281.784 78.0612 281.424C78.2852 281.064 78.5812 280.784 78.9492 280.584C79.3172 280.376 79.7252 280.272 80.1732 280.272C80.6292 280.272 81.0492 280.396 81.4332 280.644C81.8252 280.884 82.1092 281.2 82.2852 281.592L82.2372 281.796L82.3092 280.392H82.6452V285.084C82.6452 285.452 82.5652 285.8 82.4052 286.128C82.2532 286.456 81.9972 286.72 81.6372 286.92C81.2852 287.128 80.8012 287.232 80.1852 287.232ZM78.1332 282.672C78.1332 283.056 78.2212 283.404 78.3972 283.716C78.5812 284.028 78.8292 284.28 79.1412 284.472C79.4532 284.656 79.8012 284.748 80.1852 284.748C80.5532 284.748 80.8892 284.664 81.1932 284.496C81.5052 284.32 81.7532 284.092 81.9372 283.812C82.1292 283.524 82.2332 283.212 82.2492 282.876V282.276C82.1852 281.956 82.0532 281.672 81.8532 281.424C81.6612 281.168 81.4212 280.968 81.1332 280.824C80.8452 280.68 80.5292 280.608 80.1852 280.608C79.8012 280.608 79.4532 280.696 79.1412 280.872C78.8292 281.04 78.5812 281.28 78.3972 281.592C78.2212 281.904 78.1332 282.264 78.1332 282.672ZM87.934 285.084C87.494 285.084 87.094 284.98 86.734 284.772C86.382 284.564 86.098 284.284 85.882 283.932C85.674 283.572 85.57 283.16 85.57 282.696C85.57 282.184 85.678 281.748 85.894 281.388C86.118 281.02 86.414 280.744 86.782 280.56C87.15 280.368 87.566 280.272 88.03 280.272C88.47 280.272 88.878 280.4 89.254 280.656C89.638 280.912 89.918 281.24 90.094 281.64L90.034 281.808L90.106 280.392H90.442V285H90.046V283.5L90.118 283.692C90.054 283.876 89.95 284.052 89.806 284.22C89.67 284.38 89.502 284.528 89.302 284.664C89.11 284.792 88.898 284.896 88.666 284.976C88.434 285.048 88.19 285.084 87.934 285.084ZM88.006 284.748C88.374 284.748 88.71 284.668 89.014 284.508C89.318 284.34 89.562 284.116 89.746 283.836C89.93 283.548 90.03 283.216 90.046 282.84V282.264C89.982 281.952 89.85 281.672 89.65 281.424C89.458 281.176 89.218 280.98 88.93 280.836C88.642 280.684 88.33 280.608 87.994 280.608C87.626 280.608 87.286 280.692 86.974 280.86C86.662 281.028 86.414 281.268 86.23 281.58C86.054 281.892 85.966 282.256 85.966 282.672C85.966 283.056 86.058 283.404 86.242 283.716C86.426 284.028 86.67 284.28 86.974 284.472C87.286 284.656 87.63 284.748 88.006 284.748ZM94.1596 280.392L94.2196 281.856L94.1596 281.628C94.2956 281.212 94.5516 280.884 94.9276 280.644C95.3036 280.404 95.7196 280.284 96.1756 280.284C96.6076 280.284 96.9556 280.412 97.2196 280.668C97.4836 280.924 97.6196 281.252 97.6276 281.652V285H97.2196V281.748C97.2116 281.428 97.1076 281.164 96.9076 280.956C96.7156 280.748 96.4396 280.636 96.0796 280.62C95.7516 280.62 95.4476 280.696 95.1676 280.848C94.8876 281 94.6596 281.212 94.4836 281.484C94.3156 281.748 94.2316 282.06 94.2316 282.42V285H93.8356V280.392H94.1596ZM101.492 278.364H101.888V280.464H103.376V280.788H101.888V285H101.492V280.788H100.46V280.464H101.492V278.364ZM29.8641 298.18L23.1441 290.32L23.2521 290.2L23.2641 298H22.8561V289.372H22.8801L29.6361 297.304L29.4921 297.328V289.528H29.8761V298.18H29.8641ZM35.5327 298.084C35.0687 298.084 34.6527 297.98 34.2847 297.772C33.9247 297.556 33.6367 297.268 33.4207 296.908C33.2127 296.54 33.1087 296.132 33.1087 295.684C33.1087 295.236 33.2167 294.828 33.4327 294.46C33.6487 294.092 33.9407 293.8 34.3087 293.584C34.6767 293.368 35.0847 293.26 35.5327 293.26C36.0687 293.26 36.5167 293.416 36.8767 293.728C37.2447 294.032 37.5127 294.424 37.6807 294.904L33.5767 296.536L33.4567 296.236L37.3327 294.7L37.2367 294.844C37.0847 294.508 36.8607 294.216 36.5647 293.968C36.2767 293.72 35.9247 293.596 35.5087 293.596C35.1327 293.596 34.7927 293.688 34.4887 293.872C34.1847 294.056 33.9407 294.308 33.7567 294.628C33.5807 294.94 33.4927 295.288 33.4927 295.672C33.4927 296.032 33.5767 296.372 33.7447 296.692C33.9207 297.004 34.1607 297.256 34.4647 297.448C34.7687 297.64 35.1247 297.736 35.5327 297.736C35.8047 297.736 36.0607 297.688 36.3007 297.592C36.5487 297.488 36.7647 297.356 36.9487 297.196L37.1767 297.472C36.9527 297.656 36.6967 297.804 36.4087 297.916C36.1287 298.028 35.8367 298.084 35.5327 298.084ZM41.9234 298.108C41.4994 298.108 41.1594 297.98 40.9034 297.724C40.6474 297.468 40.5114 297.14 40.4954 296.74V293.392H40.8914V296.632C40.8994 296.952 40.9994 297.216 41.1914 297.424C41.3834 297.632 41.6674 297.744 42.0434 297.76C42.3554 297.76 42.6514 297.684 42.9314 297.532C43.2114 297.372 43.4354 297.156 43.6034 296.884C43.7794 296.604 43.8674 296.292 43.8674 295.948V293.392H44.2634V298H43.9154L43.8794 296.572L43.9274 296.776C43.8554 297.024 43.7154 297.252 43.5074 297.46C43.3074 297.66 43.0674 297.82 42.7874 297.94C42.5154 298.052 42.2274 298.108 41.9234 298.108ZM48.14 291.364H48.536V293.464H50.024V293.788H48.536V298H48.14V293.788H47.108V293.464H48.14V291.364ZM52.9694 293.392L53.0174 294.82L52.9694 294.664C53.0654 294.376 53.2214 294.132 53.4374 293.932C53.6534 293.724 53.8974 293.564 54.1694 293.452C54.4414 293.34 54.7174 293.284 54.9974 293.284L54.9734 293.656C54.6214 293.664 54.2974 293.748 54.0014 293.908C53.7054 294.06 53.4694 294.272 53.2934 294.544C53.1254 294.808 53.0414 295.108 53.0414 295.444V298H52.6454V293.392H52.9694ZM59.5969 298.084C59.1569 298.084 58.7569 297.98 58.3969 297.772C58.0449 297.564 57.7609 297.284 57.5449 296.932C57.3369 296.572 57.2329 296.16 57.2329 295.696C57.2329 295.184 57.3409 294.748 57.5569 294.388C57.7809 294.02 58.0769 293.744 58.4449 293.56C58.8129 293.368 59.2289 293.272 59.6929 293.272C60.1329 293.272 60.5409 293.4 60.9169 293.656C61.3009 293.912 61.5809 294.24 61.7569 294.64L61.6969 294.808L61.7689 293.392H62.1049V298H61.7089V296.5L61.7809 296.692C61.7169 296.876 61.6129 297.052 61.4689 297.22C61.3329 297.38 61.1649 297.528 60.9649 297.664C60.7729 297.792 60.5609 297.896 60.3289 297.976C60.0969 298.048 59.8529 298.084 59.5969 298.084ZM59.6689 297.748C60.0369 297.748 60.3729 297.668 60.6769 297.508C60.9809 297.34 61.2249 297.116 61.4089 296.836C61.5929 296.548 61.6929 296.216 61.7089 295.84V295.264C61.6449 294.952 61.5129 294.672 61.3129 294.424C61.1209 294.176 60.8809 293.98 60.5929 293.836C60.3049 293.684 59.9929 293.608 59.6569 293.608C59.2889 293.608 58.9489 293.692 58.6369 293.86C58.3249 294.028 58.0769 294.268 57.8929 294.58C57.7169 294.892 57.6289 295.256 57.6289 295.672C57.6289 296.056 57.7209 296.404 57.9049 296.716C58.0889 297.028 58.3329 297.28 58.6369 297.472C58.9489 297.656 59.2929 297.748 59.6689 297.748ZM65.4985 288.928H65.8945V298H65.4985V288.928ZM81.4289 298.18L74.7089 290.32L74.8169 290.2L74.8289 298H74.4209V289.372H74.4449L81.2009 297.304L81.0569 297.328V289.528H81.4409V298.18H81.4289ZM84.6735 295.672C84.6735 295.232 84.7815 294.828 84.9975 294.46C85.2135 294.092 85.5055 293.8 85.8735 293.584C86.2415 293.368 86.6495 293.26 87.0975 293.26C87.5615 293.26 87.9775 293.368 88.3455 293.584C88.7135 293.8 89.0015 294.092 89.2095 294.46C89.4255 294.828 89.5335 295.232 89.5335 295.672C89.5335 296.12 89.4255 296.528 89.2095 296.896C89.0015 297.264 88.7095 297.556 88.3335 297.772C87.9655 297.98 87.5535 298.084 87.0975 298.084C86.6415 298.084 86.2295 297.98 85.8615 297.772C85.5015 297.564 85.2135 297.28 84.9975 296.92C84.7815 296.56 84.6735 296.144 84.6735 295.672ZM85.0695 295.684C85.0695 296.068 85.1575 296.416 85.3335 296.728C85.5175 297.032 85.7615 297.28 86.0655 297.472C86.3775 297.656 86.7215 297.748 87.0975 297.748C87.4735 297.748 87.8135 297.656 88.1175 297.472C88.4295 297.288 88.6735 297.04 88.8495 296.728C89.0335 296.416 89.1255 296.068 89.1255 295.684C89.1255 295.3 89.0335 294.952 88.8495 294.64C88.6735 294.328 88.4295 294.08 88.1175 293.896C87.8135 293.704 87.4735 293.608 87.0975 293.608C86.7055 293.608 86.3575 293.708 86.0535 293.908C85.7495 294.1 85.5095 294.356 85.3335 294.676C85.1575 294.996 85.0695 295.332 85.0695 295.684ZM92.9384 291.364H93.3344V293.464H94.8224V293.788H93.3344V298H92.9384V293.788H91.9064V293.464H92.9384V291.364ZM99.3998 298.084C98.9358 298.084 98.5198 297.98 98.1518 297.772C97.7918 297.556 97.5038 297.268 97.2878 296.908C97.0798 296.54 96.9758 296.132 96.9758 295.684C96.9758 295.236 97.0838 294.828 97.2998 294.46C97.5158 294.092 97.8078 293.8 98.1758 293.584C98.5438 293.368 98.9518 293.26 99.3998 293.26C99.9358 293.26 100.384 293.416 100.744 293.728C101.112 294.032 101.38 294.424 101.548 294.904L97.4438 296.536L97.3238 296.236L101.2 294.7L101.104 294.844C100.952 294.508 100.728 294.216 100.432 293.968C100.144 293.72 99.7918 293.596 99.3758 293.596C98.9998 293.596 98.6598 293.688 98.3558 293.872C98.0518 294.056 97.8078 294.308 97.6238 294.628C97.4478 294.94 97.3598 295.288 97.3598 295.672C97.3598 296.032 97.4438 296.372 97.6118 296.692C97.7878 297.004 98.0278 297.256 98.3318 297.448C98.6358 297.64 98.9918 297.736 99.3998 297.736C99.6718 297.736 99.9278 297.688 100.168 297.592C100.416 297.488 100.632 297.356 100.816 297.196L101.044 297.472C100.82 297.656 100.564 297.804 100.276 297.916C99.9958 298.028 99.7038 298.084 99.3998 298.084ZM105.371 298.096C105.123 298.096 104.859 298.052 104.579 297.964C104.299 297.868 104.067 297.712 103.883 297.496L104.087 297.232C104.223 297.392 104.403 297.524 104.627 297.628C104.851 297.724 105.091 297.772 105.347 297.772C105.539 297.772 105.719 297.744 105.887 297.688C106.063 297.624 106.207 297.524 106.319 297.388C106.431 297.244 106.487 297.052 106.487 296.812C106.487 296.58 106.423 296.4 106.295 296.272C106.175 296.136 106.015 296.032 105.815 295.96C105.623 295.88 105.423 295.804 105.215 295.732C104.895 295.628 104.623 295.488 104.399 295.312C104.183 295.136 104.075 294.872 104.075 294.52C104.075 294.264 104.135 294.048 104.255 293.872C104.375 293.688 104.535 293.548 104.735 293.452C104.935 293.356 105.155 293.308 105.395 293.308C105.611 293.308 105.839 293.348 106.079 293.428C106.319 293.508 106.531 293.644 106.715 293.836L106.523 294.1C106.395 293.932 106.223 293.816 106.007 293.752C105.791 293.68 105.603 293.64 105.443 293.632C105.307 293.632 105.163 293.664 105.011 293.728C104.859 293.784 104.727 293.876 104.615 294.004C104.511 294.124 104.459 294.28 104.459 294.472C104.459 294.664 104.507 294.82 104.603 294.94C104.707 295.06 104.839 295.156 104.999 295.228C105.159 295.3 105.327 295.368 105.503 295.432C105.727 295.512 105.943 295.6 106.151 295.696C106.367 295.784 106.543 295.908 106.679 296.068C106.815 296.228 106.883 296.444 106.883 296.716C106.883 296.988 106.823 297.228 106.703 297.436C106.591 297.644 106.423 297.808 106.199 297.928C105.983 298.04 105.707 298.096 105.371 298.096Z" fill="white"/>
<path d="M187.167 271.46C186.975 271.58 186.759 271.688 186.519 271.784C186.279 271.88 186.019 271.956 185.739 272.012C185.467 272.068 185.179 272.096 184.875 272.096C184.227 272.096 183.639 271.984 183.111 271.76C182.591 271.536 182.143 271.228 181.767 270.836C181.391 270.436 181.099 269.98 180.891 269.468C180.691 268.948 180.591 268.4 180.591 267.824C180.591 267.208 180.699 266.636 180.915 266.108C181.139 265.572 181.447 265.104 181.839 264.704C182.231 264.304 182.687 263.992 183.207 263.768C183.727 263.544 184.287 263.432 184.887 263.432C185.311 263.432 185.711 263.492 186.087 263.612C186.471 263.724 186.827 263.876 187.155 264.068L186.975 264.428C186.679 264.252 186.355 264.108 186.003 263.996C185.651 263.884 185.279 263.828 184.887 263.828C184.359 263.828 183.859 263.932 183.387 264.14C182.915 264.34 182.503 264.624 182.151 264.992C181.799 265.352 181.519 265.776 181.311 266.264C181.111 266.744 181.011 267.26 181.011 267.812C181.011 268.34 181.099 268.84 181.275 269.312C181.459 269.784 181.719 270.2 182.055 270.56C182.399 270.912 182.807 271.192 183.279 271.4C183.751 271.6 184.283 271.7 184.875 271.7C185.275 271.7 185.651 271.644 186.003 271.532C186.355 271.42 186.675 271.276 186.963 271.1L187.167 271.46ZM190.652 267.392L190.7 268.82L190.652 268.664C190.748 268.376 190.904 268.132 191.12 267.932C191.336 267.724 191.58 267.564 191.852 267.452C192.124 267.34 192.4 267.284 192.68 267.284L192.656 267.656C192.304 267.664 191.98 267.748 191.684 267.908C191.388 268.06 191.152 268.272 190.976 268.544C190.808 268.808 190.724 269.108 190.724 269.444V272H190.328V267.392H190.652ZM195.933 274.208L198.921 267.392H199.329L196.365 274.208H195.933ZM196.929 272.06L194.769 267.392H195.213L197.253 271.832L196.929 272.06ZM203.017 272.096C202.769 272.096 202.505 272.052 202.225 271.964C201.945 271.868 201.713 271.712 201.529 271.496L201.733 271.232C201.869 271.392 202.049 271.524 202.273 271.628C202.497 271.724 202.737 271.772 202.993 271.772C203.185 271.772 203.365 271.744 203.533 271.688C203.709 271.624 203.853 271.524 203.965 271.388C204.077 271.244 204.133 271.052 204.133 270.812C204.133 270.58 204.069 270.4 203.941 270.272C203.821 270.136 203.661 270.032 203.461 269.96C203.269 269.88 203.069 269.804 202.861 269.732C202.541 269.628 202.269 269.488 202.045 269.312C201.829 269.136 201.721 268.872 201.721 268.52C201.721 268.264 201.781 268.048 201.901 267.872C202.021 267.688 202.181 267.548 202.381 267.452C202.581 267.356 202.801 267.308 203.041 267.308C203.257 267.308 203.485 267.348 203.725 267.428C203.965 267.508 204.177 267.644 204.361 267.836L204.169 268.1C204.041 267.932 203.869 267.816 203.653 267.752C203.437 267.68 203.249 267.64 203.089 267.632C202.953 267.632 202.809 267.664 202.657 267.728C202.505 267.784 202.373 267.876 202.261 268.004C202.157 268.124 202.105 268.28 202.105 268.472C202.105 268.664 202.153 268.82 202.249 268.94C202.353 269.06 202.485 269.156 202.645 269.228C202.805 269.3 202.973 269.368 203.149 269.432C203.373 269.512 203.589 269.6 203.797 269.696C204.013 269.784 204.189 269.908 204.325 270.068C204.461 270.228 204.529 270.444 204.529 270.716C204.529 270.988 204.469 271.228 204.349 271.436C204.237 271.644 204.069 271.808 203.845 271.928C203.629 272.04 203.353 272.096 203.017 272.096ZM207.955 265.364H208.351V267.464H209.839V267.788H208.351V272H207.955V267.788H206.923V267.464H207.955V265.364ZM214.356 272.084C213.916 272.084 213.516 271.98 213.156 271.772C212.804 271.564 212.52 271.284 212.304 270.932C212.096 270.572 211.992 270.16 211.992 269.696C211.992 269.184 212.1 268.748 212.316 268.388C212.54 268.02 212.836 267.744 213.204 267.56C213.572 267.368 213.988 267.272 214.452 267.272C214.892 267.272 215.3 267.4 215.676 267.656C216.06 267.912 216.34 268.24 216.516 268.64L216.456 268.808L216.528 267.392H216.864V272H216.468V270.5L216.54 270.692C216.476 270.876 216.372 271.052 216.228 271.22C216.092 271.38 215.924 271.528 215.724 271.664C215.532 271.792 215.32 271.896 215.088 271.976C214.856 272.048 214.612 272.084 214.356 272.084ZM214.428 271.748C214.796 271.748 215.132 271.668 215.436 271.508C215.74 271.34 215.984 271.116 216.168 270.836C216.352 270.548 216.452 270.216 216.468 269.84V269.264C216.404 268.952 216.272 268.672 216.072 268.424C215.88 268.176 215.64 267.98 215.352 267.836C215.064 267.684 214.752 267.608 214.416 267.608C214.048 267.608 213.708 267.692 213.396 267.86C213.084 268.028 212.836 268.268 212.652 268.58C212.476 268.892 212.388 269.256 212.388 269.672C212.388 270.056 212.48 270.404 212.664 270.716C212.848 271.028 213.092 271.28 213.396 271.472C213.708 271.656 214.052 271.748 214.428 271.748ZM220.258 262.928H220.654V272H220.258V262.928ZM224.588 270.968C224.412 271.384 224.24 271.796 224.072 272.204C223.904 272.612 223.732 273.024 223.556 273.44H223.22C223.372 273.024 223.524 272.612 223.676 272.204C223.828 271.796 223.984 271.384 224.144 270.968H224.588ZM238.725 271.46C238.533 271.58 238.317 271.688 238.077 271.784C237.837 271.88 237.577 271.956 237.297 272.012C237.025 272.068 236.737 272.096 236.433 272.096C235.785 272.096 235.197 271.984 234.669 271.76C234.149 271.536 233.701 271.228 233.325 270.836C232.949 270.436 232.657 269.98 232.449 269.468C232.249 268.948 232.149 268.4 232.149 267.824C232.149 267.208 232.257 266.636 232.473 266.108C232.697 265.572 233.005 265.104 233.397 264.704C233.789 264.304 234.245 263.992 234.765 263.768C235.285 263.544 235.845 263.432 236.445 263.432C236.869 263.432 237.269 263.492 237.645 263.612C238.029 263.724 238.385 263.876 238.713 264.068L238.533 264.428C238.237 264.252 237.913 264.108 237.561 263.996C237.209 263.884 236.837 263.828 236.445 263.828C235.917 263.828 235.417 263.932 234.945 264.14C234.473 264.34 234.061 264.624 233.709 264.992C233.357 265.352 233.077 265.776 232.869 266.264C232.669 266.744 232.569 267.26 232.569 267.812C232.569 268.34 232.657 268.84 232.833 269.312C233.017 269.784 233.277 270.2 233.613 270.56C233.957 270.912 234.365 271.192 234.837 271.4C235.309 271.6 235.841 271.7 236.433 271.7C236.833 271.7 237.209 271.644 237.561 271.532C237.913 271.42 238.233 271.276 238.521 271.1L238.725 271.46ZM241.886 262.928H242.282V272H241.886V262.928ZM247.632 272.084C247.168 272.084 246.752 271.98 246.384 271.772C246.024 271.556 245.736 271.268 245.52 270.908C245.312 270.54 245.208 270.132 245.208 269.684C245.208 269.236 245.316 268.828 245.532 268.46C245.748 268.092 246.04 267.8 246.408 267.584C246.776 267.368 247.184 267.26 247.632 267.26C248.168 267.26 248.616 267.416 248.976 267.728C249.344 268.032 249.612 268.424 249.78 268.904L245.676 270.536L245.556 270.236L249.432 268.7L249.336 268.844C249.184 268.508 248.96 268.216 248.664 267.968C248.376 267.72 248.024 267.596 247.608 267.596C247.232 267.596 246.892 267.688 246.588 267.872C246.284 268.056 246.04 268.308 245.856 268.628C245.68 268.94 245.592 269.288 245.592 269.672C245.592 270.032 245.676 270.372 245.844 270.692C246.02 271.004 246.26 271.256 246.564 271.448C246.868 271.64 247.224 271.736 247.632 271.736C247.904 271.736 248.16 271.688 248.4 271.592C248.648 271.488 248.864 271.356 249.048 271.196L249.276 271.472C249.052 271.656 248.796 271.804 248.508 271.916C248.228 272.028 247.936 272.084 247.632 272.084ZM254.491 272.084C254.051 272.084 253.651 271.98 253.291 271.772C252.939 271.564 252.655 271.284 252.439 270.932C252.231 270.572 252.127 270.16 252.127 269.696C252.127 269.184 252.235 268.748 252.451 268.388C252.675 268.02 252.971 267.744 253.339 267.56C253.707 267.368 254.123 267.272 254.587 267.272C255.027 267.272 255.435 267.4 255.811 267.656C256.195 267.912 256.475 268.24 256.651 268.64L256.591 268.808L256.663 267.392H256.999V272H256.603V270.5L256.675 270.692C256.611 270.876 256.507 271.052 256.363 271.22C256.227 271.38 256.059 271.528 255.859 271.664C255.667 271.792 255.455 271.896 255.223 271.976C254.991 272.048 254.747 272.084 254.491 272.084ZM254.563 271.748C254.931 271.748 255.267 271.668 255.571 271.508C255.875 271.34 256.119 271.116 256.303 270.836C256.487 270.548 256.587 270.216 256.603 269.84V269.264C256.539 268.952 256.407 268.672 256.207 268.424C256.015 268.176 255.775 267.98 255.487 267.836C255.199 267.684 254.887 267.608 254.551 267.608C254.183 267.608 253.843 267.692 253.531 267.86C253.219 268.028 252.971 268.268 252.787 268.58C252.611 268.892 252.523 269.256 252.523 269.672C252.523 270.056 252.615 270.404 252.799 270.716C252.983 271.028 253.227 271.28 253.531 271.472C253.843 271.656 254.187 271.748 254.563 271.748ZM260.716 267.392L260.764 268.82L260.716 268.664C260.812 268.376 260.968 268.132 261.184 267.932C261.4 267.724 261.644 267.564 261.916 267.452C262.188 267.34 262.464 267.284 262.744 267.284L262.72 267.656C262.368 267.664 262.044 267.748 261.748 267.908C261.452 268.06 261.216 268.272 261.04 268.544C260.872 268.808 260.788 269.108 260.788 269.444V272H260.392V267.392H260.716Z" fill="white"/>
<path d="M26.7409 93.46C26.5489 93.58 26.3329 93.688 26.0929 93.784C25.8529 93.88 25.5929 93.956 25.3129 94.012C25.0409 94.068 24.7529 94.096 24.4489 94.096C23.8009 94.096 23.2129 93.984 22.6849 93.76C22.1649 93.536 21.7169 93.228 21.3409 92.836C20.9649 92.436 20.6729 91.98 20.4649 91.468C20.2649 90.948 20.1649 90.4 20.1649 89.824C20.1649 89.208 20.2729 88.636 20.4889 88.108C20.7129 87.572 21.0209 87.104 21.4129 86.704C21.8049 86.304 22.2609 85.992 22.7809 85.768C23.3009 85.544 23.8609 85.432 24.4609 85.432C24.8849 85.432 25.2849 85.492 25.6609 85.612C26.0449 85.724 26.4009 85.876 26.7289 86.068L26.5489 86.428C26.2529 86.252 25.9289 86.108 25.5769 85.996C25.2249 85.884 24.8529 85.828 24.4609 85.828C23.9329 85.828 23.4329 85.932 22.9609 86.14C22.4889 86.34 22.0769 86.624 21.7249 86.992C21.3729 87.352 21.0929 87.776 20.8849 88.264C20.6849 88.744 20.5849 89.26 20.5849 89.812C20.5849 90.34 20.6729 90.84 20.8489 91.312C21.0329 91.784 21.2929 92.2 21.6289 92.56C21.9729 92.912 22.3809 93.192 22.8529 93.4C23.3249 93.6 23.8569 93.7 24.4489 93.7C24.8489 93.7 25.2249 93.644 25.5769 93.532C25.9289 93.42 26.2489 93.276 26.5369 93.1L26.7409 93.46ZM29.902 84.928H30.298V94H29.902V84.928ZM35.6479 94.084C35.1839 94.084 34.7679 93.98 34.3999 93.772C34.0399 93.556 33.7519 93.268 33.5359 92.908C33.3279 92.54 33.2239 92.132 33.2239 91.684C33.2239 91.236 33.3319 90.828 33.5479 90.46C33.7639 90.092 34.0559 89.8 34.4239 89.584C34.7919 89.368 35.1999 89.26 35.6479 89.26C36.1839 89.26 36.6319 89.416 36.9919 89.728C37.3599 90.032 37.6279 90.424 37.7959 90.904L33.6919 92.536L33.5719 92.236L37.4479 90.7L37.3519 90.844C37.1999 90.508 36.9759 90.216 36.6799 89.968C36.3919 89.72 36.0399 89.596 35.6239 89.596C35.2479 89.596 34.9079 89.688 34.6039 89.872C34.2999 90.056 34.0559 90.308 33.8719 90.628C33.6959 90.94 33.6079 91.288 33.6079 91.672C33.6079 92.032 33.6919 92.372 33.8599 92.692C34.0359 93.004 34.2759 93.256 34.5799 93.448C34.8839 93.64 35.2399 93.736 35.6479 93.736C35.9199 93.736 36.1759 93.688 36.4159 93.592C36.6639 93.488 36.8799 93.356 37.0639 93.196L37.2919 93.472C37.0679 93.656 36.8119 93.804 36.5239 93.916C36.2439 94.028 35.9519 94.084 35.6479 94.084ZM42.5066 94.084C42.0666 94.084 41.6666 93.98 41.3066 93.772C40.9546 93.564 40.6706 93.284 40.4546 92.932C40.2466 92.572 40.1426 92.16 40.1426 91.696C40.1426 91.184 40.2506 90.748 40.4666 90.388C40.6906 90.02 40.9866 89.744 41.3546 89.56C41.7226 89.368 42.1386 89.272 42.6026 89.272C43.0426 89.272 43.4506 89.4 43.8266 89.656C44.2106 89.912 44.4906 90.24 44.6666 90.64L44.6066 90.808L44.6786 89.392H45.0146V94H44.6186V92.5L44.6906 92.692C44.6266 92.876 44.5226 93.052 44.3786 93.22C44.2426 93.38 44.0746 93.528 43.8746 93.664C43.6826 93.792 43.4706 93.896 43.2386 93.976C43.0066 94.048 42.7626 94.084 42.5066 94.084ZM42.5786 93.748C42.9466 93.748 43.2826 93.668 43.5866 93.508C43.8906 93.34 44.1346 93.116 44.3186 92.836C44.5026 92.548 44.6026 92.216 44.6186 91.84V91.264C44.5546 90.952 44.4226 90.672 44.2226 90.424C44.0306 90.176 43.7906 89.98 43.5026 89.836C43.2146 89.684 42.9026 89.608 42.5666 89.608C42.1986 89.608 41.8586 89.692 41.5466 89.86C41.2346 90.028 40.9866 90.268 40.8026 90.58C40.6266 90.892 40.5386 91.256 40.5386 91.672C40.5386 92.056 40.6306 92.404 40.8146 92.716C40.9986 93.028 41.2426 93.28 41.5466 93.472C41.8586 93.656 42.2026 93.748 42.5786 93.748ZM48.7323 89.392L48.7923 90.856L48.7323 90.628C48.8683 90.212 49.1243 89.884 49.5003 89.644C49.8763 89.404 50.2923 89.284 50.7483 89.284C51.1803 89.284 51.5283 89.412 51.7923 89.668C52.0563 89.924 52.1923 90.252 52.2003 90.652V94H51.7923V90.748C51.7843 90.428 51.6803 90.164 51.4803 89.956C51.2883 89.748 51.0123 89.636 50.6523 89.62C50.3243 89.62 50.0203 89.696 49.7403 89.848C49.4603 90 49.2323 90.212 49.0563 90.484C48.8883 90.748 48.8043 91.06 48.8043 91.42V94H48.4083V89.392H48.7323ZM56.1366 92.968C55.9606 93.384 55.7886 93.796 55.6206 94.204C55.4526 94.612 55.2806 95.024 55.1046 95.44H54.7686C54.9206 95.024 55.0726 94.612 55.2246 94.204C55.3766 93.796 55.5326 93.384 55.6926 92.968H56.1366ZM68.3297 86.308C68.0977 86.196 67.8017 86.092 67.4417 85.996C67.0817 85.892 66.7177 85.84 66.3497 85.84C65.7577 85.84 65.2857 85.988 64.9337 86.284C64.5817 86.58 64.4057 86.952 64.4057 87.4C64.4057 87.736 64.5017 88.016 64.6937 88.24C64.8937 88.456 65.1537 88.64 65.4737 88.792C65.7937 88.944 66.1337 89.092 66.4937 89.236C66.7817 89.34 67.0617 89.456 67.3337 89.584C67.6137 89.712 67.8657 89.868 68.0897 90.052C68.3217 90.228 68.5057 90.452 68.6417 90.724C68.7777 90.996 68.8457 91.328 68.8457 91.72C68.8457 92.2 68.7337 92.62 68.5097 92.98C68.2857 93.332 67.9777 93.608 67.5857 93.808C67.1937 94 66.7457 94.096 66.2417 94.096C65.8017 94.096 65.4057 94.04 65.0537 93.928C64.7017 93.816 64.4017 93.692 64.1537 93.556C63.9137 93.42 63.7297 93.312 63.6017 93.232L63.7937 92.884C63.9697 93.012 64.1817 93.14 64.4297 93.268C64.6857 93.396 64.9657 93.508 65.2697 93.604C65.5737 93.692 65.8777 93.736 66.1817 93.736C66.5497 93.736 66.9057 93.664 67.2497 93.52C67.5937 93.368 67.8737 93.144 68.0897 92.848C68.3137 92.552 68.4257 92.18 68.4257 91.732C68.4257 91.284 68.3177 90.928 68.1017 90.664C67.8937 90.392 67.6217 90.176 67.2857 90.016C66.9577 89.848 66.6097 89.696 66.2417 89.56C65.9697 89.456 65.6977 89.348 65.4257 89.236C65.1617 89.116 64.9177 88.98 64.6937 88.828C64.4777 88.668 64.3057 88.476 64.1777 88.252C64.0497 88.028 63.9857 87.76 63.9857 87.448C63.9857 87.056 64.0857 86.716 64.2857 86.428C64.4937 86.132 64.7697 85.904 65.1137 85.744C65.4657 85.576 65.8617 85.488 66.3017 85.48C66.6537 85.48 67.0337 85.528 67.4417 85.624C67.8497 85.72 68.2017 85.844 68.4977 85.996L68.3297 86.308ZM72.2706 89.392L72.3186 90.748L72.2586 90.628C72.4106 90.212 72.6706 89.884 73.0386 89.644C73.4146 89.404 73.8226 89.284 74.2626 89.284C74.5186 89.284 74.7506 89.336 74.9586 89.44C75.1746 89.544 75.3506 89.684 75.4866 89.86C75.6226 90.036 75.6986 90.236 75.7146 90.46L75.6546 90.532C75.8146 90.124 76.0746 89.816 76.4346 89.608C76.7946 89.392 77.1866 89.284 77.6106 89.284C78.0426 89.284 78.3866 89.408 78.6426 89.656C78.9066 89.904 79.0426 90.22 79.0506 90.604V94H78.6546V90.688C78.6466 90.408 78.5506 90.168 78.3666 89.968C78.1826 89.76 77.9106 89.644 77.5506 89.62C77.2306 89.62 76.9306 89.7 76.6506 89.86C76.3786 90.012 76.1546 90.22 75.9786 90.484C75.8026 90.748 75.7066 91.04 75.6906 91.36V94H75.3066V90.688C75.2906 90.408 75.1866 90.168 74.9946 89.968C74.8106 89.76 74.5386 89.644 74.1786 89.62C73.8506 89.62 73.5466 89.7 73.2666 89.86C72.9866 90.02 72.7626 90.236 72.5946 90.508C72.4266 90.78 72.3426 91.084 72.3426 91.42V94H71.9466V89.392H72.2706ZM81.995 91.672C81.995 91.232 82.103 90.828 82.319 90.46C82.535 90.092 82.827 89.8 83.195 89.584C83.563 89.368 83.971 89.26 84.419 89.26C84.883 89.26 85.299 89.368 85.667 89.584C86.035 89.8 86.323 90.092 86.531 90.46C86.747 90.828 86.855 91.232 86.855 91.672C86.855 92.12 86.747 92.528 86.531 92.896C86.323 93.264 86.031 93.556 85.655 93.772C85.287 93.98 84.875 94.084 84.419 94.084C83.963 94.084 83.551 93.98 83.183 93.772C82.823 93.564 82.535 93.28 82.319 92.92C82.103 92.56 81.995 92.144 81.995 91.672ZM82.391 91.684C82.391 92.068 82.479 92.416 82.655 92.728C82.839 93.032 83.083 93.28 83.387 93.472C83.699 93.656 84.043 93.748 84.419 93.748C84.795 93.748 85.135 93.656 85.439 93.472C85.751 93.288 85.995 93.04 86.171 92.728C86.355 92.416 86.447 92.068 86.447 91.684C86.447 91.3 86.355 90.952 86.171 90.64C85.995 90.328 85.751 90.08 85.439 89.896C85.135 89.704 84.795 89.608 84.419 89.608C84.027 89.608 83.679 89.708 83.375 89.908C83.071 90.1 82.831 90.356 82.655 90.676C82.479 90.996 82.391 91.332 82.391 91.684ZM89.3239 91.672C89.3239 91.232 89.4319 90.828 89.6479 90.46C89.8639 90.092 90.1559 89.8 90.5239 89.584C90.8919 89.368 91.2999 89.26 91.7479 89.26C92.2119 89.26 92.6279 89.368 92.9959 89.584C93.3639 89.8 93.6519 90.092 93.8599 90.46C94.0759 90.828 94.1839 91.232 94.1839 91.672C94.1839 92.12 94.0759 92.528 93.8599 92.896C93.6519 93.264 93.3599 93.556 92.9839 93.772C92.6159 93.98 92.2039 94.084 91.7479 94.084C91.2919 94.084 90.8799 93.98 90.5119 93.772C90.1519 93.564 89.8639 93.28 89.6479 92.92C89.4319 92.56 89.3239 92.144 89.3239 91.672ZM89.7199 91.684C89.7199 92.068 89.8079 92.416 89.9839 92.728C90.1679 93.032 90.4119 93.28 90.7159 93.472C91.0279 93.656 91.3719 93.748 91.7479 93.748C92.1239 93.748 92.4639 93.656 92.7679 93.472C93.0799 93.288 93.3239 93.04 93.4999 92.728C93.6839 92.416 93.7759 92.068 93.7759 91.684C93.7759 91.3 93.6839 90.952 93.4999 90.64C93.3239 90.328 93.0799 90.08 92.7679 89.896C92.4639 89.704 92.1239 89.608 91.7479 89.608C91.3559 89.608 91.0079 89.708 90.7039 89.908C90.3999 90.1 90.1599 90.356 89.9839 90.676C89.8079 90.996 89.7199 91.332 89.7199 91.684ZM97.5888 87.364H97.9848V89.464H99.4728V89.788H97.9848V94H97.5888V89.788H96.5568V89.464H97.5888V87.364ZM102.094 94V84.928H102.478V90.652L102.454 90.472C102.606 90.136 102.858 89.856 103.21 89.632C103.57 89.4 103.978 89.284 104.434 89.284C104.866 89.284 105.214 89.412 105.478 89.668C105.742 89.924 105.878 90.252 105.886 90.652V94H105.478V90.748C105.47 90.428 105.366 90.164 105.166 89.956C104.974 89.748 104.698 89.636 104.338 89.62C104.01 89.62 103.706 89.7 103.426 89.86C103.146 90.02 102.918 90.236 102.742 90.508C102.574 90.78 102.49 91.084 102.49 91.42V94H102.094ZM109.823 92.968C109.647 93.384 109.475 93.796 109.307 94.204C109.139 94.612 108.967 95.024 108.791 95.44H108.455C108.607 95.024 108.759 94.612 108.911 94.204C109.063 93.796 109.219 93.384 109.379 92.968H109.823ZM46.0678 107V98.36H46.0798L50.1718 104.168L49.9918 104.156L54.0718 98.36H54.0838V107H53.6878V99.332L53.7238 99.524L50.0758 104.648H50.0518L46.4038 99.524L46.4758 99.344V107H46.0678ZM59.7405 107.084C59.2765 107.084 58.8605 106.98 58.4925 106.772C58.1325 106.556 57.8445 106.268 57.6285 105.908C57.4205 105.54 57.3165 105.132 57.3165 104.684C57.3165 104.236 57.4245 103.828 57.6405 103.46C57.8565 103.092 58.1485 102.8 58.5165 102.584C58.8845 102.368 59.2925 102.26 59.7405 102.26C60.2765 102.26 60.7245 102.416 61.0845 102.728C61.4525 103.032 61.7205 103.424 61.8885 103.904L57.7845 105.536L57.6645 105.236L61.5405 103.7L61.4445 103.844C61.2925 103.508 61.0685 103.216 60.7725 102.968C60.4845 102.72 60.1325 102.596 59.7165 102.596C59.3405 102.596 59.0005 102.688 58.6965 102.872C58.3925 103.056 58.1485 103.308 57.9645 103.628C57.7885 103.94 57.7005 104.288 57.7005 104.672C57.7005 105.032 57.7845 105.372 57.9525 105.692C58.1285 106.004 58.3685 106.256 58.6725 106.448C58.9765 106.64 59.3325 106.736 59.7405 106.736C60.0125 106.736 60.2685 106.688 60.5085 106.592C60.7565 106.488 60.9725 106.356 61.1565 106.196L61.3845 106.472C61.1605 106.656 60.9045 106.804 60.6165 106.916C60.3365 107.028 60.0445 107.084 59.7405 107.084ZM64.7032 97.928H65.0992V107H64.7032V97.928ZM68.4931 97.928H68.8891V107H68.4931V97.928ZM71.8149 104.672C71.8149 104.232 71.9229 103.828 72.1389 103.46C72.3549 103.092 72.6469 102.8 73.0149 102.584C73.3829 102.368 73.7909 102.26 74.2389 102.26C74.7029 102.26 75.1189 102.368 75.4869 102.584C75.8549 102.8 76.1429 103.092 76.3509 103.46C76.5669 103.828 76.6749 104.232 76.6749 104.672C76.6749 105.12 76.5669 105.528 76.3509 105.896C76.1429 106.264 75.8509 106.556 75.4749 106.772C75.1069 106.98 74.6949 107.084 74.2389 107.084C73.7829 107.084 73.3709 106.98 73.0029 106.772C72.6429 106.564 72.3549 106.28 72.1389 105.92C71.9229 105.56 71.8149 105.144 71.8149 104.672ZM72.2109 104.684C72.2109 105.068 72.2989 105.416 72.4749 105.728C72.6589 106.032 72.9029 106.28 73.2069 106.472C73.5189 106.656 73.8629 106.748 74.2389 106.748C74.6149 106.748 74.9549 106.656 75.2589 106.472C75.5709 106.288 75.8149 106.04 75.9909 105.728C76.1749 105.416 76.2669 105.068 76.2669 104.684C76.2669 104.3 76.1749 103.952 75.9909 103.64C75.8149 103.328 75.5709 103.08 75.2589 102.896C74.9549 102.704 74.6149 102.608 74.2389 102.608C73.8469 102.608 73.4989 102.708 73.1949 102.908C72.8909 103.1 72.6509 103.356 72.4749 103.676C72.2989 103.996 72.2109 104.332 72.2109 104.684ZM81.9549 102.392L83.8149 106.592H83.7189L85.5429 102.392H85.9509L83.7669 107.276L82.2909 103.964L80.9349 107.276L78.7509 102.392H79.1469L81.0429 106.64L80.8989 106.592L82.1229 103.592L81.5829 102.392H81.9549Z" fill="white"/>
<path d="M169.961 86.308C169.729 86.196 169.433 86.092 169.073 85.996C168.713 85.892 168.349 85.84 167.981 85.84C167.389 85.84 166.917 85.988 166.565 86.284C166.213 86.58 166.037 86.952 166.037 87.4C166.037 87.736 166.133 88.016 166.325 88.24C166.525 88.456 166.785 88.64 167.105 88.792C167.425 88.944 167.765 89.092 168.125 89.236C168.413 89.34 168.693 89.456 168.965 89.584C169.245 89.712 169.497 89.868 169.721 90.052C169.953 90.228 170.137 90.452 170.273 90.724C170.409 90.996 170.477 91.328 170.477 91.72C170.477 92.2 170.365 92.62 170.141 92.98C169.917 93.332 169.609 93.608 169.217 93.808C168.825 94 168.377 94.096 167.873 94.096C167.433 94.096 167.037 94.04 166.685 93.928C166.333 93.816 166.033 93.692 165.785 93.556C165.545 93.42 165.361 93.312 165.233 93.232L165.425 92.884C165.601 93.012 165.813 93.14 166.061 93.268C166.317 93.396 166.597 93.508 166.901 93.604C167.205 93.692 167.509 93.736 167.813 93.736C168.181 93.736 168.537 93.664 168.881 93.52C169.225 93.368 169.505 93.144 169.721 92.848C169.945 92.552 170.057 92.18 170.057 91.732C170.057 91.284 169.949 90.928 169.733 90.664C169.525 90.392 169.253 90.176 168.917 90.016C168.589 89.848 168.241 89.696 167.873 89.56C167.601 89.456 167.329 89.348 167.057 89.236C166.793 89.116 166.549 88.98 166.325 88.828C166.109 88.668 165.937 88.476 165.809 88.252C165.681 88.028 165.617 87.76 165.617 87.448C165.617 87.056 165.717 86.716 165.917 86.428C166.125 86.132 166.401 85.904 166.745 85.744C167.097 85.576 167.493 85.488 167.933 85.48C168.285 85.48 168.665 85.528 169.073 85.624C169.481 85.72 169.833 85.844 170.129 85.996L169.961 86.308ZM173.901 89.392L173.949 90.748L173.889 90.628C174.041 90.212 174.301 89.884 174.669 89.644C175.045 89.404 175.453 89.284 175.893 89.284C176.149 89.284 176.381 89.336 176.589 89.44C176.805 89.544 176.981 89.684 177.117 89.86C177.253 90.036 177.329 90.236 177.345 90.46L177.285 90.532C177.445 90.124 177.705 89.816 178.065 89.608C178.425 89.392 178.817 89.284 179.241 89.284C179.673 89.284 180.017 89.408 180.273 89.656C180.537 89.904 180.673 90.22 180.681 90.604V94H180.285V90.688C180.277 90.408 180.181 90.168 179.997 89.968C179.813 89.76 179.541 89.644 179.181 89.62C178.861 89.62 178.561 89.7 178.281 89.86C178.009 90.012 177.785 90.22 177.609 90.484C177.433 90.748 177.337 91.04 177.321 91.36V94H176.937V90.688C176.921 90.408 176.817 90.168 176.625 89.968C176.441 89.76 176.169 89.644 175.809 89.62C175.481 89.62 175.177 89.7 174.897 89.86C174.617 90.02 174.393 90.236 174.225 90.508C174.057 90.78 173.973 91.084 173.973 91.42V94H173.577V89.392H173.901ZM183.626 91.672C183.626 91.232 183.734 90.828 183.95 90.46C184.166 90.092 184.458 89.8 184.826 89.584C185.194 89.368 185.602 89.26 186.05 89.26C186.514 89.26 186.93 89.368 187.298 89.584C187.666 89.8 187.954 90.092 188.162 90.46C188.378 90.828 188.486 91.232 188.486 91.672C188.486 92.12 188.378 92.528 188.162 92.896C187.954 93.264 187.662 93.556 187.286 93.772C186.918 93.98 186.506 94.084 186.05 94.084C185.594 94.084 185.182 93.98 184.814 93.772C184.454 93.564 184.166 93.28 183.95 92.92C183.734 92.56 183.626 92.144 183.626 91.672ZM184.022 91.684C184.022 92.068 184.11 92.416 184.286 92.728C184.47 93.032 184.714 93.28 185.018 93.472C185.33 93.656 185.674 93.748 186.05 93.748C186.426 93.748 186.766 93.656 187.07 93.472C187.382 93.288 187.626 93.04 187.802 92.728C187.986 92.416 188.078 92.068 188.078 91.684C188.078 91.3 187.986 90.952 187.802 90.64C187.626 90.328 187.382 90.08 187.07 89.896C186.766 89.704 186.426 89.608 186.05 89.608C185.658 89.608 185.31 89.708 185.006 89.908C184.702 90.1 184.462 90.356 184.286 90.676C184.11 90.996 184.022 91.332 184.022 91.684ZM190.955 91.672C190.955 91.232 191.063 90.828 191.279 90.46C191.495 90.092 191.787 89.8 192.155 89.584C192.523 89.368 192.931 89.26 193.379 89.26C193.843 89.26 194.259 89.368 194.627 89.584C194.995 89.8 195.283 90.092 195.491 90.46C195.707 90.828 195.815 91.232 195.815 91.672C195.815 92.12 195.707 92.528 195.491 92.896C195.283 93.264 194.991 93.556 194.615 93.772C194.247 93.98 193.835 94.084 193.379 94.084C192.923 94.084 192.511 93.98 192.143 93.772C191.783 93.564 191.495 93.28 191.279 92.92C191.063 92.56 190.955 92.144 190.955 91.672ZM191.351 91.684C191.351 92.068 191.439 92.416 191.615 92.728C191.799 93.032 192.043 93.28 192.347 93.472C192.659 93.656 193.003 93.748 193.379 93.748C193.755 93.748 194.095 93.656 194.399 93.472C194.711 93.288 194.955 93.04 195.131 92.728C195.315 92.416 195.407 92.068 195.407 91.684C195.407 91.3 195.315 90.952 195.131 90.64C194.955 90.328 194.711 90.08 194.399 89.896C194.095 89.704 193.755 89.608 193.379 89.608C192.987 89.608 192.639 89.708 192.335 89.908C192.031 90.1 191.791 90.356 191.615 90.676C191.439 90.996 191.351 91.332 191.351 91.684ZM199.22 87.364H199.616V89.464H201.104V89.788H199.616V94H199.22V89.788H198.188V89.464H199.22V87.364ZM203.725 94V84.928H204.109V90.652L204.085 90.472C204.237 90.136 204.489 89.856 204.841 89.632C205.201 89.4 205.609 89.284 206.065 89.284C206.497 89.284 206.845 89.412 207.109 89.668C207.373 89.924 207.509 90.252 207.517 90.652V94H207.109V90.748C207.101 90.428 206.997 90.164 206.797 89.956C206.605 89.748 206.329 89.636 205.969 89.62C205.641 89.62 205.337 89.7 205.057 89.86C204.777 90.02 204.549 90.236 204.373 90.508C204.205 90.78 204.121 91.084 204.121 91.42V94H203.725ZM215.338 94L218.89 85.156H218.926L222.466 94H222.01L218.782 85.816L219.058 85.684L215.746 94H215.338ZM216.934 90.628H220.882L220.978 91.012H216.85L216.934 90.628ZM225.778 89.392L225.838 90.856L225.778 90.628C225.914 90.212 226.17 89.884 226.546 89.644C226.922 89.404 227.338 89.284 227.794 89.284C228.226 89.284 228.574 89.412 228.838 89.668C229.102 89.924 229.238 90.252 229.246 90.652V94H228.838V90.748C228.83 90.428 228.726 90.164 228.526 89.956C228.334 89.748 228.058 89.636 227.698 89.62C227.37 89.62 227.066 89.696 226.786 89.848C226.506 90 226.278 90.212 226.102 90.484C225.934 90.748 225.85 91.06 225.85 91.42V94H225.454V89.392H225.778ZM234.526 94.084C234.094 94.084 233.698 93.98 233.338 93.772C232.978 93.556 232.694 93.268 232.486 92.908C232.278 92.54 232.174 92.128 232.174 91.672C232.174 91.184 232.278 90.76 232.486 90.4C232.702 90.04 232.99 89.764 233.35 89.572C233.718 89.372 234.122 89.272 234.562 89.272C235.026 89.272 235.458 89.4 235.858 89.656C236.266 89.912 236.558 90.24 236.734 90.64L236.674 90.844V84.928H237.07V94H236.662V92.5L236.734 92.728C236.55 93.128 236.258 93.456 235.858 93.712C235.466 93.96 235.022 94.084 234.526 94.084ZM234.61 93.736C234.986 93.736 235.326 93.652 235.63 93.484C235.942 93.316 236.19 93.088 236.374 92.8C236.558 92.504 236.654 92.172 236.662 91.804V91.312C236.606 90.992 236.478 90.704 236.278 90.448C236.086 90.192 235.842 89.988 235.546 89.836C235.258 89.676 234.946 89.596 234.61 89.596C234.226 89.596 233.878 89.684 233.566 89.86C233.262 90.036 233.018 90.28 232.834 90.592C232.658 90.904 232.57 91.264 232.57 91.672C232.57 92.048 232.662 92.396 232.846 92.716C233.03 93.028 233.274 93.276 233.578 93.46C233.89 93.644 234.234 93.736 234.61 93.736ZM245.596 85.528H246.004V93.604H250.756V94H245.596V85.528ZM253.2 91.672C253.2 91.232 253.308 90.828 253.524 90.46C253.74 90.092 254.032 89.8 254.4 89.584C254.768 89.368 255.176 89.26 255.624 89.26C256.088 89.26 256.504 89.368 256.872 89.584C257.24 89.8 257.528 90.092 257.736 90.46C257.952 90.828 258.06 91.232 258.06 91.672C258.06 92.12 257.952 92.528 257.736 92.896C257.528 93.264 257.236 93.556 256.86 93.772C256.492 93.98 256.08 94.084 255.624 94.084C255.168 94.084 254.756 93.98 254.388 93.772C254.028 93.564 253.74 93.28 253.524 92.92C253.308 92.56 253.2 92.144 253.2 91.672ZM253.596 91.684C253.596 92.068 253.684 92.416 253.86 92.728C254.044 93.032 254.288 93.28 254.592 93.472C254.904 93.656 255.248 93.748 255.624 93.748C256 93.748 256.34 93.656 256.644 93.472C256.956 93.288 257.2 93.04 257.376 92.728C257.56 92.416 257.652 92.068 257.652 91.684C257.652 91.3 257.56 90.952 257.376 90.64C257.2 90.328 256.956 90.08 256.644 89.896C256.34 89.704 256 89.608 255.624 89.608C255.232 89.608 254.884 89.708 254.58 89.908C254.276 90.1 254.036 90.356 253.86 90.676C253.684 90.996 253.596 91.332 253.596 91.684ZM261.321 89.392L261.381 90.856L261.321 90.628C261.457 90.212 261.713 89.884 262.089 89.644C262.465 89.404 262.881 89.284 263.337 89.284C263.769 89.284 264.117 89.412 264.381 89.668C264.645 89.924 264.781 90.252 264.789 90.652V94H264.381V90.748C264.373 90.428 264.269 90.164 264.069 89.956C263.877 89.748 263.601 89.636 263.241 89.62C262.913 89.62 262.609 89.696 262.329 89.848C262.049 90 261.821 90.212 261.645 90.484C261.477 90.748 261.393 91.06 261.393 91.42V94H260.997V89.392H261.321ZM270.165 96.232C269.933 96.232 269.705 96.204 269.481 96.148C269.257 96.1 269.029 96.004 268.797 95.86C268.565 95.724 268.321 95.532 268.065 95.284L268.293 95.02C268.661 95.38 268.997 95.612 269.301 95.716C269.605 95.828 269.889 95.884 270.153 95.884C270.673 95.884 271.081 95.8 271.377 95.632C271.673 95.472 271.885 95.256 272.013 94.984C272.141 94.712 272.209 94.408 272.217 94.072L272.229 92.488L272.325 92.596C272.165 93.036 271.877 93.396 271.461 93.676C271.053 93.948 270.593 94.084 270.081 94.084C269.641 94.084 269.241 93.98 268.881 93.772C268.529 93.556 268.245 93.268 268.029 92.908C267.821 92.54 267.717 92.132 267.717 91.684C267.717 91.204 267.825 90.784 268.041 90.424C268.265 90.064 268.561 89.784 268.929 89.584C269.297 89.376 269.705 89.272 270.153 89.272C270.609 89.272 271.029 89.396 271.413 89.644C271.805 89.884 272.089 90.2 272.265 90.592L272.217 90.796L272.289 89.392H272.625V94.084C272.625 94.452 272.545 94.8 272.385 95.128C272.233 95.456 271.977 95.72 271.617 95.92C271.265 96.128 270.781 96.232 270.165 96.232ZM268.113 91.672C268.113 92.056 268.201 92.404 268.377 92.716C268.561 93.028 268.809 93.28 269.121 93.472C269.433 93.656 269.781 93.748 270.165 93.748C270.533 93.748 270.869 93.664 271.173 93.496C271.485 93.32 271.733 93.092 271.917 92.812C272.109 92.524 272.213 92.212 272.229 91.876V91.276C272.165 90.956 272.033 90.672 271.833 90.424C271.641 90.168 271.401 89.968 271.113 89.824C270.825 89.68 270.509 89.608 270.165 89.608C269.781 89.608 269.433 89.696 269.121 89.872C268.809 90.04 268.561 90.28 268.377 90.592C268.201 90.904 268.113 91.264 268.113 91.672ZM275.55 91.456H277.758V91.816H275.55V91.456ZM200.782 98.528H201.19V106.604H205.942V107H200.782V98.528ZM210.75 107.084C210.31 107.084 209.91 106.98 209.55 106.772C209.198 106.564 208.914 106.284 208.698 105.932C208.49 105.572 208.386 105.16 208.386 104.696C208.386 104.184 208.494 103.748 208.71 103.388C208.934 103.02 209.23 102.744 209.598 102.56C209.966 102.368 210.382 102.272 210.846 102.272C211.286 102.272 211.694 102.4 212.07 102.656C212.454 102.912 212.734 103.24 212.91 103.64L212.85 103.808L212.922 102.392H213.258V107H212.862V105.5L212.934 105.692C212.87 105.876 212.766 106.052 212.622 106.22C212.486 106.38 212.318 106.528 212.118 106.664C211.926 106.792 211.714 106.896 211.482 106.976C211.25 107.048 211.006 107.084 210.75 107.084ZM210.822 106.748C211.19 106.748 211.526 106.668 211.83 106.508C212.134 106.34 212.378 106.116 212.562 105.836C212.746 105.548 212.846 105.216 212.862 104.84V104.264C212.798 103.952 212.666 103.672 212.466 103.424C212.274 103.176 212.034 102.98 211.746 102.836C211.458 102.684 211.146 102.608 210.81 102.608C210.442 102.608 210.102 102.692 209.79 102.86C209.478 103.028 209.23 103.268 209.046 103.58C208.87 103.892 208.782 104.256 208.782 104.672C208.782 105.056 208.874 105.404 209.058 105.716C209.242 106.028 209.486 106.28 209.79 106.472C210.102 106.656 210.446 106.748 210.822 106.748ZM217.66 107.096C217.412 107.096 217.148 107.052 216.868 106.964C216.588 106.868 216.356 106.712 216.172 106.496L216.376 106.232C216.512 106.392 216.692 106.524 216.916 106.628C217.14 106.724 217.38 106.772 217.636 106.772C217.828 106.772 218.008 106.744 218.176 106.688C218.352 106.624 218.496 106.524 218.608 106.388C218.72 106.244 218.776 106.052 218.776 105.812C218.776 105.58 218.712 105.4 218.584 105.272C218.464 105.136 218.304 105.032 218.104 104.96C217.912 104.88 217.712 104.804 217.504 104.732C217.184 104.628 216.912 104.488 216.688 104.312C216.472 104.136 216.364 103.872 216.364 103.52C216.364 103.264 216.424 103.048 216.544 102.872C216.664 102.688 216.824 102.548 217.024 102.452C217.224 102.356 217.444 102.308 217.684 102.308C217.9 102.308 218.128 102.348 218.368 102.428C218.608 102.508 218.82 102.644 219.004 102.836L218.812 103.1C218.684 102.932 218.512 102.816 218.296 102.752C218.08 102.68 217.892 102.64 217.732 102.632C217.596 102.632 217.452 102.664 217.3 102.728C217.148 102.784 217.016 102.876 216.904 103.004C216.8 103.124 216.748 103.28 216.748 103.472C216.748 103.664 216.796 103.82 216.892 103.94C216.996 104.06 217.128 104.156 217.288 104.228C217.448 104.3 217.616 104.368 217.792 104.432C218.016 104.512 218.232 104.6 218.44 104.696C218.656 104.784 218.832 104.908 218.968 105.068C219.104 105.228 219.172 105.444 219.172 105.716C219.172 105.988 219.112 106.228 218.992 106.436C218.88 106.644 218.712 106.808 218.488 106.928C218.272 107.04 217.996 107.096 217.66 107.096ZM222.597 100.364H222.993V102.464H224.481V102.788H222.993V107H222.597V102.788H221.565V102.464H222.597V100.364ZM227.103 102.392H227.499V107H227.103V102.392ZM226.971 100.808C226.971 100.72 227.003 100.644 227.067 100.58C227.139 100.516 227.219 100.484 227.307 100.484C227.403 100.484 227.483 100.516 227.547 100.58C227.611 100.644 227.643 100.724 227.643 100.82C227.643 100.916 227.611 100.996 227.547 101.06C227.483 101.124 227.403 101.156 227.307 101.156C227.219 101.156 227.139 101.124 227.067 101.06C227.003 100.988 226.971 100.904 226.971 100.808ZM231.217 102.392L231.277 103.856L231.217 103.628C231.353 103.212 231.609 102.884 231.985 102.644C232.361 102.404 232.777 102.284 233.233 102.284C233.665 102.284 234.013 102.412 234.277 102.668C234.541 102.924 234.677 103.252 234.685 103.652V107H234.277V103.748C234.269 103.428 234.165 103.164 233.965 102.956C233.773 102.748 233.497 102.636 233.137 102.62C232.809 102.62 232.505 102.696 232.225 102.848C231.945 103 231.717 103.212 231.541 103.484C231.373 103.748 231.289 104.06 231.289 104.42V107H230.893V102.392H231.217ZM240.061 109.232C239.829 109.232 239.601 109.204 239.377 109.148C239.153 109.1 238.925 109.004 238.693 108.86C238.461 108.724 238.217 108.532 237.961 108.284L238.189 108.02C238.557 108.38 238.893 108.612 239.197 108.716C239.501 108.828 239.785 108.884 240.049 108.884C240.569 108.884 240.977 108.8 241.273 108.632C241.569 108.472 241.781 108.256 241.909 107.984C242.037 107.712 242.105 107.408 242.113 107.072L242.125 105.488L242.221 105.596C242.061 106.036 241.773 106.396 241.357 106.676C240.949 106.948 240.489 107.084 239.977 107.084C239.537 107.084 239.137 106.98 238.777 106.772C238.425 106.556 238.141 106.268 237.925 105.908C237.717 105.54 237.613 105.132 237.613 104.684C237.613 104.204 237.721 103.784 237.937 103.424C238.161 103.064 238.457 102.784 238.825 102.584C239.193 102.376 239.601 102.272 240.049 102.272C240.505 102.272 240.925 102.396 241.309 102.644C241.701 102.884 241.985 103.2 242.161 103.592L242.113 103.796L242.185 102.392H242.521V107.084C242.521 107.452 242.441 107.8 242.281 108.128C242.129 108.456 241.873 108.72 241.513 108.92C241.161 109.128 240.677 109.232 240.061 109.232ZM238.009 104.672C238.009 105.056 238.097 105.404 238.273 105.716C238.457 106.028 238.705 106.28 239.017 106.472C239.329 106.656 239.677 106.748 240.061 106.748C240.429 106.748 240.765 106.664 241.069 106.496C241.381 106.32 241.629 106.092 241.813 105.812C242.005 105.524 242.109 105.212 242.125 104.876V104.276C242.061 103.956 241.929 103.672 241.729 103.424C241.537 103.168 241.297 102.968 241.009 102.824C240.721 102.68 240.405 102.608 240.061 102.608C239.677 102.608 239.329 102.696 239.017 102.872C238.705 103.04 238.457 103.28 238.273 103.592C238.097 103.904 238.009 104.264 238.009 104.672Z" fill="white"/>
<path d="M64.3882 24.7188C69.6679 24.7188 74.9507 24.7188 80.2304 24.7188C80.3264 24.7188 80.4224 24.7188 80.5184 24.7188C80.8528 24.729 80.9581 24.8248 80.9395 25.201C80.9116 25.7481 80.8621 26.2987 80.794 26.8425C80.4812 29.4074 80.1592 31.9723 79.8371 34.5372C79.5182 37.0713 79.1961 39.602 78.8772 42.1361C78.5613 44.6497 78.2548 47.1633 77.9358 49.6735C77.6045 52.2692 77.2576 54.8614 76.9263 57.4571C76.6445 59.6766 76.3751 61.8961 76.0995 64.119C76.0066 64.8714 75.9044 65.6272 75.8084 66.3796C75.7496 66.8481 75.5112 67.1661 75.1489 67.3953C74.5172 67.792 73.8173 67.9082 73.1175 68.0313C71.3617 68.3391 69.5874 68.3973 67.8161 68.411C65.249 68.4281 62.6788 68.4349 60.1117 68.3939C58.4953 68.3665 56.8727 68.3289 55.2779 67.9698C54.894 67.8843 54.5162 67.7646 54.1384 67.6483C53.3364 67.4021 52.9524 66.8412 52.8595 65.8974C52.6737 63.9856 52.3919 62.0842 52.1504 60.1793C51.8872 58.0966 51.6301 56.0105 51.3669 53.9278C51.1749 52.3991 50.9706 50.8739 50.7786 49.3452C50.5123 47.2317 50.2522 45.1148 49.9858 42.9979C49.7908 41.4487 49.5895 39.8995 49.3944 38.3503C49.1126 36.1103 48.8339 33.8669 48.5552 31.6269C48.3137 29.657 48.0721 27.6872 47.8306 25.7174C47.8058 25.5087 47.812 25.2967 47.7996 25.0847C47.7873 24.8419 47.9173 24.7427 48.1155 24.7256C48.2208 24.7188 48.3261 24.7188 48.4313 24.7188C53.7513 24.7188 59.0713 24.7188 64.3882 24.7188ZM49.1652 25.8918C49.2581 26.4458 49.3448 26.9861 49.4439 27.5196C50.1066 31.1447 50.76 34.7732 51.4382 38.3948C52.268 42.8338 53.1351 47.2625 53.9557 51.7049C54.1879 52.9703 54.8227 53.75 55.9158 54.1467C56.8851 54.4989 57.8884 54.5913 58.8917 54.6221C62.8399 54.7383 66.788 54.793 70.7331 54.5673C71.6869 54.5126 72.6127 54.3143 73.4798 53.8492C74.0527 53.5414 74.4645 53.0763 74.6193 52.3855C74.7989 51.5852 74.9538 50.7815 75.1055 49.9745C75.9013 45.768 76.7003 41.5582 77.4868 37.3483C78.0721 34.2123 78.6325 31.0729 79.2054 27.9368C79.3262 27.2666 79.447 26.5963 79.5739 25.8952H49.1652V25.8918Z" fill="#3452EA"/>
<path d="M52.2188 31.1147L54.7208 43.5118" stroke="#3452EA" stroke-width="2" stroke-miterlimit="10" stroke-linecap="round"/>
<path d="M55.1289 45.792L56.0827 50.3986C56.3583 51.7255 57.4235 52.6659 58.6559 52.6659H60.9753" stroke="#3452EA" stroke-width="2" stroke-miterlimit="10" stroke-linecap="round"/>
<path d="M58.4655 10.1597C56.8096 11.2325 55.7548 12.8933 57.1898 14.3459C58.0086 15.2907 59.4007 15.8397 60.2777 16.7868C61.9857 18.5093 60.9676 20.4194 58.4655 21.2521C60.2992 20.1747 61.2007 18.642 59.5755 17.1734C58.6648 16.2835 57.242 15.7025 56.457 14.6959C54.9483 12.9711 56.1779 11.0198 58.4624 10.162L58.4655 10.1597Z" fill="#3452EA"/>
<path d="M70.1276 8.77295C68.2648 9.84582 67.0781 11.5066 68.6926 12.9592C69.6136 13.904 71.1798 14.453 72.1664 15.4C74.0879 17.1226 72.9426 19.0327 70.1276 19.8654C72.1906 18.7879 73.2048 17.2553 71.3764 15.7866C70.3519 14.8968 68.7512 14.3157 67.8681 13.3092C66.1709 11.5844 67.5542 9.63308 70.1242 8.77524L70.1276 8.77295Z" fill="#3452EA"/>
<path d="M63.7872 6C60.4038 8.27094 60.6222 10.9395 64.0247 13.1162C65.6111 14.1528 67.0709 15.4722 67.1169 16.9478C67.1935 18.4097 65.7835 19.7957 63.7872 20.5588C67.5882 18.2649 66.6341 15.6998 63.1664 13.5759C59.5416 11.2245 59.3654 8.025 63.7872 6.0023V6Z" fill="#3452EA"/>
<path d="M64.5893 180.878C69.869 180.878 75.1519 180.878 80.4316 180.878C80.5276 180.878 80.6236 180.878 80.7195 180.878C81.054 180.888 81.1593 180.984 81.1407 181.36C81.1128 181.907 81.0633 182.458 80.9951 183.002C80.6824 185.567 80.3603 188.131 80.0383 190.696C79.7193 193.23 79.3973 195.761 79.0783 198.295C78.7625 200.809 78.4559 203.323 78.137 205.833C77.8056 208.428 77.4588 211.021 77.1275 213.616C76.8457 215.836 76.5763 218.055 76.3007 220.278C76.2078 221.031 76.1056 221.786 76.0096 222.539C75.9508 223.007 75.7123 223.325 75.35 223.554C74.7183 223.951 74.0185 224.067 73.3187 224.191C71.5629 224.498 69.7885 224.556 68.0173 224.57C65.4502 224.587 62.88 224.594 60.3129 224.553C58.6965 224.526 57.0739 224.488 55.4791 224.129C55.0951 224.043 54.7174 223.924 54.3396 223.808C53.5375 223.561 53.1536 223 53.0607 222.057C52.8749 220.145 52.5931 218.243 52.3515 216.339C52.0883 214.256 51.8313 212.17 51.5681 210.087C51.3761 208.558 51.1717 207.033 50.9797 205.504C50.7134 203.391 50.4533 201.274 50.187 199.157C49.9919 197.608 49.7907 196.059 49.5956 194.51C49.3138 192.27 49.0351 190.026 48.7564 187.786C48.5149 185.816 48.2733 183.846 48.0318 181.877C48.007 181.668 48.0132 181.456 48.0008 181.244C47.9884 181.001 48.1185 180.902 48.3167 180.885C48.422 180.878 48.5272 180.878 48.6325 180.878C53.9525 180.878 59.2725 180.878 64.5893 180.878ZM49.3664 182.051C49.4593 182.605 49.546 183.145 49.6451 183.679C50.3078 187.304 50.9612 190.932 51.6393 194.554C52.4692 198.993 53.3363 203.422 54.1569 207.864C54.3891 209.129 55.0239 209.909 56.117 210.306C57.0863 210.658 58.0896 210.75 59.0929 210.781C63.041 210.898 66.9892 210.952 70.9343 210.727C71.888 210.672 72.8139 210.473 73.681 210.008C74.2538 209.701 74.6657 209.235 74.8205 208.545C75.0001 207.744 75.1549 206.941 75.3067 206.134C76.1025 201.927 76.9014 197.717 77.688 193.507C78.2732 190.371 78.8337 187.232 79.4066 184.096C79.5274 183.426 79.6481 182.755 79.7751 182.054H49.3664V182.051Z" fill="#3452EA"/>
<path d="M52.4199 187.274L54.922 199.671" stroke="#3452EA" stroke-width="2" stroke-miterlimit="10" stroke-linecap="round"/>
<path d="M55.3301 201.951L56.2838 206.558C56.5594 207.885 57.6247 208.825 58.8571 208.825H61.1765" stroke="#3452EA" stroke-width="2" stroke-miterlimit="10" stroke-linecap="round"/>
<path d="M68.163 177.22C66.2652 178.035 64.0087 177.865 62.0943 177.089C62.0154 177.057 61.9369 177.024 61.8591 176.989C59.9649 176.16 58.1336 175.2 56.2771 174.287C56.0004 174.15 55.7187 174.006 55.4848 173.812C54.8684 173.298 54.8056 172.713 55.4948 172.314C57.4519 171.179 59.4442 170.082 61.4943 169.115C62.0125 168.87 62.8401 169.064 63.464 169.252C64.767 169.644 65.9996 169.842 67.3228 169.272C68.407 168.802 69.4912 169.015 70.5251 169.612C71.9086 170.412 73.35 171.122 74.731 171.925C76.0064 172.667 75.9536 173.555 74.6203 174.197C72.4796 175.225 70.3465 176.28 68.163 177.22ZM71.8382 173.568L71.7728 173.337C70.4546 173.401 69.1189 173.352 67.8234 173.553C66.1003 173.822 64.435 173.785 62.7118 173.514C61.4641 173.315 60.1586 173.475 58.7247 173.475C58.9688 173.683 59.0794 173.825 59.2253 173.893C60.5133 174.498 61.7887 175.132 63.1043 175.675C64.3847 176.206 65.7607 176.365 67.0687 175.861C68.6133 175.266 70.0924 174.515 71.5942 173.822C71.6948 173.776 71.7577 173.653 71.8382 173.565V173.568ZM71.7577 172.126C71.1665 171.81 70.593 171.57 70.1025 171.225C69.1566 170.562 68.1856 170.508 67.1618 170.978C65.9292 171.543 64.6639 171.585 63.4715 170.995C61.595 170.067 60.4504 171.514 58.8782 172.074C60.0806 172.613 70.5955 172.628 71.7577 172.126Z" fill="#3452EA"/>
<path d="M73.6525 173.44C73.554 173.548 73.4777 173.698 73.3547 173.756C71.5213 174.605 69.7175 175.525 67.8374 176.252C66.2427 176.868 64.5669 176.675 63.0042 176.024C61.4022 175.357 59.8444 174.583 58.2744 173.841C58.0947 173.756 57.9618 173.581 57.6641 173.328C59.4113 173.328 61.006 173.132 62.5268 173.375C64.6259 173.708 66.6586 173.754 68.7578 173.423C70.3376 173.175 71.9667 173.235 73.5737 173.16L73.6549 173.44H73.6525Z" fill="black"/>
<path d="M72.986 171.911C71.6606 172.675 59.6961 172.653 58.3301 171.833C60.1172 170.979 61.4211 168.781 63.5575 170.19C64.9164 171.089 66.3566 171.024 67.7586 170.163C68.9237 169.448 70.0266 169.53 71.1031 170.541C71.663 171.067 72.3137 171.43 72.9884 171.911H72.986Z" fill="black"/>
<path d="M221.589 182.878C226.869 182.878 232.152 182.878 237.432 182.878C237.528 182.878 237.624 182.878 237.72 182.878C238.054 182.889 238.159 182.984 238.141 183.361C238.113 183.908 238.063 184.458 237.995 185.002C237.682 187.567 237.36 190.132 237.038 192.697C236.719 195.231 236.397 197.762 236.078 200.296C235.762 202.809 235.456 205.323 235.137 207.833C234.806 210.429 234.459 213.021 234.127 215.617C233.846 217.836 233.576 220.056 233.301 222.279C233.208 223.031 233.106 223.787 233.01 224.539C232.951 225.008 232.712 225.326 232.35 225.555C231.718 225.952 231.018 226.068 230.319 226.191C228.563 226.499 226.789 226.557 225.017 226.571C222.45 226.588 219.88 226.595 217.313 226.554C215.696 226.526 214.074 226.489 212.479 226.129C212.095 226.044 211.717 225.924 211.34 225.808C210.538 225.562 210.154 225.001 210.061 224.057C209.875 222.145 209.593 220.244 209.352 218.339C209.088 216.256 208.831 214.17 208.568 212.087C208.376 210.559 208.172 209.034 207.98 207.505C207.713 205.391 207.453 203.274 207.187 201.158C206.992 199.608 206.791 198.059 206.596 196.51C206.314 194.27 206.035 192.027 205.756 189.787C205.515 187.817 205.273 185.847 205.032 183.877C205.007 183.668 205.013 183.456 205.001 183.244C204.988 183.002 205.118 182.902 205.317 182.885C205.422 182.878 205.527 182.878 205.633 182.878C210.952 182.878 216.272 182.878 221.589 182.878ZM206.366 184.051C206.459 184.605 206.546 185.146 206.645 185.679C207.308 189.304 207.961 192.933 208.639 196.554C209.469 200.993 210.336 205.422 211.157 209.865C211.389 211.13 212.024 211.91 213.117 212.306C214.086 212.659 215.09 212.751 216.093 212.782C220.041 212.898 223.989 212.953 227.934 212.727C228.888 212.672 229.814 212.474 230.681 212.009C231.254 211.701 231.666 211.236 231.821 210.545C232 209.745 232.155 208.941 232.307 208.134C233.103 203.928 233.901 199.718 234.688 195.508C235.273 192.372 235.834 189.233 236.407 186.097C236.527 185.426 236.648 184.756 236.775 184.055H206.366V184.051Z" fill="#3452EA"/>
<path d="M209.42 189.274L211.922 201.671" stroke="#3452EA" stroke-width="2" stroke-miterlimit="10" stroke-linecap="round"/>
<path d="M212.33 203.952L213.284 208.558C213.559 209.885 214.625 210.826 215.857 210.826H218.176" stroke="#3452EA" stroke-width="2" stroke-miterlimit="10" stroke-linecap="round"/>
<path d="M222.26 160L216.894 171.19C215.356 174.453 217.07 178.466 220.491 179.264C221.308 179.456 222.184 179.504 223.098 179.33C226.425 178.695 228.277 174.955 226.989 171.714L222.26 160Z" stroke="#3452EA" stroke-width="2" stroke-miterlimit="10"/>
<path d="M219.636 24.2646C224.916 24.2646 230.199 24.2646 235.478 24.2646C235.574 24.2646 235.67 24.2646 235.766 24.2646C236.101 24.2749 236.206 24.3707 236.188 24.7468C236.16 25.294 236.11 25.8446 236.042 26.3884C235.729 28.9533 235.407 31.5182 235.085 34.0831C234.766 36.6172 234.444 39.1479 234.125 41.682C233.809 44.1956 233.503 46.7092 233.184 49.2194C232.853 51.8151 232.506 54.4073 232.174 57.003C231.893 59.2225 231.623 61.442 231.348 63.6649C231.255 64.4173 231.152 65.1731 231.056 65.9255C230.998 66.394 230.759 66.712 230.397 66.9412C229.765 67.3379 229.065 67.4541 228.366 67.5772C226.61 67.885 224.835 67.9432 223.064 67.9569C220.497 67.974 217.927 67.9808 215.36 67.9398C213.743 67.9124 212.121 67.8748 210.526 67.5157C210.142 67.4302 209.764 67.3105 209.386 67.1942C208.584 66.948 208.2 66.3871 208.108 65.4433C207.922 63.5315 207.64 61.6301 207.398 59.7252C207.135 57.6425 206.878 55.5564 206.615 53.4737C206.423 51.945 206.219 50.4198 206.027 48.8911C205.76 46.7776 205.5 44.6607 205.234 42.5438C205.039 40.9946 204.838 39.4454 204.642 37.8962C204.361 35.6562 204.082 33.4128 203.803 31.1728C203.562 29.2029 203.32 27.2331 203.079 25.2632C203.054 25.0546 203.06 24.8426 203.048 24.6306C203.035 24.3878 203.165 24.2886 203.364 24.2715C203.469 24.2646 203.574 24.2646 203.679 24.2646C208.999 24.2646 214.319 24.2646 219.636 24.2646ZM204.413 25.4377C204.506 25.9917 204.593 26.532 204.692 27.0655C205.355 30.6906 206.008 34.3191 206.686 37.9407C207.516 42.3797 208.383 46.8084 209.204 51.2508C209.436 52.5162 210.071 53.2959 211.164 53.6926C212.133 54.0448 213.136 54.1372 214.14 54.168C218.088 54.2842 222.036 54.3389 225.981 54.1132C226.935 54.0585 227.861 53.8602 228.728 53.3951C229.301 53.0873 229.713 52.6222 229.867 51.9314C230.047 51.1311 230.202 50.3274 230.354 49.5204C231.149 45.3139 231.948 41.1041 232.735 36.8942C233.32 33.7582 233.881 30.6188 234.453 27.4827C234.574 26.8124 234.695 26.1422 234.822 25.4411H204.413V25.4377Z" fill="#3452EA"/>
<path d="M207.467 30.6606L209.969 43.0577" stroke="#3452EA" stroke-width="2" stroke-miterlimit="10" stroke-linecap="round"/>
<path d="M210.377 45.3379L211.331 49.9444C211.606 51.2714 212.672 52.2118 213.904 52.2118H216.223" stroke="#3452EA" stroke-width="2" stroke-miterlimit="10" stroke-linecap="round"/>
<path d="M231.009 7.46335C231.006 7.92817 230.755 8.3149 230.333 8.44505C229.654 8.657 228.971 8.84665 228.292 9.04745C228.044 9.12182 227.797 9.19991 227.55 9.27057C227.473 9.29288 227.445 9.33378 227.424 9.40815C227.177 10.3713 226.933 11.3344 226.679 12.2938C226.546 12.7958 226.153 13.1156 225.7 13.1118C225.278 13.1081 224.913 12.8329 224.794 12.4053C224.547 11.5017 224.306 10.5981 224.087 9.68333C224.021 9.40443 223.913 9.26313 223.637 9.19248C222.819 8.9768 222.007 8.70906 221.192 8.47851C220.641 8.32233 220.418 7.87611 220.422 7.42244C220.422 6.97622 220.655 6.6118 221.066 6.47793C221.655 6.28457 222.251 6.11351 222.843 5.93502C223.164 5.83834 223.488 5.73794 223.812 5.64869C223.92 5.61895 223.975 5.55573 224.003 5.44417C224.24 4.548 224.481 3.64811 224.721 2.75194C224.787 2.50652 224.86 2.26853 225.041 2.08632C225.547 1.5806 226.351 1.75165 226.606 2.43958C226.735 2.78541 226.811 3.15726 226.905 3.51796C227.079 4.17243 227.25 4.82689 227.417 5.48136C227.442 5.57804 227.491 5.62266 227.581 5.64869C228.476 5.90899 229.368 6.16929 230.26 6.44446C230.755 6.59693 231.02 6.97994 231.016 7.4745L231.009 7.46335ZM221.408 7.4336C221.408 7.4336 221.408 7.45591 221.408 7.46707C221.471 7.48566 221.53 7.50797 221.592 7.52656C222.477 7.79058 223.362 8.05088 224.247 8.3149C224.595 8.41902 224.815 8.67188 224.909 9.04002C225.021 9.46021 225.115 9.88413 225.223 10.3043C225.369 10.8881 225.515 11.472 225.662 12.052C225.717 11.9777 225.745 11.8996 225.766 11.8215C226.003 10.9142 226.236 10.0068 226.477 9.09951C226.585 8.68675 226.839 8.41902 227.222 8.30746C228.107 8.04344 228.996 7.78686 229.88 7.52656C229.919 7.51541 229.957 7.49682 230.02 7.4745C229.978 7.45591 229.968 7.45219 229.957 7.44847C229.058 7.17702 228.159 6.90185 227.257 6.63783C226.86 6.52255 226.613 6.26597 226.505 5.84578C226.32 5.13182 226.132 4.41785 225.944 3.70389C225.874 3.43244 225.801 3.1647 225.728 2.89325C225.682 2.94531 225.665 3.00108 225.651 3.05686C225.404 4.00509 225.163 4.95704 224.906 5.90156C224.808 6.25482 224.575 6.48909 224.237 6.58949C223.536 6.79773 222.836 7.00225 222.136 7.21049C221.896 7.28114 221.652 7.35551 221.411 7.42988L221.408 7.4336Z" fill="#3452EA"/>
<path d="M208.377 5.66405C208.381 5.1732 208.624 4.80878 209.077 4.66376C209.656 4.47783 210.241 4.3105 210.823 4.13944C211.15 4.04276 211.474 3.94236 211.802 3.85312C211.906 3.82337 211.955 3.76759 211.983 3.65603C212.22 2.73011 212.46 1.80791 212.7 0.88199C212.798 0.498979 212.99 0.201495 213.355 0.0601896C213.857 -0.129457 214.418 0.141998 214.589 0.692344C214.739 1.17947 214.853 1.68148 214.986 2.17605C215.118 2.67805 215.251 3.18378 215.38 3.68578C215.404 3.78246 215.449 3.82337 215.536 3.8494C216.428 4.1097 217.317 4.36628 218.205 4.63773C218.849 4.83481 219.146 5.48184 218.888 6.10284C218.769 6.39289 218.557 6.5751 218.271 6.65691C217.421 6.90977 216.574 7.17007 215.721 7.40805C215.488 7.47127 215.383 7.58283 215.32 7.83941C215.101 8.75045 214.853 9.65406 214.613 10.5577C214.435 11.2307 213.753 11.4687 213.261 11.2196C212.983 11.0783 212.805 10.8403 212.725 10.5279C212.471 9.54994 212.22 8.57196 211.962 7.59398C211.951 7.55308 211.896 7.50845 211.854 7.49358C211.443 7.36715 211.028 7.24816 210.617 7.12173C210.105 6.96926 209.593 6.82424 209.084 6.65691C208.621 6.50445 208.37 6.14003 208.377 5.66033V5.66405ZM217.971 5.67893C217.971 5.67893 217.971 5.65661 217.971 5.64546C217.926 5.63058 217.881 5.61571 217.836 5.60084C216.975 5.34426 216.115 5.08396 215.251 4.83481C214.798 4.70466 214.547 4.38487 214.428 3.90889C214.202 3.00529 213.965 2.10168 213.728 1.19807C213.718 1.15344 213.69 1.11254 213.659 1.04933C213.582 1.35425 213.519 1.62942 213.449 1.90087C213.268 2.58881 213.084 3.27674 212.903 3.96467C212.791 4.39231 212.551 4.67492 212.147 4.79019C211.492 4.97984 210.84 5.17692 210.189 5.37029C209.924 5.44838 209.656 5.53018 209.391 5.60827C209.391 5.62315 209.391 5.6343 209.387 5.64918C209.474 5.67893 209.558 5.70867 209.645 5.7347C210.471 5.98013 211.297 6.22555 212.126 6.46726C212.558 6.59369 212.815 6.89117 212.92 7.35228C212.937 7.43408 212.955 7.51217 212.976 7.59398C213.202 8.46412 213.429 9.33798 213.655 10.2081C213.665 10.2081 213.676 10.2118 213.683 10.2156C213.707 10.1412 213.735 10.0705 213.756 9.99245C213.996 9.08512 214.23 8.17779 214.47 7.27419C214.578 6.8763 214.819 6.60856 215.198 6.49701C215.561 6.38917 215.923 6.28505 216.285 6.17721C216.846 6.00988 217.411 5.84254 217.971 5.67521V5.67893Z" fill="#3452EA"/>
<path d="M213.186 13.7744C213.179 13.3058 213.443 12.9005 213.869 12.7704C214.774 12.4952 215.684 12.2275 216.596 11.9634C216.708 11.93 216.767 11.8816 216.798 11.7552C217.035 10.8256 217.279 9.89964 217.52 8.97C217.572 8.7692 217.652 8.58327 217.788 8.43453C218.328 7.85071 219.22 8.08498 219.432 8.87332C219.69 9.83642 219.941 10.8032 220.192 11.7701C220.219 11.8705 220.258 11.93 220.359 11.9597C221.223 12.2089 222.083 12.4692 222.944 12.722C223.257 12.815 223.529 12.9674 223.682 13.2947C223.954 13.8711 223.696 14.5776 223.118 14.7635C222.379 14.9978 221.63 15.2023 220.885 15.4217C220.693 15.4775 220.498 15.5332 220.31 15.6002C220.265 15.6151 220.216 15.6671 220.202 15.7155C219.951 16.6674 219.704 17.6194 219.46 18.575C219.342 19.0361 219.08 19.3336 218.631 19.408C218.147 19.4898 217.729 19.2221 217.572 18.7275C217.457 18.3742 217.373 18.0098 217.279 17.6491C217.112 17.0058 216.952 16.3625 216.777 15.7229C216.764 15.6708 216.697 15.6151 216.645 15.5965C216.244 15.4738 215.844 15.3585 215.44 15.2395C214.917 15.0833 214.391 14.9308 213.872 14.7635C213.433 14.6222 213.193 14.2615 213.186 13.7781V13.7744ZM214.192 13.726C214.192 13.726 214.192 13.7483 214.192 13.7595C214.227 13.7744 214.262 13.7892 214.3 13.7967C215.178 14.057 216.053 14.321 216.934 14.5739C217.349 14.6929 217.596 14.968 217.708 15.3994C217.917 16.2026 218.122 17.0058 218.331 17.8053C218.377 17.9801 218.425 18.1585 218.481 18.3742C218.519 18.2589 218.547 18.1846 218.568 18.1065C218.802 17.2029 219.038 16.2993 219.268 15.3957C219.38 14.968 219.638 14.6966 220.035 14.5776C220.916 14.3136 221.798 14.0533 222.679 13.7892C222.714 13.7781 222.752 13.7632 222.787 13.7483C222.634 13.674 222.48 13.6256 222.331 13.581C221.561 13.3542 220.787 13.1273 220.017 12.8968C219.763 12.8224 219.547 12.6811 219.415 12.4357C219.338 12.2944 219.282 12.1345 219.241 11.9783C219.007 11.0896 218.777 10.1971 218.547 9.30839C218.533 9.25633 218.509 9.20427 218.485 9.13362C218.216 10.1525 217.955 11.1379 217.694 12.1233C217.582 12.5398 217.324 12.789 216.938 12.9005C216.171 13.1273 215.401 13.3542 214.635 13.581C214.489 13.6256 214.342 13.674 214.196 13.7223L214.192 13.726Z" fill="#3452EA"/>
</g>
<defs>
<filter id="filter0_d_2403_12" x="1.51172" y="0" width="280.246" height="306.18" filterUnits="userSpaceOnUse" color-interpolation-filters="sRGB">
<feFlood flood-opacity="0" result="BackgroundImageFix"/>
<feColorMatrix in="SourceAlpha" type="matrix" values="0 0 0 0 0 0 0 0 0 0 0 0 0 0 0 0 0 0 127 0" result="hardAlpha"/>
<feOffset dy="4"/>
<feGaussianBlur stdDeviation="2"/>
<feComposite in2="hardAlpha" operator="out"/>
<feColorMatrix type="matrix" values="0 0 0 0 0 0 0 0 0 0 0 0 0 0 0 0 0 0 0.25 0"/>
<feBlend mode="normal" in2="BackgroundImageFix" result="effect1_dropShadow_2403_12"/>
<feBlend mode="normal" in="SourceGraphic" in2="effect1_dropShadow_2403_12" result="shape"/>
</filter>
</defs>
</svg>
