<svg width="661" height="452" viewBox="0 0 661 452" fill="none" xmlns="http://www.w3.org/2000/svg">
<path d="M0.0610483 182.082V172.955C0.0610483 172.543 0.0906536 172.131 0.0610483 171.719C0.00183768 171.071 0.23868 170.689 0.801181 170.365C5.50843 167.686 10.2157 164.977 14.8933 162.268C20.844 158.824 26.7947 155.35 32.7749 151.905C37.8078 148.99 42.8999 146.105 47.9328 143.19C57.1697 137.861 66.377 132.503 75.5842 127.145C84.5546 121.934 93.4954 116.752 102.466 111.541C107.913 108.391 113.39 105.241 118.838 102.09C119.933 101.472 120.969 100.765 122.213 100C122.242 100.53 122.301 100.913 122.301 101.295C122.301 127.793 122.301 154.29 122.301 180.787C122.301 185.056 122.301 189.325 122.272 193.594C122.272 194.742 122.568 195.007 123.634 194.595C124.433 194.3 124.759 194.448 125.114 195.272C127.275 200.218 128.519 205.4 129.111 210.729C129.495 214.144 129.259 217.53 128.903 220.945C128.193 227.304 126.002 233.192 122.834 238.727C122.479 239.346 122.272 240.111 122.272 240.818C122.242 251.24 122.242 261.633 122.272 272.055C122.272 272.791 122.509 273.586 122.834 274.234C125.084 278.709 126.683 283.36 127.512 288.306C128.134 292.193 128.4 296.079 127.956 299.995C127.601 303.086 127.216 306.177 126.387 309.18C125.617 311.977 124.374 314.627 123.19 317.277C122.568 318.66 122.213 319.985 122.242 321.516C122.301 330.113 122.242 338.68 122.272 347.277C122.272 347.513 122.272 347.748 122.301 348.072H128.193V372.715C127.038 372.715 125.854 372.715 124.699 372.715C122.242 372.715 122.272 372.715 122.272 375.158C122.272 392.499 122.272 409.869 122.301 427.21C122.301 429.625 122.686 432.068 122.982 434.482C123.19 436.131 124.315 437.191 125.706 437.927C127.571 438.899 129.555 439.37 131.627 439.517C133.847 439.664 136.097 439.782 138.347 439.841C139.058 439.841 138.999 440.312 138.999 440.753C138.999 442.755 138.969 444.757 138.969 446.759C138.969 448.173 138.969 449.586 138.999 450.999C138.999 451.735 138.821 452 137.992 452C99.2685 452 60.5151 452 21.7914 452C14.9229 452 8.05448 452 1.15645 452C0.297891 452 -0.0277676 451.794 0.00183768 450.881C0.0610483 447.26 0.00183768 443.668 0.00183768 439.929C0.505128 439.929 0.919602 439.87 1.36368 439.87C4.70908 439.782 8.08409 439.782 11.3407 438.81C12.2288 438.545 13.117 438.192 13.9755 437.78C15.367 437.132 16.1959 436.013 16.6992 434.6C17.5578 432.186 17.6762 429.713 17.6762 427.21C17.6762 403.569 17.6762 379.928 17.6762 356.286C17.6762 302.85 17.6762 249.415 17.6762 195.979C17.6762 193.506 17.4986 191.062 16.6992 188.677C15.515 185.174 13.3242 183.024 9.53475 182.701C6.75185 182.465 3.96895 182.318 1.18605 182.141C0.830786 182.141 0.475523 182.141 0.031443 182.141L0.0610483 182.082ZM90.4165 167.45C90.4165 167.833 90.4165 168.186 90.4165 168.539C90.4165 183.702 90.4165 198.834 90.4165 213.997C90.4165 218.531 90.4165 223.065 90.4165 227.599C90.4165 228.335 90.2388 228.6 89.4395 228.393C86.4198 227.599 83.4 226.833 80.3803 226.068C75.8211 224.919 71.2322 223.83 66.673 222.711C66.1105 222.564 65.6664 222.505 65.6664 221.681C65.7256 214.733 65.696 207.814 65.696 200.866C65.696 200.571 65.6664 200.248 65.6368 199.953L65.1927 199.659C65.0447 199.953 64.9855 200.277 64.7783 200.542C62.0842 203.987 60.3375 207.873 59.8934 212.26C59.2717 218.707 60.8408 224.478 65.3408 229.247C70.7289 234.988 77.3013 238.05 85.2948 236.873C93.4658 235.665 99.3869 231.131 102.791 223.624C105.101 218.589 105.367 213.29 103.946 207.961C103.472 206.165 102.851 204.428 102.347 202.662C102.229 202.279 101.992 201.837 102.673 201.602C107.41 200.041 112.147 198.452 116.913 196.921C117.565 196.715 117.713 196.45 117.713 195.802C117.653 192.298 117.624 188.795 117.624 185.291C117.624 160.06 117.624 134.829 117.653 109.598C117.653 109.215 117.594 108.803 117.565 108.244C116.173 109.009 114.959 109.686 113.745 110.393C108.18 113.631 102.614 116.929 97.0481 120.138C85.2948 126.968 73.5118 133.769 61.7289 140.57C56.7552 143.455 51.7815 146.311 46.8078 149.167C42.1598 151.846 37.5118 154.496 32.8637 157.175C23.8045 162.386 14.7453 167.627 5.68606 172.808C4.94593 173.22 4.47224 173.633 4.62027 174.575C4.70908 175.281 4.67948 175.988 4.62027 176.695C4.59066 177.342 4.88671 177.578 5.50843 177.637C6.30777 177.666 7.10711 177.666 7.87685 177.843C10.0676 178.284 12.3176 178.549 14.39 179.344C17.6762 180.61 19.5413 183.348 20.7552 186.528C21.8802 189.443 22.2058 192.475 22.2058 195.596C22.2058 272.29 22.2058 348.985 22.2058 425.709C22.2058 428.182 22.1466 430.655 21.821 433.099C21.2881 436.897 19.6894 440.194 15.9887 441.902C14.242 442.726 12.3473 443.226 10.4525 443.639C8.58738 444.051 6.63343 444.227 4.64987 444.492C4.64987 445.17 4.67948 445.817 4.64987 446.494C4.59066 447.23 4.94593 447.407 5.59724 447.407C7.13672 447.378 8.6762 447.348 10.1861 447.348C27.742 447.348 45.298 447.378 62.8539 447.378C74.8145 447.378 86.7454 447.319 98.706 447.319C105.456 447.319 112.206 447.378 118.956 447.378C123.663 447.378 128.4 447.378 133.107 447.378C134.351 447.378 134.351 447.437 134.351 446.229C134.351 444.934 133.699 444.247 132.397 444.169C129.644 443.992 126.979 443.462 124.433 442.343C121.62 441.077 119.311 439.311 118.66 436.131C118.186 433.923 117.772 431.685 117.742 429.448C117.624 419.556 117.683 409.693 117.683 399.801C117.683 398.122 117.624 398.093 115.936 398.122C114.367 398.122 112.768 398.122 110.992 398.122C111.288 397.887 111.377 397.769 111.495 397.71C113.361 396.621 115.255 395.502 117.12 394.413C117.328 394.295 117.624 394.118 117.624 393.971C117.653 392.852 117.624 391.734 117.624 390.438C117.032 390.733 116.647 390.909 116.321 391.115C113.509 392.764 110.578 394.295 107.884 396.12C105.338 397.857 102.614 398.387 99.6237 398.181C98.3211 398.093 97.0185 398.181 95.7158 398.181C98.9724 396.062 102.229 394.118 105.486 392.234C109.186 390.085 112.887 387.965 116.558 385.787C116.972 385.551 117.535 385.168 117.594 384.786C117.742 383.785 117.653 382.725 117.653 381.576C117.239 381.753 116.972 381.841 116.765 381.959C112.206 384.609 107.647 387.259 103.088 389.908C98.5283 392.558 93.9691 395.208 89.4099 397.828C89.025 398.064 88.5217 398.152 88.0777 398.152C86.5974 398.181 85.1171 398.152 83.6665 398.152C82.6007 398.152 81.5053 398.152 80.4395 398.152C80.6171 397.828 80.8244 397.651 81.0612 397.534C86.9527 394.089 92.8441 390.644 98.7652 387.229C102.851 384.844 107.025 382.577 111.081 380.104C112.976 378.956 114.782 377.926 117.091 378.308C117.683 378.397 117.683 378.014 117.683 377.602C117.683 376.395 117.683 375.188 117.683 373.981C117.683 372.715 117.683 372.715 116.38 372.715C100.305 372.715 84.229 372.715 68.1533 372.715H67.1171V348.102C67.4724 348.102 67.798 348.102 68.1237 348.102C84.0217 348.102 99.9198 348.102 115.818 348.102C116.173 348.102 116.528 348.102 116.884 348.102C117.476 348.161 117.683 347.896 117.653 347.336C117.624 346.512 117.624 345.688 117.624 344.863C117.624 339.063 117.683 333.263 117.683 327.493C117.683 327.11 117.594 326.727 117.535 326.315C117.446 326.315 117.357 326.315 117.268 326.315C116.943 326.757 116.617 327.198 116.262 327.611C113.864 330.26 111.288 332.704 108.328 334.735C100.512 340.094 91.8375 342.802 82.3934 343.038C79.5809 343.097 76.7388 342.773 73.9263 342.567C68.6862 342.184 63.7421 340.594 59.1236 338.239C53.3506 335.295 48.4065 331.232 44.2322 326.227C38.4295 319.249 35.0841 311.241 33.8111 302.32C33.219 298.14 33.2486 293.959 33.8111 289.749C34.492 284.361 36.1203 279.268 38.6664 274.498C41.1828 269.788 44.4986 265.666 48.2881 261.927C49.2651 260.955 49.2651 260.985 50.3013 261.692C51.3375 262.369 52.3736 263.016 53.469 263.635C59.0052 266.814 64.571 269.965 70.1072 273.115C70.7881 273.497 71.4395 273.939 72.2388 274.41C71.8835 274.675 71.6763 274.881 71.4395 275.028C68.6862 277.089 65.9921 279.239 63.6829 281.829C59.9526 286.039 58.1171 290.956 58.2355 296.521C58.3243 301.408 59.6862 305.971 62.8243 309.857C65.0743 312.654 67.7092 314.98 71.025 316.393C76.2947 318.66 81.7125 319.102 87.2487 317.424C93.4658 315.54 98.1435 311.771 100.926 305.883C103.028 301.437 103.532 296.697 102.614 291.869C101.903 288.071 100.453 284.567 97.8178 281.623C95.8935 279.445 93.7619 277.531 91.3934 275.853C90.4165 275.146 89.4691 274.44 88.3737 273.645C88.8474 273.321 89.173 273.056 89.5283 272.85C96.6632 268.728 103.828 264.636 110.992 260.543C111.199 260.426 111.614 260.426 111.851 260.543C112.206 260.72 112.502 261.044 112.768 261.338C114.219 262.899 115.64 264.459 117.091 266.019C117.209 266.137 117.387 266.225 117.624 266.373V246.205C116.765 247.03 116.025 247.677 115.344 248.384C109.512 254.685 102.229 258.6 94.0283 260.749C88.8178 262.104 83.4592 262.428 78.0711 261.986C73.3342 261.574 68.8046 260.337 64.4822 258.453C58.3835 255.774 52.9954 252.005 48.3177 247.236C42.6927 241.495 38.6368 234.87 36.5644 227.069C34.6105 219.708 34.344 212.289 36.0019 204.84C37.423 198.452 40.1763 192.652 43.9953 187.323C49.0875 180.257 55.6006 174.928 63.6237 171.513C65.1335 170.865 66.6138 170.247 68.2421 169.805C75.4954 167.774 82.8671 167.509 90.4165 167.597V167.45ZM85.6796 222.593C85.7388 222.152 85.7684 221.946 85.7684 221.71C85.7684 216.264 85.7388 210.817 85.7388 205.4C85.7388 194.654 85.7388 183.937 85.7388 173.191C85.7388 172.043 85.7092 172.013 84.525 172.072C81.9494 172.219 79.3441 172.278 76.7684 172.602C71.0842 173.368 65.696 175.046 60.7223 177.961C53.2026 182.406 47.548 188.559 43.7289 196.361C39.9098 204.134 38.844 212.348 39.9394 220.886C40.798 227.363 43.1368 233.281 46.9855 238.551C51.1006 244.203 56.1335 248.855 62.3802 252.064C65.1039 253.448 67.8868 254.743 70.7881 255.686C75.5546 257.275 80.4987 257.717 85.5316 257.334C89.6171 257.04 93.5842 256.245 97.3737 254.743C104.094 252.123 109.66 247.854 114.397 242.466C117.861 238.521 120.555 234.164 122.272 229.218C124.196 223.595 124.877 217.795 124.581 211.877C124.374 208.05 123.693 204.31 122.331 200.719C122.124 200.189 121.917 199.983 121.295 200.189C117.209 201.572 113.094 202.927 109.009 204.31C107.854 204.693 107.884 204.723 108.209 205.9C109.364 210.199 109.838 214.556 109.038 218.972C108.15 223.977 105.989 228.423 102.673 232.25C96.5448 239.346 88.6994 242.349 79.3441 241.436C74.4296 240.965 70.0776 239.081 66.1993 236.107C58.2355 230.013 54.446 221.946 55.275 211.936C55.6302 207.578 57.3177 203.604 59.7454 199.924C62.321 196.008 65.9033 193.152 69.752 190.591C69.8408 190.532 69.9592 190.561 70.2256 190.502C70.2256 190.944 70.2256 191.297 70.2256 191.68C70.2256 200.454 70.2256 209.198 70.196 217.971C70.196 218.56 70.3441 218.913 70.9658 219.061C74.0447 219.797 77.1237 220.591 80.2026 221.357C81.979 221.799 83.7257 222.211 85.65 222.652L85.6796 222.593ZM96.9 273.88C96.9 273.88 96.9592 274.116 97.0185 274.175C97.1961 274.351 97.3737 274.469 97.5514 274.646C99.9494 276.765 102.111 279.062 103.768 281.829C107.262 287.747 108.357 294.106 107.262 300.848C106.255 307.119 103.265 312.36 98.4987 316.452C91.8967 322.105 84.1105 323.813 75.6138 322.458C69.4263 321.457 64.275 318.484 60.3079 313.714C53.321 305.324 51.8111 295.932 55.8375 285.774C57.4658 281.682 60.2783 278.385 63.4756 275.441C63.9789 274.97 63.9493 274.705 63.3572 274.41C62.9427 274.204 62.5579 273.939 62.1434 273.704C58.4427 271.584 54.7125 269.493 51.0118 267.374C49.8868 266.726 49.946 266.697 49.0875 267.639C46.6006 270.347 44.4986 273.321 42.7223 276.5C39.4361 282.418 38.1335 288.866 38.0743 295.549C37.9855 302.939 39.5545 309.946 43.1664 316.452C46.6006 322.606 51.1302 327.758 57.0217 331.644C62.7355 335.412 69.0414 337.621 75.9099 338.239C81.5645 338.739 87.1895 338.533 92.6665 337.002C99.3869 335.118 105.426 331.909 110.489 326.992C114.574 323.047 117.861 318.602 120.081 313.39C121.828 309.298 122.834 305 123.338 300.554C123.87 295.902 123.604 291.339 122.627 286.805C120.999 278.974 117.002 272.438 111.525 266.697C111.022 266.196 110.607 266.108 109.986 266.461C105.841 268.816 101.666 271.142 97.5218 273.468C97.2849 273.586 97.1073 273.762 96.9 273.91V273.88ZM97.9362 368.092C98.2915 368.092 98.6468 368.092 99.002 368.092C106.907 368.092 114.811 368.092 122.716 368.092C123.308 368.092 123.663 368.004 123.663 367.297C123.663 362.705 123.663 358.141 123.663 353.548C123.663 352.901 123.456 352.577 122.745 352.577C119.341 352.636 115.907 352.695 112.502 352.695C99.3277 352.695 86.1533 352.695 72.9493 352.695C71.7059 352.695 71.7059 352.695 71.7059 353.931C71.7059 357.994 71.7059 362.057 71.7059 366.09C71.7059 368.092 71.7059 368.092 73.6895 368.092C81.7717 368.092 89.854 368.092 97.9362 368.092Z" fill="black"/>
<path d="M12.0004 56.9124C12.0301 25.2676 38.1685 -0.746177 70.9156 0.0163477C102.744 0.778872 128.201 26.734 126.956 59.2293C125.8 89.4077 100.64 114.718 67.8928 113.984C36.6571 113.281 11.8819 87.1495 12.0004 56.8538V56.9124ZM68.3966 4.5915C40.9839 4.82612 15.8827 27.7312 16.5939 58.3788C17.2459 86.5042 40.9839 109.673 69.7006 109.527C96.9948 109.38 123.637 87.736 122.363 54.4195C121.296 26.5581 97.8246 4.15158 68.3966 4.5915Z" fill="black"/>
<path d="M387 230.078C385.859 258.461 367.732 276.813 341.167 277.953C310.384 279.206 291.23 255.383 291.002 230.533C290.774 205.114 310.27 183.228 338.203 183C367.048 182.886 387.114 204.316 387 230.078ZM313.918 230.99C313.918 236.575 315.742 241.704 318.707 246.378C325.433 256.865 339.001 260.626 349.832 254.927C357.243 251.051 361.005 244.554 362.943 236.689C367.276 219.933 354.734 203.176 338.203 203.632C324.407 204.088 313.918 215.829 313.804 230.875L313.918 230.99Z" fill="white"/>
<path d="M403 276.949V185C419.208 186.138 435.302 183.407 451.281 187.276C467.832 191.259 480.159 204.915 482.327 221.757C483.583 231.316 483.24 240.648 479.93 249.638C474.566 264.318 463.608 272.625 448.542 275.811C445.803 276.38 442.949 276.949 440.096 276.949C427.883 277.063 415.555 276.949 403 276.949ZM425.029 230.975C425.029 238.827 425.029 246.679 425.029 254.531C425.029 257.262 426.056 258.286 428.567 258.173C432.22 258.059 435.872 258.173 439.411 257.604C448.542 255.897 456.189 251.572 458.13 241.672C459.271 235.982 459.728 229.95 459.043 224.261C457.901 215.726 453.336 208.67 444.433 206.28C438.954 204.801 433.019 204.915 427.312 204.459C425.029 204.346 425.029 206.167 425.029 207.76C425.029 215.498 425.029 223.236 425.029 230.975Z" fill="white"/>
<path d="M572.891 186.274C572.316 187.293 571.857 188.426 571.283 189.445C564.506 201.11 557.959 212.889 551.067 224.441C549.114 227.838 549.229 230.67 551.067 233.954C558.188 246.186 564.965 258.644 571.972 270.988C572.316 271.668 572.776 272.347 573.12 273.027C574.729 276.424 574.269 276.877 570.593 276.877C564.621 276.877 558.648 276.877 552.79 276.877C550.378 276.877 549.114 275.858 548.08 273.82C542.682 263.174 537.283 252.641 531.77 242.108C530.736 239.957 523.04 238.371 521.547 240.07C520.858 240.749 520.743 242.108 520.743 243.241C520.743 253.207 520.513 263.174 520.743 273.14C520.743 276.198 519.939 277.104 516.838 276.991C511.669 276.764 506.5 276.877 501.331 276.991C498.804 276.991 498 276.198 498 273.593C498 245.053 498 216.626 498 188.086C498 186.048 498.689 185.255 500.757 185.255C506.385 185.255 512.013 185.481 517.527 185.368C520.169 185.368 520.858 186.387 520.743 188.879C520.513 197.6 520.513 206.32 520.513 215.041C520.513 217.192 520.054 219.911 522.925 220.817C526.601 221.949 530.736 220.59 532.229 217.645C537.513 207.792 542.682 197.826 548.08 187.973C548.769 186.727 550.492 185.255 551.756 185.142C558.533 184.915 565.425 185.028 572.316 185.028C572.546 185.481 572.661 185.934 572.891 186.387V186.274Z" fill="white"/>
<path d="M661 277C653.905 277 647.035 277 640.278 276.887C639.603 276.887 638.589 275.299 638.251 274.392C636.787 269.63 635.549 264.868 633.972 260.106C633.634 259.085 632.283 257.838 631.382 257.838C623.386 257.725 615.503 257.838 607.507 257.838C605.142 257.838 603.903 258.745 603.453 261.239C602.552 265.775 601.425 270.197 599.961 274.619C599.624 275.526 598.047 276.66 597.033 276.66C590.389 276.887 583.857 276.66 577.1 276.66C577.1 276.093 576.875 275.639 577.1 275.299C585.659 250.128 594.218 224.956 602.777 199.671C604.241 195.476 605.367 191.281 606.831 187.085C607.169 186.292 608.295 185.271 609.083 185.271C615.503 185.044 621.809 184.931 628.228 185.045C629.467 185.045 631.269 186.292 631.607 187.426C638.589 207.835 645.459 228.244 652.216 248.654C655.031 257.044 657.734 265.321 660.55 273.712C660.775 274.506 660.775 275.413 661 276.773V277ZM619.782 207.835C619.782 207.835 618.994 207.835 618.543 207.835C618.093 208.969 617.642 210.216 617.305 211.35C616.291 215.432 615.503 219.514 614.489 223.482C613.25 228.131 612.011 232.893 610.66 237.542C610.097 239.583 610.66 240.15 612.687 240.15C616.854 240.036 621.021 239.923 625.075 240.263C627.891 240.49 628.003 239.47 627.44 237.088C625.638 230.739 624.062 224.276 622.372 217.813C621.471 214.525 620.57 211.123 619.669 207.835H619.782Z" fill="white"/>
<path d="M200.113 184.258C207.776 184.258 214.988 184.258 222.088 184.372C223.102 184.372 224.68 185.862 225.018 186.894C229.639 202.254 234.259 217.614 238.654 233.088C240.006 237.903 241.021 242.832 242.26 247.761C242.486 248.678 242.824 249.48 243.162 250.397C243.5 250.397 243.838 250.397 244.063 250.397C244.514 249.366 245.078 248.334 245.303 247.302C251.051 227.586 256.685 207.985 262.32 188.155C263.221 184.945 264.912 183.799 268.067 184.028C274.04 184.258 280.126 184.028 287 184.028C285.986 187.467 285.31 190.104 284.408 192.74C275.054 219.792 265.588 246.958 256.122 274.01C255.333 276.188 254.319 277.105 251.952 276.99C246.205 276.761 240.457 276.99 234.823 276.761C233.583 276.761 231.667 275.615 231.329 274.583C227.723 264.611 224.567 254.524 221.074 244.551C214.425 225.523 207.776 206.495 201.014 187.467C200.676 186.665 200.451 185.748 200 184.028L200.113 184.258Z" fill="white"/>
<path d="M558.734 306C563.044 316.783 567.354 327.451 571.664 338.234C572.004 338.234 572.458 338.234 572.798 338.234C573.251 337.087 573.819 335.94 574.272 334.793C577.448 326.763 580.51 318.619 583.686 310.589C583.913 309.9 584.14 309.212 584.48 308.753C585.047 308.065 585.728 307.606 586.408 307.032C586.975 307.835 587.883 308.409 587.996 309.327C589.471 316.668 590.718 323.895 592.079 331.237C592.873 335.825 593.781 340.414 594.461 345.117C594.688 346.838 596.163 349.476 592.987 350.165C590.038 350.738 589.471 348.444 589.13 346.15C588.11 339.84 587.202 333.531 586.181 327.222C585.955 325.96 585.614 324.584 585.274 323.322L584.253 322.977C583.459 324.469 582.552 325.845 581.985 327.451C579.49 333.99 577.108 340.758 574.499 347.297C573.932 348.673 572.911 349.82 571.55 352C567.354 341.905 563.611 332.843 559.868 323.666C559.641 323.666 559.301 323.666 559.074 323.666C558.847 324.354 558.393 324.928 558.28 325.616C557.146 332.728 556.125 339.84 554.764 346.838C554.537 348.1 553.176 349.591 552.042 349.935C549.887 350.509 548.639 349.361 549.093 346.838C551.361 334.449 553.516 322.06 555.785 309.786C556.011 308.638 556.692 307.491 557.146 306.344C557.599 306.344 558.166 306.115 558.62 306H558.734Z" fill="white"/>
<path d="M435.44 339.872C441.296 328.877 443.436 317.315 449.067 307.453C449.405 307.453 449.743 307.453 450.194 307.453C450.757 308.814 451.545 310.174 451.77 311.534C453.91 323.322 456.05 335.111 457.965 346.899C458.19 347.919 457.289 349.846 456.501 350.187C454.699 350.867 452.784 350.413 452.446 348.033C451.658 343.612 451.095 339.078 450.419 334.657C449.856 331.144 449.18 327.63 448.392 322.982C447.265 324.683 446.477 325.589 446.027 326.723C443.436 333.184 441.071 339.758 438.481 346.332C437.805 348.146 436.679 349.96 435.89 351.773C435.44 351.773 435.102 351.887 434.651 352C431.16 342.705 427.668 333.524 424.177 324.229C423.952 324.116 423.614 324.002 423.389 323.889C422.826 325.136 422.15 326.383 421.925 327.63C420.798 333.864 419.897 340.098 418.884 346.332C418.771 347.126 418.771 348.26 418.321 348.6C417.194 349.393 415.843 350.186 414.491 350.3C414.041 350.3 412.802 348.26 413.027 347.353C415.167 334.998 417.42 322.642 419.672 310.4C419.897 309.267 420.686 308.247 421.249 307.227C421.699 307.227 422.037 307.113 422.488 307C426.767 317.655 431.047 328.31 435.665 339.985L435.44 339.872Z" fill="white"/>
<path d="M324.339 327.457C324.339 321.884 324.339 316.311 324.339 310.739C324.339 309.715 325.583 308.009 326.261 308.009C332.592 308.009 338.809 307.895 345.14 308.464C350.114 308.919 352.94 312.558 354.41 317.221C355.879 321.77 354.523 325.751 351.245 329.049C348.004 332.309 347.552 336.024 349.888 340.194C350.905 342.014 352.149 343.606 352.827 345.54C353.279 346.791 353.166 348.269 353.279 349.634C351.358 349.293 348.531 349.634 347.627 348.383C345.479 345.653 343.896 342.355 342.653 339.171C340.957 334.508 337.905 332.688 333.044 333.257C330.896 333.484 329.992 334.053 329.992 336.214C329.992 339.626 329.992 343.038 329.992 346.45C329.992 348.269 329.652 349.748 327.391 349.975C325.13 350.203 324.565 348.838 324.452 347.132C324.452 340.536 324.452 334.053 324.452 327.457C324.339 327.457 324.113 327.457 324 327.457H324.339ZM330.783 320.974C330.783 322.794 330.557 324.614 330.783 326.433C330.896 327.229 332.026 328.367 332.592 328.367C336.209 328.367 339.714 328.139 343.331 327.684C346.723 327.116 348.757 324.273 348.644 320.974C348.644 317.676 346.044 314.378 342.992 313.809C341.07 313.468 339.261 313.241 337.34 313.241C331.009 313.127 330.783 313.241 330.783 319.723C330.783 320.178 330.783 320.633 330.783 321.088V320.974Z" fill="white"/>
<path d="M532.887 322.442C532.66 327.33 532.773 332.218 531.981 336.995C530.621 345.327 524.164 350.215 515.442 349.993C507.626 349.771 501.056 344.327 500.489 336.44C499.81 327.774 500.036 318.887 500.036 310.222C500.036 309.555 501.396 308.333 502.075 308.333C503.321 308.333 504.794 309 505.7 309.778C506.267 310.444 506.04 311.888 506.04 312.999C506.04 319.331 505.813 325.664 505.927 331.996C505.927 334.218 506.267 336.44 507.059 338.439C508.759 342.661 512.723 344.771 517.028 344.216C522.239 343.549 525.75 340.439 526.203 335.106C526.77 327.219 526.656 319.331 526.77 311.555C526.77 309.222 527.336 308 529.942 308C531.867 308 532.773 308.778 532.773 310.777C532.66 314.666 532.773 318.554 532.773 322.442H533H532.887Z" fill="white"/>
<path d="M280.228 327.675C280.228 322.216 280.228 316.757 280.228 311.298C280.228 309.024 281.027 308 283.31 308C287.534 308 291.757 308 295.867 308C303.058 308.227 309.222 314.255 308.994 321.079C308.651 328.017 304.428 334.499 295.981 334.385C294.839 334.385 293.698 334.385 292.556 334.385C288.143 334.385 286.012 336.66 286.164 341.209C286.164 343.256 286.621 345.304 286.164 347.237C285.936 348.261 284.566 349.512 283.424 349.853C281.712 350.421 280.685 349.284 280.571 347.464C280.457 345.076 280.114 342.801 280 340.413C280 336.091 280 331.77 280 327.448L280.228 327.675ZM286.621 321.875C286.621 330.177 286.963 330.519 295.41 328.813C296.209 328.699 297.008 328.585 297.693 328.244C302.145 326.766 303.857 321.761 301.46 317.781C299.291 314.141 293.47 312.208 288.333 314.028C284.794 315.279 287.306 318.577 286.621 320.852C286.621 321.193 286.621 321.534 286.621 321.875Z" fill="white"/>
<path d="M384.721 308.008C388.069 308.008 391.416 308.008 394.764 308.008C396.661 308.008 397.777 308.573 397.777 310.605C397.777 312.749 396.326 313.088 394.652 313.088C390.189 313.088 385.725 313.088 381.373 313.088C378.918 313.088 377.468 313.765 377.914 316.587C378.026 317.603 377.914 318.619 377.914 319.635C377.914 326.182 377.914 326.182 384.609 326.069C387.288 326.069 389.966 325.844 392.532 326.069C393.425 326.069 394.764 327.875 394.652 328.553C394.429 329.569 393.09 331.149 392.197 331.262C388.403 331.6 384.609 331.375 380.927 331.262C378.807 331.262 377.803 331.939 377.914 334.197C378.026 336.68 378.137 339.163 377.914 341.647C377.691 344.356 379.03 344.92 381.262 344.808C385.725 344.695 390.189 344.582 394.541 344.695C396.215 344.695 398 344.695 398 347.291C398 350 396.215 350 394.318 350C388.069 350 381.931 349.887 375.682 350C373.116 350 372.223 349.21 372.223 346.501C372.223 334.761 372.223 323.134 372 311.395C372 308.912 372.67 307.896 375.236 308.008C378.472 308.121 381.708 308.008 384.944 308.008H384.721Z" fill="white"/>
<path d="M481 329.29C481 335.256 481 341.221 481 347.186C481 349.212 480.14 350 477.93 350C475.842 350 474 349.775 474 347.186C474.246 335.368 474.368 323.663 474.491 311.845C474.491 309.706 475.105 307.793 477.93 308.018C480.632 308.131 481 310.269 481 312.295C481 318.035 481 323.775 481 329.516V329.29Z" fill="white"/>
<path d="M89.9809 166.675C82.417 166.616 75.0014 166.853 67.7637 168.895C66.1619 169.339 64.6491 169.961 63.1364 170.612C55.0978 174.075 48.5721 179.433 43.4701 186.507C39.6437 191.836 36.8554 197.667 35.4613 204.12C33.8002 211.609 34.0671 219.068 36.0249 226.468C38.1012 234.313 42.165 240.973 47.8009 246.745C52.4875 251.54 57.8564 255.329 63.9966 258.023C68.3273 259.947 72.8657 261.19 77.6116 261.575C83.0102 262.019 88.3791 261.693 93.5997 260.332C101.846 258.171 109.113 254.234 114.957 247.899C115.639 247.159 116.381 246.508 117.241 245.709V265.985C117.003 265.837 116.855 265.749 116.707 265.63C115.253 264.061 113.83 262.492 112.376 260.924C112.109 260.628 111.783 260.302 111.457 260.124C111.219 260.006 110.834 259.976 110.596 260.124C103.418 264.239 96.2693 268.353 89.091 272.497C88.7351 272.705 88.3791 272.971 87.9342 273.297C89.0317 274.096 89.9809 274.806 90.9598 275.517C93.3328 277.204 95.4685 279.128 97.3965 281.318C100.036 284.279 101.46 287.801 102.202 291.62C103.121 296.474 102.617 301.24 100.511 305.709C97.7228 311.63 93.0361 315.418 86.807 317.313C81.2898 319 75.8319 318.556 70.552 316.277C67.2298 314.826 64.5898 312.518 62.3355 309.706C59.1912 305.798 57.8268 301.21 57.7378 296.296C57.6488 290.702 59.4582 285.788 63.1957 281.526C65.5094 278.921 68.179 276.76 70.9673 274.688C71.2046 274.51 71.4122 274.333 71.7681 274.066C70.9673 273.593 70.3147 273.149 69.6324 272.764C64.0856 269.567 58.509 266.4 52.9621 263.232C51.8943 262.611 50.8264 261.96 49.7882 261.279C48.7501 260.568 48.7501 260.539 47.7712 261.516C43.9744 265.275 40.6522 269.419 38.1309 274.155C35.5799 278.98 33.9485 284.071 33.2663 289.488C32.7323 293.692 32.7027 297.924 33.2663 302.128C34.5417 311.097 37.8936 319.148 43.7074 326.164C47.8899 331.196 52.8138 335.281 58.6277 338.241C63.2847 340.638 68.2086 342.207 73.4589 342.592C76.2768 342.799 79.1244 343.154 81.9424 343.066C91.4047 342.858 100.125 340.105 107.927 334.718C110.893 332.676 113.474 330.219 115.876 327.555C116.232 327.14 116.558 326.696 116.885 326.252C116.974 326.252 117.063 326.252 117.152 326.252C117.211 326.637 117.3 327.022 117.3 327.436C117.3 333.268 117.27 339.099 117.241 344.901C117.241 345.73 117.241 346.558 117.27 347.387C117.27 347.95 117.063 348.216 116.499 348.157C116.143 348.157 115.787 348.157 115.431 348.157C99.5026 348.157 83.5738 348.157 67.6451 348.157C67.3188 348.157 67.0221 348.157 66.6365 348.157V372.903H67.6747C83.7814 372.903 99.8882 372.903 115.995 372.903C117.27 372.903 117.3 372.903 117.3 374.176C117.3 375.389 117.3 376.603 117.3 377.817C117.3 378.231 117.3 378.616 116.707 378.527C114.423 378.172 112.584 379.178 110.685 380.333C106.622 382.819 102.469 385.099 98.3457 387.496C92.4132 390.93 86.5104 394.393 80.6076 397.856C80.3703 398.004 80.1626 398.152 79.9846 398.478C81.0525 398.478 82.15 398.478 83.2179 398.478C84.701 398.478 86.1841 398.508 87.6376 398.478C88.0825 398.478 88.5868 398.36 88.9724 398.152C93.5404 395.518 98.1084 392.854 102.676 390.19C107.244 387.526 111.812 384.862 116.381 382.198C116.588 382.079 116.855 381.99 117.27 381.813C117.27 382.967 117.359 384.033 117.211 385.039C117.152 385.424 116.588 385.779 116.173 386.046C112.495 388.207 108.787 390.367 105.079 392.528C101.787 394.452 98.5237 396.376 95.2905 398.508C96.5956 398.508 97.9008 398.419 99.2059 398.508C102.202 398.744 104.931 398.182 107.482 396.436C110.181 394.6 113.088 393.061 115.936 391.403C116.292 391.196 116.647 391.019 117.241 390.723C117.241 392.025 117.241 393.15 117.241 394.275C117.241 394.423 116.914 394.6 116.736 394.719C114.868 395.844 112.969 396.939 111.101 398.034C110.982 398.093 110.893 398.212 110.596 398.448C112.406 398.448 113.978 398.448 115.55 398.448C117.241 398.448 117.3 398.448 117.3 400.136C117.3 410.081 117.27 419.998 117.359 429.944C117.359 432.193 117.804 434.472 118.279 436.663C118.961 439.83 121.275 441.636 124.063 442.909C126.584 444.063 129.284 444.596 132.042 444.744C133.347 444.823 134 445.514 134 446.816C134 448.03 134 447.97 132.754 447.97C128.038 447.941 123.292 447.97 118.576 447.97C111.812 447.97 105.049 447.911 98.2864 447.911C86.3028 447.911 74.3488 447.97 62.3651 447.97C44.7753 447.97 27.1854 447.97 9.5956 447.941C8.05315 447.941 6.51071 447.941 4.99792 448C4.34535 448 3.9894 447.822 4.04872 447.082C4.10805 446.402 4.04872 445.721 4.04872 445.07C6.03611 444.774 7.99383 444.626 9.86256 444.211C11.7313 443.767 13.6594 443.264 15.4094 442.465C19.0876 440.748 20.719 437.433 21.253 433.614C21.5792 431.157 21.6386 428.671 21.6386 426.184C21.6386 349.074 21.6386 271.965 21.6386 194.825C21.6386 191.688 21.2826 188.639 20.1851 185.708C18.9689 182.511 17.1002 179.758 13.8077 178.486C11.7313 177.686 9.47695 177.42 7.28193 176.976C6.51071 176.828 5.70982 176.828 4.90893 176.769C4.31568 176.739 3.9894 176.502 4.01906 175.822C4.04872 175.111 4.10805 174.401 4.01906 173.69C3.90041 172.743 4.34535 172.329 5.08691 171.914C14.1636 166.675 23.2403 161.436 32.3171 156.196C36.9741 153.503 41.6311 150.839 46.2881 148.145C51.2714 145.274 56.2547 142.373 61.238 139.502C73.0436 132.664 84.8196 125.796 96.6253 118.959C102.202 115.703 107.778 112.417 113.355 109.161C114.571 108.45 115.817 107.799 117.181 107C117.211 107.562 117.27 107.947 117.27 108.362C117.27 133.729 117.241 159.097 117.241 184.465C117.241 187.987 117.241 191.51 117.33 195.032C117.33 195.684 117.181 195.95 116.529 196.157C111.753 197.697 107.007 199.325 102.261 200.864C101.579 201.101 101.816 201.515 101.935 201.929C102.469 203.705 103.062 205.481 103.537 207.258C104.96 212.645 104.664 217.943 102.38 223.005C98.939 230.553 93.0361 235.112 84.8493 236.325C76.8404 237.509 70.2554 234.461 64.8568 228.659C60.3778 223.864 58.776 218.062 59.3989 211.579C59.8438 207.169 61.5643 203.291 64.2932 199.798C64.5008 199.561 64.5602 199.206 64.7085 198.91L65.1534 199.206C65.1534 199.502 65.2127 199.828 65.2127 200.124C65.2127 207.11 65.2127 214.066 65.1831 221.051C65.1831 221.88 65.6577 221.939 66.1916 222.087C70.7596 223.212 75.3573 224.337 79.9253 225.462C82.9509 226.232 85.9765 227.001 89.002 227.8C89.8029 228.008 89.9809 227.741 89.9809 227.001C89.9809 222.443 89.9809 217.884 89.9809 213.326C89.9809 198.081 89.9809 182.867 89.9809 167.622C89.9809 167.267 89.9809 166.912 89.9809 166.527V166.675ZM35.4909 372.992C36.8554 372.992 38.1012 372.992 39.3767 372.992C46.733 372.992 54.0893 372.992 61.4456 372.992C62.1278 372.992 62.4541 372.873 62.4245 372.074C62.3651 370.742 62.4541 369.41 62.4541 368.078C62.4541 361.892 62.4541 355.735 62.4541 349.548C62.4541 349.134 62.3651 348.69 62.3058 348.305H35.4316V372.962L35.4909 372.992ZM106.889 378.853L106.8 378.586C106.592 378.586 106.414 378.586 106.206 378.586C103.893 378.586 101.609 378.586 99.2949 378.616C98.7313 378.616 98.1084 378.794 97.6338 379.09C94.7566 380.718 91.909 382.375 89.0317 384.033C82.4763 387.881 75.9209 391.759 69.3358 395.607C68.5349 396.08 68.1197 397.205 68.4756 398.123C68.7722 398.892 69.5138 398.478 70.0477 398.537C70.7003 398.626 71.3529 398.626 72.0054 398.537C72.6877 398.419 73.4292 398.3 74.0225 397.975C77.9676 395.755 81.9127 393.476 85.8578 391.196C90.8708 388.266 95.8837 385.306 100.897 382.375C102.914 381.191 104.901 380.037 106.918 378.853H106.889ZM59.6659 383.204C59.1616 383.441 58.865 383.589 58.5683 383.766C51.924 387.674 45.2796 391.551 38.6648 395.459C37.3003 396.258 37.063 396.88 37.597 398.567C38.5165 398.567 39.4657 398.508 40.4149 398.567C41.5717 398.656 42.5803 398.419 43.5888 397.797C48.6907 394.778 53.8223 391.818 58.9243 388.799C59.2506 388.621 59.6362 388.207 59.6362 387.911C59.7252 386.401 59.6659 384.921 59.6659 383.174V383.204ZM60.0515 378.942C59.6659 378.794 59.5472 378.734 59.4286 378.734C57.1742 378.705 54.8902 378.675 52.6358 378.675C52.2799 378.675 51.8646 378.823 51.5383 379.001C47.0593 381.576 42.5803 384.151 38.1309 386.756C37.8343 386.934 37.4487 387.23 37.4487 387.496C37.3893 389.035 37.419 390.575 37.419 392.291C38.0122 392.025 38.4869 391.847 38.9021 391.611C45.5169 387.763 52.1019 383.914 58.7167 380.066C59.1616 379.8 59.4879 379.415 60.0515 378.942ZM91.4937 378.823C91.2564 378.734 91.1674 378.675 91.0784 378.675C88.5868 378.646 86.1248 378.586 83.6331 378.586C83.1882 378.586 82.7136 378.794 82.2983 379.03C77.9083 381.517 73.5479 384.033 69.1875 386.579C68.8909 386.756 68.5349 387.171 68.5349 387.496C68.4459 388.828 68.4459 390.16 68.4459 391.492C68.4459 391.966 68.7129 392.055 69.0985 391.877C69.3062 391.788 69.5138 391.67 69.7214 391.551C75.3573 388.266 80.9932 384.951 86.5994 381.665C88.1715 380.747 89.7436 379.83 91.464 378.794L91.4937 378.823ZM59.6955 392.114C55.9877 394.275 52.5469 396.317 49.106 398.33C51.7756 398.508 54.4156 398.567 57.0259 398.478C59.0133 398.419 59.6955 397.56 59.7252 395.607C59.7252 395.044 59.7252 394.482 59.7252 393.92C59.7252 393.387 59.7252 392.824 59.7252 392.084L59.6955 392.114ZM45.3389 378.823C45.3389 378.823 45.2796 378.675 45.2499 378.586C44.8346 378.586 44.449 378.586 44.0337 378.586C42.165 378.586 40.3259 378.586 38.4572 378.586C37.7156 378.586 37.3004 378.823 37.3893 379.682C37.4783 380.333 37.3893 380.984 37.3893 381.635C37.3893 382.168 37.3893 382.701 37.3893 383.5C40.2073 381.842 42.7582 380.333 45.3092 378.823H45.3389ZM76.0099 378.853C76.0099 378.853 75.9506 378.646 75.8912 378.557C73.6072 378.557 71.3232 378.557 69.0392 378.586C68.8612 378.586 68.5349 379.03 68.5053 379.297C68.4459 379.978 68.4756 380.658 68.5053 381.339C68.5053 381.872 68.5943 382.405 68.6536 383.145C71.2639 381.635 73.6369 380.244 76.0395 378.853H76.0099Z" fill="white"/>
<path d="M85.521 221.955C83.6515 221.51 81.8988 221.095 80.1461 220.65C77.1081 219.879 74.07 219.108 71.032 218.338C70.4186 218.189 70.2725 217.834 70.2725 217.241C70.2725 208.405 70.2725 199.599 70.3017 190.764C70.3017 190.408 70.3017 190.023 70.3017 189.578C70.0388 189.607 69.922 189.578 69.8343 189.667C66.0368 192.246 62.5022 195.093 59.9608 199.066C57.5654 202.772 55.9003 206.774 55.5498 211.162C54.7319 221.243 58.4418 229.367 66.3289 235.504C70.1557 238.499 74.4498 240.397 79.2989 240.871C88.5299 241.79 96.2418 238.796 102.318 231.62C105.56 227.766 107.722 223.289 108.598 218.249C109.387 213.801 108.92 209.413 107.78 205.084C107.459 203.898 107.459 203.869 108.569 203.483C112.6 202.09 116.661 200.756 120.692 199.332C121.305 199.125 121.51 199.332 121.714 199.866C123.058 203.483 123.73 207.249 123.934 211.103C124.227 217.063 123.555 222.904 121.656 228.567C119.991 233.577 117.303 237.936 113.886 241.909C109.212 247.334 103.72 251.634 97.0889 254.272C93.3206 255.785 89.4354 256.585 85.4042 256.882C80.4382 257.237 75.5598 256.822 70.8568 255.221C67.994 254.243 65.2481 252.968 62.5606 251.574C56.3969 248.343 51.4017 243.658 47.3705 237.965C43.573 232.658 41.236 226.699 40.4181 220.176C39.3081 211.578 40.3597 203.305 44.1572 195.478C47.9547 187.621 53.505 181.424 60.9248 176.947C65.8323 173.982 71.1489 172.322 76.7575 171.551C79.2989 171.195 81.8404 171.166 84.411 171.017C85.5795 170.958 85.6087 170.988 85.6087 172.144C85.6087 182.966 85.6087 193.758 85.6087 204.58C85.6087 210.065 85.6087 215.551 85.6379 221.006C85.6379 221.243 85.5795 221.451 85.5503 221.895L85.521 221.955Z" fill="white"/>
<path d="M96.4648 273.753C96.6707 273.604 96.8472 273.426 97.0826 273.307C101.202 270.956 105.35 268.605 109.469 266.225C110.087 265.868 110.499 265.928 110.999 266.463C116.442 272.265 120.385 278.901 122.032 286.786C122.974 291.368 123.268 295.98 122.738 300.681C122.238 305.174 121.238 309.489 119.502 313.654C117.295 318.921 114.03 323.414 109.969 327.401C104.909 332.34 98.9362 335.613 92.2574 337.518C86.8144 339.065 81.2242 339.243 75.6047 338.767C68.7788 338.172 62.5119 335.941 56.8335 332.102C51.008 328.175 46.477 322.967 43.0641 316.749C39.4746 310.173 37.9153 303.091 38.0035 295.623C38.0624 288.868 39.3569 282.352 42.6228 276.371C44.3881 273.158 46.477 270.123 48.9485 267.415C49.8017 266.463 49.7723 266.523 50.8609 267.147C54.5386 269.29 58.2163 271.402 61.9235 273.545C62.3354 273.783 62.7179 274.051 63.1298 274.259C63.7182 274.556 63.7477 274.854 63.2475 275.3C60.0405 278.276 57.2454 281.608 55.6567 285.744C51.6553 296.01 53.1558 305.472 60.0993 313.982C64.0419 318.832 69.1613 321.837 75.3104 322.819C83.7545 324.187 91.5219 322.462 98.0535 316.749C102.79 312.613 105.733 307.316 106.762 300.979C107.851 294.165 106.762 287.738 103.291 281.757C101.672 278.96 99.4952 276.639 97.112 274.497C96.9355 274.348 96.759 274.199 96.5824 274.021C96.5236 273.961 96.5236 273.872 96.4648 273.723V273.753Z" fill="white"/>
<path d="M97.747 368C89.8137 368 81.8803 368 73.947 368C72 368 72 368 72 365.935C72 361.746 72 357.556 72 353.397C72 352.152 72 352.121 73.2205 352.121C86.1521 352.121 99.0838 352.121 112.044 352.121C115.386 352.121 118.757 352.061 122.099 352C122.797 352 123 352.304 123 353.002C123 357.738 123 362.444 123 367.18C123 367.909 122.651 368 122.07 368C114.311 368 106.552 368 98.7932 368C98.4444 368 98.0957 368 97.747 368Z" fill="white"/>
<path d="M68.4123 4.00642C97.6101 3.56207 120.898 26.224 121.956 54.3367C123.221 87.989 96.7868 109.851 69.7061 109.999C41.2139 110.147 17.6909 86.7745 17.0146 58.3359C16.309 27.3794 41.2139 4.24341 68.4123 4.00642Z" fill="white"/>
<path d="M36 371.971V348H62.8518C62.9111 348.374 63 348.806 63 349.209C63 355.223 63 361.209 63 367.223C63 368.518 62.9111 369.813 62.9704 371.108C62.9704 371.885 62.674 372 61.9923 372C54.6422 372 47.292 372 39.9418 372C38.6674 372 37.4226 372 36.0593 372L36 371.971ZM58.2283 367.54C58.2876 367.281 58.3172 367.194 58.3172 367.108C58.3172 362.647 58.3172 358.187 58.3172 353.755C58.3172 352.489 58.3172 352.489 56.9835 352.489C51.9155 352.489 46.8178 352.489 41.7497 352.46C40.5939 352.46 40.5642 352.489 40.5642 353.612C40.5642 357.986 40.5642 362.36 40.5642 366.705C40.5642 367.309 40.831 367.54 41.3941 367.54C42.8463 367.54 44.2986 367.54 45.7212 367.54C49.8705 367.54 54.0494 367.54 58.2283 367.54Z" fill="black"/>
<path d="M107 378.273C104.961 379.456 102.951 380.609 100.912 381.792C95.8428 384.718 90.7741 387.675 85.7054 390.602C81.7464 392.878 77.7574 395.154 73.7384 397.372C73.1386 397.697 72.3888 397.845 71.6989 397.933C71.0691 398.022 70.3793 398.022 69.7194 397.933C69.1796 397.874 68.4298 398.288 68.1298 397.52C67.7699 396.603 68.1898 395.48 68.9996 395.007C75.6279 391.134 82.2563 387.29 88.9146 383.447C91.7939 381.762 94.6731 380.106 97.6124 378.51C98.1222 378.244 98.7221 378.067 99.292 378.037C101.631 377.978 103.941 378.007 106.28 378.007C106.49 378.007 106.67 378.007 106.88 378.007L106.97 378.273H107Z" fill="black"/>
<path d="M59.9927 383C59.9927 384.671 60.0219 386.141 59.9635 387.61C59.9635 387.927 59.5837 388.301 59.2624 388.474C54.2382 391.413 49.1555 394.266 44.1605 397.233C43.1382 397.838 42.1742 398.069 41.035 397.982C40.1002 397.925 39.1655 397.982 38.26 397.982C37.7342 396.34 37.9679 395.735 39.3116 394.957C45.8547 391.154 52.3979 387.379 58.9119 383.576C59.204 383.403 59.4961 383.288 59.9927 383.029V383Z" fill="black"/>
<path d="M61 378.254C60.4274 378.707 60.096 379.102 59.644 379.328C52.9541 383.03 46.2342 386.676 39.5142 390.35C39.0924 390.576 38.6102 390.746 38.0075 391C38.0075 389.361 37.9774 387.891 38.0377 386.422C38.0377 386.167 38.4294 385.885 38.7308 385.715C43.2509 383.228 47.8012 380.77 52.3515 378.311C52.6829 378.141 53.0747 378 53.4664 378C55.7566 378 58.077 378.028 60.3672 378.057C60.4877 378.057 60.5781 378.113 61 378.254Z" fill="black"/>
<path d="M91.9691 378.201C90.1776 379.18 88.5405 380.071 86.9035 380.992C81.0347 384.185 75.1969 387.408 69.3282 390.601C69.112 390.716 68.8958 390.831 68.6795 390.918C68.278 391.09 68 391.004 68 390.544C68 389.249 68 387.954 68.0927 386.66C68.0927 386.343 68.4633 385.94 68.7722 385.768C73.3127 383.294 77.8533 380.848 82.4247 378.432C82.8263 378.201 83.3513 378.029 83.8147 378C86.4093 378 88.973 378.029 91.5676 378.086C91.6602 378.086 91.722 378.144 92 378.23L91.9691 378.201Z" fill="black"/>
<path d="M60 391C60 391.806 60 392.386 60 392.998C60 393.611 60 394.223 60 394.835C60 396.962 59.2933 397.897 57.2039 397.961C54.5 398.058 51.7961 397.961 49 397.8C52.5642 395.609 56.1592 393.385 59.9693 391.032L60 391Z" fill="black"/>
<path d="M8.96647 386.241C6.08298 387.777 3.19948 389.313 0.0142291 391C0.0142291 390.187 0.0142291 389.645 0.0142291 389.102C0.0142291 388.44 0.0812871 387.777 0.0142291 387.114C-0.0863579 386.241 0.349518 386 1.22127 386C3.3336 386 5.4124 386 7.52472 386C7.99413 386 8.43001 386 8.89941 386C8.93294 386.09 8.96647 386.151 9 386.241H8.96647Z" fill="black"/>
<path d="M76 378.33C73.4891 379.844 70.9468 381.357 68.1848 383C68.1221 382.195 68.0593 381.615 68.0279 381.035C68.0279 380.295 67.9651 379.554 68.0279 378.813C68.0279 378.523 68.4045 378.072 68.5929 378.04C71.0096 377.976 73.4263 378.008 75.8431 378.008C75.8745 378.105 75.9058 378.233 75.9686 378.33H76Z" fill="black"/>
<path d="M57.9149 368C53.8848 368 49.9115 368 45.9382 368C44.5476 368 43.1569 368 41.7947 368C41.2554 368 41 367.786 41 367.115C41 362.473 41 357.832 41 353.221C41 352.031 41.0568 352 42.1352 352C46.9883 352 51.8698 352 56.7229 352.031C58 352.031 58 352.031 58 353.374C58 358.107 58 362.84 58 367.542C58 367.634 57.9716 367.725 57.9149 368Z" fill="white"/>
</svg>
