<svg width="875" height="239" viewBox="0 0 875 239" fill="none" xmlns="http://www.w3.org/2000/svg">
<g filter="url(#filter0_d_2385_9)">
<path d="M18.3828 143.19C18.0948 143.37 17.7708 143.532 17.4108 143.676C17.0508 143.82 16.6608 143.934 16.2408 144.018C15.8328 144.102 15.4008 144.144 14.9448 144.144C13.9728 144.144 13.0908 143.976 12.2988 143.64C11.5188 143.304 10.8468 142.842 10.2828 142.254C9.71882 141.654 9.28082 140.97 8.96882 140.202C8.66882 139.422 8.51882 138.6 8.51882 137.736C8.51882 136.812 8.68082 135.954 9.00482 135.162C9.34082 134.358 9.80282 133.656 10.3908 133.056C10.9788 132.456 11.6628 131.988 12.4428 131.652C13.2228 131.316 14.0628 131.148 14.9628 131.148C15.5988 131.148 16.1988 131.238 16.7628 131.418C17.3388 131.586 17.8728 131.814 18.3648 132.102L18.0948 132.642C17.6508 132.378 17.1648 132.162 16.6368 131.994C16.1088 131.826 15.5508 131.742 14.9628 131.742C14.1708 131.742 13.4208 131.898 12.7128 132.21C12.0048 132.51 11.3868 132.936 10.8588 133.488C10.3308 134.028 9.91082 134.664 9.59882 135.396C9.29882 136.116 9.14882 136.89 9.14882 137.718C9.14882 138.51 9.28082 139.26 9.54482 139.968C9.82082 140.676 10.2108 141.3 10.7148 141.84C11.2308 142.368 11.8428 142.788 12.5508 143.1C13.2588 143.4 14.0568 143.55 14.9448 143.55C15.5448 143.55 16.1088 143.466 16.6368 143.298C17.1648 143.13 17.6448 142.914 18.0768 142.65L18.3828 143.19ZM23.1246 130.392H23.7186V144H23.1246V130.392ZM31.7433 144.126C31.0473 144.126 30.4233 143.97 29.8713 143.658C29.3313 143.334 28.8993 142.902 28.5753 142.362C28.2633 141.81 28.1073 141.198 28.1073 140.526C28.1073 139.854 28.2693 139.242 28.5933 138.69C28.9173 138.138 29.3553 137.7 29.9073 137.376C30.4593 137.052 31.0713 136.89 31.7433 136.89C32.5473 136.89 33.2193 137.124 33.7593 137.592C34.3113 138.048 34.7133 138.636 34.9653 139.356L28.8093 141.804L28.6293 141.354L34.4433 139.05L34.2993 139.266C34.0713 138.762 33.7353 138.324 33.2913 137.952C32.8593 137.58 32.3313 137.394 31.7073 137.394C31.1433 137.394 30.6333 137.532 30.1773 137.808C29.7213 138.084 29.3553 138.462 29.0793 138.942C28.8153 139.41 28.6833 139.932 28.6833 140.508C28.6833 141.048 28.8093 141.558 29.0613 142.038C29.3253 142.506 29.6853 142.884 30.1413 143.172C30.5973 143.46 31.1313 143.604 31.7433 143.604C32.1513 143.604 32.5353 143.532 32.8953 143.388C33.2673 143.232 33.5913 143.034 33.8673 142.794L34.2093 143.208C33.8733 143.484 33.4893 143.706 33.0573 143.874C32.6373 144.042 32.1993 144.126 31.7433 144.126ZM42.0314 144.126C41.3714 144.126 40.7714 143.97 40.2314 143.658C39.7034 143.346 39.2774 142.926 38.9534 142.398C38.6414 141.858 38.4854 141.24 38.4854 140.544C38.4854 139.776 38.6474 139.122 38.9714 138.582C39.3074 138.03 39.7514 137.616 40.3034 137.34C40.8554 137.052 41.4794 136.908 42.1754 136.908C42.8354 136.908 43.4474 137.1 44.0114 137.484C44.5874 137.868 45.0074 138.36 45.2714 138.96L45.1814 139.212L45.2894 137.088H45.7934V144H45.1994V141.75L45.3074 142.038C45.2114 142.314 45.0554 142.578 44.8394 142.83C44.6354 143.07 44.3834 143.292 44.0834 143.496C43.7954 143.688 43.4774 143.844 43.1294 143.964C42.7814 144.072 42.4154 144.126 42.0314 144.126ZM42.1394 143.622C42.6914 143.622 43.1954 143.502 43.6514 143.262C44.1074 143.01 44.4734 142.674 44.7494 142.254C45.0254 141.822 45.1754 141.324 45.1994 140.76V139.896C45.1034 139.428 44.9054 139.008 44.6054 138.636C44.3174 138.264 43.9574 137.97 43.5254 137.754C43.0934 137.526 42.6254 137.412 42.1214 137.412C41.5694 137.412 41.0594 137.538 40.5914 137.79C40.1234 138.042 39.7514 138.402 39.4754 138.87C39.2114 139.338 39.0794 139.884 39.0794 140.508C39.0794 141.084 39.2174 141.606 39.4934 142.074C39.7694 142.542 40.1354 142.92 40.5914 143.208C41.0594 143.484 41.5754 143.622 42.1394 143.622ZM51.3699 137.088L51.4599 139.284L51.3699 138.942C51.5739 138.318 51.9579 137.826 52.5219 137.466C53.0859 137.106 53.7099 136.926 54.3939 136.926C55.0419 136.926 55.5639 137.118 55.9599 137.502C56.3559 137.886 56.5599 138.378 56.5719 138.978V144H55.9599V139.122C55.9479 138.642 55.7919 138.246 55.4919 137.934C55.2039 137.622 54.7899 137.454 54.2499 137.43C53.7579 137.43 53.3019 137.544 52.8819 137.772C52.4619 138 52.1199 138.318 51.8559 138.726C51.6039 139.122 51.4779 139.59 51.4779 140.13V144H50.8839V137.088H51.3699ZM62.4764 142.452C62.2124 143.076 61.9544 143.694 61.7024 144.306C61.4504 144.918 61.1924 145.536 60.9284 146.16H60.4244C60.6524 145.536 60.8804 144.918 61.1084 144.306C61.3364 143.694 61.5704 143.076 61.8104 142.452H62.4764ZM74.628 131.292H81.612V131.886H75.24V137.502H80.91V138.078H75.24V144H74.628V131.292ZM85.9567 137.088L86.0287 139.23L85.9567 138.996C86.1007 138.564 86.3347 138.198 86.6587 137.898C86.9827 137.586 87.3487 137.346 87.7567 137.178C88.1647 137.01 88.5787 136.926 88.9987 136.926L88.9627 137.484C88.4347 137.496 87.9487 137.622 87.5047 137.862C87.0607 138.09 86.7067 138.408 86.4427 138.816C86.1907 139.212 86.0647 139.662 86.0647 140.166V144H85.4707V137.088H85.9567ZM95.8824 144.126C95.1864 144.126 94.5624 143.97 94.0104 143.658C93.4704 143.334 93.0384 142.902 92.7144 142.362C92.4024 141.81 92.2464 141.198 92.2464 140.526C92.2464 139.854 92.4084 139.242 92.7324 138.69C93.0564 138.138 93.4944 137.7 94.0464 137.376C94.5984 137.052 95.2104 136.89 95.8824 136.89C96.6864 136.89 97.3584 137.124 97.8984 137.592C98.4504 138.048 98.8524 138.636 99.1044 139.356L92.9484 141.804L92.7684 141.354L98.5824 139.05L98.4384 139.266C98.2104 138.762 97.8744 138.324 97.4304 137.952C96.9984 137.58 96.4704 137.394 95.8464 137.394C95.2824 137.394 94.7724 137.532 94.3164 137.808C93.8604 138.084 93.4944 138.462 93.2184 138.942C92.9544 139.41 92.8224 139.932 92.8224 140.508C92.8224 141.048 92.9484 141.558 93.2004 142.038C93.4644 142.506 93.8244 142.884 94.2804 143.172C94.7364 143.46 95.2704 143.604 95.8824 143.604C96.2904 143.604 96.6744 143.532 97.0344 143.388C97.4064 143.232 97.7304 143.034 98.0064 142.794L98.3484 143.208C98.0124 143.484 97.6284 143.706 97.1964 143.874C96.7764 144.042 96.3384 144.126 95.8824 144.126ZM104.839 144.144C104.467 144.144 104.071 144.078 103.651 143.946C103.231 143.802 102.883 143.568 102.607 143.244L102.913 142.848C103.117 143.088 103.387 143.286 103.723 143.442C104.059 143.586 104.419 143.658 104.803 143.658C105.091 143.658 105.361 143.616 105.613 143.532C105.877 143.436 106.093 143.286 106.261 143.082C106.429 142.866 106.513 142.578 106.513 142.218C106.513 141.87 106.417 141.6 106.225 141.408C106.045 141.204 105.805 141.048 105.505 140.94C105.217 140.82 104.917 140.706 104.605 140.598C104.125 140.442 103.717 140.232 103.381 139.968C103.057 139.704 102.895 139.308 102.895 138.78C102.895 138.396 102.985 138.072 103.165 137.808C103.345 137.532 103.585 137.322 103.885 137.178C104.185 137.034 104.515 136.962 104.875 136.962C105.199 136.962 105.541 137.022 105.901 137.142C106.261 137.262 106.579 137.466 106.855 137.754L106.567 138.15C106.375 137.898 106.117 137.724 105.793 137.628C105.469 137.52 105.187 137.46 104.947 137.448C104.743 137.448 104.527 137.496 104.299 137.592C104.071 137.676 103.873 137.814 103.705 138.006C103.549 138.186 103.471 138.42 103.471 138.708C103.471 138.996 103.543 139.23 103.687 139.41C103.843 139.59 104.041 139.734 104.281 139.842C104.521 139.95 104.773 140.052 105.037 140.148C105.373 140.268 105.697 140.4 106.009 140.544C106.333 140.676 106.597 140.862 106.801 141.102C107.005 141.342 107.107 141.666 107.107 142.074C107.107 142.482 107.017 142.842 106.837 143.154C106.669 143.466 106.417 143.712 106.081 143.892C105.757 144.06 105.343 144.144 104.839 144.144ZM111.543 144V130.392H112.119V138.978L112.083 138.708C112.311 138.204 112.689 137.784 113.217 137.448C113.757 137.1 114.369 136.926 115.053 136.926C115.701 136.926 116.223 137.118 116.619 137.502C117.015 137.886 117.219 138.378 117.231 138.978V144H116.619V139.122C116.607 138.642 116.451 138.246 116.151 137.934C115.863 137.622 115.449 137.454 114.909 137.43C114.417 137.43 113.961 137.55 113.541 137.79C113.121 138.03 112.779 138.354 112.515 138.762C112.263 139.17 112.137 139.626 112.137 140.13V144H111.543ZM140.536 144.27L130.456 132.48L130.618 132.3L130.636 144H130.024V131.058H130.06L140.194 142.956L139.978 142.992V131.292H140.554V144.27H140.536ZM145.403 140.508C145.403 139.848 145.565 139.242 145.889 138.69C146.213 138.138 146.651 137.7 147.203 137.376C147.755 137.052 148.367 136.89 149.039 136.89C149.735 136.89 150.359 137.052 150.911 137.376C151.463 137.7 151.895 138.138 152.207 138.69C152.531 139.242 152.693 139.848 152.693 140.508C152.693 141.18 152.531 141.792 152.207 142.344C151.895 142.896 151.457 143.334 150.893 143.658C150.341 143.97 149.723 144.126 149.039 144.126C148.355 144.126 147.737 143.97 147.185 143.658C146.645 143.346 146.213 142.92 145.889 142.38C145.565 141.84 145.403 141.216 145.403 140.508ZM145.997 140.526C145.997 141.102 146.129 141.624 146.393 142.092C146.669 142.548 147.035 142.92 147.491 143.208C147.959 143.484 148.475 143.622 149.039 143.622C149.603 143.622 150.113 143.484 150.569 143.208C151.037 142.932 151.403 142.56 151.667 142.092C151.943 141.624 152.081 141.102 152.081 140.526C152.081 139.95 151.943 139.428 151.667 138.96C151.403 138.492 151.037 138.12 150.569 137.844C150.113 137.556 149.603 137.412 149.039 137.412C148.451 137.412 147.929 137.562 147.473 137.862C147.017 138.15 146.657 138.534 146.393 139.014C146.129 139.494 145.997 139.998 145.997 140.526ZM157.8 134.046H158.394V137.196H160.626V137.682H158.394V144H157.8V137.682H156.252V137.196H157.8V134.046ZM167.492 144.126C166.796 144.126 166.172 143.97 165.62 143.658C165.08 143.334 164.648 142.902 164.324 142.362C164.012 141.81 163.856 141.198 163.856 140.526C163.856 139.854 164.018 139.242 164.342 138.69C164.666 138.138 165.104 137.7 165.656 137.376C166.208 137.052 166.82 136.89 167.492 136.89C168.296 136.89 168.968 137.124 169.508 137.592C170.06 138.048 170.462 138.636 170.714 139.356L164.558 141.804L164.378 141.354L170.192 139.05L170.048 139.266C169.82 138.762 169.484 138.324 169.04 137.952C168.608 137.58 168.08 137.394 167.456 137.394C166.892 137.394 166.382 137.532 165.926 137.808C165.47 138.084 165.104 138.462 164.828 138.942C164.564 139.41 164.432 139.932 164.432 140.508C164.432 141.048 164.558 141.558 164.81 142.038C165.074 142.506 165.434 142.884 165.89 143.172C166.346 143.46 166.88 143.604 167.492 143.604C167.9 143.604 168.284 143.532 168.644 143.388C169.016 143.232 169.34 143.034 169.616 142.794L169.958 143.208C169.622 143.484 169.238 143.706 168.806 143.874C168.386 144.042 167.948 144.126 167.492 144.126ZM176.448 144.144C176.076 144.144 175.68 144.078 175.26 143.946C174.84 143.802 174.492 143.568 174.216 143.244L174.522 142.848C174.726 143.088 174.996 143.286 175.332 143.442C175.668 143.586 176.028 143.658 176.412 143.658C176.7 143.658 176.97 143.616 177.222 143.532C177.486 143.436 177.702 143.286 177.87 143.082C178.038 142.866 178.122 142.578 178.122 142.218C178.122 141.87 178.026 141.6 177.834 141.408C177.654 141.204 177.414 141.048 177.114 140.94C176.826 140.82 176.526 140.706 176.214 140.598C175.734 140.442 175.326 140.232 174.99 139.968C174.666 139.704 174.504 139.308 174.504 138.78C174.504 138.396 174.594 138.072 174.774 137.808C174.954 137.532 175.194 137.322 175.494 137.178C175.794 137.034 176.124 136.962 176.484 136.962C176.808 136.962 177.15 137.022 177.51 137.142C177.87 137.262 178.188 137.466 178.464 137.754L178.176 138.15C177.984 137.898 177.726 137.724 177.402 137.628C177.078 137.52 176.796 137.46 176.556 137.448C176.352 137.448 176.136 137.496 175.908 137.592C175.68 137.676 175.482 137.814 175.314 138.006C175.158 138.186 175.08 138.42 175.08 138.708C175.08 138.996 175.152 139.23 175.296 139.41C175.452 139.59 175.65 139.734 175.89 139.842C176.13 139.95 176.382 140.052 176.646 140.148C176.982 140.268 177.306 140.4 177.618 140.544C177.942 140.676 178.206 140.862 178.41 141.102C178.614 141.342 178.716 141.666 178.716 142.074C178.716 142.482 178.626 142.842 178.446 143.154C178.278 143.466 178.026 143.712 177.69 143.892C177.366 144.06 176.952 144.144 176.448 144.144ZM183.962 142.452C183.698 143.076 183.44 143.694 183.188 144.306C182.936 144.918 182.678 145.536 182.414 146.16H181.91C182.138 145.536 182.366 144.918 182.594 144.306C182.822 143.694 183.056 143.076 183.296 142.452H183.962ZM37.346 151.328H38.03L42.476 163.37L42.314 163.316L45.014 155.972L45.302 156.746L42.35 164.576L37.346 151.328ZM43.106 151.328H43.736L48.29 163.406L48.056 163.334L52.628 151.328H53.276L48.146 164.576L43.106 151.328ZM57.0749 157.088H57.6689V164H57.0749V157.088ZM56.8769 154.712C56.8769 154.58 56.9249 154.466 57.0209 154.37C57.1289 154.274 57.2489 154.226 57.3809 154.226C57.5249 154.226 57.6449 154.274 57.7409 154.37C57.8369 154.466 57.8849 154.586 57.8849 154.73C57.8849 154.874 57.8369 154.994 57.7409 155.09C57.6449 155.186 57.5249 155.234 57.3809 155.234C57.2489 155.234 57.1289 155.186 57.0209 155.09C56.9249 154.982 56.8769 154.856 56.8769 154.712ZM63.4617 154.046H64.0557V157.196H66.2877V157.682H64.0557V164H63.4617V157.682H61.9137V157.196H63.4617V154.046ZM70.2199 164V150.392H70.7959V158.978L70.7599 158.708C70.9879 158.204 71.3659 157.784 71.8939 157.448C72.4339 157.1 73.0459 156.926 73.7299 156.926C74.3779 156.926 74.8999 157.118 75.2959 157.502C75.6919 157.886 75.8959 158.378 75.9079 158.978V164H75.2959V159.122C75.2839 158.642 75.1279 158.246 74.8279 157.934C74.5399 157.622 74.1259 157.454 73.5859 157.43C73.0939 157.43 72.6379 157.55 72.2179 157.79C71.7979 158.03 71.4559 158.354 71.1919 158.762C70.9399 159.17 70.8139 159.626 70.8139 160.13V164H70.2199ZM88.7011 151.292H96.4051V151.886H89.3131V157.304H95.7031V157.88H89.3131V163.406H96.6571V164H88.7011V151.292ZM101.495 150.392H102.089V164H101.495V150.392ZM110.114 164.126C109.418 164.126 108.794 163.97 108.242 163.658C107.702 163.334 107.27 162.902 106.946 162.362C106.634 161.81 106.478 161.198 106.478 160.526C106.478 159.854 106.64 159.242 106.964 158.69C107.288 158.138 107.726 157.7 108.278 157.376C108.83 157.052 109.442 156.89 110.114 156.89C110.918 156.89 111.59 157.124 112.13 157.592C112.682 158.048 113.084 158.636 113.336 159.356L107.18 161.804L107 161.354L112.814 159.05L112.67 159.266C112.442 158.762 112.106 158.324 111.662 157.952C111.23 157.58 110.702 157.394 110.078 157.394C109.514 157.394 109.004 157.532 108.548 157.808C108.092 158.084 107.726 158.462 107.45 158.942C107.186 159.41 107.054 159.932 107.054 160.508C107.054 161.048 107.18 161.558 107.432 162.038C107.696 162.506 108.056 162.884 108.512 163.172C108.968 163.46 109.502 163.604 110.114 163.604C110.522 163.604 110.906 163.532 111.266 163.388C111.638 163.232 111.962 163.034 112.238 162.794L112.58 163.208C112.244 163.484 111.86 163.706 111.428 163.874C111.008 164.042 110.57 164.126 110.114 164.126ZM120.528 167.348C120.18 167.348 119.838 167.306 119.502 167.222C119.166 167.15 118.824 167.006 118.476 166.79C118.128 166.586 117.762 166.298 117.378 165.926L117.72 165.53C118.272 166.07 118.776 166.418 119.232 166.574C119.688 166.742 120.114 166.826 120.51 166.826C121.29 166.826 121.902 166.7 122.346 166.448C122.79 166.208 123.108 165.884 123.3 165.476C123.492 165.068 123.594 164.612 123.606 164.108L123.624 161.732L123.768 161.894C123.528 162.554 123.096 163.094 122.472 163.514C121.86 163.922 121.17 164.126 120.402 164.126C119.742 164.126 119.142 163.97 118.602 163.658C118.074 163.334 117.648 162.902 117.324 162.362C117.012 161.81 116.856 161.198 116.856 160.526C116.856 159.806 117.018 159.176 117.342 158.636C117.678 158.096 118.122 157.676 118.674 157.376C119.226 157.064 119.838 156.908 120.51 156.908C121.194 156.908 121.824 157.094 122.4 157.466C122.988 157.826 123.414 158.3 123.678 158.888L123.606 159.194L123.714 157.088H124.218V164.126C124.218 164.678 124.098 165.2 123.858 165.692C123.63 166.184 123.246 166.58 122.706 166.88C122.178 167.192 121.452 167.348 120.528 167.348ZM117.45 160.508C117.45 161.084 117.582 161.606 117.846 162.074C118.122 162.542 118.494 162.92 118.962 163.208C119.43 163.484 119.952 163.622 120.528 163.622C121.08 163.622 121.584 163.496 122.04 163.244C122.508 162.98 122.88 162.638 123.156 162.218C123.444 161.786 123.6 161.318 123.624 160.814V159.914C123.528 159.434 123.33 159.008 123.03 158.636C122.742 158.252 122.382 157.952 121.95 157.736C121.518 157.52 121.044 157.412 120.528 157.412C119.952 157.412 119.43 157.544 118.962 157.808C118.494 158.06 118.122 158.42 117.846 158.888C117.582 159.356 117.45 159.896 117.45 160.508ZM132.151 164.126C131.491 164.126 130.891 163.97 130.351 163.658C129.823 163.346 129.397 162.926 129.073 162.398C128.761 161.858 128.605 161.24 128.605 160.544C128.605 159.776 128.767 159.122 129.091 158.582C129.427 158.03 129.871 157.616 130.423 157.34C130.975 157.052 131.599 156.908 132.295 156.908C132.955 156.908 133.567 157.1 134.131 157.484C134.707 157.868 135.127 158.36 135.391 158.96L135.301 159.212L135.409 157.088H135.913V164H135.319V161.75L135.427 162.038C135.331 162.314 135.175 162.578 134.959 162.83C134.755 163.07 134.503 163.292 134.203 163.496C133.915 163.688 133.597 163.844 133.249 163.964C132.901 164.072 132.535 164.126 132.151 164.126ZM132.259 163.622C132.811 163.622 133.315 163.502 133.771 163.262C134.227 163.01 134.593 162.674 134.869 162.254C135.145 161.822 135.295 161.324 135.319 160.76V159.896C135.223 159.428 135.025 159.008 134.725 158.636C134.437 158.264 134.077 157.97 133.645 157.754C133.213 157.526 132.745 157.412 132.241 157.412C131.689 157.412 131.179 157.538 130.711 157.79C130.243 158.042 129.871 158.402 129.595 158.87C129.331 159.338 129.199 159.884 129.199 160.508C129.199 161.084 129.337 161.606 129.613 162.074C129.889 162.542 130.255 162.92 130.711 163.208C131.179 163.484 131.695 163.622 132.259 163.622ZM141.489 157.088L141.579 159.284L141.489 158.942C141.693 158.318 142.077 157.826 142.641 157.466C143.205 157.106 143.829 156.926 144.513 156.926C145.161 156.926 145.683 157.118 146.079 157.502C146.475 157.886 146.679 158.378 146.691 158.978V164H146.079V159.122C146.067 158.642 145.911 158.246 145.611 157.934C145.323 157.622 144.909 157.454 144.369 157.43C143.877 157.43 143.421 157.544 143.001 157.772C142.581 158 142.239 158.318 141.975 158.726C141.723 159.122 141.597 159.59 141.597 160.13V164H141.003V157.088H141.489ZM152.488 154.046H153.082V157.196H155.314V157.682H153.082V164H152.488V157.682H150.94V157.196H152.488V154.046ZM45.0461 184.27L34.9661 172.48L35.1281 172.3L35.1461 184H34.5341V171.058H34.5701L44.7041 182.956L44.4881 182.992V171.292H45.0641V184.27H45.0461ZM53.549 184.126C52.853 184.126 52.229 183.97 51.677 183.658C51.137 183.334 50.705 182.902 50.381 182.362C50.069 181.81 49.913 181.198 49.913 180.526C49.913 179.854 50.075 179.242 50.399 178.69C50.723 178.138 51.161 177.7 51.713 177.376C52.265 177.052 52.877 176.89 53.549 176.89C54.353 176.89 55.025 177.124 55.565 177.592C56.117 178.048 56.519 178.636 56.771 179.356L50.615 181.804L50.435 181.354L56.249 179.05L56.105 179.266C55.877 178.762 55.541 178.324 55.097 177.952C54.665 177.58 54.137 177.394 53.513 177.394C52.949 177.394 52.439 177.532 51.983 177.808C51.527 178.084 51.161 178.462 50.885 178.942C50.621 179.41 50.489 179.932 50.489 180.508C50.489 181.048 50.615 181.558 50.867 182.038C51.131 182.506 51.491 182.884 51.947 183.172C52.403 183.46 52.937 183.604 53.549 183.604C53.957 183.604 54.341 183.532 54.701 183.388C55.073 183.232 55.397 183.034 55.673 182.794L56.015 183.208C55.679 183.484 55.295 183.706 54.863 183.874C54.443 184.042 54.005 184.126 53.549 184.126ZM63.1351 184.162C62.4991 184.162 61.9891 183.97 61.6051 183.586C61.2211 183.202 61.0171 182.71 60.9931 182.11V177.088H61.5871V181.948C61.5991 182.428 61.7491 182.824 62.0371 183.136C62.3251 183.448 62.7511 183.616 63.3151 183.64C63.7831 183.64 64.2271 183.526 64.6471 183.298C65.0671 183.058 65.4031 182.734 65.6551 182.326C65.9191 181.906 66.0511 181.438 66.0511 180.922V177.088H66.6451V184H66.1231L66.0691 181.858L66.1411 182.164C66.0331 182.536 65.8231 182.878 65.5111 183.19C65.2111 183.49 64.8511 183.73 64.4311 183.91C64.0231 184.078 63.5911 184.162 63.1351 184.162ZM72.46 174.046H73.054V177.196H75.286V177.682H73.054V184H72.46V177.682H70.912V177.196H72.46V174.046ZM79.7041 177.088L79.7761 179.23L79.7041 178.996C79.8481 178.564 80.0821 178.198 80.4061 177.898C80.7301 177.586 81.0961 177.346 81.5041 177.178C81.9121 177.01 82.3261 176.926 82.7461 176.926L82.7101 177.484C82.1821 177.496 81.6961 177.622 81.2521 177.862C80.8081 178.09 80.4541 178.408 80.1901 178.816C79.9381 179.212 79.8121 179.662 79.8121 180.166V184H79.2181V177.088H79.7041ZM89.6453 184.126C88.9853 184.126 88.3853 183.97 87.8453 183.658C87.3173 183.346 86.8913 182.926 86.5673 182.398C86.2553 181.858 86.0993 181.24 86.0993 180.544C86.0993 179.776 86.2613 179.122 86.5853 178.582C86.9213 178.03 87.3653 177.616 87.9173 177.34C88.4693 177.052 89.0933 176.908 89.7893 176.908C90.4493 176.908 91.0613 177.1 91.6253 177.484C92.2013 177.868 92.6213 178.36 92.8853 178.96L92.7953 179.212L92.9033 177.088H93.4073V184H92.8133V181.75L92.9213 182.038C92.8253 182.314 92.6693 182.578 92.4533 182.83C92.2493 183.07 91.9973 183.292 91.6973 183.496C91.4093 183.688 91.0913 183.844 90.7433 183.964C90.3953 184.072 90.0293 184.126 89.6453 184.126ZM89.7533 183.622C90.3053 183.622 90.8093 183.502 91.2653 183.262C91.7213 183.01 92.0873 182.674 92.3633 182.254C92.6393 181.822 92.7893 181.324 92.8133 180.76V179.896C92.7173 179.428 92.5193 179.008 92.2193 178.636C91.9313 178.264 91.5713 177.97 91.1393 177.754C90.7073 177.526 90.2393 177.412 89.7353 177.412C89.1833 177.412 88.6733 177.538 88.2053 177.79C87.7373 178.042 87.3653 178.402 87.0893 178.87C86.8253 179.338 86.6933 179.884 86.6933 180.508C86.6933 181.084 86.8313 181.606 87.1073 182.074C87.3833 182.542 87.7493 182.92 88.2053 183.208C88.6733 183.484 89.1893 183.622 89.7533 183.622ZM98.4978 170.392H99.0918V184H98.4978V170.392ZM122.393 184.27L112.313 172.48L112.475 172.3L112.493 184H111.881V171.058H111.917L122.051 182.956L121.835 182.992V171.292H122.411V184.27H122.393ZM127.26 180.508C127.26 179.848 127.422 179.242 127.746 178.69C128.07 178.138 128.508 177.7 129.06 177.376C129.612 177.052 130.224 176.89 130.896 176.89C131.592 176.89 132.216 177.052 132.768 177.376C133.32 177.7 133.752 178.138 134.064 178.69C134.388 179.242 134.55 179.848 134.55 180.508C134.55 181.18 134.388 181.792 134.064 182.344C133.752 182.896 133.314 183.334 132.75 183.658C132.198 183.97 131.58 184.126 130.896 184.126C130.212 184.126 129.594 183.97 129.042 183.658C128.502 183.346 128.07 182.92 127.746 182.38C127.422 181.84 127.26 181.216 127.26 180.508ZM127.854 180.526C127.854 181.102 127.986 181.624 128.25 182.092C128.526 182.548 128.892 182.92 129.348 183.208C129.816 183.484 130.332 183.622 130.896 183.622C131.46 183.622 131.97 183.484 132.426 183.208C132.894 182.932 133.26 182.56 133.524 182.092C133.8 181.624 133.938 181.102 133.938 180.526C133.938 179.95 133.8 179.428 133.524 178.96C133.26 178.492 132.894 178.12 132.426 177.844C131.97 177.556 131.46 177.412 130.896 177.412C130.308 177.412 129.786 177.562 129.33 177.862C128.874 178.15 128.514 178.534 128.25 179.014C127.986 179.494 127.854 179.998 127.854 180.526ZM139.658 174.046H140.252V177.196H142.484V177.682H140.252V184H139.658V177.682H138.11V177.196H139.658V174.046ZM149.35 184.126C148.654 184.126 148.03 183.97 147.478 183.658C146.938 183.334 146.506 182.902 146.182 182.362C145.87 181.81 145.714 181.198 145.714 180.526C145.714 179.854 145.876 179.242 146.2 178.69C146.524 178.138 146.962 177.7 147.514 177.376C148.066 177.052 148.678 176.89 149.35 176.89C150.154 176.89 150.826 177.124 151.366 177.592C151.918 178.048 152.32 178.636 152.572 179.356L146.416 181.804L146.236 181.354L152.05 179.05L151.906 179.266C151.678 178.762 151.342 178.324 150.898 177.952C150.466 177.58 149.938 177.394 149.314 177.394C148.75 177.394 148.24 177.532 147.784 177.808C147.328 178.084 146.962 178.462 146.686 178.942C146.422 179.41 146.29 179.932 146.29 180.508C146.29 181.048 146.416 181.558 146.668 182.038C146.932 182.506 147.292 182.884 147.748 183.172C148.204 183.46 148.738 183.604 149.35 183.604C149.758 183.604 150.142 183.532 150.502 183.388C150.874 183.232 151.198 183.034 151.474 182.794L151.816 183.208C151.48 183.484 151.096 183.706 150.664 183.874C150.244 184.042 149.806 184.126 149.35 184.126ZM158.306 184.144C157.934 184.144 157.538 184.078 157.118 183.946C156.698 183.802 156.35 183.568 156.074 183.244L156.38 182.848C156.584 183.088 156.854 183.286 157.19 183.442C157.526 183.586 157.886 183.658 158.27 183.658C158.558 183.658 158.828 183.616 159.08 183.532C159.344 183.436 159.56 183.286 159.728 183.082C159.896 182.866 159.98 182.578 159.98 182.218C159.98 181.87 159.884 181.6 159.692 181.408C159.512 181.204 159.272 181.048 158.972 180.94C158.684 180.82 158.384 180.706 158.072 180.598C157.592 180.442 157.184 180.232 156.848 179.968C156.524 179.704 156.362 179.308 156.362 178.78C156.362 178.396 156.452 178.072 156.632 177.808C156.812 177.532 157.052 177.322 157.352 177.178C157.652 177.034 157.982 176.962 158.342 176.962C158.666 176.962 159.008 177.022 159.368 177.142C159.728 177.262 160.046 177.466 160.322 177.754L160.034 178.15C159.842 177.898 159.584 177.724 159.26 177.628C158.936 177.52 158.654 177.46 158.414 177.448C158.21 177.448 157.994 177.496 157.766 177.592C157.538 177.676 157.34 177.814 157.172 178.006C157.016 178.186 156.938 178.42 156.938 178.708C156.938 178.996 157.01 179.23 157.154 179.41C157.31 179.59 157.508 179.734 157.748 179.842C157.988 179.95 158.24 180.052 158.504 180.148C158.84 180.268 159.164 180.4 159.476 180.544C159.8 180.676 160.064 180.862 160.268 181.102C160.472 181.342 160.574 181.666 160.574 182.074C160.574 182.482 160.484 182.842 160.304 183.154C160.136 183.466 159.884 183.712 159.548 183.892C159.224 184.06 158.81 184.144 158.306 184.144Z" fill="white"/>
<path d="M283.501 143.19C283.213 143.37 282.889 143.532 282.529 143.676C282.169 143.82 281.779 143.934 281.359 144.018C280.951 144.102 280.519 144.144 280.063 144.144C279.091 144.144 278.209 143.976 277.417 143.64C276.637 143.304 275.965 142.842 275.401 142.254C274.837 141.654 274.399 140.97 274.087 140.202C273.787 139.422 273.637 138.6 273.637 137.736C273.637 136.812 273.799 135.954 274.123 135.162C274.459 134.358 274.921 133.656 275.509 133.056C276.097 132.456 276.781 131.988 277.561 131.652C278.341 131.316 279.181 131.148 280.081 131.148C280.717 131.148 281.317 131.238 281.881 131.418C282.457 131.586 282.991 131.814 283.483 132.102L283.213 132.642C282.769 132.378 282.283 132.162 281.755 131.994C281.227 131.826 280.669 131.742 280.081 131.742C279.289 131.742 278.539 131.898 277.831 132.21C277.123 132.51 276.505 132.936 275.977 133.488C275.449 134.028 275.029 134.664 274.717 135.396C274.417 136.116 274.267 136.89 274.267 137.718C274.267 138.51 274.399 139.26 274.663 139.968C274.939 140.676 275.329 141.3 275.833 141.84C276.349 142.368 276.961 142.788 277.669 143.1C278.377 143.4 279.175 143.55 280.063 143.55C280.663 143.55 281.227 143.466 281.755 143.298C282.283 143.13 282.763 142.914 283.195 142.65L283.501 143.19ZM288.728 137.088L288.8 139.23L288.728 138.996C288.872 138.564 289.106 138.198 289.43 137.898C289.754 137.586 290.12 137.346 290.528 137.178C290.936 137.01 291.35 136.926 291.77 136.926L291.734 137.484C291.206 137.496 290.72 137.622 290.276 137.862C289.832 138.09 289.478 138.408 289.214 138.816C288.962 139.212 288.836 139.662 288.836 140.166V144H288.242V137.088H288.728ZM296.649 147.312L301.131 137.088H301.743L297.297 147.312H296.649ZM298.143 144.09L294.903 137.088H295.569L298.629 143.748L298.143 144.09ZM307.276 144.144C306.904 144.144 306.508 144.078 306.088 143.946C305.668 143.802 305.32 143.568 305.044 143.244L305.35 142.848C305.554 143.088 305.824 143.286 306.16 143.442C306.496 143.586 306.856 143.658 307.24 143.658C307.528 143.658 307.798 143.616 308.05 143.532C308.314 143.436 308.53 143.286 308.698 143.082C308.866 142.866 308.95 142.578 308.95 142.218C308.95 141.87 308.854 141.6 308.662 141.408C308.482 141.204 308.242 141.048 307.942 140.94C307.654 140.82 307.354 140.706 307.042 140.598C306.562 140.442 306.154 140.232 305.818 139.968C305.494 139.704 305.332 139.308 305.332 138.78C305.332 138.396 305.422 138.072 305.602 137.808C305.782 137.532 306.022 137.322 306.322 137.178C306.622 137.034 306.952 136.962 307.312 136.962C307.636 136.962 307.978 137.022 308.338 137.142C308.698 137.262 309.016 137.466 309.292 137.754L309.004 138.15C308.812 137.898 308.554 137.724 308.23 137.628C307.906 137.52 307.624 137.46 307.384 137.448C307.18 137.448 306.964 137.496 306.736 137.592C306.508 137.676 306.31 137.814 306.142 138.006C305.986 138.186 305.908 138.42 305.908 138.708C305.908 138.996 305.98 139.23 306.124 139.41C306.28 139.59 306.478 139.734 306.718 139.842C306.958 139.95 307.21 140.052 307.474 140.148C307.81 140.268 308.134 140.4 308.446 140.544C308.77 140.676 309.034 140.862 309.238 141.102C309.442 141.342 309.544 141.666 309.544 142.074C309.544 142.482 309.454 142.842 309.274 143.154C309.106 143.466 308.854 143.712 308.518 143.892C308.194 144.06 307.78 144.144 307.276 144.144ZM314.682 134.046H315.276V137.196H317.508V137.682H315.276V144H314.682V137.682H313.134V137.196H314.682V134.046ZM324.284 144.126C323.624 144.126 323.024 143.97 322.484 143.658C321.956 143.346 321.53 142.926 321.206 142.398C320.894 141.858 320.738 141.24 320.738 140.544C320.738 139.776 320.9 139.122 321.224 138.582C321.56 138.03 322.004 137.616 322.556 137.34C323.108 137.052 323.732 136.908 324.428 136.908C325.088 136.908 325.7 137.1 326.264 137.484C326.84 137.868 327.26 138.36 327.524 138.96L327.434 139.212L327.542 137.088H328.046V144H327.452V141.75L327.56 142.038C327.464 142.314 327.308 142.578 327.092 142.83C326.888 143.07 326.636 143.292 326.336 143.496C326.048 143.688 325.73 143.844 325.382 143.964C325.034 144.072 324.668 144.126 324.284 144.126ZM324.392 143.622C324.944 143.622 325.448 143.502 325.904 143.262C326.36 143.01 326.726 142.674 327.002 142.254C327.278 141.822 327.428 141.324 327.452 140.76V139.896C327.356 139.428 327.158 139.008 326.858 138.636C326.57 138.264 326.21 137.97 325.778 137.754C325.346 137.526 324.878 137.412 324.374 137.412C323.822 137.412 323.312 137.538 322.844 137.79C322.376 138.042 322.004 138.402 321.728 138.87C321.464 139.338 321.332 139.884 321.332 140.508C321.332 141.084 321.47 141.606 321.746 142.074C322.022 142.542 322.388 142.92 322.844 143.208C323.312 143.484 323.828 143.622 324.392 143.622ZM333.137 130.392H333.731V144H333.137V130.392ZM339.632 142.452C339.368 143.076 339.11 143.694 338.858 144.306C338.606 144.918 338.348 145.536 338.084 146.16H337.58C337.808 145.536 338.036 144.918 338.264 144.306C338.492 143.694 338.726 143.076 338.966 142.452H339.632ZM360.837 143.19C360.549 143.37 360.225 143.532 359.865 143.676C359.505 143.82 359.115 143.934 358.695 144.018C358.287 144.102 357.855 144.144 357.399 144.144C356.427 144.144 355.545 143.976 354.753 143.64C353.973 143.304 353.301 142.842 352.737 142.254C352.173 141.654 351.735 140.97 351.423 140.202C351.123 139.422 350.973 138.6 350.973 137.736C350.973 136.812 351.135 135.954 351.459 135.162C351.795 134.358 352.257 133.656 352.845 133.056C353.433 132.456 354.117 131.988 354.897 131.652C355.677 131.316 356.517 131.148 357.417 131.148C358.053 131.148 358.653 131.238 359.217 131.418C359.793 131.586 360.327 131.814 360.819 132.102L360.549 132.642C360.105 132.378 359.619 132.162 359.091 131.994C358.563 131.826 358.005 131.742 357.417 131.742C356.625 131.742 355.875 131.898 355.167 132.21C354.459 132.51 353.841 132.936 353.313 133.488C352.785 134.028 352.365 134.664 352.053 135.396C351.753 136.116 351.603 136.89 351.603 137.718C351.603 138.51 351.735 139.26 351.999 139.968C352.275 140.676 352.665 141.3 353.169 141.84C353.685 142.368 354.297 142.788 355.005 143.1C355.713 143.4 356.511 143.55 357.399 143.55C357.999 143.55 358.563 143.466 359.091 143.298C359.619 143.13 360.099 142.914 360.531 142.65L360.837 143.19ZM365.579 130.392H366.173V144H365.579V130.392ZM374.198 144.126C373.502 144.126 372.878 143.97 372.326 143.658C371.786 143.334 371.354 142.902 371.03 142.362C370.718 141.81 370.562 141.198 370.562 140.526C370.562 139.854 370.724 139.242 371.048 138.69C371.372 138.138 371.81 137.7 372.362 137.376C372.914 137.052 373.526 136.89 374.198 136.89C375.002 136.89 375.674 137.124 376.214 137.592C376.766 138.048 377.168 138.636 377.42 139.356L371.264 141.804L371.084 141.354L376.898 139.05L376.754 139.266C376.526 138.762 376.19 138.324 375.746 137.952C375.314 137.58 374.786 137.394 374.162 137.394C373.598 137.394 373.088 137.532 372.632 137.808C372.176 138.084 371.81 138.462 371.534 138.942C371.27 139.41 371.138 139.932 371.138 140.508C371.138 141.048 371.264 141.558 371.516 142.038C371.78 142.506 372.14 142.884 372.596 143.172C373.052 143.46 373.586 143.604 374.198 143.604C374.606 143.604 374.99 143.532 375.35 143.388C375.722 143.232 376.046 143.034 376.322 142.794L376.664 143.208C376.328 143.484 375.944 143.706 375.512 143.874C375.092 144.042 374.654 144.126 374.198 144.126ZM384.486 144.126C383.826 144.126 383.226 143.97 382.686 143.658C382.158 143.346 381.732 142.926 381.408 142.398C381.096 141.858 380.94 141.24 380.94 140.544C380.94 139.776 381.102 139.122 381.426 138.582C381.762 138.03 382.206 137.616 382.758 137.34C383.31 137.052 383.934 136.908 384.63 136.908C385.29 136.908 385.902 137.1 386.466 137.484C387.042 137.868 387.462 138.36 387.726 138.96L387.636 139.212L387.744 137.088H388.248V144H387.654V141.75L387.762 142.038C387.666 142.314 387.51 142.578 387.294 142.83C387.09 143.07 386.838 143.292 386.538 143.496C386.25 143.688 385.932 143.844 385.584 143.964C385.236 144.072 384.87 144.126 384.486 144.126ZM384.594 143.622C385.146 143.622 385.65 143.502 386.106 143.262C386.562 143.01 386.928 142.674 387.204 142.254C387.48 141.822 387.63 141.324 387.654 140.76V139.896C387.558 139.428 387.36 139.008 387.06 138.636C386.772 138.264 386.412 137.97 385.98 137.754C385.548 137.526 385.08 137.412 384.576 137.412C384.024 137.412 383.514 137.538 383.046 137.79C382.578 138.042 382.206 138.402 381.93 138.87C381.666 139.338 381.534 139.884 381.534 140.508C381.534 141.084 381.672 141.606 381.948 142.074C382.224 142.542 382.59 142.92 383.046 143.208C383.514 143.484 384.03 143.622 384.594 143.622ZM393.824 137.088L393.896 139.23L393.824 138.996C393.968 138.564 394.202 138.198 394.526 137.898C394.85 137.586 395.216 137.346 395.624 137.178C396.032 137.01 396.446 136.926 396.866 136.926L396.83 137.484C396.302 137.496 395.816 137.622 395.372 137.862C394.928 138.09 394.574 138.408 394.31 138.816C394.058 139.212 393.932 139.662 393.932 140.166V144H393.338V137.088H393.824Z" fill="white"/>
<path d="M497.861 143.19C497.573 143.37 497.249 143.532 496.889 143.676C496.529 143.82 496.139 143.934 495.719 144.018C495.311 144.102 494.879 144.144 494.423 144.144C493.451 144.144 492.569 143.976 491.777 143.64C490.997 143.304 490.325 142.842 489.761 142.254C489.197 141.654 488.759 140.97 488.447 140.202C488.147 139.422 487.997 138.6 487.997 137.736C487.997 136.812 488.159 135.954 488.483 135.162C488.819 134.358 489.281 133.656 489.869 133.056C490.457 132.456 491.141 131.988 491.921 131.652C492.701 131.316 493.541 131.148 494.441 131.148C495.077 131.148 495.677 131.238 496.241 131.418C496.817 131.586 497.351 131.814 497.843 132.102L497.573 132.642C497.129 132.378 496.643 132.162 496.115 131.994C495.587 131.826 495.029 131.742 494.441 131.742C493.649 131.742 492.899 131.898 492.191 132.21C491.483 132.51 490.865 132.936 490.337 133.488C489.809 134.028 489.389 134.664 489.077 135.396C488.777 136.116 488.627 136.89 488.627 137.718C488.627 138.51 488.759 139.26 489.023 139.968C489.299 140.676 489.689 141.3 490.193 141.84C490.709 142.368 491.321 142.788 492.029 143.1C492.737 143.4 493.535 143.55 494.423 143.55C495.023 143.55 495.587 143.466 496.115 143.298C496.643 143.13 497.123 142.914 497.555 142.65L497.861 143.19ZM502.603 130.392H503.197V144H502.603V130.392ZM511.222 144.126C510.526 144.126 509.902 143.97 509.35 143.658C508.81 143.334 508.378 142.902 508.054 142.362C507.742 141.81 507.586 141.198 507.586 140.526C507.586 139.854 507.748 139.242 508.072 138.69C508.396 138.138 508.834 137.7 509.386 137.376C509.938 137.052 510.55 136.89 511.222 136.89C512.026 136.89 512.698 137.124 513.238 137.592C513.79 138.048 514.192 138.636 514.444 139.356L508.288 141.804L508.108 141.354L513.922 139.05L513.778 139.266C513.55 138.762 513.214 138.324 512.77 137.952C512.338 137.58 511.81 137.394 511.186 137.394C510.622 137.394 510.112 137.532 509.656 137.808C509.2 138.084 508.834 138.462 508.558 138.942C508.294 139.41 508.162 139.932 508.162 140.508C508.162 141.048 508.288 141.558 508.54 142.038C508.804 142.506 509.164 142.884 509.62 143.172C510.076 143.46 510.61 143.604 511.222 143.604C511.63 143.604 512.014 143.532 512.374 143.388C512.746 143.232 513.07 143.034 513.346 142.794L513.688 143.208C513.352 143.484 512.968 143.706 512.536 143.874C512.116 144.042 511.678 144.126 511.222 144.126ZM521.51 144.126C520.85 144.126 520.25 143.97 519.71 143.658C519.182 143.346 518.756 142.926 518.432 142.398C518.12 141.858 517.964 141.24 517.964 140.544C517.964 139.776 518.126 139.122 518.45 138.582C518.786 138.03 519.23 137.616 519.782 137.34C520.334 137.052 520.958 136.908 521.654 136.908C522.314 136.908 522.926 137.1 523.49 137.484C524.066 137.868 524.486 138.36 524.75 138.96L524.66 139.212L524.768 137.088H525.272V144H524.678V141.75L524.786 142.038C524.69 142.314 524.534 142.578 524.318 142.83C524.114 143.07 523.862 143.292 523.562 143.496C523.274 143.688 522.956 143.844 522.608 143.964C522.26 144.072 521.894 144.126 521.51 144.126ZM521.618 143.622C522.17 143.622 522.674 143.502 523.13 143.262C523.586 143.01 523.952 142.674 524.228 142.254C524.504 141.822 524.654 141.324 524.678 140.76V139.896C524.582 139.428 524.384 139.008 524.084 138.636C523.796 138.264 523.436 137.97 523.004 137.754C522.572 137.526 522.104 137.412 521.6 137.412C521.048 137.412 520.538 137.538 520.07 137.79C519.602 138.042 519.23 138.402 518.954 138.87C518.69 139.338 518.558 139.884 518.558 140.508C518.558 141.084 518.696 141.606 518.972 142.074C519.248 142.542 519.614 142.92 520.07 143.208C520.538 143.484 521.054 143.622 521.618 143.622ZM530.848 137.088L530.938 139.284L530.848 138.942C531.052 138.318 531.436 137.826 532 137.466C532.564 137.106 533.188 136.926 533.872 136.926C534.52 136.926 535.042 137.118 535.438 137.502C535.834 137.886 536.038 138.378 536.05 138.978V144H535.438V139.122C535.426 138.642 535.27 138.246 534.97 137.934C534.682 137.622 534.268 137.454 533.728 137.43C533.236 137.43 532.78 137.544 532.36 137.772C531.94 138 531.598 138.318 531.334 138.726C531.082 139.122 530.956 139.59 530.956 140.13V144H530.362V137.088H530.848ZM541.955 142.452C541.691 143.076 541.433 143.694 541.181 144.306C540.929 144.918 540.671 145.536 540.407 146.16H539.903C540.131 145.536 540.359 144.918 540.587 144.306C540.815 143.694 541.049 143.076 541.289 142.452H541.955ZM560.245 132.462C559.897 132.294 559.453 132.138 558.913 131.994C558.373 131.838 557.827 131.76 557.275 131.76C556.387 131.76 555.679 131.982 555.151 132.426C554.623 132.87 554.359 133.428 554.359 134.1C554.359 134.604 554.503 135.024 554.791 135.36C555.091 135.684 555.481 135.96 555.961 136.188C556.441 136.416 556.951 136.638 557.491 136.854C557.923 137.01 558.343 137.184 558.751 137.376C559.171 137.568 559.549 137.802 559.885 138.078C560.233 138.342 560.509 138.678 560.713 139.086C560.917 139.494 561.019 139.992 561.019 140.58C561.019 141.3 560.851 141.93 560.515 142.47C560.179 142.998 559.717 143.412 559.129 143.712C558.541 144 557.869 144.144 557.113 144.144C556.453 144.144 555.859 144.06 555.331 143.892C554.803 143.724 554.353 143.538 553.981 143.334C553.621 143.13 553.345 142.968 553.153 142.848L553.441 142.326C553.705 142.518 554.023 142.71 554.395 142.902C554.779 143.094 555.199 143.262 555.655 143.406C556.111 143.538 556.567 143.604 557.023 143.604C557.575 143.604 558.109 143.496 558.625 143.28C559.141 143.052 559.561 142.716 559.885 142.272C560.221 141.828 560.389 141.27 560.389 140.598C560.389 139.926 560.227 139.392 559.903 138.996C559.591 138.588 559.183 138.264 558.679 138.024C558.187 137.772 557.665 137.544 557.113 137.34C556.705 137.184 556.297 137.022 555.889 136.854C555.493 136.674 555.127 136.47 554.791 136.242C554.467 136.002 554.209 135.714 554.017 135.378C553.825 135.042 553.729 134.64 553.729 134.172C553.729 133.584 553.879 133.074 554.179 132.642C554.491 132.198 554.905 131.856 555.421 131.616C555.949 131.364 556.543 131.232 557.203 131.22C557.731 131.22 558.301 131.292 558.913 131.436C559.525 131.58 560.053 131.766 560.497 131.994L560.245 132.462ZM566.156 137.088L566.228 139.122L566.138 138.942C566.366 138.318 566.756 137.826 567.308 137.466C567.872 137.106 568.484 136.926 569.144 136.926C569.528 136.926 569.876 137.004 570.188 137.16C570.512 137.316 570.776 137.526 570.98 137.79C571.184 138.054 571.298 138.354 571.322 138.69L571.232 138.798C571.472 138.186 571.862 137.724 572.402 137.412C572.942 137.088 573.53 136.926 574.166 136.926C574.814 136.926 575.33 137.112 575.714 137.484C576.11 137.856 576.314 138.33 576.326 138.906V144H575.732V139.032C575.72 138.612 575.576 138.252 575.3 137.952C575.024 137.64 574.616 137.466 574.076 137.43C573.596 137.43 573.146 137.55 572.726 137.79C572.318 138.018 571.982 138.33 571.718 138.726C571.454 139.122 571.31 139.56 571.286 140.04V144H570.71V139.032C570.686 138.612 570.53 138.252 570.242 137.952C569.966 137.64 569.558 137.466 569.018 137.43C568.526 137.43 568.07 137.55 567.65 137.79C567.23 138.03 566.894 138.354 566.642 138.762C566.39 139.17 566.264 139.626 566.264 140.13V144H565.67V137.088H566.156ZM580.742 140.508C580.742 139.848 580.904 139.242 581.228 138.69C581.552 138.138 581.99 137.7 582.542 137.376C583.094 137.052 583.706 136.89 584.378 136.89C585.074 136.89 585.698 137.052 586.25 137.376C586.802 137.7 587.234 138.138 587.546 138.69C587.87 139.242 588.032 139.848 588.032 140.508C588.032 141.18 587.87 141.792 587.546 142.344C587.234 142.896 586.796 143.334 586.232 143.658C585.68 143.97 585.062 144.126 584.378 144.126C583.694 144.126 583.076 143.97 582.524 143.658C581.984 143.346 581.552 142.92 581.228 142.38C580.904 141.84 580.742 141.216 580.742 140.508ZM581.336 140.526C581.336 141.102 581.468 141.624 581.732 142.092C582.008 142.548 582.374 142.92 582.83 143.208C583.298 143.484 583.814 143.622 584.378 143.622C584.942 143.622 585.452 143.484 585.908 143.208C586.376 142.932 586.742 142.56 587.006 142.092C587.282 141.624 587.42 141.102 587.42 140.526C587.42 139.95 587.282 139.428 587.006 138.96C586.742 138.492 586.376 138.12 585.908 137.844C585.452 137.556 584.942 137.412 584.378 137.412C583.79 137.412 583.268 137.562 582.812 137.862C582.356 138.15 581.996 138.534 581.732 139.014C581.468 139.494 581.336 139.998 581.336 140.526ZM591.736 140.508C591.736 139.848 591.898 139.242 592.222 138.69C592.546 138.138 592.984 137.7 593.536 137.376C594.088 137.052 594.7 136.89 595.372 136.89C596.068 136.89 596.692 137.052 597.244 137.376C597.796 137.7 598.228 138.138 598.54 138.69C598.864 139.242 599.026 139.848 599.026 140.508C599.026 141.18 598.864 141.792 598.54 142.344C598.228 142.896 597.79 143.334 597.226 143.658C596.674 143.97 596.056 144.126 595.372 144.126C594.688 144.126 594.07 143.97 593.518 143.658C592.978 143.346 592.546 142.92 592.222 142.38C591.898 141.84 591.736 141.216 591.736 140.508ZM592.33 140.526C592.33 141.102 592.462 141.624 592.726 142.092C593.002 142.548 593.368 142.92 593.824 143.208C594.292 143.484 594.808 143.622 595.372 143.622C595.936 143.622 596.446 143.484 596.902 143.208C597.37 142.932 597.736 142.56 598 142.092C598.276 141.624 598.414 141.102 598.414 140.526C598.414 139.95 598.276 139.428 598 138.96C597.736 138.492 597.37 138.12 596.902 137.844C596.446 137.556 595.936 137.412 595.372 137.412C594.784 137.412 594.262 137.562 593.806 137.862C593.35 138.15 592.99 138.534 592.726 139.014C592.462 139.494 592.33 139.998 592.33 140.526ZM604.133 134.046H604.727V137.196H606.959V137.682H604.727V144H604.133V137.682H602.585V137.196H604.133V134.046ZM610.891 144V130.392H611.467V138.978L611.431 138.708C611.659 138.204 612.037 137.784 612.565 137.448C613.105 137.1 613.717 136.926 614.401 136.926C615.049 136.926 615.571 137.118 615.967 137.502C616.363 137.886 616.567 138.378 616.579 138.978V144H615.967V139.122C615.955 138.642 615.799 138.246 615.499 137.934C615.211 137.622 614.797 137.454 614.257 137.43C613.765 137.43 613.309 137.55 612.889 137.79C612.469 138.03 612.127 138.354 611.863 138.762C611.611 139.17 611.485 139.626 611.485 140.13V144H610.891ZM622.484 142.452C622.22 143.076 621.962 143.694 621.71 144.306C621.458 144.918 621.2 145.536 620.936 146.16H620.432C620.66 145.536 620.888 144.918 621.116 144.306C621.344 143.694 621.578 143.076 621.818 142.452H622.484ZM526.852 164V151.04H526.87L533.008 159.752L532.738 159.734L538.858 151.04H538.876V164H538.282V152.498L538.336 152.786L532.864 160.472H532.828L527.356 152.786L527.464 152.516V164H526.852ZM547.361 164.126C546.665 164.126 546.041 163.97 545.489 163.658C544.949 163.334 544.517 162.902 544.193 162.362C543.881 161.81 543.725 161.198 543.725 160.526C543.725 159.854 543.887 159.242 544.211 158.69C544.535 158.138 544.973 157.7 545.525 157.376C546.077 157.052 546.689 156.89 547.361 156.89C548.165 156.89 548.837 157.124 549.377 157.592C549.929 158.048 550.331 158.636 550.583 159.356L544.427 161.804L544.247 161.354L550.061 159.05L549.917 159.266C549.689 158.762 549.353 158.324 548.909 157.952C548.477 157.58 547.949 157.394 547.325 157.394C546.761 157.394 546.251 157.532 545.795 157.808C545.339 158.084 544.973 158.462 544.697 158.942C544.433 159.41 544.301 159.932 544.301 160.508C544.301 161.048 544.427 161.558 544.679 162.038C544.943 162.506 545.303 162.884 545.759 163.172C546.215 163.46 546.749 163.604 547.361 163.604C547.769 163.604 548.153 163.532 548.513 163.388C548.885 163.232 549.209 163.034 549.485 162.794L549.827 163.208C549.491 163.484 549.107 163.706 548.675 163.874C548.255 164.042 547.817 164.126 547.361 164.126ZM554.805 150.392H555.399V164H554.805V150.392ZM560.49 150.392H561.084V164H560.49V150.392ZM565.472 160.508C565.472 159.848 565.634 159.242 565.958 158.69C566.282 158.138 566.72 157.7 567.272 157.376C567.824 157.052 568.436 156.89 569.108 156.89C569.804 156.89 570.428 157.052 570.98 157.376C571.532 157.7 571.964 158.138 572.276 158.69C572.6 159.242 572.762 159.848 572.762 160.508C572.762 161.18 572.6 161.792 572.276 162.344C571.964 162.896 571.526 163.334 570.962 163.658C570.41 163.97 569.792 164.126 569.108 164.126C568.424 164.126 567.806 163.97 567.254 163.658C566.714 163.346 566.282 162.92 565.958 162.38C565.634 161.84 565.472 161.216 565.472 160.508ZM566.066 160.526C566.066 161.102 566.198 161.624 566.462 162.092C566.738 162.548 567.104 162.92 567.56 163.208C568.028 163.484 568.544 163.622 569.108 163.622C569.672 163.622 570.182 163.484 570.638 163.208C571.106 162.932 571.472 162.56 571.736 162.092C572.012 161.624 572.15 161.102 572.15 160.526C572.15 159.95 572.012 159.428 571.736 158.96C571.472 158.492 571.106 158.12 570.638 157.844C570.182 157.556 569.672 157.412 569.108 157.412C568.52 157.412 567.998 157.562 567.542 157.862C567.086 158.15 566.726 158.534 566.462 159.014C566.198 159.494 566.066 159.998 566.066 160.526ZM580.682 157.088L583.472 163.388H583.328L586.064 157.088H586.676L583.4 164.414L581.186 159.446L579.152 164.414L575.876 157.088H576.47L579.314 163.46L579.098 163.388L580.934 158.888L580.124 157.088H580.682Z" fill="white"/>
<path d="M700.691 132.462C700.343 132.294 699.899 132.138 699.359 131.994C698.819 131.838 698.273 131.76 697.721 131.76C696.833 131.76 696.125 131.982 695.597 132.426C695.069 132.87 694.805 133.428 694.805 134.1C694.805 134.604 694.949 135.024 695.237 135.36C695.537 135.684 695.927 135.96 696.407 136.188C696.887 136.416 697.397 136.638 697.937 136.854C698.369 137.01 698.789 137.184 699.197 137.376C699.617 137.568 699.995 137.802 700.331 138.078C700.679 138.342 700.955 138.678 701.159 139.086C701.363 139.494 701.465 139.992 701.465 140.58C701.465 141.3 701.297 141.93 700.961 142.47C700.625 142.998 700.163 143.412 699.575 143.712C698.987 144 698.315 144.144 697.559 144.144C696.899 144.144 696.305 144.06 695.777 143.892C695.249 143.724 694.799 143.538 694.427 143.334C694.067 143.13 693.791 142.968 693.599 142.848L693.887 142.326C694.151 142.518 694.469 142.71 694.841 142.902C695.225 143.094 695.645 143.262 696.101 143.406C696.557 143.538 697.013 143.604 697.469 143.604C698.021 143.604 698.555 143.496 699.071 143.28C699.587 143.052 700.007 142.716 700.331 142.272C700.667 141.828 700.835 141.27 700.835 140.598C700.835 139.926 700.673 139.392 700.349 138.996C700.037 138.588 699.629 138.264 699.125 138.024C698.633 137.772 698.111 137.544 697.559 137.34C697.151 137.184 696.743 137.022 696.335 136.854C695.939 136.674 695.573 136.47 695.237 136.242C694.913 136.002 694.655 135.714 694.463 135.378C694.271 135.042 694.175 134.64 694.175 134.172C694.175 133.584 694.325 133.074 694.625 132.642C694.937 132.198 695.351 131.856 695.867 131.616C696.395 131.364 696.989 131.232 697.649 131.22C698.177 131.22 698.747 131.292 699.359 131.436C699.971 131.58 700.499 131.766 700.943 131.994L700.691 132.462ZM706.602 137.088L706.674 139.122L706.584 138.942C706.812 138.318 707.202 137.826 707.754 137.466C708.318 137.106 708.93 136.926 709.59 136.926C709.974 136.926 710.322 137.004 710.634 137.16C710.958 137.316 711.222 137.526 711.426 137.79C711.63 138.054 711.744 138.354 711.768 138.69L711.678 138.798C711.918 138.186 712.308 137.724 712.848 137.412C713.388 137.088 713.976 136.926 714.612 136.926C715.26 136.926 715.776 137.112 716.16 137.484C716.556 137.856 716.76 138.33 716.772 138.906V144H716.178V139.032C716.166 138.612 716.022 138.252 715.746 137.952C715.47 137.64 715.062 137.466 714.522 137.43C714.042 137.43 713.592 137.55 713.172 137.79C712.764 138.018 712.428 138.33 712.164 138.726C711.9 139.122 711.756 139.56 711.732 140.04V144H711.156V139.032C711.132 138.612 710.976 138.252 710.688 137.952C710.412 137.64 710.004 137.466 709.464 137.43C708.972 137.43 708.516 137.55 708.096 137.79C707.676 138.03 707.34 138.354 707.088 138.762C706.836 139.17 706.71 139.626 706.71 140.13V144H706.116V137.088H706.602ZM721.189 140.508C721.189 139.848 721.351 139.242 721.675 138.69C721.999 138.138 722.437 137.7 722.989 137.376C723.541 137.052 724.153 136.89 724.825 136.89C725.521 136.89 726.145 137.052 726.697 137.376C727.249 137.7 727.681 138.138 727.993 138.69C728.317 139.242 728.479 139.848 728.479 140.508C728.479 141.18 728.317 141.792 727.993 142.344C727.681 142.896 727.243 143.334 726.679 143.658C726.127 143.97 725.509 144.126 724.825 144.126C724.141 144.126 723.523 143.97 722.971 143.658C722.431 143.346 721.999 142.92 721.675 142.38C721.351 141.84 721.189 141.216 721.189 140.508ZM721.783 140.526C721.783 141.102 721.915 141.624 722.179 142.092C722.455 142.548 722.821 142.92 723.277 143.208C723.745 143.484 724.261 143.622 724.825 143.622C725.389 143.622 725.899 143.484 726.355 143.208C726.823 142.932 727.189 142.56 727.453 142.092C727.729 141.624 727.867 141.102 727.867 140.526C727.867 139.95 727.729 139.428 727.453 138.96C727.189 138.492 726.823 138.12 726.355 137.844C725.899 137.556 725.389 137.412 724.825 137.412C724.237 137.412 723.715 137.562 723.259 137.862C722.803 138.15 722.443 138.534 722.179 139.014C721.915 139.494 721.783 139.998 721.783 140.526ZM732.182 140.508C732.182 139.848 732.344 139.242 732.668 138.69C732.992 138.138 733.43 137.7 733.982 137.376C734.534 137.052 735.146 136.89 735.818 136.89C736.514 136.89 737.138 137.052 737.69 137.376C738.242 137.7 738.674 138.138 738.986 138.69C739.31 139.242 739.472 139.848 739.472 140.508C739.472 141.18 739.31 141.792 738.986 142.344C738.674 142.896 738.236 143.334 737.672 143.658C737.12 143.97 736.502 144.126 735.818 144.126C735.134 144.126 734.516 143.97 733.964 143.658C733.424 143.346 732.992 142.92 732.668 142.38C732.344 141.84 732.182 141.216 732.182 140.508ZM732.776 140.526C732.776 141.102 732.908 141.624 733.172 142.092C733.448 142.548 733.814 142.92 734.27 143.208C734.738 143.484 735.254 143.622 735.818 143.622C736.382 143.622 736.892 143.484 737.348 143.208C737.816 142.932 738.182 142.56 738.446 142.092C738.722 141.624 738.86 141.102 738.86 140.526C738.86 139.95 738.722 139.428 738.446 138.96C738.182 138.492 737.816 138.12 737.348 137.844C736.892 137.556 736.382 137.412 735.818 137.412C735.23 137.412 734.708 137.562 734.252 137.862C733.796 138.15 733.436 138.534 733.172 139.014C732.908 139.494 732.776 139.998 732.776 140.526ZM744.579 134.046H745.173V137.196H747.405V137.682H745.173V144H744.579V137.682H743.031V137.196H744.579V134.046ZM751.338 144V130.392H751.914V138.978L751.878 138.708C752.106 138.204 752.484 137.784 753.012 137.448C753.552 137.1 754.164 136.926 754.848 136.926C755.496 136.926 756.018 137.118 756.414 137.502C756.81 137.886 757.014 138.378 757.026 138.978V144H756.414V139.122C756.402 138.642 756.246 138.246 755.946 137.934C755.658 137.622 755.244 137.454 754.704 137.43C754.212 137.43 753.756 137.55 753.336 137.79C752.916 138.03 752.574 138.354 752.31 138.762C752.058 139.17 751.932 139.626 751.932 140.13V144H751.338ZM768.757 144L774.085 130.734H774.139L779.449 144H778.765L773.923 131.724L774.337 131.526L769.369 144H768.757ZM771.151 138.942H777.073L777.217 139.518H771.025L771.151 138.942ZM784.417 137.088L784.507 139.284L784.417 138.942C784.621 138.318 785.005 137.826 785.569 137.466C786.133 137.106 786.757 136.926 787.441 136.926C788.089 136.926 788.611 137.118 789.007 137.502C789.403 137.886 789.607 138.378 789.619 138.978V144H789.007V139.122C788.995 138.642 788.839 138.246 788.539 137.934C788.251 137.622 787.837 137.454 787.297 137.43C786.805 137.43 786.349 137.544 785.929 137.772C785.509 138 785.167 138.318 784.903 138.726C784.651 139.122 784.525 139.59 784.525 140.13V144H783.931V137.088H784.417ZM797.539 144.126C796.891 144.126 796.297 143.97 795.757 143.658C795.217 143.334 794.791 142.902 794.479 142.362C794.167 141.81 794.011 141.192 794.011 140.508C794.011 139.776 794.167 139.14 794.479 138.6C794.803 138.06 795.235 137.646 795.775 137.358C796.327 137.058 796.933 136.908 797.593 136.908C798.289 136.908 798.937 137.1 799.537 137.484C800.149 137.868 800.587 138.36 800.851 138.96L800.761 139.266V130.392H801.355V144H800.743V141.75L800.851 142.092C800.575 142.692 800.137 143.184 799.537 143.568C798.949 143.94 798.283 144.126 797.539 144.126ZM797.665 143.604C798.229 143.604 798.739 143.478 799.195 143.226C799.663 142.974 800.035 142.632 800.311 142.2C800.587 141.756 800.731 141.258 800.743 140.706V139.968C800.659 139.488 800.467 139.056 800.167 138.672C799.879 138.288 799.513 137.982 799.069 137.754C798.637 137.514 798.169 137.394 797.665 137.394C797.089 137.394 796.567 137.526 796.099 137.79C795.643 138.054 795.277 138.42 795.001 138.888C794.737 139.356 794.605 139.896 794.605 140.508C794.605 141.072 794.743 141.594 795.019 142.074C795.295 142.542 795.661 142.914 796.117 143.19C796.585 143.466 797.101 143.604 797.665 143.604ZM814.144 131.292H814.756V143.406H821.884V144H814.144V131.292ZM825.55 140.508C825.55 139.848 825.712 139.242 826.036 138.69C826.36 138.138 826.798 137.7 827.35 137.376C827.902 137.052 828.514 136.89 829.186 136.89C829.882 136.89 830.506 137.052 831.058 137.376C831.61 137.7 832.042 138.138 832.354 138.69C832.678 139.242 832.84 139.848 832.84 140.508C832.84 141.18 832.678 141.792 832.354 142.344C832.042 142.896 831.604 143.334 831.04 143.658C830.488 143.97 829.87 144.126 829.186 144.126C828.502 144.126 827.884 143.97 827.332 143.658C826.792 143.346 826.36 142.92 826.036 142.38C825.712 141.84 825.55 141.216 825.55 140.508ZM826.144 140.526C826.144 141.102 826.276 141.624 826.54 142.092C826.816 142.548 827.182 142.92 827.638 143.208C828.106 143.484 828.622 143.622 829.186 143.622C829.75 143.622 830.26 143.484 830.716 143.208C831.184 142.932 831.55 142.56 831.814 142.092C832.09 141.624 832.228 141.102 832.228 140.526C832.228 139.95 832.09 139.428 831.814 138.96C831.55 138.492 831.184 138.12 830.716 137.844C830.26 137.556 829.75 137.412 829.186 137.412C828.598 137.412 828.076 137.562 827.62 137.862C827.164 138.15 826.804 138.534 826.54 139.014C826.276 139.494 826.144 139.998 826.144 140.526ZM837.731 137.088L837.821 139.284L837.731 138.942C837.935 138.318 838.319 137.826 838.883 137.466C839.447 137.106 840.071 136.926 840.755 136.926C841.403 136.926 841.925 137.118 842.321 137.502C842.717 137.886 842.921 138.378 842.933 138.978V144H842.321V139.122C842.309 138.642 842.153 138.246 841.853 137.934C841.565 137.622 841.151 137.454 840.611 137.43C840.119 137.43 839.663 137.544 839.243 137.772C838.823 138 838.481 138.318 838.217 138.726C837.965 139.122 837.839 139.59 837.839 140.13V144H837.245V137.088H837.731ZM850.998 147.348C850.65 147.348 850.308 147.306 849.972 147.222C849.636 147.15 849.294 147.006 848.946 146.79C848.598 146.586 848.232 146.298 847.848 145.926L848.19 145.53C848.742 146.07 849.246 146.418 849.702 146.574C850.158 146.742 850.584 146.826 850.98 146.826C851.76 146.826 852.372 146.7 852.816 146.448C853.26 146.208 853.578 145.884 853.77 145.476C853.962 145.068 854.064 144.612 854.076 144.108L854.094 141.732L854.238 141.894C853.998 142.554 853.566 143.094 852.942 143.514C852.33 143.922 851.64 144.126 850.872 144.126C850.212 144.126 849.612 143.97 849.072 143.658C848.544 143.334 848.118 142.902 847.794 142.362C847.482 141.81 847.326 141.198 847.326 140.526C847.326 139.806 847.488 139.176 847.812 138.636C848.148 138.096 848.592 137.676 849.144 137.376C849.696 137.064 850.308 136.908 850.98 136.908C851.664 136.908 852.294 137.094 852.87 137.466C853.458 137.826 853.884 138.3 854.148 138.888L854.076 139.194L854.184 137.088H854.688V144.126C854.688 144.678 854.568 145.2 854.328 145.692C854.1 146.184 853.716 146.58 853.176 146.88C852.648 147.192 851.922 147.348 850.998 147.348ZM847.92 140.508C847.92 141.084 848.052 141.606 848.316 142.074C848.592 142.542 848.964 142.92 849.432 143.208C849.9 143.484 850.422 143.622 850.998 143.622C851.55 143.622 852.054 143.496 852.51 143.244C852.978 142.98 853.35 142.638 853.626 142.218C853.914 141.786 854.07 141.318 854.094 140.814V139.914C853.998 139.434 853.8 139.008 853.5 138.636C853.212 138.252 852.852 137.952 852.42 137.736C851.988 137.52 851.514 137.412 850.998 137.412C850.422 137.412 849.9 137.544 849.432 137.808C848.964 138.06 848.592 138.42 848.316 138.888C848.052 139.356 847.92 139.896 847.92 140.508ZM859.075 140.184H862.387V140.724H859.075V140.184ZM746.923 151.292H747.535V163.406H754.663V164H746.923V151.292ZM761.876 164.126C761.216 164.126 760.616 163.97 760.076 163.658C759.548 163.346 759.122 162.926 758.798 162.398C758.486 161.858 758.33 161.24 758.33 160.544C758.33 159.776 758.492 159.122 758.816 158.582C759.152 158.03 759.596 157.616 760.148 157.34C760.7 157.052 761.324 156.908 762.02 156.908C762.68 156.908 763.292 157.1 763.856 157.484C764.432 157.868 764.852 158.36 765.116 158.96L765.026 159.212L765.134 157.088H765.638V164H765.044V161.75L765.152 162.038C765.056 162.314 764.9 162.578 764.684 162.83C764.48 163.07 764.228 163.292 763.928 163.496C763.64 163.688 763.322 163.844 762.974 163.964C762.626 164.072 762.26 164.126 761.876 164.126ZM761.984 163.622C762.536 163.622 763.04 163.502 763.496 163.262C763.952 163.01 764.318 162.674 764.594 162.254C764.87 161.822 765.02 161.324 765.044 160.76V159.896C764.948 159.428 764.75 159.008 764.45 158.636C764.162 158.264 763.802 157.97 763.37 157.754C762.938 157.526 762.47 157.412 761.966 157.412C761.414 157.412 760.904 157.538 760.436 157.79C759.968 158.042 759.596 158.402 759.32 158.87C759.056 159.338 758.924 159.884 758.924 160.508C758.924 161.084 759.062 161.606 759.338 162.074C759.614 162.542 759.98 162.92 760.436 163.208C760.904 163.484 761.42 163.622 761.984 163.622ZM772.24 164.144C771.868 164.144 771.472 164.078 771.052 163.946C770.632 163.802 770.284 163.568 770.008 163.244L770.314 162.848C770.518 163.088 770.788 163.286 771.124 163.442C771.46 163.586 771.82 163.658 772.204 163.658C772.492 163.658 772.762 163.616 773.014 163.532C773.278 163.436 773.494 163.286 773.662 163.082C773.83 162.866 773.914 162.578 773.914 162.218C773.914 161.87 773.818 161.6 773.626 161.408C773.446 161.204 773.206 161.048 772.906 160.94C772.618 160.82 772.318 160.706 772.006 160.598C771.526 160.442 771.118 160.232 770.782 159.968C770.458 159.704 770.296 159.308 770.296 158.78C770.296 158.396 770.386 158.072 770.566 157.808C770.746 157.532 770.986 157.322 771.286 157.178C771.586 157.034 771.916 156.962 772.276 156.962C772.6 156.962 772.942 157.022 773.302 157.142C773.662 157.262 773.98 157.466 774.256 157.754L773.968 158.15C773.776 157.898 773.518 157.724 773.194 157.628C772.87 157.52 772.588 157.46 772.348 157.448C772.144 157.448 771.928 157.496 771.7 157.592C771.472 157.676 771.274 157.814 771.106 158.006C770.95 158.186 770.872 158.42 770.872 158.708C770.872 158.996 770.944 159.23 771.088 159.41C771.244 159.59 771.442 159.734 771.682 159.842C771.922 159.95 772.174 160.052 772.438 160.148C772.774 160.268 773.098 160.4 773.41 160.544C773.734 160.676 773.998 160.862 774.202 161.102C774.406 161.342 774.508 161.666 774.508 162.074C774.508 162.482 774.418 162.842 774.238 163.154C774.07 163.466 773.818 163.712 773.482 163.892C773.158 164.06 772.744 164.144 772.24 164.144ZM779.646 154.046H780.24V157.196H782.472V157.682H780.24V164H779.646V157.682H778.098V157.196H779.646V154.046ZM786.404 157.088H786.998V164H786.404V157.088ZM786.206 154.712C786.206 154.58 786.254 154.466 786.35 154.37C786.458 154.274 786.578 154.226 786.71 154.226C786.854 154.226 786.974 154.274 787.07 154.37C787.166 154.466 787.214 154.586 787.214 154.73C787.214 154.874 787.166 154.994 787.07 155.09C786.974 155.186 786.854 155.234 786.71 155.234C786.578 155.234 786.458 155.186 786.35 155.09C786.254 154.982 786.206 154.856 786.206 154.712ZM792.575 157.088L792.665 159.284L792.575 158.942C792.779 158.318 793.163 157.826 793.727 157.466C794.291 157.106 794.915 156.926 795.599 156.926C796.247 156.926 796.769 157.118 797.165 157.502C797.561 157.886 797.765 158.378 797.777 158.978V164H797.165V159.122C797.153 158.642 796.997 158.246 796.697 157.934C796.409 157.622 795.995 157.454 795.455 157.43C794.963 157.43 794.507 157.544 794.087 157.772C793.667 158 793.325 158.318 793.061 158.726C792.809 159.122 792.683 159.59 792.683 160.13V164H792.089V157.088H792.575ZM805.841 167.348C805.493 167.348 805.151 167.306 804.815 167.222C804.479 167.15 804.137 167.006 803.789 166.79C803.441 166.586 803.075 166.298 802.691 165.926L803.033 165.53C803.585 166.07 804.089 166.418 804.545 166.574C805.001 166.742 805.427 166.826 805.823 166.826C806.603 166.826 807.215 166.7 807.659 166.448C808.103 166.208 808.421 165.884 808.613 165.476C808.805 165.068 808.907 164.612 808.919 164.108L808.937 161.732L809.081 161.894C808.841 162.554 808.409 163.094 807.785 163.514C807.173 163.922 806.483 164.126 805.715 164.126C805.055 164.126 804.455 163.97 803.915 163.658C803.387 163.334 802.961 162.902 802.637 162.362C802.325 161.81 802.169 161.198 802.169 160.526C802.169 159.806 802.331 159.176 802.655 158.636C802.991 158.096 803.435 157.676 803.987 157.376C804.539 157.064 805.151 156.908 805.823 156.908C806.507 156.908 807.137 157.094 807.713 157.466C808.301 157.826 808.727 158.3 808.991 158.888L808.919 159.194L809.027 157.088H809.531V164.126C809.531 164.678 809.411 165.2 809.171 165.692C808.943 166.184 808.559 166.58 808.019 166.88C807.491 167.192 806.765 167.348 805.841 167.348ZM802.763 160.508C802.763 161.084 802.895 161.606 803.159 162.074C803.435 162.542 803.807 162.92 804.275 163.208C804.743 163.484 805.265 163.622 805.841 163.622C806.393 163.622 806.897 163.496 807.353 163.244C807.821 162.98 808.193 162.638 808.469 162.218C808.757 161.786 808.913 161.318 808.937 160.814V159.914C808.841 159.434 808.643 159.008 808.343 158.636C808.055 158.252 807.695 157.952 807.263 157.736C806.831 157.52 806.357 157.412 805.841 157.412C805.265 157.412 804.743 157.544 804.275 157.808C803.807 158.06 803.435 158.42 803.159 158.888C802.895 159.356 802.763 159.896 802.763 160.508Z" fill="white"/>
<path d="M555.898 36C563.822 36 571.751 36 579.675 36C579.819 36 579.963 36 580.107 36C580.609 36.0148 580.767 36.1529 580.739 36.6955C580.698 37.4848 580.623 38.279 580.521 39.0633C580.052 42.763 579.568 46.4627 579.085 50.1623C578.606 53.8176 578.123 57.468 577.644 61.1232C577.17 64.7489 576.71 68.3746 576.231 71.9953C575.734 75.7394 575.213 79.4786 574.716 83.2226C574.293 86.4241 573.889 89.6255 573.475 92.8319C573.336 93.9171 573.183 95.0073 573.038 96.0926C572.95 96.7684 572.592 97.2271 572.049 97.5576C571.1 98.1298 570.05 98.2976 569 98.4751C566.365 98.9191 563.701 99.003 561.043 99.0227C557.19 99.0474 553.333 99.0572 549.48 98.998C547.054 98.9586 544.619 98.9043 542.225 98.3863C541.649 98.263 541.082 98.0904 540.515 97.9227C539.311 97.5675 538.735 96.7585 538.595 95.397C538.316 92.6395 537.894 89.8968 537.531 87.1492C537.136 84.1451 536.75 81.136 536.355 78.1319C536.067 75.9269 535.76 73.7268 535.472 71.5218C535.072 68.4733 534.682 65.4198 534.282 62.3663C533.99 60.1317 533.688 57.8971 533.395 55.6625C532.972 52.4315 532.554 49.1955 532.135 45.9645C531.773 43.1231 531.41 40.2818 531.048 37.4404C531.011 37.1395 531.02 36.8337 531.001 36.5278C530.983 36.1776 531.178 36.0345 531.475 36.0099C531.633 36 531.791 36 531.949 36C539.934 36 547.918 36 555.898 36ZM533.051 37.692C533.19 38.4911 533.32 39.2705 533.469 40.04C534.464 45.2689 535.444 50.5027 536.462 55.7267C537.708 62.1296 539.009 68.5177 540.241 74.9255C540.589 76.7507 541.542 77.8754 543.182 78.4476C544.637 78.9557 546.143 79.0889 547.649 79.1333C553.574 79.301 559.5 79.3799 565.421 79.0543C566.853 78.9754 568.242 78.6893 569.543 78.0184C570.403 77.5745 571.021 76.9036 571.254 75.9071C571.523 74.7528 571.756 73.5936 571.983 72.4294C573.178 66.362 574.377 60.2896 575.557 54.2172C576.436 49.6937 577.277 45.1653 578.137 40.6419C578.318 39.675 578.499 38.7082 578.69 37.6969H533.051V37.692Z" fill="#3452EA"/>
<path d="M537.633 45.2256L541.388 63.1073" stroke="#3452EA" stroke-width="2" stroke-miterlimit="10" stroke-linecap="round"/>
<path d="M542.002 66.3965L543.433 73.0411C543.847 74.9551 545.446 76.3116 547.296 76.3116H550.777" stroke="#3452EA" stroke-width="2" stroke-miterlimit="10" stroke-linecap="round"/>
<path d="M547.011 15C544.526 16.5475 542.943 18.9431 545.097 21.0384C546.325 22.4011 548.415 23.193 549.731 24.5591C552.294 27.0437 550.766 29.7989 547.011 31C549.763 29.4459 551.116 27.2351 548.677 25.1167C547.31 23.8332 545.175 22.9951 543.997 21.5432C541.732 19.0553 543.578 16.2407 547.006 15.0033L547.011 15Z" fill="#3452EA"/>
<path d="M564.512 13C561.717 14.5475 559.936 16.9431 562.359 19.0384C563.741 20.4011 566.092 21.193 567.572 22.5591C570.456 25.0437 568.737 27.7989 564.512 29C567.609 27.4459 569.131 25.2351 566.387 23.1167C564.849 21.8332 562.447 20.9951 561.121 19.5432C558.574 17.0553 560.65 14.2407 564.507 13.0033L564.512 13Z" fill="#3452EA"/>
<path d="M554.998 9C549.92 12.2757 550.248 16.1249 555.355 19.2646C557.735 20.7599 559.927 22.6629 559.996 24.7914C560.111 26.9001 557.994 28.8993 554.998 30C560.703 26.6912 559.271 22.9912 554.066 19.9277C548.626 16.536 548.362 11.9209 554.998 9.00332V9Z" fill="#3452EA"/>
<path d="M96.8982 36C104.822 36 112.751 36 120.675 36C120.819 36 120.963 36 121.107 36C121.609 36.0148 121.767 36.1529 121.739 36.6955C121.698 37.4848 121.623 38.279 121.521 39.0633C121.052 42.763 120.568 46.4627 120.085 50.1623C119.606 53.8176 119.123 57.468 118.644 61.1232C118.17 64.7489 117.71 68.3746 117.231 71.9953C116.734 75.7394 116.213 79.4786 115.716 83.2226C115.293 86.4241 114.889 89.6255 114.475 92.8319C114.336 93.9171 114.183 95.0073 114.038 96.0926C113.95 96.7684 113.592 97.2271 113.049 97.5576C112.1 98.1298 111.05 98.2976 110 98.4751C107.365 98.9191 104.701 99.003 102.043 99.0227C98.1902 99.0474 94.3328 99.0572 90.4799 98.998C88.0539 98.9586 85.6186 98.9043 83.2251 98.3863C82.6488 98.263 82.0818 98.0904 81.5148 97.9227C80.3111 97.5675 79.7348 96.7585 79.5953 95.397C79.3165 92.6395 78.8936 89.8968 78.531 87.1492C78.136 84.1451 77.7503 81.136 77.3552 78.1319C77.0671 75.9269 76.7603 73.7268 76.4722 71.5218C76.0725 68.4733 75.6821 65.4198 75.2824 62.3663C74.9896 60.1317 74.6875 57.8971 74.3947 55.6625C73.9718 52.4315 73.5535 49.1955 73.1352 45.9645C72.7727 43.1231 72.4102 40.2818 72.0477 37.4404C72.0105 37.1395 72.0198 36.8337 72.0012 36.5278C71.9826 36.1776 72.1778 36.0345 72.4753 36.0099C72.6333 36 72.7913 36 72.9493 36C80.9338 36 88.9184 36 96.8982 36ZM74.0508 37.692C74.1902 38.4911 74.3204 39.2705 74.4691 40.04C75.4637 45.2689 76.4443 50.5027 77.4621 55.7267C78.7077 62.1296 80.009 68.5177 81.2406 74.9255C81.5891 76.7507 82.5419 77.8754 84.1825 78.4476C85.6372 78.9557 87.143 79.0889 88.6488 79.1333C94.5744 79.301 100.5 79.3799 106.421 79.0543C107.853 78.9754 109.242 78.6893 110.543 78.0184C111.403 77.5745 112.021 76.9036 112.254 75.9071C112.523 74.7528 112.756 73.5936 112.983 72.4294C114.178 66.362 115.377 60.2896 116.557 54.2172C117.436 49.6937 118.277 45.1653 119.137 40.6419C119.318 39.675 119.499 38.7082 119.69 37.6969H74.0508V37.692Z" fill="#3452EA"/>
<path d="M78.6328 45.2256L82.388 63.1073" stroke="#3452EA" stroke-width="2" stroke-miterlimit="10" stroke-linecap="round"/>
<path d="M83.002 66.3965L84.4334 73.0411C84.847 74.9551 86.4458 76.3116 88.2955 76.3116H91.7766" stroke="#3452EA" stroke-width="2" stroke-miterlimit="10" stroke-linecap="round"/>
<path d="M103.756 29.8561C100.894 31.0382 97.5293 30.7908 94.644 29.6662C94.5267 29.6205 94.4102 29.5732 94.2945 29.5242C91.4516 28.3273 88.7031 26.9433 85.9168 25.6263C85.5015 25.4286 85.0787 25.2203 84.7275 24.9414C83.8026 24.2 83.7082 23.3561 84.7426 22.7806C87.6799 21.1424 90.6701 19.5607 93.7471 18.1661C94.5248 17.813 95.7669 18.0919 96.7032 18.3638C98.6589 18.9287 100.509 19.2147 102.495 18.392C104.122 17.7142 105.749 18.0213 107.301 18.8828C109.377 20.0373 111.541 21.0612 113.613 22.2193C115.528 23.2891 115.448 24.5707 113.447 25.4957C110.234 26.9786 107.033 28.5003 103.756 29.8561ZM109.272 24.5883L109.174 24.2565C107.195 24.3483 105.19 24.2776 103.246 24.5672C100.66 24.9555 98.1606 24.9026 95.5744 24.5107C93.7018 24.2247 91.7423 24.4542 89.5903 24.4542C89.9565 24.7543 90.1227 24.9591 90.3416 25.0579C92.2747 25.93 94.1888 26.8444 96.1634 27.6282C98.0851 28.3944 100.15 28.6239 102.113 27.8966C104.432 27.0386 106.652 25.9547 108.905 24.9555C109.056 24.8884 109.151 24.7119 109.272 24.5848V24.5883ZM109.151 22.5088C108.264 22.0533 107.403 21.7073 106.667 21.2095C105.247 20.2527 103.79 20.175 102.253 20.8529C100.403 21.6685 98.5041 21.7285 96.7146 20.8776C93.8981 19.5395 92.1803 21.6261 89.8206 22.4346C91.6253 23.2114 107.407 23.2326 109.151 22.5088Z" fill="#3452EA"/>
<path d="M111.996 24.4048C111.849 24.5602 111.734 24.7771 111.549 24.8602C108.798 26.0854 106.09 27.4119 103.269 28.46C100.875 29.3491 98.3601 29.0708 96.0148 28.1311C93.6103 27.1697 91.2724 26.0529 88.916 24.9831C88.6464 24.8602 88.4469 24.6072 88 24.2422C90.6223 24.2422 93.0157 23.9602 95.2982 24.3108C98.4488 24.7915 101.5 24.8566 104.65 24.3795C107.021 24.0217 109.466 24.1084 111.878 24L112 24.4048H111.996Z" fill="black"/>
<path d="M110.996 22.1983C109.007 23.3008 91.0503 23.2685 89 22.0869C91.6822 20.8551 93.6391 17.6838 96.8456 19.7166C98.8851 21.0131 101.047 20.9197 103.151 19.6771C104.899 18.6463 106.555 18.7648 108.171 20.223C109.011 20.9808 109.987 21.5051 111 22.1983H110.996Z" fill="black"/>
<path d="M334.898 36C342.822 36 350.751 36 358.675 36C358.819 36 358.963 36 359.107 36C359.609 36.0148 359.767 36.1529 359.739 36.6955C359.698 37.4848 359.623 38.279 359.521 39.0633C359.052 42.763 358.568 46.4627 358.085 50.1623C357.606 53.8176 357.123 57.468 356.644 61.1232C356.17 64.7489 355.71 68.3746 355.231 71.9953C354.734 75.7394 354.213 79.4786 353.716 83.2226C353.293 86.4241 352.889 89.6255 352.475 92.8319C352.336 93.9171 352.183 95.0073 352.038 96.0926C351.95 96.7684 351.592 97.2271 351.049 97.5576C350.1 98.1298 349.05 98.2976 348 98.4751C345.365 98.9191 342.701 99.003 340.043 99.0227C336.19 99.0474 332.333 99.0572 328.48 98.998C326.054 98.9586 323.619 98.9043 321.225 98.3863C320.649 98.263 320.082 98.0904 319.515 97.9227C318.311 97.5675 317.735 96.7585 317.595 95.397C317.316 92.6395 316.894 89.8968 316.531 87.1492C316.136 84.1451 315.75 81.136 315.355 78.1319C315.067 75.9269 314.76 73.7268 314.472 71.5218C314.072 68.4733 313.682 65.4198 313.282 62.3663C312.99 60.1317 312.688 57.8971 312.395 55.6625C311.972 52.4315 311.554 49.1955 311.135 45.9645C310.773 43.1231 310.41 40.2818 310.048 37.4404C310.011 37.1395 310.02 36.8337 310.001 36.5278C309.983 36.1776 310.178 36.0345 310.475 36.0099C310.633 36 310.791 36 310.949 36C318.934 36 326.918 36 334.898 36ZM312.051 37.692C312.19 38.4911 312.32 39.2705 312.469 40.04C313.464 45.2689 314.444 50.5027 315.462 55.7267C316.708 62.1296 318.009 68.5177 319.241 74.9255C319.589 76.7507 320.542 77.8754 322.182 78.4476C323.637 78.9557 325.143 79.0889 326.649 79.1333C332.574 79.301 338.5 79.3799 344.421 79.0543C345.853 78.9754 347.242 78.6893 348.543 78.0184C349.403 77.5745 350.021 76.9036 350.254 75.9071C350.523 74.7528 350.756 73.5936 350.983 72.4294C352.178 66.362 353.377 60.2896 354.557 54.2172C355.436 49.6937 356.277 45.1653 357.137 40.6419C357.318 39.675 357.499 38.7082 357.69 37.6969H312.051V37.692Z" fill="#3452EA"/>
<path d="M316.633 45.2256L320.388 63.1073" stroke="#3452EA" stroke-width="2" stroke-miterlimit="10" stroke-linecap="round"/>
<path d="M321.002 66.3965L322.433 73.0411C322.847 74.9551 324.446 76.3116 326.296 76.3116H329.777" stroke="#3452EA" stroke-width="2" stroke-miterlimit="10" stroke-linecap="round"/>
<path d="M335.906 3L327.852 19.1401C325.545 23.8467 328.117 29.6354 333.25 30.7867C334.477 31.0639 335.791 31.1332 337.163 30.8827C342.156 29.9659 344.936 24.5716 343.003 19.897L335.906 3Z" stroke="#3452EA" stroke-width="2" stroke-miterlimit="10"/>
<path d="M776.898 36C784.822 36 792.751 36 800.675 36C800.819 36 800.963 36 801.107 36C801.609 36.0148 801.767 36.1529 801.739 36.6955C801.698 37.4848 801.623 38.279 801.521 39.0633C801.052 42.763 800.568 46.4627 800.085 50.1623C799.606 53.8176 799.123 57.468 798.644 61.1232C798.17 64.7489 797.71 68.3746 797.231 71.9953C796.734 75.7394 796.213 79.4786 795.716 83.2226C795.293 86.4241 794.889 89.6255 794.475 92.8319C794.336 93.9171 794.183 95.0073 794.038 96.0926C793.95 96.7684 793.592 97.2271 793.049 97.5576C792.1 98.1298 791.05 98.2976 790 98.4751C787.365 98.9191 784.701 99.003 782.043 99.0227C778.19 99.0474 774.333 99.0572 770.48 98.998C768.054 98.9586 765.619 98.9043 763.225 98.3863C762.649 98.263 762.082 98.0904 761.515 97.9227C760.311 97.5675 759.735 96.7585 759.595 95.397C759.316 92.6395 758.894 89.8968 758.531 87.1492C758.136 84.1451 757.75 81.136 757.355 78.1319C757.067 75.9269 756.76 73.7268 756.472 71.5218C756.072 68.4733 755.682 65.4198 755.282 62.3663C754.99 60.1317 754.688 57.8971 754.395 55.6625C753.972 52.4315 753.554 49.1955 753.135 45.9645C752.773 43.1231 752.41 40.2818 752.048 37.4404C752.011 37.1395 752.02 36.8337 752.001 36.5278C751.983 36.1776 752.178 36.0345 752.475 36.0099C752.633 36 752.791 36 752.949 36C760.934 36 768.918 36 776.898 36ZM754.051 37.692C754.19 38.4911 754.32 39.2705 754.469 40.04C755.464 45.2689 756.444 50.5027 757.462 55.7267C758.708 62.1296 760.009 68.5177 761.241 74.9255C761.589 76.7507 762.542 77.8754 764.182 78.4476C765.637 78.9557 767.143 79.0889 768.649 79.1333C774.574 79.301 780.5 79.3799 786.421 79.0543C787.853 78.9754 789.242 78.6893 790.543 78.0184C791.403 77.5745 792.021 76.9036 792.254 75.9071C792.523 74.7528 792.756 73.5936 792.983 72.4294C794.178 66.362 795.377 60.2896 796.557 54.2172C797.436 49.6937 798.277 45.1653 799.137 40.6419C799.318 39.675 799.499 38.7082 799.69 37.6969H754.051V37.692Z" fill="#3452EA"/>
<path d="M758.633 45.2256L762.388 63.1073" stroke="#3452EA" stroke-width="2" stroke-miterlimit="10" stroke-linecap="round"/>
<path d="M763.002 66.3965L764.433 73.0411C764.847 74.9551 766.446 76.3116 768.296 76.3116H771.777" stroke="#3452EA" stroke-width="2" stroke-miterlimit="10" stroke-linecap="round"/>
<path d="M793.966 11.7656C793.961 12.436 793.584 12.9939 792.952 13.1816C791.932 13.4873 790.907 13.7609 789.888 14.0505C789.517 14.1578 789.145 14.2704 788.774 14.3723C788.659 14.4045 788.617 14.4635 788.586 14.5708C788.215 15.96 787.849 17.3492 787.467 18.7331C787.268 19.4572 786.677 19.9184 785.998 19.9131C785.365 19.9077 784.816 19.5108 784.638 18.894C784.267 17.5906 783.906 16.2872 783.577 14.9677C783.477 14.5654 783.315 14.3616 782.902 14.2597C781.674 13.9486 780.455 13.5624 779.232 13.2299C778.406 13.0046 778.071 12.3609 778.076 11.7066C778.076 11.0629 778.427 10.5373 779.044 10.3442C779.927 10.0653 780.821 9.81854 781.71 9.56108C782.191 9.42162 782.677 9.2768 783.164 9.14807C783.326 9.10516 783.409 9.01398 783.451 8.85307C783.807 7.56041 784.168 6.26239 784.528 4.96973C784.628 4.61572 784.738 4.27244 785.009 4.00962C785.768 3.28015 786.975 3.52688 787.357 4.51917C787.551 5.018 787.666 5.55437 787.807 6.07465C788.068 7.01867 788.324 7.96269 788.575 8.90671C788.612 9.04616 788.685 9.11053 788.821 9.14807C790.165 9.52353 791.503 9.899 792.842 10.2959C793.584 10.5158 793.982 11.0683 793.977 11.7817L793.966 11.7656ZM779.556 11.7227C779.556 11.7227 779.556 11.7548 779.556 11.7709C779.65 11.7978 779.739 11.8299 779.833 11.8568C781.161 12.2376 782.489 12.613 783.817 12.9939C784.34 13.1441 784.67 13.5088 784.811 14.0398C784.978 14.6459 785.119 15.2574 785.281 15.8635C785.501 16.7056 785.721 17.5477 785.94 18.3844C786.024 18.2771 786.066 18.1645 786.097 18.0519C786.453 16.7431 786.803 15.4344 787.164 14.1256C787.326 13.5302 787.707 13.1441 788.283 12.9831C789.611 12.6023 790.944 12.2322 792.272 11.8568C792.33 11.8407 792.387 11.8138 792.481 11.7817C792.418 11.7548 792.403 11.7495 792.387 11.7441C791.038 11.3526 789.689 10.9557 788.335 10.5748C787.739 10.4086 787.368 10.0385 787.206 9.43235C786.928 8.40251 786.646 7.37268 786.364 6.34284C786.259 5.95129 786.149 5.5651 786.04 5.17355C785.972 5.24864 785.945 5.3291 785.924 5.40955C785.553 6.7773 785.192 8.15042 784.806 9.51281C784.659 10.0224 784.309 10.3603 783.802 10.5051C782.751 10.8055 781.7 11.1005 780.649 11.4008C780.288 11.5028 779.922 11.61 779.561 11.7173L779.556 11.7227Z" fill="#3452EA"/>
<path d="M760 9.16997C760.005 8.46195 760.371 7.93631 761.051 7.72712C761.919 7.45893 762.798 7.21757 763.671 6.97084C764.162 6.83138 764.649 6.68656 765.14 6.55783C765.297 6.51492 765.37 6.43446 765.412 6.27355C765.767 4.93798 766.128 3.60777 766.489 2.2722C766.635 1.71974 766.923 1.29064 767.472 1.08682C768.225 0.813269 769.067 1.20482 769.323 1.99865C769.548 2.7013 769.72 3.42541 769.919 4.13878C770.118 4.86289 770.316 5.59236 770.51 6.31646C770.546 6.45592 770.614 6.51492 770.745 6.55246C772.084 6.92793 773.417 7.29802 774.75 7.68958C775.718 7.97385 776.162 8.90714 775.775 9.80289C775.597 10.2213 775.278 10.4841 774.85 10.6021C773.574 10.9668 772.303 11.3423 771.022 11.6856C770.672 11.7767 770.515 11.9377 770.421 12.3078C770.092 13.6219 769.72 14.9253 769.36 16.2286C769.093 17.1995 768.068 17.5428 767.331 17.1834C766.913 16.9796 766.646 16.6363 766.526 16.1857C766.144 14.7751 765.767 13.3644 765.381 11.9537C765.365 11.8947 765.281 11.8304 765.218 11.8089C764.601 11.6266 763.979 11.4549 763.362 11.2725C762.594 11.0526 761.825 10.8435 761.062 10.6021C760.366 10.3822 759.99 9.85652 760 9.1646V9.16997ZM774.4 9.19142C774.4 9.19142 774.4 9.15924 774.4 9.14315C774.332 9.12169 774.264 9.10024 774.196 9.07878C772.905 8.70869 771.613 8.33322 770.316 7.97385C769.637 7.78612 769.26 7.32484 769.082 6.63828C768.743 5.3349 768.387 4.03151 768.031 2.72812C768.016 2.66376 767.974 2.60476 767.927 2.51357C767.812 2.9534 767.718 3.35031 767.613 3.74187C767.341 4.73416 767.064 5.72645 766.792 6.71874C766.625 7.33557 766.264 7.74321 765.658 7.90949C764.675 8.18304 763.697 8.46732 762.719 8.74623C762.322 8.85887 761.919 8.97687 761.522 9.08951C761.522 9.11096 761.522 9.12706 761.517 9.14851C761.647 9.19142 761.773 9.23433 761.903 9.27188C763.143 9.62588 764.382 9.97989 765.626 10.3285C766.275 10.5109 766.662 10.94 766.818 11.6051C766.845 11.7231 766.871 11.8357 766.902 11.9537C767.242 13.2089 767.582 14.4693 767.922 15.7244C767.937 15.7244 767.953 15.7298 767.963 15.7352C768 15.6279 768.042 15.526 768.073 15.4134C768.434 14.1046 768.784 12.7958 769.145 11.4925C769.307 10.9185 769.668 10.5324 770.238 10.3714C770.782 10.2159 771.326 10.0657 771.869 9.91016C772.711 9.66879 773.558 9.42743 774.4 9.18606V9.19142Z" fill="#3452EA"/>
<path d="M767.217 20.8683C767.207 20.1925 767.604 19.6078 768.242 19.4201C769.601 19.0232 770.966 18.637 772.336 18.2562C772.503 18.2079 772.592 18.1382 772.639 17.9558C772.995 16.6149 773.361 15.2793 773.721 13.9384C773.8 13.6487 773.92 13.3806 774.124 13.166C774.935 12.3239 776.273 12.6618 776.592 13.7989C776.979 15.1881 777.355 16.5827 777.732 17.9773C777.774 18.1221 777.831 18.2079 777.983 18.2508C779.28 18.6102 780.571 18.9857 781.863 19.3504C782.333 19.4845 782.741 19.7044 782.971 20.1764C783.379 21.0078 782.992 22.0269 782.124 22.2951C781.015 22.633 779.891 22.928 778.772 23.2445C778.485 23.3249 778.192 23.4054 777.91 23.5019C777.842 23.5234 777.768 23.5985 777.748 23.6682C777.371 25.0413 777 26.4144 776.634 27.7929C776.456 28.458 776.064 28.8871 775.389 28.9944C774.663 29.1124 774.035 28.7262 773.8 28.0128C773.627 27.5033 773.502 26.9776 773.361 26.4573C773.11 25.5294 772.869 24.6015 772.608 23.6789C772.587 23.6038 772.488 23.5234 772.409 23.4966C771.808 23.3195 771.206 23.1533 770.6 22.9816C769.816 22.7564 769.026 22.5364 768.247 22.2951C767.588 22.0913 767.227 21.571 767.217 20.8737V20.8683ZM768.728 20.7986C768.728 20.7986 768.728 20.8308 768.728 20.8469C768.78 20.8683 768.833 20.8898 768.89 20.9005C770.208 21.276 771.52 21.6568 772.843 22.0215C773.465 22.1932 773.837 22.5901 774.004 23.2123C774.318 24.3708 774.626 25.5294 774.94 26.6826C775.008 26.9347 775.081 27.1922 775.165 27.5033C775.222 27.337 775.264 27.2297 775.295 27.1171C775.646 25.8137 776.001 24.5103 776.346 23.2069C776.514 22.5901 776.901 22.1985 777.497 22.0269C778.819 21.6461 780.142 21.2706 781.465 20.8898C781.517 20.8737 781.575 20.8522 781.627 20.8308C781.397 20.7235 781.167 20.6538 780.942 20.5894C779.787 20.2622 778.626 19.935 777.47 19.6025C777.089 19.4952 776.765 19.2914 776.566 18.9374C776.451 18.7336 776.367 18.5029 776.304 18.2776C775.954 16.9957 775.609 15.7084 775.264 14.4265C775.243 14.3514 775.206 14.2763 775.17 14.1744C774.767 15.644 774.375 17.0654 773.983 18.4868C773.816 19.0876 773.429 19.4469 772.848 19.6078C771.698 19.935 770.542 20.2622 769.392 20.5894C769.173 20.6538 768.953 20.7235 768.733 20.7932L768.728 20.7986Z" fill="#3452EA"/>
</g>
<defs>
<filter id="filter0_d_2385_9" x="4.51953" y="0.604004" width="861.867" height="191.666" filterUnits="userSpaceOnUse" color-interpolation-filters="sRGB">
<feFlood flood-opacity="0" result="BackgroundImageFix"/>
<feColorMatrix in="SourceAlpha" type="matrix" values="0 0 0 0 0 0 0 0 0 0 0 0 0 0 0 0 0 0 127 0" result="hardAlpha"/>
<feOffset dy="4"/>
<feGaussianBlur stdDeviation="2"/>
<feComposite in2="hardAlpha" operator="out"/>
<feColorMatrix type="matrix" values="0 0 0 0 0 0 0 0 0 0 0 0 0 0 0 0 0 0 0.25 0"/>
<feBlend mode="normal" in2="BackgroundImageFix" result="effect1_dropShadow_2385_9"/>
<feBlend mode="normal" in="SourceGraphic" in2="effect1_dropShadow_2385_9" result="shape"/>
</filter>
</defs>
</svg>
