<svg width="91" height="88" viewBox="0 0 91 88" fill="none" xmlns="http://www.w3.org/2000/svg">
<path d="M90.8965 60.1781C90.8965 51.6226 90.8965 43.0672 90.8831 34.5118C90.8831 32.5152 90.588 30.5301 89.3674 28.7889C88.5491 27.6164 87.6773 26.4672 86.6176 25.4573C85.8664 24.7492 84.8068 24.2616 83.841 23.7624C83.2911 23.4838 83.0362 23.1356 83.0362 22.6248C83.0362 22.0792 83.0764 21.522 83.0764 20.9764C83.0764 14.6034 83.0764 8.23037 83.063 1.85735C83.063 1.43944 82.8887 0.986716 82.674 0.615246C82.4192 0.150909 81.9095 0 81.3193 0C78.5293 0.0464337 75.7393 0.081259 72.9359 0.104476C72.5066 0.104476 72.064 0.0232168 71.6482 0.0812589C70.7897 0.22056 70.3068 0.754547 70.28 1.5207C70.2666 2.11273 70.3068 2.71637 70.3068 3.3084C70.3068 9.53051 70.3068 15.741 70.3068 21.9631C70.3068 22.2185 70.2934 22.4623 70.2666 22.7177C70.2264 23.0891 70.0252 23.3445 69.6228 23.5187C67.6242 24.3545 66.1084 25.6314 65.0354 27.303C64.5927 27.9879 64.1903 28.696 63.7745 29.3925C62.8087 31.0177 62.6612 32.7822 62.6612 34.5467C62.6478 45.447 62.6612 56.3357 62.6612 67.236C62.6612 73.2375 62.6612 79.2391 62.6612 85.2406C62.6612 85.7166 62.688 86.1925 62.7282 86.6685C62.7819 87.3998 63.1977 87.7829 64.0293 87.8641C64.311 87.899 64.6061 87.899 64.8878 87.899C72.9225 87.899 80.9705 87.899 89.0052 87.899C90.3734 87.899 90.7221 87.6436 90.8294 86.4711C90.8965 85.7978 90.8831 85.1129 90.8831 84.428C90.8831 76.337 90.8831 68.2459 90.8831 60.1548L90.8965 60.1781ZM66.0816 57.3108C66.0816 50.1368 66.0816 42.9628 66.0816 35.7888C66.0816 34.5234 66.095 33.2929 66.5108 32.0392C66.9937 30.565 67.651 29.2068 68.7241 28.0111C69.7301 26.9083 71.0178 26.0957 72.5737 25.6546C73.4724 25.3992 73.7139 25.1438 73.7675 24.308C73.7675 24.1687 73.7675 24.0178 73.7675 23.8785C73.7675 18.9217 73.7675 13.9765 73.7675 9.01974C73.7675 8.8224 73.7675 8.61345 73.7943 8.41611C73.8748 7.87051 73.9955 7.70799 74.6394 7.68477C75.7661 7.63834 76.8928 7.62673 78.0196 7.62673C79.3609 7.62673 79.4682 7.74282 79.4682 8.90366C79.4682 13.7792 79.4682 18.6431 79.4682 23.5187C79.4682 23.8205 79.5085 24.1107 79.5085 24.4125C79.5353 25.1206 80.0584 25.4921 80.7425 25.7475C83.385 26.711 85.3433 28.2897 86.4566 30.5882C86.9395 31.5865 87.3017 32.5964 87.2749 33.7341C87.2078 36.2415 87.248 38.7489 87.248 41.2563C87.248 41.5001 87.2614 41.7439 87.2078 41.9644C87.181 42.0805 87.02 42.2547 86.8993 42.2663C85.6921 42.394 84.5117 42.7074 83.2776 42.5797C82.8618 42.5333 82.4192 42.5797 82.0034 42.5797C80.3803 42.5565 78.7573 42.51 77.1343 42.4984C76.1551 42.4984 75.1893 42.5681 74.2102 42.5797C73.3651 42.5913 73.1773 42.7306 73.1773 43.4503C73.1773 51.5646 73.1773 59.6789 73.1773 67.8048C73.1773 69.0237 73.2041 70.2426 73.1907 71.4498C73.1907 71.9722 73.2578 72.0883 73.8748 72.0883C74.8138 72.0883 75.7527 72.0883 76.6782 72.0883C79.8036 72.0883 82.9289 72.0883 86.0542 72.0883C87.0468 72.0883 87.1944 72.216 87.1944 72.9705C87.1944 75.5476 87.2078 78.1247 87.2212 80.7017C87.2212 80.8991 87.1944 81.108 87.1675 81.3054C87.1407 81.5608 86.9663 81.6885 86.6712 81.6885C86.0945 81.6885 85.5177 81.6885 84.9409 81.6885C81.5339 81.6885 78.1135 81.6885 74.7065 81.6885C72.1847 81.6885 69.663 81.6885 67.1547 81.6885C66.2962 81.6885 66.0414 81.4331 66.0414 80.6785C66.0414 72.8893 66.0414 65.0884 66.0414 57.2992L66.0816 57.3108ZM74.2638 57.4849C74.2638 57.4849 74.237 57.4849 74.2236 57.4849C74.2236 53.3755 74.2236 49.2777 74.2236 45.1684C74.2236 44.913 74.2772 44.646 74.3309 44.3906C74.4248 44.0191 74.7199 43.8218 75.1357 43.7637C75.3637 43.7289 75.6052 43.7289 75.8332 43.7289C78.9585 43.7289 82.0838 43.7289 85.2092 43.7289C85.7457 43.7289 86.2823 43.7637 86.8188 43.787C87.0871 43.787 87.2078 43.9147 87.2078 44.1468C87.2212 44.7853 87.2883 45.4354 87.2883 46.0738C87.2883 54.014 87.2883 61.9425 87.2883 69.8827C87.2883 70.1613 87.248 70.4283 87.2346 70.7069C87.2212 70.9971 87.02 71.1364 86.6981 71.148C86.1884 71.1828 85.6787 71.2293 85.1689 71.2293C82.0034 71.2293 78.8378 71.2293 75.6722 71.2293C74.6662 71.2293 74.2504 70.8926 74.2236 69.9988C74.2102 69.4416 74.2638 68.8728 74.2638 68.3156C74.2638 64.7053 74.2638 61.0835 74.2638 57.4733V57.4849ZM76.9063 84.9272C73.7139 84.9272 70.5215 84.9272 67.3291 84.9272C66.2292 84.9272 66.028 84.695 66.1353 83.7431C66.1353 83.7315 66.1353 83.7199 66.1353 83.7083C66.1889 83.2904 66.4438 83.1279 66.9132 83.1743C67.3291 83.2208 67.7583 83.2556 68.1875 83.2556C74.1699 83.2556 80.1657 83.2556 86.1481 83.2556C87.2614 83.2556 87.3017 83.3136 87.2749 84.2191C87.2614 84.8808 87.2346 84.9272 86.4432 84.9272C83.2642 84.9272 80.0852 84.9272 76.9063 84.9272ZM76.7855 3.05301C76.7855 3.05301 76.7855 3.08784 76.7855 3.09945C77.4428 3.09945 78.1001 3.09945 78.7707 3.09945C79.1195 3.09945 79.3743 3.23875 79.3877 3.55218C79.4414 4.22546 79.4816 4.89875 79.4816 5.58365C79.4816 6.17568 79.1865 6.45428 78.5025 6.46589C77.2684 6.48911 76.0344 6.46589 74.8003 6.43107C74.1565 6.40785 73.8346 6.10603 73.7943 5.53722C73.7675 5.00323 73.7675 4.46924 73.7943 3.92365C73.8212 3.34323 74.1297 3.07623 74.8003 3.05301C75.4576 3.0298 76.1149 3.05301 76.7721 3.05301H76.7855Z" fill="black"/>
<path d="M66.0815 57.3106C66.0815 65.0999 66.0815 72.9007 66.0815 80.69C66.0815 81.4445 66.3364 81.6883 67.1948 81.6999C69.7166 81.6999 72.2383 81.6999 74.7466 81.6999C78.1536 81.6999 81.5741 81.6999 84.9811 81.6999C85.5578 81.6999 86.1346 81.6999 86.7114 81.6999C87.0065 81.6999 87.1809 81.5722 87.2077 81.3168C87.2345 81.1195 87.2614 80.9105 87.2614 80.7132C87.2614 78.1361 87.2614 75.559 87.2345 72.982C87.2345 72.2274 87.087 72.0997 86.0944 72.0997C82.969 72.0881 79.8437 72.0997 76.7184 72.0997C75.7794 72.0997 74.8405 72.0997 73.915 72.0997C73.298 72.0997 73.2175 71.9837 73.2309 71.4613C73.2309 70.2424 73.2175 69.0235 73.2175 67.8162C73.2175 59.7019 73.2175 51.5877 73.2175 43.4618C73.2175 42.742 73.4053 42.6027 74.2503 42.5911C75.2295 42.5795 76.1953 42.4983 77.1744 42.5099C78.7975 42.5099 80.4205 42.5679 82.0435 42.5911C82.4728 42.5911 82.902 42.5563 83.3178 42.5911C84.5518 42.7072 85.7322 42.4054 86.9394 42.2777C87.0602 42.2661 87.2211 42.092 87.2479 41.9759C87.3016 41.7437 87.2882 41.4999 87.2882 41.2678C87.2882 38.7604 87.2479 36.2529 87.315 33.7455C87.3418 32.6195 86.9797 31.598 86.4968 30.5996C85.3835 28.3012 83.4117 26.7224 80.7827 25.7589C80.0986 25.5035 79.5754 25.1321 79.5486 24.424C79.5486 24.1221 79.5084 23.8319 79.5084 23.5301C79.5084 18.6546 79.5084 13.7906 79.5084 8.91511C79.5084 7.75427 79.4011 7.64979 78.0597 7.63818C76.933 7.63818 75.8063 7.63818 74.6795 7.69623C74.0357 7.71944 73.9016 7.88196 73.8345 8.42756C73.8077 8.6249 73.8077 8.83385 73.8077 9.03119C73.8077 13.988 73.8077 18.9332 73.8077 23.89C73.8077 24.0293 73.8077 24.1802 73.8077 24.3195C73.754 25.1553 73.5126 25.4107 72.6139 25.6661C71.0445 26.1072 69.7702 26.9082 68.7642 28.0226C67.6777 29.2066 67.0339 30.5764 66.551 32.0507C66.1352 33.3044 66.1218 34.5465 66.1218 35.8002C66.1218 42.9742 66.1218 50.1482 66.1218 57.3222L66.0815 57.3106ZM70.186 35.3823C70.1324 35.777 70.1324 36.1717 70.0251 36.5548C69.9714 36.7405 69.7434 37.0191 69.5824 37.0307C69.3276 37.0423 68.9922 36.9262 68.8044 36.7637C68.2277 36.2645 68.4423 35.6261 68.6167 35.0689C68.9386 34.0125 69.3276 32.9561 69.8105 31.9346C70.0921 31.3426 70.5884 30.8318 71.0445 30.3094C71.1518 30.1933 71.5274 30.1585 71.6883 30.2282C71.8225 30.2862 71.903 30.5764 71.8761 30.7505C71.8493 30.9595 71.7018 31.1801 71.581 31.3658C70.7628 32.6079 70.119 33.908 70.1994 35.3823H70.186ZM74.532 28.1619C74.988 28.1619 75.2697 28.3708 75.2563 28.6842C75.2563 28.9628 74.7332 29.2995 74.3174 29.2995C73.915 29.2995 73.8211 29.0557 73.8077 28.7655C73.8077 28.3708 74.0625 28.1503 74.532 28.1503V28.1619Z" fill="#9A1112"/>
<path d="M74.2627 57.4851C74.2627 61.0953 74.2627 64.7171 74.2627 68.3274C74.2627 68.8846 74.209 69.4534 74.2224 70.0106C74.2492 70.9044 74.6651 71.2411 75.6711 71.2411C78.8366 71.2411 82.0022 71.2411 85.1678 71.2411C85.6775 71.2411 86.1872 71.183 86.6969 71.1598C87.0188 71.1366 87.2066 71.0089 87.2335 70.7187C87.2469 70.4401 87.2871 70.1731 87.2871 69.8945C87.2871 61.9543 87.2871 54.0258 87.2871 46.0856C87.2871 45.4472 87.2335 44.7971 87.2066 44.1586C87.2066 43.9265 87.0859 43.7988 86.8176 43.7988C86.2811 43.7872 85.7446 43.7523 85.208 43.7407C82.0827 43.7407 78.9574 43.7407 75.832 43.7407C75.604 43.7407 75.3626 43.7407 75.1345 43.7755C74.7187 43.8336 74.4236 44.0425 74.3297 44.4024C74.2627 44.6578 74.2224 44.9248 74.2224 45.1802C74.2224 49.2895 74.2224 53.3873 74.2224 57.4967C74.2358 57.4967 74.2492 57.4967 74.2627 57.4967V57.4851Z" fill="#9A1112"/>
<path d="M76.8943 84.9388C80.0733 84.9388 83.2523 84.9388 86.4313 84.9388C87.2227 84.9388 87.2495 84.8923 87.2629 84.2306C87.2897 83.3136 87.2361 83.2672 86.1362 83.2672C80.1538 83.2672 74.158 83.2672 68.1756 83.2672C67.7463 83.2672 67.3305 83.2207 66.9013 83.1859C66.4318 83.1395 66.177 83.302 66.1233 83.7199C66.1233 83.7315 66.1233 83.7431 66.1233 83.7547C66.016 84.7182 66.2172 84.9388 67.3171 84.9388C70.5095 84.9504 73.7019 84.9388 76.8943 84.9388Z" fill="#9A1112"/>
<path d="M76.7866 3.06452C76.1293 3.06452 75.4721 3.0413 74.8148 3.06452C74.1441 3.08773 73.8356 3.35473 73.8088 3.93515C73.782 4.46914 73.782 5.00312 73.8088 5.54872C73.8356 6.11753 74.1575 6.41935 74.8148 6.44257C76.0488 6.47739 77.2829 6.50061 78.5169 6.47739C79.201 6.47739 79.4827 6.18718 79.4961 5.59515C79.4961 4.92187 79.4559 4.23697 79.4022 3.56368C79.3754 3.25025 79.1339 3.11095 78.7852 3.11095C78.1279 3.11095 77.4707 3.11095 76.8 3.11095C76.8 3.09934 76.8 3.07613 76.8 3.06452H76.7866Z" fill="#9A1112"/>
<path d="M70.1893 35.3827C70.1088 33.9085 70.7661 32.6199 71.5709 31.3662C71.6916 31.1689 71.8391 30.9599 71.866 30.751C71.8928 30.5769 71.8123 30.2867 71.6782 30.2286C71.5038 30.159 71.1282 30.1938 71.0343 30.3099C70.5783 30.8206 70.082 31.343 69.8003 31.935C69.3174 32.945 68.9418 34.0013 68.6065 35.0693C68.4321 35.6265 68.2175 36.265 68.7943 36.7641C68.9821 36.9267 69.3174 37.0544 69.5723 37.0311C69.7332 37.0311 69.9612 36.7409 70.0149 36.5552C70.1222 36.1721 70.1222 35.7774 70.1759 35.3827H70.1893Z" fill="black"/>
<path d="M74.5335 28.1616C74.064 28.1616 73.8092 28.3822 73.8092 28.7769C73.8092 29.0671 73.9031 29.3109 74.3189 29.3109C74.7347 29.3109 75.2444 28.9742 75.2578 28.6956C75.2578 28.3822 74.9761 28.1732 74.5335 28.1732V28.1616Z" fill="black"/>
<path d="M60.0449 60.1781C60.0449 51.6226 60.0449 43.0672 60.0449 34.5002C60.0449 32.5036 59.7498 30.5185 58.5292 28.7773C57.711 27.6048 56.8391 26.4556 55.7794 25.4457C55.0283 24.7375 53.9686 24.25 53.0029 23.7508C52.4529 23.4722 52.1981 23.124 52.1981 22.6132C52.1981 22.0676 52.2383 21.5104 52.2383 20.9648C52.2383 14.5918 52.2383 8.21876 52.2249 1.84574C52.2249 1.42784 52.0505 0.975107 51.8359 0.603638C51.5676 0.150909 51.0579 0 50.4677 0C47.6777 0.0464337 44.8877 0.081259 42.0843 0.104476C41.6551 0.104476 41.2124 0.0232168 40.7966 0.0812589C39.9382 0.22056 39.4553 0.754547 39.4285 1.5207C39.415 2.11273 39.4553 2.71637 39.4553 3.3084C39.4553 9.53051 39.4553 15.741 39.4553 21.9631C39.4553 22.2185 39.4419 22.4623 39.415 22.7177C39.3748 23.0891 39.1736 23.3445 38.7712 23.5187C36.7726 24.3545 35.2569 25.6314 34.1838 27.303C33.7412 27.9879 33.3387 28.696 32.9229 29.3925C31.9572 31.0177 31.8096 32.7822 31.8096 34.5467C31.7962 45.447 31.8096 56.3357 31.8096 67.236C31.8096 73.2375 31.8096 79.2391 31.8096 85.2406C31.8096 85.7166 31.8364 86.1925 31.8767 86.6685C31.9303 87.3998 32.3462 87.7829 33.1778 87.8641C33.4595 87.899 33.7546 87.899 34.0362 87.899C42.0709 87.899 50.119 87.899 58.1536 87.899C59.5218 87.899 59.8705 87.6436 59.9779 86.4711C60.0449 85.7978 60.0315 85.1129 60.0315 84.428C60.0315 76.337 60.0315 68.2459 60.0315 60.1548L60.0449 60.1781ZM35.23 57.3108C35.23 50.1368 35.23 42.9628 35.23 35.7888C35.23 34.5234 35.2435 33.2929 35.6593 32.0392C36.1422 30.565 36.7994 29.2068 37.8725 28.0111C38.8785 26.9083 40.1662 26.0957 41.7222 25.6546C42.6209 25.3992 42.8623 25.1438 42.9159 24.308C42.9159 24.1687 42.9159 24.0178 42.9159 23.8785C42.9159 18.9217 42.9159 13.9765 42.9159 9.01974C42.9159 8.8224 42.9159 8.61345 42.9428 8.41611C43.0233 7.87051 43.144 7.70799 43.7878 7.68477C44.9146 7.63834 46.0413 7.62673 47.168 7.62673C48.5094 7.62673 48.6167 7.74282 48.6167 8.90366C48.6167 13.7792 48.6167 18.6431 48.6167 23.5187C48.6167 23.8205 48.6569 24.1107 48.6569 24.4125C48.6837 25.1206 49.2069 25.4921 49.8909 25.7475C52.5334 26.711 54.4918 28.2897 55.6051 30.5882C56.088 31.5865 56.4501 32.5964 56.4233 33.7341C56.3562 36.2415 56.3965 38.7489 56.3965 41.2563C56.3965 41.5001 56.4099 41.7439 56.3562 41.9644C56.3294 42.0805 56.1684 42.2547 56.0477 42.2663C54.8405 42.394 53.6601 42.7074 52.4261 42.5797C52.0103 42.5333 51.5676 42.5797 51.1518 42.5797C49.5288 42.5565 47.9058 42.51 46.2827 42.4984C45.3035 42.4984 44.3378 42.5681 43.3586 42.5797C42.5135 42.5913 42.3258 42.7306 42.3258 43.4503C42.3258 51.5646 42.3258 59.6789 42.3258 67.8048C42.3258 69.0237 42.3526 70.2426 42.3392 71.4498C42.3392 71.9722 42.4062 72.0883 43.0233 72.0883C43.9622 72.0883 44.9011 72.0883 45.8267 72.0883C48.952 72.0883 52.0773 72.0883 55.2027 72.0883C56.1953 72.0883 56.3428 72.216 56.3428 72.9705C56.3428 75.5476 56.3562 78.1247 56.3696 80.7017C56.3696 80.8991 56.3428 81.108 56.316 81.3054C56.2892 81.5608 56.1148 81.6885 55.8197 81.6885C55.2429 81.6885 54.6661 81.6885 54.0894 81.6885C50.6823 81.6885 47.2619 81.6885 43.8549 81.6885C41.3332 81.6885 38.8114 81.6885 36.3031 81.6885C35.4447 81.6885 35.1898 81.4331 35.1898 80.6785C35.1898 72.8893 35.1898 65.0884 35.1898 57.2992L35.23 57.3108ZM43.4122 57.4849C43.4122 57.4849 43.3854 57.4849 43.372 57.4849C43.372 53.3755 43.372 49.2777 43.372 45.1684C43.372 44.913 43.4257 44.646 43.4793 44.3906C43.5732 44.0191 43.8683 43.8218 44.2841 43.7637C44.5121 43.7289 44.7536 43.7289 44.9816 43.7289C48.107 43.7289 51.2323 43.7289 54.3576 43.7289C54.8942 43.7289 55.4307 43.7637 55.9672 43.787C56.2355 43.787 56.3562 43.9147 56.3562 44.1468C56.3696 44.7853 56.4367 45.4354 56.4367 46.0738C56.4367 54.014 56.4367 61.9425 56.4367 69.8827C56.4367 70.1613 56.3965 70.4283 56.3831 70.7069C56.3696 70.9971 56.1684 71.1364 55.8465 71.148C55.3368 71.1828 54.8271 71.2293 54.3174 71.2293C51.1518 71.2293 47.9862 71.2293 44.8207 71.2293C43.8147 71.2293 43.3988 70.8926 43.372 69.9988C43.3586 69.4416 43.4122 68.8728 43.4122 68.3156C43.4122 64.7053 43.4122 61.0835 43.4122 57.4733V57.4849ZM46.0547 84.9272C42.8623 84.9272 39.6699 84.9272 36.4775 84.9272C35.3776 84.9272 35.1764 84.695 35.2837 83.7431C35.2837 83.7315 35.2837 83.7199 35.2837 83.7083C35.3374 83.2904 35.5922 83.1279 36.0617 83.1743C36.4775 83.2208 36.9067 83.2556 37.336 83.2556C43.3184 83.2556 49.3142 83.2556 55.2966 83.2556C56.4099 83.2556 56.4501 83.3136 56.4233 84.2191C56.4099 84.8808 56.3831 84.9272 55.5917 84.9272C52.4127 84.9272 49.2337 84.9272 46.0547 84.9272ZM45.934 3.05301C45.934 3.05301 45.934 3.08784 45.934 3.09945C46.5912 3.09945 47.2485 3.09945 47.9192 3.09945C48.2679 3.09945 48.5228 3.23875 48.5362 3.55218C48.5898 4.22546 48.6301 4.89875 48.6301 5.58365C48.6301 6.17568 48.335 6.45428 47.6509 6.46589C46.4169 6.48911 45.1828 6.46589 43.9488 6.43107C43.3049 6.40785 42.983 6.10603 42.9428 5.53722C42.9159 5.00323 42.9159 4.46924 42.9428 3.92365C42.9696 3.34323 43.2781 3.07623 43.9488 3.05301C44.606 3.0298 45.2633 3.05301 45.9206 3.05301H45.934Z" fill="black"/>
<path d="M35.2319 57.3106C35.2319 65.0999 35.2319 72.9007 35.2319 80.69C35.2319 81.4445 35.4868 81.6883 36.3452 81.6999C38.867 81.6999 41.3887 81.6999 43.897 81.6999C47.304 81.6999 50.7244 81.6999 54.1315 81.6999C54.7082 81.6999 55.285 81.6999 55.8618 81.6999C56.1569 81.6999 56.3313 81.5722 56.3581 81.3168C56.3849 81.1195 56.4117 80.9105 56.4117 80.7132C56.4117 78.1361 56.4117 75.559 56.3849 72.982C56.3849 72.2274 56.2374 72.0997 55.2448 72.0997C52.1194 72.0881 48.9941 72.0997 45.8688 72.0997C44.9298 72.0997 43.9909 72.0997 43.0654 72.0997C42.4483 72.0997 42.3679 71.9837 42.3813 71.4613C42.3813 70.2424 42.3679 69.0235 42.3679 67.8162C42.3679 59.7019 42.3679 51.5877 42.3679 43.4618C42.3679 42.742 42.5557 42.6027 43.4007 42.5911C44.3799 42.5795 45.3456 42.4983 46.3248 42.5099C47.9479 42.5099 49.5709 42.5679 51.1939 42.5911C51.6231 42.5911 52.0524 42.5563 52.4682 42.5911C53.7022 42.7072 54.8826 42.4054 56.0898 42.2777C56.2105 42.2661 56.3715 42.092 56.3983 41.9759C56.452 41.7437 56.4386 41.4999 56.4386 41.2678C56.4386 38.7604 56.3983 36.2529 56.4654 33.7455C56.4922 32.6195 56.1301 31.598 55.6472 30.5996C54.5339 28.3012 52.5621 26.7224 49.933 25.7589C49.249 25.5035 48.7258 25.1321 48.699 24.424C48.699 24.1221 48.6588 23.8319 48.6588 23.5301C48.6588 18.6546 48.6588 13.7906 48.6588 8.91511C48.6588 7.75427 48.5515 7.64979 47.2101 7.63818C46.0834 7.63818 44.9567 7.63818 43.8299 7.69623C43.1861 7.71944 43.0519 7.88196 42.9849 8.42756C42.9581 8.6249 42.9581 8.83385 42.9581 9.03119C42.9581 13.988 42.9581 18.9332 42.9581 23.89C42.9581 24.0293 42.9581 24.1802 42.9581 24.3195C42.9044 25.1553 42.663 25.4107 41.7643 25.6661C40.1949 26.1072 38.9206 26.9082 37.9146 28.0226C36.8281 29.2066 36.1843 30.5764 35.7014 32.0507C35.2856 33.3044 35.2721 34.5465 35.2721 35.8002C35.2721 42.9742 35.2721 50.1482 35.2721 57.3222L35.2319 57.3106ZM39.3364 35.3823C39.2828 35.777 39.2828 36.1717 39.1755 36.5548C39.1218 36.7405 38.8938 37.0191 38.7328 37.0307C38.478 37.0423 38.1426 36.9262 37.9548 36.7637C37.3781 36.2645 37.5927 35.6261 37.767 35.0689C38.089 34.0125 38.478 32.9561 38.9608 31.9346C39.2425 31.3426 39.7388 30.8318 40.1949 30.3094C40.3022 30.1933 40.6778 30.1585 40.8387 30.2282C40.9729 30.2862 41.0533 30.5764 41.0265 30.7505C40.9997 30.9595 40.8521 31.1801 40.7314 31.3658C39.9132 32.6079 39.2694 33.908 39.3498 35.3823H39.3364ZM43.6824 28.1619C44.1384 28.1619 44.4201 28.3708 44.4067 28.6842C44.4067 28.9628 43.8836 29.2995 43.4678 29.2995C43.0654 29.2995 42.9715 29.0557 42.9581 28.7655C42.9581 28.3708 43.2129 28.1503 43.6824 28.1503V28.1619Z" fill="#9A1112"/>
<path d="M43.4111 57.4851C43.4111 61.0953 43.4111 64.7171 43.4111 68.3274C43.4111 68.8846 43.3574 69.4534 43.3708 70.0106C43.3977 70.9044 43.8135 71.2411 44.8195 71.2411C47.9851 71.2411 51.1506 71.2411 54.3162 71.2411C54.8259 71.2411 55.3356 71.183 55.8454 71.1598C56.1673 71.1366 56.3551 71.0089 56.3819 70.7187C56.3953 70.4401 56.4355 70.1731 56.4355 69.8945C56.4355 61.9543 56.4355 54.0258 56.4355 46.0856C56.4355 45.4472 56.3819 44.7971 56.3551 44.1586C56.3551 43.9265 56.2343 43.7988 55.9661 43.7988C55.4295 43.7872 54.893 43.7523 54.3565 43.7407C51.2311 43.7407 48.1058 43.7407 44.9805 43.7407C44.7524 43.7407 44.511 43.7407 44.283 43.7755C43.8671 43.8336 43.5721 44.0425 43.4782 44.4024C43.4111 44.6578 43.3708 44.9248 43.3708 45.1802C43.3708 49.2895 43.3708 53.3873 43.3708 57.4967C43.3843 57.4967 43.3977 57.4967 43.4111 57.4967V57.4851Z" fill="#9A1112"/>
<path d="M46.0408 84.9388C49.2198 84.9388 52.3988 84.9388 55.5778 84.9388C56.3691 84.9388 56.396 84.8923 56.4094 84.2306C56.4362 83.3136 56.3826 83.2672 55.2827 83.2672C49.3003 83.2672 43.3044 83.2672 37.3221 83.2672C36.8928 83.2672 36.477 83.2207 36.0478 83.1859C35.5783 83.1395 35.3234 83.302 35.2698 83.7199C35.2698 83.7315 35.2698 83.7431 35.2698 83.7547C35.1625 84.7182 35.3637 84.9388 36.4636 84.9388C39.656 84.9504 42.8484 84.9388 46.0408 84.9388Z" fill="#9A1112"/>
<path d="M45.935 3.06452C45.2778 3.06452 44.6205 3.0413 43.9632 3.06452C43.2926 3.08773 42.9841 3.35473 42.9572 3.93515C42.9304 4.46914 42.9304 5.00312 42.9572 5.54872C42.9841 6.11753 43.306 6.41935 43.9632 6.44257C45.1973 6.47739 46.4313 6.50061 47.6654 6.47739C48.3494 6.47739 48.6311 6.18718 48.6445 5.59515C48.6445 4.92187 48.6043 4.23697 48.5506 3.56368C48.5238 3.25025 48.2824 3.11095 47.9336 3.11095C47.2764 3.11095 46.6191 3.11095 45.9484 3.11095C45.9484 3.09934 45.9484 3.07613 45.9484 3.06452H45.935Z" fill="#9A1112"/>
<path d="M39.3358 35.3827C39.2553 33.9085 39.9125 32.6199 40.7173 31.3662C40.8381 31.1689 40.9856 30.9599 41.0124 30.751C41.0393 30.5769 40.9588 30.2867 40.8246 30.2286C40.6503 30.159 40.2747 30.1938 40.1808 30.3099C39.7247 30.8206 39.2284 31.343 38.9468 31.935C38.4639 32.945 38.0883 34.0013 37.753 35.0693C37.5786 35.6265 37.364 36.265 37.9408 36.7641C38.1285 36.9267 38.4639 37.0544 38.7187 37.0311C38.8797 37.0311 39.1077 36.7409 39.1614 36.5552C39.2687 36.1721 39.2687 35.7774 39.3223 35.3827H39.3358Z" fill="black"/>
<path d="M43.6839 28.1611C43.2144 28.1611 42.9595 28.3817 42.9595 28.7764C42.9595 29.0666 43.0534 29.3104 43.4693 29.3104C43.8851 29.3104 44.3948 28.9737 44.4082 28.6951C44.4082 28.3817 44.1265 28.1727 43.6839 28.1727V28.1611Z" fill="black"/>
<path d="M29.1962 60.1781C29.1962 51.6226 29.1962 43.0672 29.1962 34.5002C29.1962 32.5036 28.9011 30.5185 27.6804 28.7773C26.8622 27.6048 25.9904 26.4556 24.9307 25.4457C24.1795 24.7375 23.1199 24.25 22.1541 23.7508C21.6042 23.4722 21.3493 23.124 21.3493 22.6132C21.3493 22.0676 21.3895 21.5104 21.3895 20.9648C21.3895 14.5918 21.3895 8.21876 21.3761 1.84574C21.3761 1.42784 21.2018 0.975107 20.9871 0.603638C20.7323 0.150909 20.2226 0 19.6324 0C16.8424 0.0464337 14.0524 0.081259 11.249 0.104476C10.8197 0.104476 10.3771 0.0232168 9.96128 0.0812589C9.10283 0.22056 8.61994 0.754547 8.59311 1.5207C8.5797 2.11273 8.61994 2.71637 8.61994 3.3084C8.61994 9.53051 8.61994 15.741 8.61994 21.9631C8.61994 22.2185 8.60653 22.4623 8.5797 22.7177C8.53946 23.0891 8.33826 23.3445 7.93586 23.5187C5.93725 24.3545 4.42154 25.6314 3.34846 27.303C2.90582 27.9879 2.50341 28.696 2.08759 29.3925C1.12182 31.0177 0.974274 32.7822 0.974274 34.5467C0.960861 45.447 0.974274 56.3357 0.974274 67.236C0.974274 73.2375 0.974274 79.2391 0.974274 85.2406C0.974274 85.7166 1.0011 86.1925 1.04135 86.6685C1.095 87.3998 1.51082 87.7829 2.34245 87.8641C2.62413 87.899 2.91923 87.899 3.20091 87.899C11.2356 87.899 19.2836 87.899 27.3183 87.899C28.6865 87.899 29.0352 87.6436 29.1425 86.4711C29.2096 85.7978 29.1962 85.1129 29.1962 84.428C29.1962 76.337 29.1962 68.2459 29.1962 60.1548V60.1781ZM4.38129 57.3108C4.38129 50.1368 4.38129 42.9628 4.38129 35.7888C4.38129 34.5234 4.3947 33.2929 4.81052 32.0392C5.29341 30.565 5.95067 29.2068 7.02374 28.0111C8.02975 26.9083 9.31744 26.0957 10.8734 25.6546C11.7721 25.3992 12.0135 25.1438 12.0672 24.308C12.0672 24.1687 12.0672 24.0178 12.0672 23.8785C12.0672 18.9217 12.0672 13.9765 12.0672 9.01974C12.0672 8.8224 12.0672 8.61345 12.094 8.41611C12.1745 7.87051 12.2952 7.70799 12.9391 7.68477C14.0658 7.63834 15.1925 7.62673 16.3193 7.62673C17.6606 7.62673 17.7679 7.74282 17.7679 8.90366C17.7679 13.7792 17.7679 18.6431 17.7679 23.5187C17.7679 23.8205 17.8082 24.1107 17.8082 24.4125C17.835 25.1206 18.3581 25.4921 19.0422 25.7475C21.6846 26.711 23.643 28.2897 24.7563 30.5882C25.2392 31.5865 25.6014 32.5964 25.5745 33.7341C25.5075 36.2415 25.5477 38.7489 25.5477 41.2563C25.5477 41.5001 25.5611 41.7439 25.5075 41.9644C25.4806 42.0805 25.3197 42.2547 25.199 42.2663C23.9918 42.394 22.8114 42.7074 21.5773 42.5797C21.1615 42.5333 20.7189 42.5797 20.3031 42.5797C18.68 42.5565 17.057 42.51 15.434 42.4984C14.4548 42.4984 13.489 42.5681 12.5098 42.5797C11.6648 42.5913 11.477 42.7306 11.477 43.4503C11.477 51.5646 11.477 59.6789 11.477 67.8048C11.477 69.0237 11.5038 70.2426 11.4904 71.4498C11.4904 71.9722 11.5575 72.0883 12.1745 72.0883C13.1134 72.0883 14.0524 72.0883 14.9779 72.0883C18.1033 72.0883 21.2286 72.0883 24.3539 72.0883C25.3465 72.0883 25.4941 72.216 25.4941 72.9705C25.4941 75.5476 25.5075 78.1247 25.5209 80.7017C25.5209 80.8991 25.4941 81.108 25.4672 81.3054C25.4404 81.5608 25.266 81.6885 24.9709 81.6885C24.3942 81.6885 23.8174 81.6885 23.2406 81.6885C19.8336 81.6885 16.4132 81.6885 13.0061 81.6885C10.4844 81.6885 7.96268 81.6885 5.45437 81.6885C4.59591 81.6885 4.34105 81.4331 4.34105 80.6785C4.34105 72.8893 4.34105 65.0884 4.34105 57.2992L4.38129 57.3108ZM12.5635 57.4849C12.5635 57.4849 12.5367 57.4849 12.5233 57.4849C12.5233 53.3755 12.5233 49.2777 12.5233 45.1684C12.5233 44.913 12.5769 44.646 12.6306 44.3906C12.7245 44.0191 13.0196 43.8218 13.4354 43.7637C13.6634 43.7289 13.9048 43.7289 14.1329 43.7289C17.2582 43.7289 20.3835 43.7289 23.5089 43.7289C24.0454 43.7289 24.5819 43.7637 25.1185 43.787C25.3868 43.787 25.5075 43.9147 25.5075 44.1468C25.5209 44.7853 25.588 45.4354 25.588 46.0738C25.588 54.014 25.588 61.9425 25.588 69.8827C25.588 70.1613 25.5477 70.4283 25.5343 70.7069C25.5209 70.9971 25.3197 71.1364 24.9978 71.148C24.488 71.1828 23.9783 71.2293 23.4686 71.2293C20.3031 71.2293 17.1375 71.2293 13.9719 71.2293C12.9659 71.2293 12.5501 70.8926 12.5233 69.9988C12.5098 69.4416 12.5635 68.8728 12.5635 68.3156C12.5635 64.7053 12.5635 61.0835 12.5635 57.4733V57.4849ZM15.2059 84.9272C12.0135 84.9272 8.82114 84.9272 5.62874 84.9272C4.52884 84.9272 4.32764 84.695 4.43495 83.7431C4.43495 83.7315 4.43495 83.7199 4.43495 83.7083C4.4886 83.2904 4.74345 83.1279 5.21292 83.1743C5.62874 83.2208 6.05797 83.2556 6.4872 83.2556C12.4696 83.2556 18.4654 83.2556 24.4478 83.2556C25.5611 83.2556 25.6014 83.3136 25.5745 84.2191C25.5611 84.8808 25.5343 84.9272 24.7429 84.9272C21.5639 84.9272 18.3849 84.9272 15.2059 84.9272ZM15.0852 3.05301C15.0852 3.05301 15.0852 3.08784 15.0852 3.09945C15.7425 3.09945 16.3997 3.09945 17.0704 3.09945C17.4192 3.09945 17.674 3.23875 17.6874 3.55218C17.7411 4.22546 17.7813 4.89875 17.7813 5.58365C17.7813 6.17568 17.4862 6.45428 16.8021 6.46589C15.5681 6.48911 14.3341 6.46589 13.1 6.43107C12.4562 6.40785 12.1343 6.10603 12.094 5.53722C12.0672 5.00323 12.0672 4.46924 12.094 3.92365C12.1209 3.34323 12.4294 3.07623 13.1 3.05301C13.7573 3.0298 14.4146 3.05301 15.0718 3.05301H15.0852Z" fill="black"/>
<path d="M4.38034 57.3106C4.38034 65.0999 4.38034 72.9007 4.38034 80.69C4.38034 81.4445 4.6352 81.6883 5.49366 81.6999C8.01539 81.6999 10.5371 81.6999 13.0454 81.6999C16.4524 81.6999 19.8729 81.6999 23.2799 81.6999C23.8567 81.6999 24.4335 81.6999 25.0102 81.6999C25.3053 81.6999 25.4797 81.5722 25.5065 81.3168C25.5334 81.1195 25.5602 80.9105 25.5602 80.7132C25.5602 78.1361 25.5602 75.559 25.5334 72.982C25.5334 72.2274 25.3858 72.0997 24.3932 72.0997C21.2679 72.0881 18.1425 72.0997 15.0172 72.0997C14.0783 72.0997 13.1393 72.0997 12.2138 72.0997C11.5968 72.0997 11.5163 71.9837 11.5297 71.4613C11.5297 70.2424 11.5163 69.0235 11.5163 67.8162C11.5163 59.7019 11.5163 51.5877 11.5163 43.4618C11.5163 42.742 11.7041 42.6027 12.5491 42.5911C13.5283 42.5795 14.4941 42.4983 15.4733 42.5099C17.0963 42.5099 18.7193 42.5679 20.3424 42.5911C20.7716 42.5911 21.2008 42.5563 21.6166 42.5911C22.8507 42.7072 24.031 42.4054 25.2383 42.2777C25.359 42.2661 25.5199 42.092 25.5468 41.9759C25.6004 41.7437 25.587 41.4999 25.587 41.2678C25.587 38.7604 25.5468 36.2529 25.6138 33.7455C25.6407 32.6195 25.2785 31.598 24.7956 30.5996C23.6823 28.3012 21.7105 26.7224 19.0815 25.7589C18.3974 25.5035 17.8743 25.1321 17.8474 24.424C17.8474 24.1221 17.8072 23.8319 17.8072 23.5301C17.8072 18.6546 17.8072 13.7906 17.8072 8.91511C17.8072 7.75427 17.6999 7.64979 16.3586 7.63818C15.2318 7.63818 14.1051 7.63818 12.9784 7.69623C12.3345 7.71944 12.2004 7.88196 12.1333 8.42756C12.1065 8.6249 12.1065 8.83385 12.1065 9.03119C12.1065 13.988 12.1065 18.9332 12.1065 23.89C12.1065 24.0293 12.1065 24.1802 12.1065 24.3195C12.0528 25.1553 11.8114 25.4107 10.9127 25.6661C9.34332 26.1072 8.06904 26.9082 7.06303 28.0226C5.97655 29.2066 5.3327 30.5764 4.84981 32.0507C4.434 33.3044 4.42058 34.5465 4.42058 35.8002C4.42058 42.9742 4.42058 50.1482 4.42058 57.3222L4.38034 57.3106ZM8.48486 35.3823C8.43121 35.777 8.4312 36.1717 8.3239 36.5548C8.27024 36.7405 8.04222 37.0191 7.88126 37.0307C7.6264 37.0423 7.29106 36.9262 7.10327 36.7637C6.52649 36.2645 6.74111 35.6261 6.91549 35.0689C7.23741 34.0125 7.6264 32.9561 8.10928 31.9346C8.39096 31.3426 8.88726 30.8318 9.34332 30.3094C9.45063 30.1933 9.82621 30.1585 9.98717 30.2282C10.1213 30.2862 10.2018 30.5764 10.175 30.7505C10.1481 30.9595 10.0006 31.1801 9.87986 31.3658C9.06164 32.6079 8.41779 33.908 8.49827 35.3823H8.48486ZM12.8308 28.1619C13.2869 28.1619 13.5686 28.3708 13.5551 28.6842C13.5551 28.9628 13.032 29.2995 12.6162 29.2995C12.2138 29.2995 12.1199 29.0557 12.1065 28.7655C12.1065 28.3708 12.3613 28.1503 12.8308 28.1503V28.1619Z" fill="#9A1112"/>
<path d="M12.5595 57.4851C12.5595 61.0953 12.5595 64.7171 12.5595 68.3274C12.5595 68.8846 12.5059 69.4534 12.5193 70.0106C12.5461 70.9044 12.9619 71.2411 13.9679 71.2411C17.1335 71.2411 20.2991 71.2411 23.4647 71.2411C23.9744 71.2411 24.4841 71.183 24.9938 71.1598C25.3157 71.1366 25.5035 71.0089 25.5303 70.7187C25.5437 70.4401 25.584 70.1731 25.584 69.8945C25.584 61.9543 25.584 54.0258 25.584 46.0856C25.584 45.4472 25.5303 44.7971 25.5035 44.1586C25.5035 43.9265 25.3828 43.7988 25.1145 43.7988C24.578 43.7872 24.0414 43.7523 23.5049 43.7407C20.3796 43.7407 17.2542 43.7407 14.1289 43.7407C13.9009 43.7407 13.6594 43.7407 13.4314 43.7755C13.0156 43.8336 12.7205 44.0425 12.6266 44.4024C12.5595 44.6578 12.5193 44.9248 12.5193 45.1802C12.5193 49.2895 12.5193 53.3873 12.5193 57.4967C12.5327 57.4967 12.5461 57.4967 12.5595 57.4967V57.4851Z" fill="#9A1112"/>
<path d="M15.1931 84.9388C18.3721 84.9388 21.5511 84.9388 24.7301 84.9388C25.5215 84.9388 25.5483 84.8923 25.5617 84.2306C25.5886 83.3136 25.5349 83.2672 24.435 83.2672C18.4526 83.2672 12.4568 83.2672 6.47439 83.2672C6.04516 83.2672 5.62934 83.2207 5.20012 83.1859C4.73064 83.1395 4.47579 83.302 4.42213 83.7199C4.42213 83.7315 4.42213 83.7431 4.42213 83.7547C4.31483 84.7182 4.51603 84.9388 5.61593 84.9388C8.80833 84.9504 12.0007 84.9388 15.1931 84.9388Z" fill="#9A1112"/>
<path d="M15.0835 3.06452C14.4262 3.06452 13.7689 3.0413 13.1117 3.06452C12.441 3.08773 12.1325 3.35473 12.1057 3.93515C12.0788 4.46914 12.0788 5.00312 12.1057 5.54872C12.1325 6.11753 12.4544 6.41935 13.1117 6.44257C14.3457 6.47739 15.5798 6.50061 16.8138 6.47739C17.4979 6.47739 17.7796 6.18718 17.793 5.59515C17.793 4.92187 17.7527 4.23697 17.6991 3.56368C17.6722 3.25025 17.4308 3.11095 17.0821 3.11095C16.4248 3.11095 15.7675 3.11095 15.0969 3.11095C15.0969 3.09934 15.0969 3.07613 15.0969 3.06452H15.0835Z" fill="#9A1112"/>
<path d="M8.48615 35.3827C8.40567 33.9085 9.06292 32.6199 9.86773 31.3662C9.98845 31.1689 10.136 30.9599 10.1628 30.751C10.1897 30.5769 10.1092 30.2867 9.97504 30.2286C9.80066 30.159 9.42509 30.1938 9.33119 30.3099C8.87513 30.8206 8.37884 31.343 8.09716 31.935C7.61427 32.945 7.2387 34.0013 6.90336 35.0693C6.72899 35.6265 6.51437 36.265 7.09115 36.7641C7.27894 36.9267 7.61427 37.0544 7.86913 37.0311C8.03009 37.0311 8.25812 36.7409 8.31177 36.5552C8.41908 36.1721 8.41908 35.7774 8.47273 35.3827H8.48615Z" fill="black"/>
<path d="M12.8284 28.1616C12.3589 28.1616 12.1041 28.3822 12.1041 28.7769C12.1041 29.0671 12.198 29.3109 12.6138 29.3109C13.0296 29.3109 13.5393 28.9742 13.5527 28.6956C13.5527 28.3822 13.2711 28.1732 12.8284 28.1732V28.1616Z" fill="black"/>
</svg>
