<svg width="103" height="150" viewBox="0 0 103 150" fill="none" xmlns="http://www.w3.org/2000/svg">
<g filter="url(#filter0_d_2789_29)">
<path d="M17.9535 88.8659C17.6833 80.1989 17.3767 69.7302 17.0182 59.2669C16.8571 54.6082 17.6989 53.5528 22.2247 53.0998C28.0858 52.5134 34.4198 52.6307 39.8185 52.5614C45.5758 52.684 58.8206 52.604 64.3232 52.6307C64.3232 52.6307 78.7942 52.6307 82.7692 53.1211C85.1334 53.3663 86.8014 55.2798 86.7026 57.897C86.157 72.7258 85.5283 87.5547 85.0087 102.384C84.8009 108.321 84.8528 114.27 84.7022 120.213C84.6502 122.313 84.4112 124.419 84.1098 126.498C83.7357 129.072 81.4598 131.204 78.7163 131.236C67.6954 131.364 56.7006 132.596 45.6641 132.116C38.5039 131.801 31.3334 131.641 24.1888 131.108C20.6243 130.842 18.8836 128.395 18.7849 124.467C18.5043 113.199 18.2549 101.936 17.9535 88.8713V88.8659Z" fill="#9A1112"/>
<path d="M52.2066 114.115C44.1631 114.115 36.1196 114.153 28.0709 114.099C24.4804 114.078 22.7137 112.346 22.376 108.689C20.8535 92.2292 18.8167 75.8119 18.401 59.2614C18.3126 55.7861 19.1024 54.8799 22.589 54.8373C33.0435 54.7093 43.498 54.5761 53.9525 54.5601C62.9261 54.5494 71.9049 54.704 80.8785 54.7786C85.0353 54.8106 85.8823 56.1698 85.4718 61.3615C84.9054 68.5041 84.6144 75.668 84.0221 82.8106C83.2739 91.856 82.3697 100.891 81.4656 109.926C81.2266 112.292 79.1066 114.121 76.7944 114.131C68.6002 114.153 60.4008 114.142 52.2066 114.142C52.2066 114.137 52.2066 114.126 52.2066 114.121V114.115Z" fill="black"/>
<path d="M64.402 112.613C52.4147 112.613 40.4273 112.613 28.44 112.613C25.4419 112.613 24.6105 111.936 23.9091 108.024C23.3271 104.762 22.8023 101.467 22.8906 98.12C22.927 96.7181 23.7584 95.6361 24.9015 95.4708C30.373 94.6819 35.912 93.3014 41.3938 94.7299C46.2729 96.0039 51.0221 97.8428 55.7661 99.6018C60.0737 101.201 64.2149 101.132 68.5329 99.5005C71.6089 98.3332 74.6538 97.1126 77.6676 95.7906C80.2032 94.6766 81.1853 95.3216 80.9255 98.088C80.5358 102.24 80.5929 106.494 78.7951 110.385C78.13 111.824 77.0232 112.57 75.3345 112.528C71.6921 112.437 68.0444 112.501 64.3968 112.501C64.3968 112.538 64.3968 112.576 64.3968 112.618L64.402 112.613Z" fill="#9A1112"/>
<path d="M52.9056 18L44.8517 34.1401C42.5446 38.8467 45.1167 44.6354 50.2504 45.7867C51.4767 46.0639 52.7913 46.1332 54.163 45.8827C59.1565 44.9659 61.9364 39.5716 60.0034 34.897L52.9056 18Z" stroke="#9A1112" stroke-width="2" stroke-miterlimit="10"/>
</g>
<defs>
<filter id="filter0_d_2789_29" x="0.700001" y="0.303883" width="102.307" height="149.222" filterUnits="userSpaceOnUse" color-interpolation-filters="sRGB">
<feFlood flood-opacity="0" result="BackgroundImageFix"/>
<feColorMatrix in="SourceAlpha" type="matrix" values="0 0 0 0 0 0 0 0 0 0 0 0 0 0 0 0 0 0 127 0" result="hardAlpha"/>
<feOffset dy="1"/>
<feGaussianBlur stdDeviation="8.15"/>
<feComposite in2="hardAlpha" operator="out"/>
<feColorMatrix type="matrix" values="0 0 0 0 0.929412 0 0 0 0 0.305882 0 0 0 0 0.0666667 0 0 0 0.32 0"/>
<feBlend mode="normal" in2="BackgroundImageFix" result="effect1_dropShadow_2789_29"/>
<feBlend mode="normal" in="SourceGraphic" in2="effect1_dropShadow_2789_29" result="shape"/>
</filter>
</defs>
</svg>
