<svg width="98" height="94" viewBox="0 0 98 94" fill="none" xmlns="http://www.w3.org/2000/svg">
<g clip-path="url(#clip0_1110_23)">
<path d="M0.478027 73.6783C6.50116 64.5959 13.2924 57.15 21.4325 51.4599C23.5495 49.9751 25.9288 48.978 28.205 47.7966C28.5797 47.6015 29.0387 47.5256 29.4509 47.5256C35.6895 47.6015 41.928 47.97 48.1479 47.6557C50.8925 47.5148 53.1781 48.1976 55.4824 49.5741C63.8193 54.5597 70.7604 61.5286 76.7554 69.809C77.4299 70.7411 78.0856 71.6949 78.7694 72.627C79.2658 73.299 79.2003 73.6675 78.4977 74.1769C74.5166 77.0815 70.0766 78.3279 65.5147 79.195C58.0678 80.6039 50.5646 81.0808 43.024 80.9074C36.8604 80.7665 30.6967 80.8315 24.5425 80.5172C18.2196 80.2029 11.9623 79.195 5.96723 76.6913C4.12188 75.9218 2.41704 74.7404 0.478027 73.6566V73.6783Z" stroke="#9A1112" stroke-linecap="round" stroke-linejoin="round"/>
<path d="M32.6543 36.3406C32.9072 33.1541 33.1414 30.1086 33.3943 27.0631C33.8252 21.8499 34.2467 16.6475 34.7151 11.4343C35.2209 5.85264 38.3496 1.48484 43.1362 0.867058C47.3234 0.325146 51.6229 0.531073 55.8476 0.910411C57.5524 1.06215 59.2947 2.2977 60.8028 3.42488C67.2569 8.24789 73.6266 13.2118 80.0338 18.1215C84.2303 21.3296 88.4455 24.5052 92.6421 27.7134C94.272 28.9598 94.2626 28.9923 93.2135 30.8348C92.8762 31.4309 92.5297 32.027 92.155 32.6773C90.3846 31.7235 88.6329 30.7589 86.8718 29.8377C76.8489 24.6461 66.8072 19.4763 56.7843 14.2631C54.967 13.3202 53.1498 12.7458 51.1358 12.9408C49.6184 13.0926 48.0915 13.0709 46.574 13.0601C45.6373 13.0601 45.3563 13.5261 45.4499 14.5666C45.8434 18.8694 46.1899 23.183 46.574 27.4966C46.8082 30.1845 47.0611 32.8832 47.3515 35.5711C47.4639 36.5899 46.8925 36.579 46.3492 36.579C44.3259 36.5899 42.2932 36.579 40.2605 36.5574C38.0405 36.5465 35.8204 36.5357 33.6004 36.514C33.3381 36.514 33.0758 36.4273 32.6543 36.3514V36.3406Z" stroke="#9A1112" stroke-linecap="round" stroke-linejoin="round"/>
<path d="M79.4717 76.6372C79.4717 79.4877 79.5279 82.1105 79.4249 84.7117C79.3968 85.3078 78.919 86.1207 78.46 86.4025C76.5679 87.5405 74.6757 88.7652 72.6524 89.4914C66.6199 91.6373 60.7279 93.1438 54.4331 93.3064C46.1712 93.5232 37.4035 93.4798 29.1416 93.3064C22.5564 93.1655 16.1211 92.2659 9.71391 90.3042C7.07235 89.4914 4.55257 88.0932 2.01404 86.8577C0.871242 86.3049 0.40288 85.1777 0.459083 83.6821C0.534021 81.8396 0.459083 79.9862 0.477818 78.1329C0.477818 77.6994 0.562123 77.2767 0.599592 76.8756C0.777569 76.854 0.871242 76.8106 0.927445 76.854C6.66956 80.604 13.0393 81.5903 19.4371 82.4465C31.6894 84.0831 43.9605 83.9205 56.241 82.9667C62.1236 82.5115 67.9594 81.6445 73.5891 79.4768C75.2752 78.8265 76.877 77.8728 78.5162 77.0599C78.7504 76.9407 79.0033 76.8431 79.453 76.648L79.4717 76.6372Z" fill="#9A1112" stroke="#9A1112" stroke-linecap="round" stroke-linejoin="round"/>
<path d="M48.494 39.1152C48.494 40.9144 48.4753 42.6377 48.5034 44.3501C48.5128 44.9679 48.316 45.2388 47.8196 45.2497C46.8548 45.2497 45.8993 45.2497 44.9345 45.2497C40.8691 45.2497 36.8037 45.2605 32.7477 45.2822C31.5768 45.2822 31.5112 45.228 31.5112 43.8624C31.5112 42.3125 31.5112 40.7518 31.5112 39.1152H48.5034H48.494Z" fill="#9A1112" stroke="#9A1112" stroke-linecap="round" stroke-linejoin="round"/>
<path d="M94.684 33.5769C96.1078 36.4816 97.5972 39.0827 97.5222 42.3342C97.4754 44.2526 96.1921 45.6724 94.7495 45.6507C93.0166 45.629 91.8551 44.3501 91.8457 42.2258C91.8457 41.2179 91.9675 40.1232 92.3047 39.2019C92.951 37.3811 93.7941 35.6578 94.6933 33.5769H94.684Z" fill="#9A1112" stroke="#9A1112" stroke-linecap="round" stroke-linejoin="round"/>
<path d="M24.5425 80.5497C24.5425 80.5497 24.6549 67.1645 37.6753 47.7207" stroke="#9A1112" stroke-linecap="round" stroke-linejoin="round"/>
<path d="M57.7209 79.7585C57.7209 79.7585 57.5992 66.9044 44.1104 48.2192" stroke="#9A1112" stroke-linecap="round" stroke-linejoin="round"/>
</g>
<defs>
<clipPath id="clip0_1110_23">
<rect width="98" height="94" fill="white"/>
</clipPath>
</defs>
</svg>
