<svg width="104" height="145" viewBox="0 0 104 145" fill="none" xmlns="http://www.w3.org/2000/svg">
<g filter="url(#filter0_d_901_83)">
<path d="M17.9595 83.3317C17.6876 74.6049 17.3791 64.0759 17.0183 53.5469C16.8562 48.859 17.7033 47.797 22.2575 47.3411C28.1554 46.751 34.5292 46.869 39.9618 46.7993C45.7551 46.9227 59.083 46.8422 64.6202 46.869C64.6202 46.869 79.1821 46.869 83.182 47.3625C85.5611 47.6092 87.2395 49.5348 87.1401 52.1684C86.5911 67.0903 85.9584 82.0122 85.4356 96.9341C85.2264 102.909 85.2787 108.895 85.1271 114.876C85.0748 116.989 84.8343 119.108 84.531 121.2C84.1545 123.79 81.8644 125.936 79.1036 125.968C68.0136 126.097 56.9497 127.336 45.844 126.853C38.6389 126.537 31.4233 126.376 24.2339 125.839C20.647 125.571 18.8954 123.109 18.7961 119.156C18.5137 107.817 18.2627 96.4836 17.9595 83.3371V83.3317Z" fill="#9A1112"/>
<path d="M52.4266 108.74C44.3326 108.74 36.2386 108.778 28.1394 108.724C24.5264 108.703 22.7486 106.959 22.4088 103.28C20.8768 86.7166 18.8271 70.1963 18.4088 53.5419C18.3199 50.0447 19.1147 49.1329 22.6231 49.09C33.1433 48.9613 43.6634 48.8272 54.1835 48.8111C63.2134 48.8003 72.2485 48.9559 81.2785 49.031C85.4614 49.0632 86.3137 50.4309 85.9006 55.6552C85.3307 62.8426 85.0379 70.0515 84.4418 77.2389C83.6889 86.3411 82.7791 95.4326 81.8693 104.524C81.6288 106.906 79.4955 108.745 77.1687 108.756C68.9231 108.778 60.6722 108.767 52.4266 108.767C52.4266 108.762 52.4266 108.751 52.4266 108.745V108.74Z" fill="black"/>
<path d="M64.6978 107.228C52.6352 107.228 40.5726 107.228 28.5101 107.228C25.4931 107.228 24.6565 106.546 23.9507 102.609C23.365 99.3269 22.837 96.0121 22.9258 92.6437C22.9624 91.233 23.799 90.1442 24.9493 89.9779C30.4551 89.1841 36.0289 87.7949 41.5452 89.2323C46.4549 90.5143 51.2339 92.3648 56.0077 94.1348C60.3423 95.7439 64.5095 95.6742 68.8546 94.0329C71.9499 92.8582 75.0139 91.6299 78.0466 90.2997C80.5982 89.1787 81.5864 89.8277 81.325 92.6115C80.9328 96.7898 80.9903 101.07 79.1812 104.986C78.5119 106.434 77.3982 107.185 75.6989 107.142C72.0336 107.051 68.3631 107.115 64.6925 107.115C64.6925 107.153 64.6925 107.19 64.6925 107.233L64.6978 107.228Z" fill="#9A1112"/>
<path d="M71.5697 26.7656C71.5645 27.436 71.188 27.9939 70.5553 28.1816C69.5357 28.4873 68.5109 28.7609 67.4913 29.0505C67.1201 29.1578 66.7489 29.2704 66.3776 29.3723C66.2626 29.4045 66.2208 29.4635 66.1894 29.5708C65.8182 30.96 65.4521 32.3492 65.0705 33.7331C64.8718 34.4572 64.2809 34.9184 63.6012 34.9131C62.9685 34.9077 62.4195 34.5108 62.2417 33.894C61.8705 32.5906 61.5097 31.2872 61.1803 29.9677C61.081 29.5654 60.9189 29.3616 60.5058 29.2597C59.2771 28.9486 58.0588 28.5624 56.8353 28.2299C56.0092 28.0046 55.6745 27.3609 55.6797 26.7066C55.6797 26.0629 56.0301 25.5373 56.6471 25.3442C57.5307 25.0653 58.4248 24.8185 59.3137 24.5611C59.7947 24.4216 60.281 24.2768 60.7673 24.1481C60.9293 24.1052 61.013 24.014 61.0548 23.8531C61.4104 22.5604 61.7712 21.2624 62.1319 19.9697C62.2313 19.6157 62.3411 19.2724 62.613 19.0096C63.3711 18.2801 64.579 18.5269 64.9607 19.5192C65.1541 20.018 65.2691 20.5544 65.4103 21.0747C65.6717 22.0187 65.928 22.9627 66.1789 23.9067C66.2155 24.0462 66.2887 24.1105 66.4247 24.1481C67.7685 24.5235 69.107 24.899 70.4455 25.2959C71.188 25.5158 71.5854 26.0683 71.5802 26.7817L71.5697 26.7656ZM57.1595 26.7227C57.1595 26.7227 57.1595 26.7548 57.1595 26.7709C57.2536 26.7978 57.3425 26.8299 57.4366 26.8568C58.7647 27.2376 60.0928 27.613 61.4208 27.9939C61.9437 28.1441 62.2731 28.5088 62.4143 29.0398C62.5816 29.6459 62.7228 30.2574 62.8849 30.8635C63.1045 31.7056 63.3241 32.5477 63.5437 33.3844C63.6273 33.2771 63.6692 33.1645 63.7005 33.0519C64.0561 31.7431 64.4064 30.4344 64.7672 29.1256C64.9293 28.5302 65.311 28.1441 65.8861 27.9831C67.2142 27.6023 68.5475 27.2322 69.8756 26.8568C69.9331 26.8407 69.9906 26.8138 70.0848 26.7817C70.022 26.7548 70.0063 26.7495 69.9906 26.7441C68.6416 26.3526 67.2926 25.9557 65.9384 25.5748C65.3423 25.4086 64.9711 25.0385 64.809 24.4324C64.5319 23.4025 64.2496 22.3727 63.9672 21.3428C63.8626 20.9513 63.7528 20.5651 63.643 20.1735C63.5751 20.2486 63.5489 20.3291 63.528 20.4096C63.1568 21.7773 62.796 23.1504 62.4091 24.5128C62.2627 25.0224 61.9123 25.3603 61.4051 25.5051C60.3542 25.8055 59.3032 26.1005 58.2523 26.4008C57.8915 26.5028 57.5255 26.61 57.1647 26.7173L57.1595 26.7227Z" fill="#9A1112"/>
<path d="M37.6037 24.17C37.609 23.462 37.975 22.9363 38.6547 22.7271C39.5227 22.4589 40.4011 22.2176 41.2743 21.9708C41.7658 21.8314 42.252 21.6866 42.7435 21.5578C42.9004 21.5149 42.9736 21.4345 43.0154 21.2735C43.371 19.938 43.7317 18.6078 44.0925 17.2722C44.2389 16.7197 44.5265 16.2906 45.0755 16.0868C45.8284 15.8133 46.6703 16.2048 46.9265 16.9987C47.1513 17.7013 47.3238 18.4254 47.5225 19.1388C47.7212 19.8629 47.9199 20.5924 48.1134 21.3165C48.15 21.4559 48.2179 21.5149 48.3487 21.5525C49.6872 21.9279 51.0205 22.298 52.3538 22.6896C53.3211 22.9739 53.7656 23.9071 53.3787 24.8029C53.2009 25.2213 52.8819 25.4841 52.4532 25.6021C51.1774 25.9668 49.9068 26.3423 48.6258 26.6856C48.2755 26.7767 48.1186 26.9377 48.0245 27.3078C47.6951 28.6219 47.3238 29.9253 46.9631 31.2286C46.6964 32.1995 45.6716 32.5428 44.9343 32.1834C44.516 31.9796 44.2494 31.6363 44.1291 31.1857C43.7474 29.7751 43.371 28.3644 42.984 26.9537C42.9684 26.8947 42.8847 26.8304 42.8219 26.8089C42.205 26.6266 41.5828 26.4549 40.9658 26.2725C40.1972 26.0526 39.4285 25.8435 38.6651 25.6021C37.9697 25.3822 37.5933 24.8565 37.6037 24.1646V24.17ZM52.0035 24.1914C52.0035 24.1914 52.0035 24.1592 52.0035 24.1431C51.9355 24.1217 51.8676 24.1002 51.7996 24.0788C50.5081 23.7087 49.2166 23.3332 47.9199 22.9739C47.2402 22.7861 46.8637 22.3248 46.6859 21.6383C46.3461 20.3349 45.9905 19.0315 45.635 17.7281C45.6193 17.6638 45.5775 17.6048 45.5304 17.5136C45.4154 17.9534 45.3213 18.3503 45.2167 18.7419C44.9448 19.7342 44.6677 20.7264 44.3958 21.7187C44.2285 22.3356 43.8677 22.7432 43.2612 22.9095C42.2782 23.183 41.3004 23.4673 40.3226 23.7462C39.9253 23.8589 39.5227 23.9769 39.1253 24.0895C39.1253 24.111 39.1253 24.1271 39.12 24.1485C39.2508 24.1914 39.3762 24.2343 39.507 24.2719C40.7462 24.6259 41.9854 24.9799 43.2298 25.3285C43.8781 25.5109 44.2651 25.94 44.4219 26.6051C44.4481 26.7231 44.4742 26.8357 44.5056 26.9537C44.8454 28.2089 45.1853 29.4693 45.5252 30.7244C45.5409 30.7244 45.5565 30.7298 45.567 30.7352C45.6036 30.6279 45.6454 30.526 45.6768 30.4134C46.0376 29.1046 46.3879 27.7958 46.7487 26.4925C46.9108 25.9185 47.2716 25.5324 47.8415 25.3714C48.3853 25.2159 48.929 25.0657 49.4728 24.9102C50.3146 24.6688 51.1617 24.4274 52.0035 24.1861V24.1914Z" fill="#9A1112"/>
<path d="M44.8205 35.8683C44.8101 35.1925 45.2074 34.6078 45.8453 34.4201C47.2048 34.0232 48.5695 33.637 49.9394 33.2562C50.1067 33.2079 50.1956 33.1382 50.2427 32.9558C50.5982 31.6149 50.9642 30.2793 51.325 28.9384C51.4034 28.6487 51.5237 28.3806 51.7276 28.166C52.538 27.3239 53.8766 27.6618 54.1955 28.7989C54.5825 30.1881 54.9589 31.5827 55.3354 32.9773C55.3772 33.1221 55.4347 33.2079 55.5864 33.2508C56.8831 33.6102 58.1746 33.9857 59.466 34.3504C59.9366 34.4845 60.3445 34.7044 60.5745 35.1764C60.9824 36.0078 60.5954 37.0269 59.7275 37.2951C58.619 37.633 57.4948 37.928 56.3759 38.2445C56.0883 38.3249 55.7955 38.4054 55.5132 38.5019C55.4452 38.5234 55.372 38.5985 55.3511 38.6682C54.9746 40.0413 54.6034 41.4144 54.2374 42.7929C54.0596 43.458 53.6674 43.8871 52.9929 43.9944C52.2662 44.1124 51.6387 43.7262 51.4034 43.0128C51.2309 42.5033 51.1054 41.9776 50.9642 41.4573C50.7132 40.5294 50.4727 39.6015 50.2113 38.6789C50.1904 38.6038 50.091 38.5234 50.0126 38.4966C49.4113 38.3195 48.81 38.1533 48.2035 37.9816C47.4192 37.7564 46.6296 37.5364 45.8506 37.2951C45.1918 37.0913 44.831 36.571 44.8205 35.8737V35.8683ZM46.3316 35.7986C46.3316 35.7986 46.3316 35.8308 46.3316 35.8469C46.3839 35.8683 46.4362 35.8898 46.4937 35.9005C47.8113 36.276 49.1237 36.6568 50.4466 37.0215C51.0688 37.1932 51.44 37.5901 51.6073 38.2123C51.9211 39.3708 52.2296 40.5294 52.5433 41.6826C52.6112 41.9347 52.6844 42.1922 52.7681 42.5033C52.8256 42.337 52.8675 42.2297 52.8988 42.1171C53.2491 40.8137 53.6047 39.5103 53.9498 38.2069C54.1171 37.5901 54.504 37.1985 55.1001 37.0269C56.423 36.6461 57.7458 36.2706 59.0687 35.8898C59.121 35.8737 59.1785 35.8522 59.2308 35.8308C59.0007 35.7235 58.7706 35.6538 58.5458 35.5894C57.3903 35.2622 56.2295 34.935 55.074 34.6025C54.6923 34.4952 54.3681 34.2914 54.1694 33.9374C54.0544 33.7336 53.9707 33.5029 53.908 33.2776C53.5576 31.9957 53.2125 30.7084 52.8675 29.4265C52.8465 29.3514 52.8099 29.2763 52.7733 29.1744C52.3707 30.644 51.9786 32.0654 51.5864 33.4868C51.4191 34.0876 51.0322 34.4469 50.4518 34.6078C49.3015 34.935 48.146 35.2622 46.9956 35.5894C46.776 35.6538 46.5564 35.7235 46.3368 35.7932L46.3316 35.7986Z" fill="#9A1112"/>
</g>
<defs>
<filter id="filter0_d_901_83" x="0.700001" y="0.700001" width="102.745" height="143.564" filterUnits="userSpaceOnUse" color-interpolation-filters="sRGB">
<feFlood flood-opacity="0" result="BackgroundImageFix"/>
<feColorMatrix in="SourceAlpha" type="matrix" values="0 0 0 0 0 0 0 0 0 0 0 0 0 0 0 0 0 0 127 0" result="hardAlpha"/>
<feOffset dy="1"/>
<feGaussianBlur stdDeviation="8.15"/>
<feComposite in2="hardAlpha" operator="out"/>
<feColorMatrix type="matrix" values="0 0 0 0 0.929412 0 0 0 0 0.305882 0 0 0 0 0.0666667 0 0 0 0.32 0"/>
<feBlend mode="normal" in2="BackgroundImageFix" result="effect1_dropShadow_901_83"/>
<feBlend mode="normal" in="SourceGraphic" in2="effect1_dropShadow_901_83" result="shape"/>
</filter>
</defs>
</svg>
