<svg width="110" height="64" viewBox="0 0 110 64" fill="none" xmlns="http://www.w3.org/2000/svg">
<path d="M68.896 5.79784C68.9016 5.25166 68.4313 4.87479 67.9057 5.03864C67.6954 5.10419 67.5184 5.2735 67.3275 5.3964C67.0841 5.55206 66.8379 5.70499 66.5972 5.86885C66.0467 6.24025 65.4989 6.61439 64.9512 6.9858C64.7161 7.14692 64.4809 7.30532 64.243 7.46371C63.9249 7.67945 63.8668 7.98532 63.9083 8.34307C63.9498 8.70355 64.2098 8.8756 64.4947 8.97937C64.6386 9.03126 64.871 8.97937 65.0121 8.88925C65.5404 8.56154 66.0522 8.20925 66.5612 7.85423C67.2141 7.39817 67.8586 6.93118 68.5004 6.45873C68.719 6.2976 68.9071 6.09824 68.896 5.79511V5.79784Z" fill="#9A1112"/>
<path d="M50.3841 6.68906C50.2026 6.55815 50.0266 6.41905 49.8396 6.29631C49.3721 5.99084 48.9018 5.69628 48.4316 5.39354C48.2501 5.27626 48.0906 5.09897 47.8926 5.0417C47.4746 4.91896 47.1611 5.07443 46.9933 5.41263C46.8091 5.78629 46.8861 6.17358 47.2381 6.43814C47.6726 6.76543 48.1291 7.06817 48.5773 7.3791C49.2841 7.86731 49.9963 8.34734 50.6948 8.84373C51.2696 9.25011 51.8141 8.80009 51.8883 8.2246C51.9268 7.92731 51.8306 7.69275 51.5693 7.5182C51.1651 7.24818 50.7746 6.96453 50.3758 6.68634L50.3731 6.67815L50.3813 6.68906H50.3841Z" fill="#9A1112"/>
<path d="M62.0127 0.00408006C61.6711 -0.0343419 61.4732 0.205057 61.3009 0.450366C61.1349 0.683854 61.0104 0.943941 60.8795 1.19812C60.4869 1.95178 60.1039 2.71135 59.7081 3.46501C59.4847 3.88766 59.2453 4.29848 59.0091 4.71521C58.8272 5.03736 58.8719 5.53685 59.0985 5.76442C59.3474 6.00973 59.7049 6.07771 60.1071 5.90038C60.2699 5.82944 60.4263 5.68758 60.5157 5.5398C60.7391 5.18218 60.9179 4.79796 61.1253 4.43148C61.585 3.62166 62.0542 2.8148 62.5106 2.00498C62.7308 1.61485 62.9223 1.21585 62.8936 0.754787C62.8649 0.326234 62.5106 0.00408006 62.0095 0.0070356L62.0127 0.00408006Z" fill="#9A1112"/>
<path d="M55.8965 5.14661C55.8355 4.99016 55.7809 4.82782 55.707 4.67432C55.357 3.95408 55.0133 3.23384 54.6472 2.5195C54.3775 1.98818 54.0724 1.47161 53.7994 0.940289C53.6324 0.621494 53.4975 0.299747 53.1346 0.101976C52.6626 -0.154831 51.9593 0.0960727 51.9047 0.600831C51.8758 0.866494 51.9239 1.17348 52.0427 1.41553C52.4249 2.183 52.8681 2.9239 53.2631 3.68842C53.5425 4.23155 53.7544 4.8101 54.0531 5.34438C54.1848 5.58052 54.4224 5.81372 54.6761 5.93179C55.1354 6.14727 55.9061 5.84324 55.8933 5.14661H55.8965Z" fill="#9A1112"/>
<path d="M55.4262 13.9958C55.7447 14.054 55.886 13.5009 55.8963 12.9478C55.9048 12.4561 55.6714 11.9968 55.4279 12C55.1417 12 54.8965 12.4593 54.8965 12.9898C54.8965 13.5656 55.123 13.999 55.4262 13.9958Z" fill="#9A1112"/>
<path d="M57.8965 13.5424C57.8965 13.8137 58.0804 13.9934 58.3651 13.9997C58.7151 14.0092 58.9078 13.779 58.896 13.3721C58.893 13.2208 58.5994 13.0032 58.3947 13C58.1219 13 57.8965 13.2428 57.8965 13.5424Z" fill="#9A1112"/>
<path d="M66.9557 15.9867L66.9567 15.9861L66.959 15.9849C67.8496 15.4909 69.1482 14.7808 70.5835 13.996C73.4339 12.4375 76.823 10.5843 78.6244 9.54409L78.6475 9.53079L58.9866 22.3778C60.7705 21.0891 67.6833 17.2984 67.6833 17.2984L66.9557 15.9867ZM66.9557 15.9867L66.9415 15.9945L66.8825 16.0269L66.6584 16.1503C66.4647 16.2572 66.1864 16.411 65.8469 16.5996C65.1681 16.9767 64.2439 17.4932 63.2628 18.0507C61.3458 19.14 59.0972 20.4496 58.1183 21.1546M66.9557 15.9867L58.1183 21.1546M58.1183 21.1546C56.3986 22.3598 55.9192 24.5919 56.9014 26.4997C58.4626 29.5404 60.0276 32.5715 61.5917 35.6008C63.804 39.8855 66.0144 44.1665 68.2091 48.4657C69.0513 50.1156 69.8283 51.7314 70.6138 53.3652C71.2438 54.6754 71.8794 55.9971 72.5585 57.3571L72.5592 57.3586C73.1185 58.4753 73.7622 59.5287 74.4137 60.521M58.1183 21.1546L58.2352 25.8132C59.7928 28.8471 61.3571 31.8768 62.9214 34.9065C65.1357 39.1952 67.35 43.4838 69.5451 47.7837C70.3827 49.4246 71.183 51.088 71.9832 52.7514C72.6162 54.0669 73.2491 55.3825 73.9005 56.6869C74.4237 57.7317 75.0331 58.7313 75.6676 59.6978C76.4552 60.8992 78.0443 61.3749 79.3634 60.6734C81.438 59.567 83.5507 58.5475 85.6634 57.528C88.9438 55.945 92.2243 54.3619 95.3627 52.4536M74.4137 60.521L75.667 59.6983L74.4132 60.5202C74.4134 60.5205 74.4135 60.5208 74.4137 60.521ZM74.4137 60.521C75.6009 62.331 78.0238 63.0847 80.0677 61.9977L80.0692 61.9969C82.1146 60.9062 84.1914 59.9039 86.2999 58.8864C86.8876 58.6028 87.4777 58.318 88.0702 58.0298C90.7709 56.7163 93.4989 55.3424 96.1415 53.7356M96.1415 53.7356L95.3627 52.4536M96.1415 53.7356C96.1417 53.7355 96.1418 53.7354 96.142 53.7353L95.3627 52.4536M96.1415 53.7356C97.0937 53.1571 98.0569 52.5801 99.025 52.0002C101.42 50.5658 103.844 49.1138 106.203 47.5773L106.203 47.5769C107.32 46.8488 108.062 45.8298 108.308 44.5794C108.545 43.3754 108.288 42.1308 107.771 40.9543M95.3627 52.4536C96.3324 51.8644 97.3059 51.2813 98.2795 50.6981C100.664 49.2696 103.05 47.8406 105.384 46.3204C107.023 45.2516 107.279 43.5624 106.397 41.5572M106.397 41.5572L107.771 40.9543M106.397 41.5572C104.652 37.5816 102.898 33.6103 101.01 29.3369C100.167 27.4288 99.2977 25.4604 98.3905 23.4045M106.397 41.5572L107.77 40.9531C107.77 40.9535 107.77 40.9539 107.771 40.9543M107.771 40.9543C106.025 36.9771 104.27 33.0032 102.381 28.729C101.539 26.8229 100.671 24.8569 99.7652 22.8043M98.3905 23.4045L99.7675 22.8096C99.7667 22.8078 99.766 22.8061 99.7652 22.8043M98.3905 23.4045L99.7629 22.799C99.7636 22.8007 99.7644 22.8025 99.7652 22.8043M98.3905 23.4045L87.3237 5.12246C87.3238 5.12245 87.3238 5.12245 87.3238 5.12244C88.4052 4.66593 89.7216 4.19893 90.9588 4.75235C91.5846 5.03226 92.0266 5.50004 92.3591 5.98442C92.6849 6.45904 92.9635 7.03559 93.2293 7.65696C94.9426 11.6558 96.6693 15.6469 98.2324 19.2598C98.7646 20.4901 99.2779 21.6764 99.7652 22.8043" fill="#9A1112" stroke="black" stroke-width="3"/>
<path d="M87.7962 45.2433C91.5848 43.1293 95.3816 41.0335 99.1564 38.8923C100.844 37.938 101.272 36.6001 100.58 34.6613C97.4665 25.9427 94.6052 17.1123 90.9483 8.63827C90.1802 6.8595 89.5986 6.60885 87.9471 7.50276C82.9954 10.1845 78.0381 12.8632 73.1138 15.6053C68.8835 17.9579 64.6944 20.395 60.4834 22.7929C58.5329 23.9012 58.4506 24.8102 59.8524 27.3258C61.781 30.7867 63.5861 34.3321 65.5257 37.784C67.9837 42.1599 70.5104 46.4875 73.0397 50.8151C73.7009 51.9476 75.1274 52.3161 76.2193 51.7121C80.0847 49.5679 83.9391 47.4086 87.799 45.2554C87.799 45.2524 87.7962 45.2463 87.7935 45.2433H87.7962Z" fill="black"/>
<path d="M81.5204 46.9049C87.191 43.7885 92.8589 40.669 98.5296 37.5556C99.9486 36.7758 100.183 36.22 99.5987 34.0836C99.111 32.2998 98.5902 30.5161 97.7636 28.8667C97.4164 28.1735 96.7716 27.8508 96.193 28.0659C93.421 29.0938 90.4782 29.8438 88.2188 31.9831C86.2073 33.8864 84.3915 36.0437 82.5591 38.1562C80.8949 40.0745 78.922 41.1172 76.4972 41.422C74.7696 41.6401 73.0447 41.8194 71.3087 41.9419C69.8484 42.0435 69.5343 42.6202 70.303 43.9378C71.4575 45.9129 72.4247 48.0552 74.1827 49.5313C74.8329 50.078 75.5328 50.1617 76.3209 49.7016C78.0237 48.7096 79.7624 47.7923 81.4873 46.8451C81.4956 46.863 81.5038 46.884 81.5148 46.9019L81.5204 46.9049Z" fill="#9A1112"/>
<path d="M32.1455 9.53079L32.122 9.51831C31.5832 9.23216 31.0188 8.92655 30.435 8.61044C28.2739 7.44026 25.8471 6.12617 23.4692 5.12244M32.1455 9.53079L22.8859 6.50437M32.1455 9.53079L32.1685 9.54409C33.9699 10.5843 37.3591 12.4375 40.2095 13.9961C41.6465 14.7818 42.9466 15.4926 43.8373 15.9867L43.1096 17.2984M32.1455 9.53079L36.3798 60.5202M23.4692 5.12244L22.8859 6.50437M23.4692 5.12244C23.4692 5.12245 23.4692 5.12245 23.4692 5.12246L22.8859 6.50437M23.4692 5.12244C22.3878 4.66593 21.0714 4.19893 19.8341 4.75235C19.2084 5.03226 18.7664 5.50004 18.4339 5.98442C18.1079 6.45924 17.8292 7.03607 17.5633 7.65774M22.8859 6.50437C20.6178 5.54691 19.9638 5.86004 18.9424 8.24768M17.5633 7.65774C17.5634 7.65748 17.5635 7.65722 17.5636 7.65696L18.9424 8.24768M17.5633 7.65774L18.9424 8.24768M17.5633 7.65774C15.8504 11.6558 14.124 15.6461 12.5612 19.2584C12.0288 20.489 11.5154 21.6757 11.0279 22.8039C10.1219 24.8573 9.25309 26.824 8.41072 28.7309C6.52295 33.0044 4.76779 36.9777 3.02235 40.9543C2.50495 42.1308 2.24826 43.3754 2.48506 44.5794C2.73098 45.8298 3.47294 46.8488 4.58955 47.5769L4.59021 47.5773C6.94917 49.1138 9.37337 50.5659 11.7681 52.0003C12.736 52.5801 13.699 53.1569 14.651 53.7353C14.6511 53.7354 14.6513 53.7355 14.6515 53.7356L15.4303 52.4536C18.5687 54.3619 21.8492 55.945 25.1296 57.528C27.2423 58.5475 29.3549 59.567 31.4296 60.6734L18.9424 8.24768M36.3798 60.5202C36.3796 60.5205 36.3794 60.5208 36.3792 60.521L35.1253 59.6978L36.3798 60.5202ZM36.3798 60.5202C37.0311 59.5281 37.6746 58.475 38.2337 57.3586L38.2345 57.3571C38.9136 55.9971 39.5491 54.6754 40.1791 53.3652C40.9647 51.7314 41.7417 50.1156 42.5838 48.4657C44.7786 44.1665 46.989 39.8855 49.2013 35.6008C50.7656 32.5711 52.3308 29.5395 53.8922 26.4983C54.8735 24.5909 54.394 22.3595 52.6747 21.1546C51.6958 20.4497 49.4472 19.1401 47.5301 18.0507C46.5491 17.4932 45.6248 16.9767 44.9461 16.5996C44.6066 16.411 44.3282 16.2572 44.1346 16.1503L43.9104 16.0269L43.8515 15.9945L43.8362 15.9861L43.8323 15.984L43.8313 15.9834L43.831 15.9833C43.8309 15.9832 43.8309 15.9832 43.1096 17.2984M43.1096 17.2984C43.1096 17.2984 50.0225 21.0891 51.8064 22.3778M43.1096 17.2984L51.8064 22.3778M51.8064 22.3778C52.875 23.1215 53.2229 24.5216 52.5578 25.8132C51.0002 28.847 49.4359 31.8767 47.8717 34.9063C45.6573 39.1951 43.443 43.4837 41.2478 47.7837L51.8064 22.3778Z" fill="#9A1112" stroke="black" stroke-width="3"/>
<path d="M22.9967 45.2433C19.2082 43.1293 15.4114 41.0335 11.6365 38.8923C9.94937 37.938 9.5214 36.6001 10.2127 34.6613C13.3264 25.9427 16.1877 17.1123 19.8446 8.63827C20.6128 6.8595 21.1944 6.60885 22.8459 7.50276C27.7976 10.1845 32.7549 12.8632 37.6792 15.6053C41.9094 17.9579 46.0985 20.395 50.3096 22.7929C52.2601 23.9012 52.3424 24.8102 50.9405 27.3258C49.012 30.7867 47.2068 34.3321 45.2673 37.784C42.8092 42.1599 40.2826 46.4875 37.7532 50.8151C37.0921 51.9476 35.6656 52.3161 34.5737 51.7121C30.7083 49.5679 26.8539 47.4086 22.994 45.2554C22.994 45.2524 22.9967 45.2463 22.9995 45.2433H22.9967Z" fill="black"/>
<path d="M29.2726 46.9049C23.602 43.7884 17.934 40.669 12.2634 37.5556C10.8443 36.7758 10.6101 36.22 11.1943 34.0836C11.682 32.2998 12.2028 30.5161 13.0294 28.8667C13.3766 28.1735 14.0213 27.8508 14.6 28.0659C17.3719 29.0938 20.3147 29.8438 22.5742 31.9831C24.5856 33.8864 26.4015 36.0437 28.2338 38.1562C29.8981 40.0745 31.871 41.1172 34.2958 41.422C36.0234 41.6401 37.7483 41.8194 39.4842 41.9419C40.9446 42.0435 41.2587 42.6202 40.49 43.9378C39.3354 45.9129 38.3683 48.0552 36.6103 49.5313C35.96 50.0781 35.2602 50.1617 34.4721 49.7016C32.7693 48.7096 31.0306 47.7923 29.3057 46.8451C29.2974 46.863 29.2891 46.8839 29.2781 46.9019L29.2726 46.9049Z" fill="#9A1112"/>
</svg>
