<svg width="105" height="142" viewBox="0 0 105 142" fill="none" xmlns="http://www.w3.org/2000/svg">
<g filter="url(#filter0_d_2789_20)">
<path d="M17.9695 80.0089C17.6948 71.1962 17.3831 60.5516 17.0185 49.9124C16.8547 45.1755 17.7106 44.1023 22.3125 43.6416C28.2721 43.0455 34.7126 43.1647 40.202 43.0942C46.056 43.2189 59.5234 43.1376 65.1185 43.1647C65.1185 43.1647 79.8327 43.1647 83.8745 43.6633C86.2785 43.9126 87.9744 45.8584 87.8741 48.5195C87.3193 63.5976 86.68 78.6756 86.1517 93.7537C85.9403 99.7914 85.9932 105.84 85.84 111.883C85.7871 114.019 85.5441 116.159 85.2377 118.273C84.8572 120.891 82.5431 123.059 79.7535 123.091C68.5474 123.221 57.3678 124.473 46.1458 123.986C38.8653 123.666 31.5742 123.503 24.3096 122.961C20.6852 122.69 18.9152 120.203 18.8149 116.208C18.5296 104.751 18.276 93.2984 17.9695 80.0143V80.0089Z" fill="#9A1112"/>
<path d="M52.7983 105.687C44.6196 105.687 36.4409 105.725 28.2569 105.671C24.6061 105.65 22.8097 103.888 22.4663 100.17C20.9183 83.4335 18.8472 66.7404 18.4245 49.9117C18.3347 46.378 19.1378 45.4566 22.6829 45.4132C33.3131 45.2831 43.9433 45.1477 54.5735 45.1314C63.6979 45.1206 72.8276 45.2777 81.952 45.3536C86.1787 45.3861 87.0399 46.7682 86.6225 52.0471C86.0466 59.3097 85.7508 66.594 85.1485 73.8566C84.3877 83.0541 83.4683 92.2408 82.549 101.427C82.306 103.834 80.1504 105.693 77.7993 105.704C69.4674 105.725 61.1302 105.715 52.7983 105.715C52.7983 105.709 52.7983 105.698 52.7983 105.693V105.687Z" fill="black"/>
<path d="M65.1975 104.154C53.0087 104.154 40.8199 104.154 28.6311 104.154C25.5826 104.154 24.7372 103.466 24.024 99.4879C23.4322 96.171 22.8986 92.8215 22.9884 89.4178C23.0254 87.9924 23.8708 86.8922 25.0331 86.7242C30.5965 85.922 36.2286 84.5183 41.8026 85.9708C46.7637 87.2662 51.5927 89.136 56.4165 90.9246C60.7964 92.5505 65.0072 92.4801 69.3977 90.8216C72.5255 89.6346 75.6216 88.3935 78.6859 87.0494C81.2642 85.9166 82.2628 86.5724 81.9986 89.3853C81.6024 93.6074 81.6605 97.9324 79.8324 101.889C79.1562 103.352 78.0308 104.111 76.3137 104.068C72.61 103.976 68.9011 104.041 65.1922 104.041C65.1922 104.079 65.1922 104.116 65.1922 104.16L65.1975 104.154Z" fill="#9A1112"/>
<path d="M52.2265 35.9507C50.0022 35.2353 47.593 34.7096 45.4004 33.6906C41.422 31.8533 37.5757 29.7287 33.6765 27.7071C33.0954 27.4036 32.5036 27.0838 32.0123 26.6557C30.7178 25.5175 30.5858 24.2221 32.0334 23.3387C36.1439 20.8239 40.3283 18.3958 44.6343 16.255C45.7227 15.713 47.4609 16.1411 48.7712 16.5585C51.508 17.4256 54.0968 17.8647 56.8759 16.6018C59.1531 15.5612 61.4302 16.0327 63.6017 17.3552C66.5075 19.1275 69.5349 20.6992 72.4355 22.477C75.1142 24.1192 75.0032 26.0866 72.203 27.5066C67.7069 29.7829 63.2265 32.1189 58.6406 34.2001C56.7385 35.0619 54.5829 35.3329 52.2318 35.9561L52.2265 35.9507ZM66.3596 26.1137L66.2222 25.6042C63.4537 25.7451 60.6483 25.6367 57.9273 26.0812C54.3082 26.6773 50.8106 26.596 47.1915 25.9944C44.5709 25.5554 41.8288 25.9077 38.8173 25.9077C39.3298 26.3684 39.5622 26.6828 39.8687 26.8345C42.5738 28.1732 45.2524 29.577 48.0157 30.7802C50.7049 31.9563 53.5949 32.3086 56.3423 31.1921C59.5863 29.8751 62.6929 28.2112 65.8471 26.6773C66.0584 26.5744 66.1905 26.3034 66.3596 26.1083V26.1137ZM66.1905 22.9214C64.9489 22.2222 63.7443 21.6911 62.7141 20.9269C60.7275 19.4581 58.6881 19.3389 56.5378 20.3795C53.9489 21.6315 51.2914 21.7236 48.787 20.4174C44.8456 18.3633 42.4417 21.5664 39.1396 22.8076C41.665 23.9999 63.7496 24.0325 66.1905 22.9214Z" fill="#9A1112"/>
<path d="M70.0215 26.211C69.8102 26.4441 69.6464 26.7693 69.3822 26.8939C65.4461 28.7313 61.5734 30.7203 57.5369 32.2921C54.1132 33.6254 50.5152 33.2081 47.1603 31.7989C43.7208 30.3572 40.3764 28.6825 37.0056 27.0782C36.6199 26.8939 36.3346 26.5145 35.6953 25.9671C39.4465 25.9671 42.8702 25.5444 46.1353 26.0701C50.642 26.791 55.0061 26.8885 59.5128 26.1731C62.9048 25.6365 66.4024 25.7666 69.8524 25.604L70.0268 26.211H70.0215Z" fill="black"/>
<path d="M69.0262 22.8133C66.0992 24.4772 39.677 24.4284 36.6602 22.6453C40.6068 20.7863 43.4863 16.0006 48.2044 19.0682C51.2053 21.0248 54.3859 20.8838 57.482 19.0086C60.055 17.4531 62.4907 17.6319 64.8682 19.8324C66.1045 20.976 67.5416 21.7673 69.0315 22.8133H69.0262Z" fill="black"/>
</g>
<defs>
<filter id="filter0_d_2789_20" x="0.700001" y="0.700001" width="103.478" height="140.698" filterUnits="userSpaceOnUse" color-interpolation-filters="sRGB">
<feFlood flood-opacity="0" result="BackgroundImageFix"/>
<feColorMatrix in="SourceAlpha" type="matrix" values="0 0 0 0 0 0 0 0 0 0 0 0 0 0 0 0 0 0 127 0" result="hardAlpha"/>
<feOffset dy="1"/>
<feGaussianBlur stdDeviation="8.15"/>
<feComposite in2="hardAlpha" operator="out"/>
<feColorMatrix type="matrix" values="0 0 0 0 0.929412 0 0 0 0 0.305882 0 0 0 0 0.0666667 0 0 0 0.32 0"/>
<feBlend mode="normal" in2="BackgroundImageFix" result="effect1_dropShadow_2789_20"/>
<feBlend mode="normal" in="SourceGraphic" in2="effect1_dropShadow_2789_20" result="shape"/>
</filter>
</defs>
</svg>
