<svg width="104" height="152" viewBox="0 0 104 152" fill="none" xmlns="http://www.w3.org/2000/svg">
<g filter="url(#filter0_d_2789_11)">
<path d="M17.9589 90.2514C17.6871 81.5356 17.3789 71.008 17.0183 60.4857C16.8563 55.8008 17.7028 54.7394 22.2541 54.2838C28.1483 53.6942 34.5179 53.8121 39.9471 53.7424C45.7367 53.8657 59.0561 53.7853 64.5897 53.8121C64.5897 53.8121 79.1423 53.8121 83.1396 54.3053C85.5172 54.5518 87.1945 56.4762 87.0952 59.1081C86.5466 74.0204 85.9143 88.9328 85.3918 103.845C85.1827 109.817 85.235 115.799 85.0835 121.775C85.0312 123.887 84.7908 126.005 84.4878 128.095C84.1116 130.684 81.8229 132.828 79.0639 132.86C67.981 132.989 56.9242 134.227 45.8256 133.745C38.625 133.429 31.4141 133.268 24.2293 132.732C20.6447 132.464 18.8942 130.003 18.7949 126.053C18.5127 114.721 18.2619 103.395 17.9589 90.2568V90.2514Z" fill="#9A1112"/>
<path d="M52.4048 115.648C44.316 115.648 36.2272 115.686 28.1332 115.632C24.5225 115.61 22.7459 113.868 22.4062 110.191C20.8752 93.6386 18.8269 77.1289 18.4088 60.4851C18.32 56.9902 19.1142 56.079 22.6204 56.0361C33.1338 55.9075 43.6472 55.7734 54.1605 55.7574C63.1847 55.7466 72.2141 55.9021 81.2382 55.9771C85.4185 56.0093 86.2702 57.3762 85.8574 62.5971C85.2878 69.7799 84.9952 76.9841 84.3995 84.167C83.6471 93.2634 82.7379 102.349 81.8287 111.435C81.5883 113.815 79.4564 115.653 77.1311 115.664C68.8908 115.686 60.6452 115.675 52.4048 115.675C52.4048 115.669 52.4048 115.659 52.4048 115.653V115.648Z" fill="black"/>
<path d="M64.6691 114.131C52.6142 114.131 40.5594 114.131 28.5045 114.131C25.4895 114.131 24.6535 113.451 23.948 109.516C23.3628 106.236 22.8351 102.923 22.9239 99.5566C22.9605 98.1469 23.7965 97.0587 24.9461 96.8926C30.4484 96.0992 36.0186 94.7109 41.5313 96.1475C46.4379 97.4286 51.2138 99.2779 55.9846 101.047C60.3164 102.655 64.4809 102.585 68.8232 100.945C71.9166 99.771 74.9786 98.5435 78.0093 97.2142C80.5593 96.0939 81.5469 96.7425 81.2856 99.5245C80.8937 103.7 80.9512 107.978 79.1432 111.891C78.4744 113.338 77.3614 114.088 75.6631 114.046C72.0002 113.954 68.332 114.019 64.6638 114.019C64.6638 114.056 64.6638 114.094 64.6638 114.137L64.6691 114.131Z" fill="#9A1112"/>
<path d="M34.9096 23.9601C32.0879 26.4741 30.2904 30.3656 32.7358 33.7694C34.131 35.9832 36.5033 37.2697 37.9978 39.4889C40.9083 43.5252 39.1735 48.001 34.9096 49.9522C38.0343 47.4275 39.5706 43.8361 36.8012 40.3948C35.2492 38.3096 32.8247 36.9481 31.487 34.5896C28.9161 30.5479 31.0115 25.9756 34.9044 23.9654L34.9096 23.9601Z" fill="#9A1112"/>
<path d="M64.5229 23.96C61.7012 26.4739 59.9037 30.3655 62.3491 33.7693C63.7443 35.9831 66.1166 37.2696 67.611 39.4887C70.5215 43.5251 68.7867 48.0009 64.5229 49.952C67.6476 47.4273 69.1839 43.8359 66.4144 40.3946C64.8625 38.3095 62.438 36.948 61.1003 34.5894C58.5294 30.5478 60.6248 25.9754 64.5176 23.9653L64.5229 23.96Z" fill="#9A1112"/>
<path d="M48.2347 16C43.6207 21.296 43.9186 27.5193 48.5587 32.5955C50.722 35.013 52.7128 38.0898 52.7755 41.5311C52.88 44.9403 50.9571 48.1725 48.2347 49.9521C53.4182 44.6026 52.1171 38.6205 47.3882 33.6675C42.445 28.184 42.2047 20.7224 48.2347 16.0054V16Z" fill="#9A1112"/>
</g>
<defs>
<filter id="filter0_d_2789_11" x="0.700001" y="0.700001" width="102.699" height="150.456" filterUnits="userSpaceOnUse" color-interpolation-filters="sRGB">
<feFlood flood-opacity="0" result="BackgroundImageFix"/>
<feColorMatrix in="SourceAlpha" type="matrix" values="0 0 0 0 0 0 0 0 0 0 0 0 0 0 0 0 0 0 127 0" result="hardAlpha"/>
<feOffset dy="1"/>
<feGaussianBlur stdDeviation="8.15"/>
<feComposite in2="hardAlpha" operator="out"/>
<feColorMatrix type="matrix" values="0 0 0 0 0.929412 0 0 0 0 0.305882 0 0 0 0 0.0666667 0 0 0 0.32 0"/>
<feBlend mode="normal" in2="BackgroundImageFix" result="effect1_dropShadow_2789_11"/>
<feBlend mode="normal" in="SourceGraphic" in2="effect1_dropShadow_2789_11" result="shape"/>
</filter>
</defs>
</svg>
