<svg width="205" height="204" viewBox="0 0 205 204" fill="none" xmlns="http://www.w3.org/2000/svg">
<g filter="url(#filter0_d_756_2943)">
<path d="M58 118.087C58 109.574 58 101.06 58.0133 92.5457C58.0133 90.5587 58.307 88.5833 59.5217 86.8505C60.336 85.6837 61.2036 84.54 62.2581 83.535C63.0057 82.8303 64.0602 82.3451 65.0213 81.8484C65.5685 81.5711 65.8222 81.2246 65.8222 80.7163C65.8222 80.1733 65.7821 79.6188 65.7821 79.0759C65.7821 72.7338 65.7821 66.3916 65.7955 60.0495C65.7955 59.6336 65.969 59.1831 66.1826 58.8134C66.4362 58.3513 66.9434 58.2012 67.5308 58.2012C70.3072 58.2474 73.0837 58.282 75.8735 58.3051C76.3007 58.3051 76.7412 58.2243 77.155 58.282C78.0093 58.4207 78.4898 58.9521 78.5165 59.7145C78.5299 60.3037 78.4898 60.9044 78.4898 61.4935C78.4898 67.6855 78.4898 73.8659 78.4898 80.0578C78.4898 80.312 78.5032 80.5546 78.5299 80.8087C78.5699 81.1784 78.7701 81.4325 79.1706 81.6058C81.1595 82.4376 82.6679 83.7083 83.7357 85.3718C84.1762 86.0534 84.5767 86.7581 84.9905 87.4512C85.9516 89.0685 86.0984 90.8244 86.0984 92.5803C86.1118 103.428 86.0984 114.264 86.0984 125.111C86.0984 131.084 86.0984 137.056 86.0984 143.029C86.0984 143.502 86.0717 143.976 86.0317 144.449C85.9783 145.177 85.5645 145.558 84.7369 145.639C84.4566 145.674 84.1629 145.674 83.8826 145.674C75.8869 145.674 67.8778 145.674 59.8821 145.674C58.5206 145.674 58.1735 145.42 58.0667 144.253C58 143.583 58.0133 142.901 58.0133 142.22C58.0133 134.168 58.0133 126.116 58.0133 118.064L58 118.087ZM82.6946 115.234C82.6946 108.095 82.6946 100.956 82.6946 93.8164C82.6946 92.5572 82.6812 91.3327 82.2674 90.0851C81.7869 88.6179 81.1328 87.2663 80.0649 86.0765C79.0638 84.979 77.7823 84.1704 76.2339 83.7314C75.3396 83.4772 75.0993 83.2231 75.0459 82.3913C75.0459 82.2527 75.0459 82.1025 75.0459 81.9639C75.0459 77.0312 75.0459 72.1099 75.0459 67.1772C75.0459 66.9808 75.0459 66.7729 75.0192 66.5765C74.9391 66.0335 74.819 65.8718 74.1783 65.8487C73.057 65.8025 71.9357 65.7909 70.8145 65.7909C69.4796 65.7909 69.3728 65.9064 69.3728 67.0617C69.3728 71.9136 69.3728 76.7539 69.3728 81.6058C69.3728 81.9062 69.3328 82.195 69.3328 82.4953C69.3061 83.2 68.7855 83.5697 68.1047 83.8238C65.4751 84.7826 63.5262 86.3537 62.4183 88.6411C61.9378 89.6345 61.5774 90.6396 61.6041 91.7717C61.6708 94.2669 61.6308 96.7622 61.6308 99.2575C61.6308 99.5001 61.6174 99.7427 61.6708 99.9621C61.6975 100.078 61.8577 100.251 61.9778 100.262C63.1792 100.39 64.3538 100.701 65.5819 100.574C65.9957 100.528 66.4362 100.574 66.85 100.574C68.4652 100.551 70.0803 100.505 71.6955 100.494C72.6699 100.494 73.631 100.563 74.6054 100.574C75.4464 100.586 75.6333 100.725 75.6333 101.441C75.6333 109.516 75.6333 117.591 75.6333 125.677C75.6333 126.89 75.6066 128.103 75.6199 129.305C75.6199 129.824 75.5532 129.94 74.9391 129.94C74.0047 129.94 73.0704 129.94 72.1493 129.94C69.0391 129.94 65.929 129.94 62.8188 129.94C61.831 129.94 61.6842 130.067 61.6842 130.818C61.6842 133.382 61.6708 135.947 61.6575 138.512C61.6575 138.708 61.6842 138.916 61.7109 139.112C61.7376 139.366 61.9111 139.494 62.2047 139.494C62.7787 139.494 63.3527 139.494 63.9267 139.494C67.3172 139.494 70.721 139.494 74.1115 139.494C76.621 139.494 79.1305 139.494 81.6267 139.494C82.481 139.494 82.7346 139.239 82.7346 138.489C82.7346 130.737 82.7346 122.974 82.7346 115.223L82.6946 115.234ZM74.552 115.407C74.552 115.407 74.5787 115.407 74.5921 115.407C74.5921 111.318 74.5921 107.24 74.5921 103.151C74.5921 102.896 74.5387 102.631 74.4853 102.377C74.3918 102.007 74.0982 101.81 73.6844 101.753C73.4575 101.718 73.2172 101.718 72.9903 101.718C69.8801 101.718 66.7699 101.718 63.6597 101.718C63.1258 101.718 62.5919 101.753 62.0579 101.776C61.7909 101.776 61.6708 101.903 61.6708 102.134C61.6575 102.769 61.5907 103.416 61.5907 104.052C61.5907 111.953 61.5907 119.843 61.5907 127.745C61.5907 128.022 61.6308 128.288 61.6441 128.565C61.6575 128.854 61.8577 128.993 62.1781 129.004C62.6853 129.039 63.1925 129.085 63.6998 129.085C66.85 129.085 70.0002 129.085 73.1504 129.085C74.1516 129.085 74.5654 128.75 74.5921 127.861C74.6054 127.306 74.552 126.74 74.552 126.185C74.552 122.593 74.552 118.989 74.552 115.396V115.407ZM71.9224 142.717C75.0993 142.717 78.2762 142.717 81.4532 142.717C82.5477 142.717 82.748 142.486 82.6412 141.538C82.6412 141.527 82.6412 141.515 82.6412 141.504C82.5878 141.088 82.3342 140.926 81.867 140.972C81.4532 141.018 81.026 141.053 80.5989 141.053C74.6455 141.053 68.6787 141.053 62.7253 141.053C61.6174 141.053 61.5774 141.111 61.6041 142.012C61.6174 142.67 61.6441 142.717 62.4317 142.717C65.5952 142.717 68.7588 142.717 71.9224 142.717ZM72.0425 61.2394C72.0425 61.2394 72.0425 61.274 72.0425 61.2856C71.3885 61.2856 70.7344 61.2856 70.067 61.2856C69.7199 61.2856 69.4663 61.4242 69.4529 61.7361C69.3995 62.4061 69.3595 63.0762 69.3595 63.7577C69.3595 64.3469 69.6532 64.6242 70.3339 64.6357C71.562 64.6588 72.79 64.6357 74.0181 64.6011C74.6588 64.578 74.9792 64.2776 75.0192 63.7115C75.0459 63.1801 75.0459 62.6487 75.0192 62.1058C74.9925 61.5282 74.6855 61.2625 74.0181 61.2394C73.364 61.2163 72.7099 61.2394 72.0559 61.2394H72.0425Z" fill="black"/>
<path d="M82.6944 115.234C82.6944 122.985 82.6944 130.748 82.6944 138.5C82.6944 139.251 82.4408 139.493 81.5865 139.505C79.077 139.505 76.5675 139.505 74.0714 139.505C70.6809 139.505 67.277 139.505 63.8865 139.505C63.3125 139.505 62.7386 139.505 62.1646 139.505C61.8709 139.505 61.6974 139.378 61.6707 139.124C61.644 138.927 61.6173 138.719 61.6173 138.523C61.6173 135.958 61.6173 133.394 61.644 130.829C61.644 130.078 61.7908 129.951 62.7786 129.951C65.8888 129.94 68.999 129.951 72.1091 129.951C73.0435 129.951 73.9779 129.951 74.899 129.951C75.513 129.951 75.5931 129.836 75.5797 129.316C75.5797 128.103 75.5931 126.89 75.5931 125.689C75.5931 117.614 75.5931 109.539 75.5931 101.452C75.5931 100.736 75.4062 100.597 74.5652 100.586C73.5908 100.574 72.6297 100.493 71.6553 100.505C70.0401 100.505 68.425 100.563 66.8098 100.586C66.3827 100.586 65.9555 100.551 65.5417 100.586C64.3137 100.701 63.139 100.401 61.9376 100.274C61.8175 100.262 61.6573 100.089 61.6306 99.9735C61.5772 99.7424 61.5906 99.4998 61.5906 99.2688C61.5906 96.7735 61.6306 94.2783 61.5639 91.783C61.5372 90.6624 61.8976 89.6459 62.3781 88.6524C63.4861 86.365 65.4483 84.794 68.0646 83.8351C68.7453 83.581 69.2659 83.2113 69.2926 82.5066C69.2926 82.2063 69.3327 81.9175 69.3327 81.6171C69.3327 76.7652 69.3327 71.9249 69.3327 67.073C69.3327 65.9178 69.4395 65.8138 70.7743 65.8022C71.8956 65.8022 73.0168 65.8022 74.1381 65.86C74.7788 65.8831 74.9123 66.0448 74.979 66.5878C75.0057 66.7842 75.0057 66.9921 75.0057 67.1885C75.0057 72.1213 75.0057 77.0425 75.0057 81.9752C75.0057 82.1139 75.0057 82.264 75.0057 82.4027C75.0591 83.2344 75.2994 83.4886 76.1938 83.7427C77.7555 84.1817 79.0236 84.9788 80.0247 86.0878C81.106 87.2661 81.7467 88.6293 82.2272 90.0964C82.641 91.344 82.6544 92.5801 82.6544 93.8277C82.6544 100.967 82.6544 108.106 82.6544 115.245L82.6944 115.234ZM78.6098 93.4118C78.6632 93.8046 78.6632 94.1974 78.77 94.5786C78.8234 94.7634 79.0503 95.0407 79.2105 95.0523C79.4641 95.0638 79.7978 94.9483 79.9847 94.7866C80.5587 94.2898 80.3451 93.6544 80.1716 93.0999C79.8512 92.0487 79.4641 90.9975 78.9836 89.9809C78.7033 89.3917 78.2094 88.8834 77.7555 88.3636C77.6487 88.248 77.275 88.2134 77.1148 88.2827C76.9813 88.3405 76.9012 88.6293 76.9279 88.8025C76.9546 89.0105 77.1014 89.23 77.2216 89.4148C78.0358 90.6509 78.6766 91.9447 78.5965 93.4118H78.6098ZM74.2849 86.2264C73.8311 86.2264 73.5508 86.4344 73.5641 86.7463C73.5641 87.0235 74.0847 87.3585 74.4985 87.3585C74.899 87.3585 74.9924 87.1159 75.0057 86.8271C75.0057 86.4344 74.7521 86.2149 74.2849 86.2149V86.2264Z" fill="#ED4E11"/>
<path d="M74.5531 115.408C74.5531 119 74.5531 122.605 74.5531 126.197C74.5531 126.752 74.6065 127.318 74.5931 127.872C74.5665 128.762 74.1527 129.097 73.1515 129.097C70.0013 129.097 66.8511 129.097 63.7008 129.097C63.1936 129.097 62.6864 129.039 62.1791 129.016C61.8588 128.993 61.6719 128.866 61.6452 128.577C61.6318 128.3 61.5918 128.034 61.5918 127.757C61.5918 119.855 61.5918 111.965 61.5918 104.064C61.5918 103.428 61.6452 102.781 61.6719 102.146C61.6719 101.915 61.792 101.788 62.059 101.788C62.5929 101.776 63.1269 101.742 63.6608 101.73C66.771 101.73 69.8812 101.73 72.9913 101.73C73.2183 101.73 73.4585 101.73 73.6855 101.765C74.0993 101.822 74.3929 102.03 74.4864 102.388C74.5531 102.643 74.5931 102.908 74.5931 103.162C74.5931 107.252 74.5931 111.33 74.5931 115.419C74.5798 115.419 74.5665 115.419 74.5531 115.419V115.408Z" fill="#ED4E11"/>
<path d="M71.9343 142.728C68.7707 142.728 65.6072 142.728 62.4436 142.728C61.656 142.728 61.6293 142.682 61.616 142.023C61.5893 141.111 61.6427 141.065 62.7372 141.065C68.6906 141.065 74.6574 141.065 80.6108 141.065C81.0379 141.065 81.4517 141.018 81.8789 140.984C82.3461 140.938 82.5997 141.099 82.6531 141.515C82.6531 141.527 82.6531 141.538 82.6531 141.55C82.7599 142.509 82.5596 142.728 81.4651 142.728C78.2881 142.74 75.1112 142.728 71.9343 142.728Z" fill="#ED4E11"/>
<path d="M72.0421 61.251C72.6962 61.251 73.3502 61.2279 74.0043 61.251C74.6717 61.2741 74.9787 61.5398 75.0054 62.1174C75.0321 62.6488 75.0321 63.1802 75.0054 63.7231C74.9787 64.2892 74.6584 64.5896 74.0043 64.6127C72.7762 64.6473 71.5482 64.6704 70.3201 64.6473C69.6394 64.6473 69.3591 64.3585 69.3457 63.7694C69.3457 63.0993 69.3857 62.4178 69.4391 61.7477C69.4658 61.4358 69.7061 61.2972 70.0532 61.2972C70.7072 61.2972 71.3613 61.2972 72.0287 61.2972C72.0287 61.2856 72.0287 61.2625 72.0287 61.251H72.0421Z" fill="#ED4E11"/>
<path d="M78.6073 93.4123C78.6874 91.9451 78.0333 90.6629 77.2324 89.4152C77.1122 89.2188 76.9654 89.0109 76.9387 88.803C76.912 88.6297 76.9921 88.3409 77.1256 88.2831C77.2991 88.2138 77.6729 88.2485 77.7663 88.364C78.2202 88.8723 78.714 89.3921 78.9944 89.9813C79.4749 90.9863 79.8487 92.0376 80.1824 93.1004C80.3559 93.6549 80.5695 94.2902 79.9955 94.787C79.8086 94.9487 79.4749 95.0758 79.2213 95.0527C79.0611 95.0527 78.8342 94.7639 78.7808 94.579C78.674 94.1978 78.674 93.805 78.6206 93.4123H78.6073Z" fill="black"/>
<path d="M74.2833 86.2261C74.7505 86.2261 75.0041 86.4456 75.0041 86.8383C75.0041 87.1271 74.9107 87.3697 74.4969 87.3697C74.0831 87.3697 73.5758 87.0347 73.5625 86.7575C73.5625 86.4456 73.8428 86.2376 74.2833 86.2376V86.2261Z" fill="black"/>
<path d="M88.7012 118.087C88.7012 109.574 88.7012 101.06 88.7012 92.5341C88.7012 90.5472 88.9948 88.5717 90.2095 86.8389C91.0238 85.6722 91.8914 84.5285 92.946 83.5235C93.6935 82.8188 94.748 82.3336 95.7091 81.8368C96.2564 81.5596 96.51 81.213 96.51 80.7047C96.51 80.1618 96.4699 79.6073 96.4699 79.0643C96.4699 72.7222 96.4699 66.3801 96.4833 60.038C96.4833 59.6221 96.6568 59.1716 96.8704 58.8019C97.1374 58.3513 97.6446 58.2012 98.2319 58.2012C101.008 58.2474 103.785 58.282 106.575 58.3051C107.002 58.3051 107.442 58.2243 107.856 58.282C108.71 58.4207 109.191 58.9521 109.218 59.7145C109.231 60.3037 109.191 60.9044 109.191 61.4935C109.191 67.6855 109.191 73.8659 109.191 80.0578C109.191 80.312 109.204 80.5546 109.231 80.8087C109.271 81.1784 109.471 81.4325 109.872 81.6058C111.861 82.4376 113.369 83.7083 114.437 85.3718C114.877 86.0534 115.278 86.7581 115.692 87.4512C116.653 89.0685 116.8 90.8244 116.8 92.5803C116.813 103.428 116.8 114.264 116.8 125.111C116.8 131.084 116.8 137.056 116.8 143.029C116.8 143.502 116.773 143.976 116.733 144.449C116.679 145.177 116.266 145.558 115.438 145.639C115.158 145.674 114.864 145.674 114.584 145.674C106.588 145.674 98.579 145.674 90.5833 145.674C89.2218 145.674 88.8747 145.42 88.7679 144.253C88.7012 143.583 88.7145 142.901 88.7145 142.22C88.7145 134.168 88.7145 126.116 88.7145 118.064L88.7012 118.087ZM113.396 115.234C113.396 108.095 113.396 100.956 113.396 93.8164C113.396 92.5572 113.382 91.3327 112.969 90.0851C112.488 88.6179 111.834 87.2663 110.766 86.0765C109.765 84.979 108.484 84.1704 106.935 83.7314C106.041 83.4772 105.8 83.2231 105.747 82.3913C105.747 82.2527 105.747 82.1025 105.747 81.9639C105.747 77.0312 105.747 72.1099 105.747 67.1772C105.747 66.9808 105.747 66.7729 105.72 66.5765C105.64 66.0335 105.52 65.8718 104.879 65.8487C103.758 65.8025 102.637 65.7909 101.516 65.7909C100.181 65.7909 100.074 65.9064 100.074 67.0617C100.074 71.9136 100.074 76.7539 100.074 81.6058C100.074 81.9062 100.034 82.195 100.034 82.4953C100.007 83.2 99.4867 83.5697 98.8059 83.8238C96.1763 84.7826 94.2274 86.3537 93.1195 88.6411C92.639 89.6345 92.2785 90.6396 92.3052 91.7717C92.372 94.2669 92.3319 96.7622 92.3319 99.2575C92.3319 99.5001 92.3186 99.7427 92.372 99.9621C92.3987 100.078 92.5589 100.251 92.679 100.262C93.8804 100.39 95.055 100.701 96.2831 100.574C96.6969 100.528 97.1374 100.574 97.5512 100.574C99.1663 100.551 100.781 100.505 102.397 100.494C103.371 100.494 104.332 100.563 105.307 100.574C106.148 100.586 106.334 100.725 106.334 101.441C106.334 109.516 106.334 117.591 106.334 125.677C106.334 126.89 106.308 128.103 106.321 129.305C106.321 129.824 106.254 129.94 105.64 129.94C104.706 129.94 103.772 129.94 102.85 129.94C99.7403 129.94 96.6301 129.94 93.5199 129.94C92.5322 129.94 92.3853 130.067 92.3853 130.818C92.3853 133.382 92.372 135.947 92.3586 138.512C92.3586 138.708 92.3853 138.916 92.412 139.112C92.4387 139.366 92.6123 139.494 92.9059 139.494C93.4799 139.494 94.0539 139.494 94.6279 139.494C98.0184 139.494 101.422 139.494 104.813 139.494C107.322 139.494 109.832 139.494 112.328 139.494C113.182 139.494 113.436 139.239 113.436 138.489C113.436 130.737 113.436 122.974 113.436 115.223L113.396 115.234ZM105.253 115.407C105.253 115.407 105.28 115.407 105.293 115.407C105.293 111.318 105.293 107.24 105.293 103.151C105.293 102.896 105.24 102.631 105.186 102.377C105.093 102.007 104.799 101.81 104.386 101.753C104.159 101.718 103.918 101.718 103.691 101.718C100.581 101.718 97.4711 101.718 94.3609 101.718C93.827 101.718 93.293 101.753 92.7591 101.776C92.4921 101.776 92.372 101.903 92.372 102.134C92.3586 102.769 92.2919 103.416 92.2919 104.052C92.2919 111.953 92.2919 119.843 92.2919 127.745C92.2919 128.022 92.3319 128.288 92.3453 128.565C92.3586 128.854 92.5589 128.993 92.8792 129.004C93.3865 129.039 93.8937 129.085 94.4009 129.085C97.5512 129.085 100.701 129.085 103.852 129.085C104.853 129.085 105.267 128.75 105.293 127.861C105.307 127.306 105.253 126.74 105.253 126.185C105.253 122.593 105.253 118.989 105.253 115.396V115.407ZM102.624 142.717C105.8 142.717 108.977 142.717 112.154 142.717C113.249 142.717 113.449 142.486 113.342 141.538C113.342 141.527 113.342 141.515 113.342 141.504C113.289 141.088 113.035 140.926 112.568 140.972C112.154 141.018 111.727 141.053 111.3 141.053C105.347 141.053 99.3799 141.053 93.4265 141.053C92.3186 141.053 92.2785 141.111 92.3052 142.012C92.3186 142.67 92.3453 142.717 93.1328 142.717C96.2964 142.717 99.46 142.717 102.624 142.717ZM102.744 61.2394C102.744 61.2394 102.744 61.274 102.744 61.2856C102.09 61.2856 101.436 61.2856 100.768 61.2856C100.421 61.2856 100.167 61.4242 100.154 61.7361C100.101 62.4061 100.061 63.0762 100.061 63.7577C100.061 64.3469 100.354 64.6242 101.035 64.6357C102.263 64.6588 103.491 64.6357 104.719 64.6011C105.36 64.578 105.68 64.2776 105.72 63.7115C105.747 63.1801 105.747 62.6487 105.72 62.1058C105.694 61.5282 105.387 61.2625 104.719 61.2394C104.065 61.2163 103.411 61.2394 102.757 61.2394H102.744Z" fill="black"/>
<path d="M113.396 115.234C113.396 122.985 113.396 130.748 113.396 138.5C113.396 139.251 113.142 139.493 112.288 139.505C109.778 139.505 107.269 139.505 104.773 139.505C101.382 139.505 97.9782 139.505 94.5877 139.505C94.0137 139.505 93.4397 139.505 92.8657 139.505C92.5721 139.505 92.3985 139.378 92.3719 139.124C92.3452 138.927 92.3185 138.719 92.3185 138.523C92.3185 135.958 92.3185 133.394 92.3452 130.829C92.3452 130.078 92.492 129.951 93.4798 129.951C96.5899 129.94 99.7001 129.951 102.81 129.951C103.745 129.951 104.679 129.951 105.6 129.951C106.214 129.951 106.294 129.836 106.281 129.316C106.281 128.103 106.294 126.89 106.294 125.689C106.294 117.614 106.294 109.539 106.294 101.452C106.294 100.736 106.107 100.597 105.266 100.586C104.292 100.574 103.331 100.493 102.356 100.505C100.741 100.505 99.1261 100.563 97.511 100.586C97.0838 100.586 96.6567 100.551 96.2429 100.586C95.0148 100.701 93.8402 100.401 92.6388 100.274C92.5187 100.262 92.3585 100.089 92.3318 99.9735C92.2784 99.7424 92.2918 99.4998 92.2918 99.2688C92.2918 96.7735 92.3318 94.2783 92.2651 91.783C92.2384 90.6624 92.5988 89.6459 93.0793 88.6524C94.1872 86.365 96.1495 84.794 98.7657 83.8351C99.4465 83.581 99.9671 83.2113 99.9938 82.5066C99.9938 82.2063 100.034 81.9175 100.034 81.6171C100.034 76.7652 100.034 71.9249 100.034 67.073C100.034 65.9178 100.141 65.8138 101.475 65.8022C102.597 65.8022 103.718 65.8022 104.839 65.86C105.48 65.8831 105.613 66.0448 105.68 66.5878C105.707 66.7842 105.707 66.9921 105.707 67.1885C105.707 72.1213 105.707 77.0425 105.707 81.9752C105.707 82.1139 105.707 82.264 105.707 82.4027C105.76 83.2344 106.001 83.4886 106.895 83.7427C108.457 84.1817 109.725 84.9788 110.726 86.0878C111.807 87.2661 112.448 88.6293 112.928 90.0964C113.342 91.344 113.356 92.5801 113.356 93.8277C113.356 100.967 113.356 108.106 113.356 115.245L113.396 115.234ZM109.311 93.4118C109.364 93.8046 109.364 94.1974 109.471 94.5786C109.525 94.7634 109.751 95.0407 109.912 95.0523C110.165 95.0638 110.499 94.9483 110.686 94.7866C111.26 94.2898 111.046 93.6544 110.873 93.0999C110.552 92.0487 110.165 90.9975 109.685 89.9809C109.404 89.3917 108.911 88.8834 108.457 88.3636C108.35 88.248 107.976 88.2134 107.816 88.2827C107.682 88.3405 107.602 88.6293 107.629 88.8025C107.656 89.0105 107.803 89.23 107.923 89.4148C108.737 90.6509 109.378 91.9447 109.298 93.4118H109.311ZM104.986 86.2264C104.532 86.2264 104.252 86.4344 104.265 86.7463C104.265 87.0235 104.786 87.3585 105.2 87.3585C105.6 87.3585 105.694 87.1159 105.707 86.8271C105.707 86.4344 105.453 86.2149 104.986 86.2149V86.2264Z" fill="#ED4E11"/>
<path d="M105.254 115.408C105.254 119 105.254 122.605 105.254 126.197C105.254 126.752 105.308 127.318 105.294 127.872C105.268 128.762 104.854 129.097 103.853 129.097C100.702 129.097 97.5522 129.097 94.402 129.097C93.8948 129.097 93.3875 129.039 92.8803 129.016C92.5599 128.993 92.3731 128.866 92.3464 128.577C92.333 128.3 92.293 128.034 92.293 127.757C92.293 119.855 92.293 111.965 92.293 104.064C92.293 103.428 92.3464 102.781 92.3731 102.146C92.3731 101.915 92.4932 101.788 92.7602 101.788C93.2941 101.776 93.828 101.742 94.362 101.73C97.4722 101.73 100.582 101.73 103.693 101.73C103.919 101.73 104.16 101.73 104.387 101.765C104.8 101.822 105.094 102.03 105.188 102.388C105.254 102.643 105.294 102.908 105.294 103.162C105.294 107.252 105.294 111.33 105.294 115.419C105.281 115.419 105.268 115.419 105.254 115.419V115.408Z" fill="#ED4E11"/>
<path d="M102.637 142.728C99.4739 142.728 96.3103 142.728 93.1467 142.728C92.3591 142.728 92.3325 142.682 92.3191 142.023C92.2924 141.111 92.3458 141.065 93.4404 141.065C99.3938 141.065 105.361 141.065 111.314 141.065C111.741 141.065 112.155 141.018 112.582 140.984C113.049 140.938 113.303 141.099 113.356 141.515C113.356 141.527 113.356 141.538 113.356 141.55C113.463 142.509 113.263 142.728 112.168 142.728C108.991 142.74 105.814 142.728 102.637 142.728Z" fill="#ED4E11"/>
<path d="M102.743 61.251C103.397 61.251 104.051 61.2279 104.705 61.251C105.373 61.2741 105.68 61.5398 105.707 62.1174C105.733 62.6488 105.733 63.1802 105.707 63.7231C105.68 64.2892 105.36 64.5896 104.705 64.6127C103.477 64.6473 102.249 64.6704 101.021 64.6473C100.341 64.6473 100.06 64.3585 100.047 63.7694C100.047 63.0993 100.087 62.4178 100.14 61.7477C100.167 61.4358 100.407 61.2972 100.754 61.2972C101.408 61.2972 102.062 61.2972 102.73 61.2972C102.73 61.2856 102.73 61.2625 102.73 61.251H102.743Z" fill="#ED4E11"/>
<path d="M109.31 93.4123C109.39 91.9451 108.736 90.6629 107.936 89.4152C107.815 89.2188 107.669 89.0109 107.642 88.803C107.615 88.6297 107.695 88.3409 107.829 88.2831C108.002 88.2138 108.376 88.2485 108.469 88.364C108.923 88.8723 109.417 89.3921 109.697 89.9813C110.178 90.9863 110.552 92.0376 110.885 93.1004C111.059 93.6549 111.273 94.2902 110.699 94.787C110.512 94.9487 110.178 95.0758 109.924 95.0527C109.764 95.0527 109.537 94.7639 109.484 94.579C109.377 94.1978 109.377 93.805 109.324 93.4123H109.31Z" fill="black"/>
<path d="M104.984 86.2261C105.452 86.2261 105.705 86.4456 105.705 86.8383C105.705 87.1271 105.612 87.3697 105.198 87.3697C104.784 87.3697 104.277 87.0347 104.264 86.7575C104.264 86.4456 104.544 86.2376 104.984 86.2376V86.2261Z" fill="black"/>
<path d="M119.401 118.087C119.401 109.574 119.401 101.06 119.401 92.5341C119.401 90.5472 119.695 88.5717 120.91 86.8389C121.724 85.6722 122.592 84.5285 123.646 83.5235C124.394 82.8188 125.448 82.3336 126.409 81.8368C126.957 81.5596 127.21 81.213 127.21 80.7047C127.21 80.1618 127.17 79.6073 127.17 79.0643C127.17 72.7222 127.17 66.3801 127.184 60.038C127.184 59.6221 127.357 59.1716 127.571 58.8019C127.824 58.3513 128.332 58.2012 128.919 58.2012C131.695 58.2474 134.472 58.282 137.262 58.3051C137.689 58.3051 138.129 58.2243 138.543 58.282C139.397 58.4207 139.878 58.9521 139.905 59.7145C139.918 60.3037 139.878 60.9044 139.878 61.4935C139.878 67.6855 139.878 73.8659 139.878 80.0578C139.878 80.312 139.891 80.5546 139.918 80.8087C139.958 81.1784 140.158 81.4325 140.559 81.6058C142.548 82.4376 144.056 83.7083 145.124 85.3718C145.564 86.0534 145.965 86.7581 146.379 87.4512C147.34 89.0685 147.487 90.8244 147.487 92.5803C147.5 103.428 147.487 114.264 147.487 125.111C147.487 131.084 147.487 137.056 147.487 143.029C147.487 143.502 147.46 143.976 147.42 144.449C147.366 145.177 146.953 145.558 146.125 145.639C145.845 145.674 145.551 145.674 145.271 145.674C137.275 145.674 129.266 145.674 121.27 145.674C119.909 145.674 119.562 145.42 119.455 144.253C119.388 143.583 119.401 142.901 119.401 142.22C119.401 134.168 119.401 126.116 119.401 118.064V118.087ZM144.096 115.234C144.096 108.095 144.096 100.956 144.096 93.8164C144.096 92.5572 144.083 91.3327 143.669 90.0851C143.188 88.6179 142.534 87.2663 141.466 86.0765C140.465 84.979 139.184 84.1704 137.635 83.7314C136.741 83.4772 136.501 83.2231 136.447 82.3913C136.447 82.2527 136.447 82.1025 136.447 81.9639C136.447 77.0312 136.447 72.1099 136.447 67.1772C136.447 66.9808 136.447 66.7729 136.421 66.5765C136.341 66.0335 136.22 65.8718 135.58 65.8487C134.458 65.8025 133.337 65.7909 132.216 65.7909C130.881 65.7909 130.774 65.9064 130.774 67.0617C130.774 71.9136 130.774 76.7539 130.774 81.6058C130.774 81.9062 130.734 82.195 130.734 82.4953C130.708 83.2 130.187 83.5697 129.506 83.8238C126.877 84.7826 124.928 86.3537 123.82 88.6411C123.339 89.6345 122.979 90.6396 123.006 91.7717C123.072 94.2669 123.032 96.7622 123.032 99.2575C123.032 99.5001 123.019 99.7427 123.072 99.9621C123.099 100.078 123.259 100.251 123.379 100.262C124.581 100.39 125.755 100.701 126.983 100.574C127.397 100.528 127.838 100.574 128.251 100.574C129.867 100.551 131.482 100.505 133.097 100.494C134.071 100.494 135.032 100.563 136.007 100.574C136.848 100.586 137.035 100.725 137.035 101.441C137.035 109.516 137.035 117.591 137.035 125.677C137.035 126.89 137.008 128.103 137.021 129.305C137.021 129.824 136.955 129.94 136.341 129.94C135.406 129.94 134.472 129.94 133.551 129.94C130.441 129.94 127.33 129.94 124.22 129.94C123.232 129.94 123.086 130.067 123.086 130.818C123.086 133.382 123.072 135.947 123.059 138.512C123.059 138.708 123.086 138.916 123.112 139.112C123.139 139.366 123.313 139.494 123.606 139.494C124.18 139.494 124.754 139.494 125.328 139.494C128.719 139.494 132.123 139.494 135.513 139.494C138.023 139.494 140.532 139.494 143.028 139.494C143.882 139.494 144.136 139.239 144.136 138.489C144.136 130.737 144.136 122.974 144.136 115.223L144.096 115.234ZM135.954 115.407C135.954 115.407 135.98 115.407 135.994 115.407C135.994 111.318 135.994 107.24 135.994 103.151C135.994 102.896 135.94 102.631 135.887 102.377C135.793 102.007 135.5 101.81 135.086 101.753C134.859 101.718 134.619 101.718 134.392 101.718C131.282 101.718 128.171 101.718 125.061 101.718C124.527 101.718 123.993 101.753 123.459 101.776C123.192 101.776 123.072 101.903 123.072 102.134C123.059 102.769 122.992 103.416 122.992 104.052C122.992 111.953 122.992 119.843 122.992 127.745C122.992 128.022 123.032 128.288 123.046 128.565C123.059 128.854 123.259 128.993 123.58 129.004C124.087 129.039 124.594 129.085 125.101 129.085C128.251 129.085 131.402 129.085 134.552 129.085C135.553 129.085 135.967 128.75 135.994 127.861C136.007 127.306 135.954 126.74 135.954 126.185C135.954 122.593 135.954 118.989 135.954 115.396V115.407ZM133.324 142.717C136.501 142.717 139.678 142.717 142.855 142.717C143.949 142.717 144.149 142.486 144.043 141.538C144.043 141.527 144.043 141.515 144.043 141.504C143.989 141.088 143.736 140.926 143.268 140.972C142.855 141.018 142.427 141.053 142 141.053C136.047 141.053 130.08 141.053 124.127 141.053C123.019 141.053 122.979 141.111 123.006 142.012C123.019 142.67 123.046 142.717 123.833 142.717C126.997 142.717 130.16 142.717 133.324 142.717ZM133.444 61.2394C133.444 61.2394 133.444 61.274 133.444 61.2856C132.79 61.2856 132.136 61.2856 131.468 61.2856C131.121 61.2856 130.868 61.4242 130.854 61.7361C130.801 62.4061 130.761 63.0762 130.761 63.7577C130.761 64.3469 131.055 64.6242 131.735 64.6357C132.963 64.6588 134.192 64.6357 135.42 64.6011C136.06 64.578 136.381 64.2776 136.421 63.7115C136.447 63.1801 136.447 62.6487 136.421 62.1058C136.394 61.5282 136.087 61.2625 135.42 61.2394C134.766 61.2163 134.111 61.2394 133.457 61.2394H133.444Z" fill="black"/>
<path d="M144.097 115.234C144.097 122.985 144.097 130.748 144.097 138.5C144.097 139.251 143.843 139.493 142.989 139.505C140.479 139.505 137.97 139.505 135.474 139.505C132.083 139.505 128.679 139.505 125.289 139.505C124.715 139.505 124.141 139.505 123.567 139.505C123.273 139.505 123.1 139.378 123.073 139.124C123.046 138.927 123.02 138.719 123.02 138.523C123.02 135.958 123.02 133.394 123.046 130.829C123.046 130.078 123.193 129.951 124.181 129.951C127.291 129.94 130.401 129.951 133.511 129.951C134.446 129.951 135.38 129.951 136.301 129.951C136.915 129.951 136.995 129.836 136.982 129.316C136.982 128.103 136.995 126.89 136.995 125.689C136.995 117.614 136.995 109.539 136.995 101.452C136.995 100.736 136.809 100.597 135.968 100.586C134.993 100.574 134.032 100.493 133.058 100.505C131.442 100.505 129.827 100.563 128.212 100.586C127.785 100.586 127.358 100.551 126.944 100.586C125.716 100.701 124.541 100.401 123.34 100.274C123.22 100.262 123.06 100.089 123.033 99.9735C122.98 99.7424 122.993 99.4998 122.993 99.2688C122.993 96.7735 123.033 94.2783 122.966 91.783C122.94 90.6624 123.3 89.6459 123.78 88.6524C124.888 86.365 126.851 84.794 129.467 83.8351C130.148 83.581 130.668 83.2113 130.695 82.5066C130.695 82.2063 130.735 81.9175 130.735 81.6171C130.735 76.7652 130.735 71.9249 130.735 67.073C130.735 65.9178 130.842 65.8138 132.177 65.8022C133.298 65.8022 134.419 65.8022 135.54 65.86C136.181 65.8831 136.315 66.0448 136.381 66.5878C136.408 66.7842 136.408 66.9921 136.408 67.1885C136.408 72.1213 136.408 77.0425 136.408 81.9752C136.408 82.1139 136.408 82.264 136.408 82.4027C136.461 83.2344 136.702 83.4886 137.596 83.7427C139.158 84.1817 140.426 84.9788 141.427 86.0878C142.508 87.2661 143.149 88.6293 143.63 90.0964C144.043 91.344 144.057 92.5801 144.057 93.8277C144.057 100.967 144.057 108.106 144.057 115.245L144.097 115.234ZM140.012 93.4118C140.066 93.8046 140.066 94.1974 140.172 94.5786C140.226 94.7634 140.453 95.0407 140.613 95.0523C140.866 95.0638 141.2 94.9483 141.387 94.7866C141.961 94.2898 141.747 93.6544 141.574 93.0999C141.254 92.0487 140.866 90.9975 140.386 89.9809C140.106 89.3917 139.612 88.8834 139.158 88.3636C139.051 88.248 138.677 88.2134 138.517 88.2827C138.384 88.3405 138.304 88.6293 138.33 88.8025C138.357 89.0105 138.504 89.23 138.624 89.4148C139.438 90.6509 140.079 91.9447 139.999 93.4118H140.012ZM135.687 86.2264C135.233 86.2264 134.953 86.4344 134.966 86.7463C134.966 87.0235 135.487 87.3585 135.901 87.3585C136.301 87.3585 136.395 87.1159 136.408 86.8271C136.408 86.4344 136.154 86.2149 135.687 86.2149V86.2264Z" fill="#ED4E11"/>
<path d="M135.957 115.408C135.957 119 135.957 122.605 135.957 126.197C135.957 126.752 136.011 127.318 135.997 127.872C135.971 128.762 135.557 129.097 134.556 129.097C131.406 129.097 128.255 129.097 125.105 129.097C124.598 129.097 124.091 129.039 123.583 129.016C123.263 128.993 123.076 128.866 123.049 128.577C123.036 128.3 122.996 128.034 122.996 127.757C122.996 119.855 122.996 111.965 122.996 104.064C122.996 103.428 123.049 102.781 123.076 102.146C123.076 101.915 123.196 101.788 123.463 101.788C123.997 101.776 124.531 101.742 125.065 101.73C128.175 101.73 131.285 101.73 134.396 101.73C134.623 101.73 134.863 101.73 135.09 101.765C135.504 101.822 135.797 102.03 135.891 102.388C135.957 102.643 135.997 102.908 135.997 103.162C135.997 107.252 135.997 111.33 135.997 115.419C135.984 115.419 135.971 115.419 135.957 115.419V115.408Z" fill="#ED4E11"/>
<path d="M133.337 142.728C130.173 142.728 127.01 142.728 123.846 142.728C123.058 142.728 123.032 142.682 123.018 142.023C122.992 141.111 123.045 141.065 124.14 141.065C130.093 141.065 136.06 141.065 142.013 141.065C142.44 141.065 142.854 141.018 143.281 140.984C143.748 140.938 144.002 141.099 144.055 141.515C144.055 141.527 144.055 141.538 144.055 141.55C144.162 142.509 143.962 142.728 142.867 142.728C139.69 142.74 136.514 142.728 133.337 142.728Z" fill="#ED4E11"/>
<path d="M133.446 61.251C134.1 61.251 134.755 61.2279 135.409 61.251C136.076 61.2741 136.383 61.5398 136.41 62.1174C136.436 62.6488 136.436 63.1802 136.41 63.7231C136.383 64.2892 136.063 64.5896 135.409 64.6127C134.181 64.6473 132.952 64.6704 131.724 64.6473C131.044 64.6473 130.763 64.3585 130.75 63.7694C130.75 63.0993 130.79 62.4178 130.843 61.7477C130.87 61.4358 131.11 61.2972 131.457 61.2972C132.112 61.2972 132.766 61.2972 133.433 61.2972C133.433 61.2856 133.433 61.2625 133.433 61.251H133.446Z" fill="#ED4E11"/>
<path d="M140.012 93.4123C140.092 91.9451 139.438 90.6629 138.637 89.4152C138.517 89.2188 138.37 89.0109 138.343 88.803C138.316 88.6297 138.396 88.3409 138.53 88.2831C138.703 88.2138 139.077 88.2485 139.171 88.364C139.624 88.8723 140.118 89.3921 140.399 89.9813C140.879 90.9863 141.253 92.0376 141.587 93.1004C141.76 93.6549 141.974 94.2902 141.4 94.787C141.213 94.9487 140.879 95.0758 140.626 95.0527C140.465 95.0527 140.238 94.7639 140.185 94.579C140.078 94.1978 140.078 93.805 140.025 93.4123H140.012Z" fill="black"/>
<path d="M135.69 86.2261C136.157 86.2261 136.41 86.4456 136.41 86.8383C136.41 87.1271 136.317 87.3697 135.903 87.3697C135.489 87.3697 134.982 87.0347 134.969 86.7575C134.969 86.4456 135.249 86.2376 135.69 86.2376V86.2261Z" fill="black"/>
</g>
<defs>
<filter id="filter0_d_756_2943" x="0.599998" y="0.80117" width="204.292" height="202.273" filterUnits="userSpaceOnUse" color-interpolation-filters="sRGB">
<feFlood flood-opacity="0" result="BackgroundImageFix"/>
<feColorMatrix in="SourceAlpha" type="matrix" values="0 0 0 0 0 0 0 0 0 0 0 0 0 0 0 0 0 0 127 0" result="hardAlpha"/>
<feOffset/>
<feGaussianBlur stdDeviation="28.7"/>
<feComposite in2="hardAlpha" operator="out"/>
<feColorMatrix type="matrix" values="0 0 0 0 0.929412 0 0 0 0 0.305882 0 0 0 0 0.0666667 0 0 0 0.2 0"/>
<feBlend mode="normal" in2="BackgroundImageFix" result="effect1_dropShadow_756_2943"/>
<feBlend mode="normal" in="SourceGraphic" in2="effect1_dropShadow_756_2943" result="shape"/>
</filter>
</defs>
</svg>
