<svg width="206" height="150" viewBox="0 0 195 150" fill="none" xmlns="http://www.w3.org/2000/svg">
<g filter="url(#filter0_d_3346_12)">
<path d="M84.0005 44.8651C83.995 44.2609 84.4632 43.844 84.9866 44.0252C85.196 44.0977 85.3722 44.2851 85.5623 44.421C85.8047 44.5932 86.0499 44.7624 86.2895 44.9437C86.8377 45.3545 87.3831 45.7684 87.9285 46.1793C88.1626 46.3576 88.3968 46.5328 88.6337 46.708C88.9505 46.9467 89.0083 47.2851 88.967 47.6808C88.9257 48.0796 88.6667 48.2699 88.383 48.3848C88.2398 48.4422 88.0084 48.3848 87.8679 48.2851C87.3418 47.9225 86.8322 47.5328 86.3253 47.14C85.6753 46.6355 85.0334 46.1189 84.3944 45.5962C84.1768 45.418 83.9894 45.1974 84.0005 44.8621V44.8651Z" fill="#ED4E11"/>
<path d="M102.473 45.8591C102.655 45.714 102.831 45.56 103.018 45.424C103.487 45.0856 103.958 44.7594 104.429 44.424C104.611 44.2941 104.77 44.0977 104.969 44.0343C105.387 43.8983 105.701 44.0705 105.869 44.4452C106.054 44.8591 105.977 45.2881 105.624 45.5811C105.189 45.9437 104.732 46.279 104.283 46.6234C103.575 47.1642 102.861 47.6959 102.162 48.2458C101.586 48.6959 101.041 48.1974 100.966 47.56C100.928 47.2307 101.024 46.9708 101.286 46.7775C101.691 46.4784 102.082 46.1642 102.481 45.856L102.484 45.847L102.476 45.8591H102.473Z" fill="#ED4E11"/>
<path d="M90.7935 39.0042C91.0882 38.9649 91.259 39.2096 91.4078 39.4604C91.551 39.699 91.6584 39.9649 91.7714 40.2247C92.1102 40.9951 92.4407 41.7715 92.7823 42.5419C92.9751 42.974 93.1817 43.3939 93.3856 43.8199C93.5426 44.1492 93.504 44.6598 93.3084 44.8924C93.0936 45.1431 92.7851 45.2126 92.438 45.0314C92.2975 44.9589 92.1625 44.8138 92.0854 44.6628C91.8926 44.2972 91.7383 43.9045 91.5593 43.5299C91.1626 42.7021 90.7577 41.8773 90.3638 41.0495C90.1737 40.6507 90.0084 40.2428 90.0332 39.7715C90.058 39.3335 90.3638 39.0042 90.7963 39.0072L90.7935 39.0042Z" fill="#ED4E11"/>
<path d="M96.8618 44.2758C96.9142 44.1157 96.961 43.9495 97.0243 43.7924C97.3246 43.0553 97.6193 42.3181 97.9334 41.587C98.1647 41.0432 98.4264 40.5145 98.6606 39.9707C98.8038 39.6444 98.9195 39.3151 99.2308 39.1127C99.6357 38.8498 100.239 39.1066 100.286 39.6232C100.311 39.8952 100.269 40.2093 100.167 40.4571C99.8395 41.2426 99.4594 42.0009 99.1206 42.7834C98.8809 43.3393 98.6991 43.9314 98.443 44.4782C98.33 44.7199 98.1262 44.9586 97.9086 45.0794C97.5147 45.3 96.8536 44.9888 96.8646 44.2758H96.8618Z" fill="#ED4E11"/>
<path d="M97.3549 52.6899C96.8398 52.7443 96.6111 52.2276 96.5946 51.711C96.5808 51.2518 96.9582 50.8228 97.3521 50.8258C97.8149 50.8258 98.2115 51.2548 98.2115 51.7503C98.2115 52.2881 97.8452 52.6929 97.3549 52.6899Z" fill="#ED4E11"/>
<path d="M94.3052 52.7352C94.3052 52.995 94.1345 53.1672 93.87 53.1732C93.545 53.1823 93.3659 52.9618 93.3769 52.572C93.3797 52.427 93.6524 52.2186 93.8425 52.2155C94.0959 52.2155 94.3052 52.4482 94.3052 52.7352Z" fill="#ED4E11"/>
<path d="M102.473 45.858L102.484 45.847L102.478 45.8553L102.473 45.858Z" fill="#ED4E11"/>
</g> 
<g filter="url(#filter1_d_3346_12)">
<path d="M54.4192 62.4638C56.3172 58.0106 58.6172 52.639 60.8925 47.2553C61.9035 44.8596 62.5508 44.5454 64.7958 45.5061C67.7046 46.7508 70.6713 48.4759 73.2413 49.8596C75.9353 51.4366 82.2185 54.8777 84.8133 56.3369C84.8133 56.3369 91.6557 60.1405 93.4214 61.4336C94.4792 62.1798 94.8235 63.5846 94.1652 64.8807C90.441 72.2342 86.6782 79.5635 82.9705 86.926C81.4858 89.8747 80.1195 92.8958 78.6596 95.8596C78.1417 96.9079 77.5385 97.9109 76.9104 98.8807C76.1309 100.086 74.558 100.563 73.2523 99.8596C68.0104 97.0257 62.5232 94.7599 57.4162 91.6118C54.1052 89.5726 50.7501 87.6058 47.497 85.4578C45.8745 84.3852 45.6211 82.6904 46.4943 80.6783C48.9927 74.9079 51.5104 69.1466 54.4192 62.4638Z" fill="#ED4E11"/>
<path d="M94.2977 60.2161C96.003 61.4277 96.4687 63.6579 95.5026 65.5599L94.2977 60.2161ZM94.2977 60.2161C93.328 59.5081 91.1012 58.1935 89.204 57.1006C88.2329 56.5412 87.318 56.0228 86.6461 55.6444C86.3101 55.4552 86.0345 55.3008 85.8428 55.1936L85.6209 55.0697L85.5626 55.0372L85.5486 55.0295C85.5475 55.0289 85.5465 55.0283 85.5454 55.0277L85.5436 55.0267L85.5425 55.0261L85.5423 55.0259L94.2977 60.2161ZM65.3859 44.127C65.3859 44.127 65.3859 44.1271 65.3859 44.1271L64.7959 45.5057L65.3859 44.127ZM65.3859 44.127C64.3177 43.6699 63.0009 43.1941 61.7619 43.7559C61.1376 44.039 60.6993 44.5106 60.3712 44.9951C60.0491 45.4707 59.7738 46.0484 59.5108 46.6714L65.3859 44.127ZM80.0052 96.5224L80.0045 96.5239C79.4514 97.6436 78.8146 98.6998 78.17 99.6953C76.9961 101.51 74.5829 102.281 72.5405 101.18L72.539 101.179C70.515 100.085 68.4599 99.0795 66.373 98.0586C65.7913 97.774 65.207 97.4882 64.6203 97.1989C61.947 95.8808 59.2461 94.5018 56.6296 92.889C55.6873 92.3087 54.734 91.7298 53.7758 91.148C51.4054 89.7086 49.0056 88.2514 46.6704 86.7095L46.6698 86.7091C45.5605 85.9758 44.8292 84.9534 44.5872 83.7061C44.3542 82.5047 44.6064 81.2612 45.1178 80.0823C46.8456 76.0916 48.5831 72.1043 50.4519 67.8156C51.2854 65.9028 52.1451 63.9301 53.0416 61.8704C53.5239 60.7388 54.0319 59.5485 54.5586 58.3142C56.1057 54.6891 57.8148 50.6845 59.5105 46.6722L80.0052 96.5224ZM80.0052 96.5224C80.6771 95.1583 81.3062 93.8321 81.9298 92.5174C82.7075 90.8778 83.4767 89.2561 84.3102 87.6007C86.4826 83.2869 88.6704 78.9913 90.8602 74.692M80.0052 96.5224L90.8602 74.692M90.8602 74.692C92.4083 71.6525 93.9573 68.611 95.5025 65.56L90.8602 74.692Z" stroke="black" stroke-width="3"/>
</g>
<path d="M64.7164 84.2343C60.9123 82.1195 57.1 80.0228 53.3097 77.8808C51.6156 76.9262 51.1859 75.5878 51.88 73.6482C55.0065 64.9262 57.8795 56.0923 61.5514 47.615C62.3227 45.8355 62.9066 45.5848 64.5649 46.479C69.5369 49.1618 74.5145 51.8416 79.459 54.5848C83.7065 56.9382 87.9128 59.3763 92.1411 61.7751C94.0996 62.8839 94.1822 63.7932 92.7746 66.3098C90.8381 69.7721 89.0256 73.3189 87.0781 76.7721C84.61 81.1497 82.0731 85.479 79.5333 89.8083C78.8695 90.9413 77.4371 91.3098 76.3408 90.7056C72.4595 88.5606 68.5894 86.4005 64.7137 84.2464C64.7137 84.2434 64.7164 84.2373 64.7192 84.2343H64.7164Z" fill="black"/>
<path d="M71.3705 86.115C65.7016 82.964 60.0354 79.8099 54.3665 76.6618C52.9479 75.8733 52.7137 75.3114 53.2977 73.1513C53.7853 71.3476 54.3059 69.544 55.1323 67.8763C55.4793 67.1754 56.1239 66.8492 56.7024 67.0667C59.4735 68.106 62.4154 68.8643 64.6741 71.0274C66.685 72.9519 68.5003 75.1331 70.3321 77.2691C71.9958 79.2087 73.9681 80.2631 76.3922 80.5712C78.1193 80.7918 79.8436 80.973 81.579 81.0969C83.039 81.1996 83.353 81.7827 82.5845 83.115C81.4303 85.112 80.4634 87.2782 78.706 88.7706C78.0559 89.3235 77.3563 89.4081 76.5684 88.9428C74.8661 87.9398 73.128 87.0123 71.4036 86.0546C71.3953 86.0727 71.3871 86.0939 71.3761 86.112L71.3705 86.115Z" fill="#ED4E11"/>
<g filter="url(#filter2_d_3346_12)">
<path d="M140.081 62.4638C138.183 58.0106 135.883 52.639 133.608 47.2553C132.597 44.8596 131.95 44.5454 129.705 45.5061C126.796 46.7508 123.829 48.4759 121.259 49.8596C118.565 51.4366 112.282 54.8777 109.687 56.3369C109.687 56.3369 102.845 60.1405 101.079 61.4336C100.021 62.1798 99.6769 63.5846 100.335 64.8807C104.059 72.2342 107.822 79.5635 111.53 86.926C113.015 89.8747 114.381 92.8958 115.841 95.8596C116.359 96.9079 116.962 97.9109 117.59 98.8807C118.37 100.086 119.942 100.563 121.248 99.8596C126.49 97.0257 131.977 94.7599 137.084 91.6118C140.395 89.5726 143.75 87.6058 147.003 85.4578C148.626 84.3852 148.879 82.6904 148.006 80.6783C145.508 74.9079 142.99 69.1466 140.081 62.4638Z" fill="#ED4E11"/>
<path d="M120.524 48.5515L120.548 48.5388C121.081 48.2519 121.639 47.9454 122.217 47.6283C124.356 46.4541 126.76 45.1347 129.114 44.1271C130.183 43.6699 131.499 43.1941 132.738 43.7559C133.363 44.039 133.801 44.5106 134.129 44.9951C134.451 45.4707 134.727 46.0484 134.99 46.6714C136.685 50.6841 138.395 54.6891 139.942 58.3144C140.469 59.5487 140.977 60.739 141.459 61.8706C142.355 63.9303 143.215 65.903 144.049 67.8158C145.917 72.104 147.654 76.0909 149.382 80.0811L120.524 48.5515ZM120.524 48.5515L120.501 48.5651M120.524 48.5515L120.501 48.5651M120.501 48.5651C118.718 49.6087 115.364 51.4679 112.543 53.0317C111.121 53.8202 109.834 54.5335 108.952 55.0295L109.687 56.3369M120.501 48.5651L114.496 96.5239M114.496 96.5239L114.495 96.5224C113.823 95.1583 113.194 93.8321 112.571 92.5174C111.793 90.8778 111.024 89.256 110.19 87.6006C108.018 83.2868 105.83 78.9912 103.64 74.6919C102.092 71.6518 100.543 68.6099 98.9971 65.5584C98.032 63.6567 98.4979 61.4273 100.203 60.216C101.173 59.508 103.399 58.1934 105.296 57.1006C106.268 56.5412 107.182 56.0228 107.854 55.6444C108.19 55.4552 108.466 55.3008 108.658 55.1936L108.879 55.0697L108.938 55.0372L108.953 55.0288L108.957 55.0267L108.958 55.0261L108.958 55.0259C108.958 55.0259 108.958 55.0259 109.687 56.3369M114.496 96.5239C115.049 97.6436 115.686 98.6998 116.33 99.6953L114.496 96.5239ZM109.687 56.3369C109.687 56.3369 102.845 60.1405 101.079 61.4336M109.687 56.3369C110.551 55.851 111.824 55.1454 113.237 54.362L101.079 61.4336M101.079 61.4336C100.021 62.1798 99.6769 63.5846 100.335 64.8807C101.877 67.9248 103.425 70.9648 104.974 74.0047L101.079 61.4336ZM147.831 86.7091L147.83 86.7095C145.495 88.2514 143.095 89.7087 140.724 91.148C139.766 91.7297 138.813 92.3085 137.871 92.8887C137.871 92.8888 137.871 92.8889 137.871 92.889L137.084 91.6118L147.831 86.7091ZM147.831 86.7091C148.94 85.9758 149.671 84.9534 149.913 83.7061M147.831 86.7091L149.913 83.7061M149.913 83.7061C150.146 82.5047 149.894 81.2612 149.383 80.0823L149.913 83.7061ZM121.96 101.18L121.961 101.179L116.331 99.6961C117.505 101.511 119.918 102.281 121.96 101.18Z" stroke="black" stroke-width="3"/>
</g>
<path d="M129.784 84.2338C133.588 82.119 137.4 80.0223 141.19 77.8803C142.885 76.9257 143.314 75.5873 142.62 73.6477C139.494 64.9257 136.621 56.0918 132.949 47.6145C132.177 45.835 131.593 45.5843 129.935 46.4785C124.963 49.1613 119.986 51.8411 115.041 54.5843C110.794 56.9378 106.587 59.3758 102.359 61.7746C100.401 62.8834 100.318 63.7927 101.725 66.3094C103.662 69.7716 105.474 73.3184 107.422 76.7716C109.89 81.1492 112.427 85.4785 114.967 89.8078C115.631 90.9408 117.063 91.3094 118.159 90.7051C122.041 88.5601 125.911 86.4 129.786 84.2459C129.786 84.2429 129.784 84.2368 129.781 84.2338H129.784Z" fill="black"/>
<path d="M123.669 86.678C129.338 83.5269 135.004 80.3729 140.673 77.2248C142.092 76.4363 142.326 75.8744 141.742 73.7143C141.254 71.9106 140.734 70.107 139.907 68.4393C139.56 67.7384 138.916 67.4121 138.337 67.6297C135.566 68.6689 132.624 69.4272 130.366 71.5904C128.355 73.5149 126.539 75.6961 124.708 77.8321C123.044 79.7717 121.072 80.826 118.648 81.1342C116.92 81.3547 115.196 81.536 113.461 81.6599C112.001 81.7626 111.687 82.3457 112.455 83.678C113.609 85.675 114.576 87.8411 116.334 89.3336C116.984 89.8865 117.683 89.9711 118.471 89.5058C120.174 88.5028 121.912 87.5753 123.636 86.6176C123.644 86.6357 123.653 86.6569 123.664 86.675L123.669 86.678Z" fill="#ED4E11"/>
<defs>
<filter id="filter0_d_3346_12" x="41.4" y="0.400002" width="107.166" height="99.3735" filterUnits="userSpaceOnUse" color-interpolation-filters="sRGB">
<feFlood flood-opacity="0" result="BackgroundImageFix"/>
<feColorMatrix in="SourceAlpha" type="matrix" values="0 0 0 0 0 0 0 0 0 0 0 0 0 0 0 0 0 0 127 0" result="hardAlpha"/>
<feOffset dy="4"/>
<feGaussianBlur stdDeviation="21.3"/>
<feComposite in2="hardAlpha" operator="out"/>
<feColorMatrix type="matrix" values="0 0 0 0 0.929412 0 0 0 0 0.305882 0 0 0 0 0.0666667 0 0 0 0.2 0"/>
<feBlend mode="normal" in2="BackgroundImageFix" result="effect1_dropShadow_3346_12"/>
<feBlend mode="normal" in="SourceGraphic" in2="effect1_dropShadow_3346_12" result="shape"/>
</filter>
<filter id="filter1_d_3346_12" x="0.399513" y="3.40134" width="139.699" height="146.39" filterUnits="userSpaceOnUse" color-interpolation-filters="sRGB">
<feFlood flood-opacity="0" result="BackgroundImageFix"/>
<feColorMatrix in="SourceAlpha" type="matrix" values="0 0 0 0 0 0 0 0 0 0 0 0 0 0 0 0 0 0 127 0" result="hardAlpha"/>
<feOffset dy="4"/>
<feGaussianBlur stdDeviation="21.3"/>
<feComposite in2="hardAlpha" operator="out"/>
<feColorMatrix type="matrix" values="0 0 0 0 0.929412 0 0 0 0 0.305882 0 0 0 0 0.0666667 0 0 0 0.2 0"/>
<feBlend mode="normal" in2="BackgroundImageFix" result="effect1_dropShadow_3346_12"/>
<feBlend mode="normal" in="SourceGraphic" in2="effect1_dropShadow_3346_12" result="shape"/>
</filter>
<filter id="filter2_d_3346_12" x="0.599998" y="0.273827" width="212.222" height="204.54" filterUnits="userSpaceOnUse" color-interpolation-filters="sRGB">
<feFlood flood-opacity="0" result="BackgroundImageFix"/>
<feColorMatrix in="SourceAlpha" type="matrix" values="0 0 0 0 0 0 0 0 0 0 0 0 0 0 0 0 0 0 127 0" result="hardAlpha"/>
<feOffset dy="4"/>
<feGaussianBlur stdDeviation="21.3"/>
<feComposite in2="hardAlpha" operator="out"/>
<feColorMatrix type="matrix" values="0 0 0 0 0.929412 0 0 0 0 0.305882 0 0 0 0 0.0666667 0 0 0 0.2 0"/>
<feBlend mode="normal" in2="BackgroundImageFix" result="effect1_dropShadow_3346_12"/>
<feBlend mode="normal" in="SourceGraphic" in2="effect1_dropShadow_3346_12" result="shape"/>
</filter>
</defs>
</svg>
 